<svg xmlns="http://www.w3.org/2000/svg" xmlns:xlink="http://www.w3.org/1999/xlink" viewBox="0 0 1086.65 209.04"><defs><style>.cls-1,.cls-3{fill-rule:evenodd;}.cls-1{fill:url(#linear-gradient);}.cls-2,.cls-3{fill:#2a1000;}</style><linearGradient id="linear-gradient" x1="13.97" y1="46.16" x2="185.95" y2="166.59" gradientUnits="userSpaceOnUse"><stop offset="0" stop-color="#4fb3be"/><stop offset="1" stop-color="#58ae80"/></linearGradient></defs><title>Horizontal White BG</title><g id="Lag_2" data-name="Lag 2"><g id="Horizontal_Logos" data-name="Horizontal Logos"><g id="White_BG" data-name="White BG"><g id="Logo"><path class="cls-1" d="M94.31.2c-.21-.53-.92.19,0,0ZM162.2,101.26c-.3-.48-.84-1.16-1.15-1.64,3.37,5.54,6.67,11.19,11.4,15.7C169.2,111,165.27,106.11,162.2,101.26ZM161,99.52a.56.56,0,0,1-.05-.08.87.87,0,0,0,.11.18Zm11.63,59.91c3.82-.6,6.94-3.44,9.9-4.52,0-.09.14-.19.18,0,.42-.55,1.26-.84,1.9-1.38,1-.82,1.68-2.11,2.78-3.13a65.55,65.55,0,0,0,6.77-6.59,38.24,38.24,0,0,0,2.78-4.7c.46-.76,1.1-1.48,1.57-2.26a19.31,19.31,0,0,1,2.43-3.81c-1.17.22.45-1.72.69-1.91s.67,0,1-.18.69-.48,1.05-.69a19.3,19.3,0,0,1,3.29-1.91c-.29,0-.42-.19,0-.17a22.9,22.9,0,0,1,6.08-3.83,18.42,18.42,0,0,0,5.73-4.86c-1.32.59-1.83,1.68-3.3,2.78-.63.48-.13-.21-.69.17a17.17,17.17,0,0,0-1.22,1.22c2.48-1.74-1.19,1.06-1.56.69,0,0,2.44-2.1,2.61-2.25a31.25,31.25,0,0,0,6.41-7.64c-1.07.91-1.25,1.64-2.25,2.6-.71.7,1.93-3.07,1-3-.17,0-.37,1-.51,1.21s-.55.2-.7.35c.05,0-.53.94-.7.69-.29-.41,2.63-4.79,2.78-5.2.24-.68-.24.06,0-.87.13-.48,1.06-2.8,0-1-.28.48-.92,1.94-1,2.25-.11.65.59-1,.69-.52s-.59,1.15-1.21,2.26c-.77,1.35-1.5,2.8-2.43,3.3,0,.21-.26.11,0,0,.86-1.79,2.23-3.1,3-5-.5.2-.88,1.56-1.22,1.92-.17.18-.54.13-.69.34s-.22.9-.52,1.22-.9.35-1.22.69c-.48.54-.57,1.45-1.21,2.08,0,0-.35.52-.35.52-.15.08-.57-.11-.69,0a9.68,9.68,0,0,1-1.57,1.74c-.54.38-1.78,1.18-1,.18.44-.58-.13-.59-.18-.53.57-.91,2-1.44,3.13-2.42,0,0,2.77-2.65,2.09-3a2.39,2.39,0,0,1-.7.87c-.16,0-.56-.1-.69,0-.62.49-.91,1.29-1.4,1.74a10.45,10.45,0,0,1-1.73,1.38c.07,0-.51-.24-.7-.17s-3.2,2.89-1.9.17c-.45.85-.82,2-2.09,2.26-1.47.36-.37-1.62-.52-2.6,0-.1-.28.92-.52.52s.3-1.16.35-1.73-.2-.62-.17-1.22c.06-1.68,1-4.64,1.21-7.64.12-1.83.09-3.61.35-5.73-.09.73.69-2.86.17-2.78.21,0-.69,3.28-.69,3.29-.45,1.13-.18-2.68-.18-3.64,0-.08,0-5.33-.34-3-.16,1.21-.12,4-.18,5.21,0,.82.23,2.62-.17,2.78a21.3,21.3,0,0,1-.17-3c.26-6.36.19-12-1.22-18a44.57,44.57,0,0,0-2.08-7.47,39.67,39.67,0,0,0-3.31-5.73c-.57-.89-1.09-2-1.73-2.78a18.25,18.25,0,0,0-1.91-2.43c-.2-.15-.23.42-.52.35-.67-.18-1.58-1.8-2.26-2.26s-1.9-.82-3-1.39a36,36,0,0,0-9.37-3.13c-1.58-.23-2,0-.53.52.14.06,1.29,0,1.05.52-.35.68-2.33-.16-2.78-.16-1.63,0-5.41.58-8.16.86a71.94,71.94,0,0,0-7.47.87c-.85.18-1.72.43.35.35.2-.53.92.19,0,0-3.74,1.22-6.72,1.55-10.25,2.95-.76.3-1.64,1.06-2.09.87,0,0-1.4-3-1.56-3.3-3.3-6.2-6.41-11.65-9.89-18.23-.43-.8-.66-1.46-1.22-2.44-.91-1.58.27,1.44.52,1.92.88,1.67,1.61,2.9,2.43,4.51,1.12,2.19,2.16,4,3.3,6.25,1.59,3.2,3.51,6.24,5.38,9.9,0,0,1.16,1.39.53,1.73S149,63.72,149,63.75c-2.58-5-5.52-10-8-14.58-3.17-5.86-5.42-11.28-9.2-16.67a16.27,16.27,0,0,0,1.39,2.6c.2.36,1.61,2.38,1.39,2.6-.06.06-1.22-1.5-.7-.69-2.45-3.8-5.19-8.44-7.64-12a80.2,80.2,0,0,0-9.56-11.29c1.15,1.81,2.93,3,4,4.86.87.23.13,1,0,0-7.57-7.36-14.86-15-26.39-18.4,4.84,1.93,9.45,4.09,13,7.29.21,0,.11.26,0,0-4.41-2.2-9.18-5.32-14.93-6.42A18.85,18.85,0,0,0,87,.55c.18,0,.82.12.7.17-.7.29-5.71.1-7.12.35s0,.24,1,.17c.48,0,4.52,0,4.17.35.19-.19-2-.06-2.91,0a7.25,7.25,0,0,1,2.39.36,20.09,20.09,0,0,1-2.09,0c-5.9.54-11.52,3.6-17.53,4.68.09,0,.2.14,0,.18-.64.38-2,.79-3.13,1.39a14.92,14.92,0,0,1-2.6,1.56c-.53.15-1.06,0-1.57.17-.12.05-.19.34-.52.52-.69.39-1.82.77-3.12,1.39-.59.28-1.57.77-2.26,1.05.37-.14-.69.37-.87.16,0,0,1.89-1.23,1.39-1.21-1.34,0-4.24,2.63-5.73,3.13,0,0-1.25.33-1.39.17s1.74-.88,1.22-1.21c-2,.58-2.64,2.45-4.52,3.29-1.15.52-6.28,2.94-2.78.35a9,9,0,0,0,1.39-1,6,6,0,0,0-1.21.17c-1.33.54-3.13,2.73-4.34,3.83-1.47,1.32-3,2.36-4.17,3.64,2.43-.72-.38.65-1,1.22s-.92,1.51-1.22,1.56c1.61-.85,0,.64-.69.87C22,34.36,16.59,41.14,12.87,51.08A160.58,160.58,0,0,0,5.75,75.56s-.51,1.57-.52,1.56c-.24-.23.27-1.77.35-2.26C5.87,72.93,6.87,69,7,67.75c0-.21-.29.11-.34-.35,0,0,.5-1.65.17-1.57S5.58,70.39,5.05,73c-1.62,8-2,15.65-2.43,24.13-.27,5.8-.43,11.44-.17,17,.28,6.1,1.54,12.45,2.08,17.71,0,.13-.19.4-.17.7a67,67,0,0,0,1.39,7.81c1.11,6,2.85,11.76,4.17,17.88.21,0,.1.26,0,0-4.11-11-7-28.42-7.82-43.06-.18-3.5-.22-7.49-.34-11.46,0,0,.07-2.16-.35-1.73s0,1.66,0,2.08c0,.59,0,8.39-.17,4.69,0-.15-.06-1-.18-.7-.53,1.5.2,7.53.35,9.55.05.8.05,1.91.17,2.78.34,2.36.21-1.24.18-2.43-.69-.83.29-2.49,0-2.78.59.6-.41,1.67,0,2.78.51,3.26.65,8.77,1,10.94,0-.25.14,0,.17.17a23.14,23.14,0,0,1,.17,3.65c0,.38.33.24.35.52s-.38.4-.35.69c.14,1.13.91,2.68,1.05,3.48,0,.11-.2.29-.18.52s.34.11.35.35c.31,4.72,1.78,10.15,3.13,14.93.66,2.37,1.28,4.47,2.25,7.29s1.48,3.84,2.26,6.08c.69,2-.83-.68-1.21-1.39a74,74,0,0,0,13.72,25.18,26.25,26.25,0,0,1,2.42,2.95c.2.34.16.78.35,1s1.08,1,1.39,1.39c-.05-.07.5.86.35.87-.63,0-1.06-1.4-1.91-1.56,6.39,7,17,15.08,32.47,13.89a40.72,40.72,0,0,0,14.58-4,25.21,25.21,0,0,0,4-2.08,5,5,0,0,1,.35-.69c.36-.4,1.11-.58,1.39-.87s.5-1.26.87-1.74,1.1-.63,1-1.74c-1-.93,1.54-1.66,2.78-2.6.39-.3,2-1.92,1.57-2.95-.06-.13-.59-.19-.52-.35a10.77,10.77,0,0,0,2.6-1.91c-.54-.62-1,1.41-1.91.69-.15-.11.83-.76.17-.86.05,0-2.54,1.26-2.6,1-.21-.79,2.87-1.38,3.12-2.09-1,.18.4-.54.18-.69s-3.32,2.14-1.39.52A9,9,0,0,0,87.54,187c0,.06-1,.39-.87-.35.08-.47,1.47-.33,2.08-1.21.06-.08-.06-.67,0-.87-.06.18.64-.46.18-.7,0,0-.65.53-.71.43-.06.09-.2,0,0-.08.33-.55.46-.32.52-.87,0-.34-.41-.87-.34-1s.47-.22.69-.52A12.23,12.23,0,0,0,91,179.4c-2.07-.53-3,1.19-4.69,1.56,0,.52-.72-.16,0,0,1.32-.84-.64-.7,1-1a.18.18,0,0,1,.35,0c.2,0,.31,0,.35-.17-.21,0-.11-.25,0,0,.25-.16,1.82-1.08,1.38-1.22-.19-.06-1.37,1.15-1.73.87-.12-.1.77-.61.17-.87-1.31.14.67-.78,0,0a3,3,0,0,0,1.91-1.73c-.33-.13-2.35,1.37-2.43,1-.18-.81,2.43-1.4,3.3-1.91.18-.1,1-.53.87-.87-.27-.7-1.8.72-1.74.69s-.35-.23-.52-.17c-.84.31-1.75,1.32-2.08.7-.46-.86,1.52-1.05,2.08-1.39.32-.2.46-.67.7-.87,1.12-1,2-1.09.17-1.74,0,.52-.72-.16,0,0,.44-1.35-.31-.48-1.39.17-1.91,1.15-4.36,2.62-6.42,3.65-.46.23-5.21,2.46-4,.7.42-.62,1.22-1.94,1.74-2.78.19-.31.57-.46.7-.69.2-.39,0-.87.17-1.05s1.08-.86,1.39-1.39c0,0,.11-1.11.52-.87s-.25,2.78.52,1a15.11,15.11,0,0,1,2.43-4.51c0-.05.34-.36.52-.52a7.37,7.37,0,0,0,2.09-3.64c.58-1.76,1.19-4.69,2.08-6.26.13-.23.59-.32.69-.52.58-1.14.75-2.58,1.39-3.82s1.38-2.12,1.91-3.3c2.1-4.68,4.45-9.56,6.6-14.24,1.09-2.37,2-4.8,3.13-7.12a127.06,127.06,0,0,1,7.29-13.37c1.19-1.88,2.81-4,4.34-6.08s2.83-4.63,4.34-5.9c.48-.4.77-.57,1-.52.5.1,2,3.14,2.43,4,4,7,7.84,13.22,11.81,20.13,1.3,2.27,3.06,4.35,4.52,6.61,1.75,2.69,4,5.31,5.9,8.15.1,0,.2,0,.17.18,1.21,1.15,2.89,2.69,4.17,3.82,1.11,1-.22.17-.87-.34a17.54,17.54,0,0,1-3.3-3.48c-.1,0-.2,0-.17-.18-1.23-.38-1.66-2.06-2.77-2.77-.28-.18-.45.17-.87,0-.72-.29-2.85-3-3.48-3.82-2.06-2.59-3.77-5.22-5.9-7.64a124.38,124.38,0,0,0,8.51,12.33c.69.84,2.77,3.09,2.77,3.64,0-.33-.62,0-.17.52.21,0,.1.25,0,0-2.4-2.06,1.06,1.73,1.56,2.26a17.68,17.68,0,0,0,3.48,3.12c.25.18.34-.06.51.18-.09-.14-.08.37,0,.35-.71.15-2.94-2.13-3.29-2.43-1-.92-1.85-1.66-3.12-2.61a22.17,22.17,0,0,0,5.55,5.91c0-.1.14-.2.17,0a13.72,13.72,0,0,1,1.57,1.39c-.84.23-1.28-1.18-2.61-1.22-.12.17,2.62,1.4,2.08,1.57a11.26,11.26,0,0,1-2.78-1.39,17.62,17.62,0,0,1-2.25-1.91c-.24-.32-.1-.62-.35-.88-.89-.91-2.07-1.55-3-2.42a69.86,69.86,0,0,1-7.12-8.51c-1.42-2-3.09-3.8-4.51-6.08-1.63-2.61-2-3.4-3.48-5.74-1.26-2,.42,1.29.7,1.74A142.21,142.21,0,0,0,143.45,148a37.35,37.35,0,0,0,7,5.21c2.3,1.47-1.89-.49-2.79-1.05-1.14-.7-1.94-1.45-3.12-2.08.69,1.6,2.56,2.39,4.17,3.3a15.83,15.83,0,0,1,1.56.87c.1.12-.12.6,0,.69a18.79,18.79,0,0,0,3.48,1.74M1.24,110.29c-.08-.24.34,0,.34,0C1.6,110.54,1.27,110.41,1.24,110.29Zm.17,3.3a6,6,0,0,1,0-1.74C1.38,112,1.5,117,1.41,113.59Zm.17-2.43c-.06.33-.22-.11-.17-.35S1.63,110.92,1.58,111.16ZM189.12,61.67Zm-.35-.7c1,.62-.53.17-1.21-.17.17.08-1.38-.83-1.39-.69C186.24,59.54,188.58,60.85,188.77,61Zm-14.06,9.56c.08.07-.31.22-.35.17S174.66,70.48,174.71,70.53ZM164.46,61Zm-9.72,17.2a276.64,276.64,0,0,0,20.83,33.16c.11,0,.21,0,.18.17s.2,0,.17.18c.21,0,.11.25,0,0-.1,0-.2,0-.17-.18-.11,0-.21,0-.18-.17-8.27-9.8-15.29-22.11-21.7-33.86.19.35-.56-1.36-.52-1.39C153.71,75.72,154.76,78.21,154.74,78.17Zm8.85,14.41c.21,0,.11.25,0,0C163.38,92.59,163.49,92.33,163.59,92.58Zm.35.52c.13,0,.2.14.18.34.2,0,.1.25,0,0-.14,0-.21-.14-.18-.34C163.73,93.11,163.84,92.85,163.94,93.1Zm.69,1.39c.12.11-.06-.08,0,0Zm15.81,20c.1,0,.2,0,.17.17.7.17,1,.76,1.39,1.21.11,0,.21,0,.17.18.72-.17,0,.52,0,0-.1,0-.2,0-.17-.18-.7-.16-1-.75-1.39-1.21-.11,0-.21,0-.17-.17s-.21,0-.18-.18-.2,0-.17-.17c-.21,0-.11-.25,0,0,.11,0,.2,0,.17.17S180.47,114.31,180.44,114.46Zm2.08,3.29c.08.25-.49.09-.52,0S182.49,117.67,182.52,117.75Zm-1.73-1.55c.42.44,1.92,1.58.69.86a16.58,16.58,0,0,1-4-4c-4.1-5.17-8.11-10.26-11.12-16-.34-.12-.46-.46-.52-.87-.21,0-.11-.25,0,0,.34.12.46.46.52.87C170.83,103.45,175.39,110.63,180.79,116.2Zm-12.86-12c3.16,4.71,6.85,9,10.25,13.36.21,0,.1.26,0,0-2.25-1.43-3.34-3.51-4.86-5.56-.75-1-1.72-1.81-2.43-2.77A196.33,196.33,0,0,1,158.73,90c-.36-.45-1.3-1.47-1-1.73.06-.07,1.26,1.51,1,1.73C162.11,94.51,164.8,99.53,167.93,104.22ZM156.47,86.33c-.07-.08.12.11,0,0Zm-1.39-2.78c-.2,0-.1-.25,0,0C155.29,83.53,155.19,83.8,155.08,83.55Zm-.86-1.74c-.14.13-1.31-1.77-1.39-1.91-.38-.69-1.17-1.79-1-2.25C152,76.78,154.29,81.73,154.22,81.81ZM152.3,65c0-.52.73.16,0,0C151.64,65.93,150.72,65,152.3,65Zm-.51,12.15c.08.08-.31.22-.35.17S151.74,77.08,151.79,77.12ZM150,65.83c.06-.21.31-.12.53-.17C151.84,65.36,149.85,66.58,150,65.83Zm-2.25-.34c-.06.06-.72-.51-.7-.7C147.17,64.24,148.07,65.2,147.79,65.49Zm-.52,14.06c.7.41,1.66,3,1.91,3.48,5.1,9.53,11,18.35,16.32,27.09.11,0,.21,0,.18.17.52,0-.17.72,0,0-.11,0-.21,0-.18-.17a247,247,0,0,1-17.36-28.65C147.59,80.42,146.55,79.14,147.27,79.55Zm18.58,33.51a155.06,155.06,0,0,1-14.41-22.74c-.14,0-.21-.14-.18-.35-.13,0-.2-.14-.17-.35-.21,0-.11-.25,0,0,.13,0,.2.15.17.35.14,0,.21.14.18.35,4.26,6.78,8.62,14.41,13.37,20.84.53.72,2.1,2.81,2.08,3C166.82,114.69,166.08,113.36,165.85,113.06Zm1.39,1.57c.08.24-.35,0-.35,0C166.87,114.38,167.2,114.51,167.24,114.63ZM150.57,88.76c-.53,0,.17-.72,0,0C150.78,88.73,150.68,89,150.57,88.76ZM148,84.07c-.53,0,.16-.72,0,0C148.17,84.05,148.07,84.32,148,84.07Zm-1.05-21.36Zm-.34-.87c.2,0,.1.26,0,0C146.36,61.86,146.47,61.59,146.58,61.84Zm-4.17-7.47c.11.12-.08-.07,0,0Zm-.17-.34Zm-.53-1.22c.74.18,0,.91,0,0C141.5,52.83,141.6,52.56,141.71,52.81Zm4.52,9.2c.46.87,1.52,3.78.17,1.39-2.63-4.64-5.44-10.12-8.16-15.27-.28-.53-1.31-1.89-1.21-2.26s.67.51.86.87c.33.6-.22-.09.52,1.21C141.26,52.92,143.6,57.12,146.23,62Zm-.18,18.59c-.21,0-.1-.26,0,0C146.27,80.58,146.16,80.85,146.05,80.6ZM143.8,66.71c-3.73-6.5-7.7-14.07-11.46-21.19-.34-.64-1.74-2.54-1.57-3.13.07-.21.88.93,1,1.22,1.41,2.59,2.87,5.41,4.16,8,1.2,2.38,2.27,3.85,3.48,6.25s2.93,4.85,4.34,7.81C144.21,66.53,144.67,68.23,143.8,66.71Zm.34,16c-.21,0-.1-.25,0,0C144.36,82.66,144.25,82.93,144.14,82.68Zm11.47,35.25c.1,0,.2,0,.17.17.21,0,.1.25,0,0-.11,0-.2,0-.17-.17-.14,0-.21-.15-.18-.35-.11,0-.2,0-.17-.17a258.14,258.14,0,0,1-18.41-30.22c-1-2,.37,0,.87.87,5.67,10.22,11.5,20.1,17.54,29.35.1,0,.21,0,.17.17C155.57,117.62,155.63,117.73,155.61,117.93ZM132.34,89.45c1.24,1.24,2,3.44,3.12,5.39,2.7,4.88,6,9.89,8.86,15.1.88,1.59-.95-1-1.39-1.73-3.2-5.21-6.14-10.2-9.2-15.8-.38-.69-1.5-2.43-1.39-2.79A1,1,0,0,0,132.34,89.45Zm1.56-1.21c.53-.1.76,1.21,1,1.73a42.65,42.65,0,0,1,2.95,5.56c.14,0,.21.14.18.34a25.54,25.54,0,0,1,3,5c.14,0,.2.14.17.35.21,0,.11.25,0,0-.13,0-.2-.15-.17-.35a20.68,20.68,0,0,1-3-5c-.14,0-.21-.14-.18-.34a22.74,22.74,0,0,1-2.25-3.47C135.37,91.55,133.7,88.27,133.9,88.24ZM142.24,103c.21,0,.1.25,0,0C142,103,142.13,102.74,142.24,103Zm.17.52c.06-.74,1.69,2.52.7,1.21C143,104.64,142.37,104,142.41,103.52Zm1.73,2.78c-.13,0-.2-.15-.17-.35-.11,0-.2,0-.17-.17-.21,0-.11-.26,0,0,.1,0,.21,0,.17.17.14,0,.2.14.17.35a5.91,5.91,0,0,1,1.39,2.25c.21,0,.11.26,0,0A6,6,0,0,1,144.14,106.3ZM129.39,50a21.47,21.47,0,0,1-1.4-3c.07-.21.31-.1.53.18,1,1.31,1.92,3.81,2.95,5.73,2.52,4.72,5.26,10.23,8.16,15.27.22.4.22-.08.52.53a2.27,2.27,0,0,1,.17.86c-.28.29-1.66-2.63-1.73-2.77C135.53,61.13,132.53,56,129.39,50Zm-.53-11.46c.87.41.12,1.15,0,0C128.66,38.59,128.76,38.32,128.86,38.57Zm.53,1.39c0-.39,1,.61.69.87C130,40.91,129.39,40,129.39,40Zm7.46,5.39c.21,0,.11.25,0,0C136.64,45.36,136.74,45.09,136.85,45.35Zm3,3.82c.14,0,.2.14.18.34.13,0,.2.15.17.35.13,0,.2.14.17.35.22,0,.11.25,0,0-.13,0-.2-.15-.17-.35-.14,0-.2-.15-.17-.35-.14,0-.2-.14-.18-.34C139.59,49.19,139.69,48.91,139.8,49.17ZM139.1,48c.15,0,.21.15.18.35.21,0,.11.25,0,0-.13,0-.2-.15-.18-.35C138.14,47.47,139,46.58,139.1,48Zm-.69-1.21c.21,0,.11.25,0,0C137.89,46.7,138.58,46,138.41,46.74ZM128.17,29.2A95.29,95.29,0,0,1,137.55,45c.13,0,.2.14.17.35.14,0,.2.14.17.34.73.18,0,.91,0,0-.13,0-.2-.14-.17-.34-.14,0-.2-.15-.17-.35-3.13-5.27-6.27-10.52-9.38-15.8C127.25,28.84,128,28.1,128.17,29.2Zm-.87-1c-.07-.08.12.11,0,0Zm-1.91-3.3c.7,1,2.07,3.35.52,1.38-.19-.24-2.32-2.61-2.26-2.95S125.23,24.64,125.39,24.86Zm.87,9.37c-.52,0,.16-.72,0,0C127,34.41,126.26,35.14,126.26,34.23Zm-1.93-2.69.89,1.3s-.61-.87-.89-1.3l-.14-.2c-.38-.54-.54-.79,0,0a.83.83,0,0,0,.11.15.58.58,0,0,1-.12-.21c.06-.58,1.8,1.84,1.55,2.08a13.17,13.17,0,0,1-1.43-1.87Zm-2.59-10.85c.11,0,.21,0,.18.17s.2,0,.17.18a.47.47,0,0,1,.35.52c.69.08,1.38,1.22,1.21,1.38s-1.53-1.24-1.21-1.38a.48.48,0,0,1-.35-.52c-.1,0-.2,0-.17-.18s-.21,0-.18-.17C121.53,20.71,121.64,20.44,121.74,20.69Zm-.69,30.56c.76,1.41,1.32,2.93,2.08,4.34s1.72,2.47,2.44,3.82c1.49,2.85,2.9,5.59,4.34,8.34.75,1.42,1.65,2.82,2.25,4.16.21.46,1.54,4.32.52,2.61-7.32-12.34-13.38-25.76-21-37.16-.73-.18,0-.92,0,0,2.37,2.49,3.78,5.94,5.9,8.68-1-2.35-2.54-4.17-3.64-6.42-.21,0-.11-.25,0,0A104.55,104.55,0,0,1,121.05,51.25Zm7.81,47.23c-.52,0,.17-.72,0,0C129.07,98.47,129,98.73,128.86,98.48Zm1.39,4.69a68.44,68.44,0,0,1,4,7.12,9.14,9.14,0,0,1,2.08,3.47c.13,0,.2.15.17.35,1.9,1.58,2.74,4.21,4,6.42.31.16.6.33.52.87.21,0,.11.25,0,0s-.5-.42-.52-.87a55.44,55.44,0,0,1-4-6.42c-.14,0-.2-.14-.17-.35a14.46,14.46,0,0,1-2.08-3.47c-2.47-3.65-5.08-8.17-7.29-12.15-.45-.81-1.27-3-.18-1.22C128,98.86,129.24,101.41,130.25,103.17ZM129,99Zm4.69,13c.11.11-.08-.07,0,0Zm-.18-.34ZM120.7,71.39c-.52,0,.17-.72,0,0,1.18,1.92,2.67,4.35,3.82,6.43.67,1.19,1.71,3.43.53,1.56A74.63,74.63,0,0,1,120.7,71.39Zm.35,1.91c.11.12-.07-.07,0,0Zm6.08,2.61c-1-1.86-1.8-2.75-2.95-5a24.52,24.52,0,0,1-1.57-3.12c.08-.22.41-.14.52,0,1,1.15,3,5.43,4.17,7.64,0,0,1.44,2.37,1.22,2.6s-1.07-1.2-.87-.87C127.22,76.42,127.56,76.7,127.13,75.91Zm-.87,2.43c-.14,0-.2-.15-.17-.35-.87-.41-.12-1.15,0,0,.13,0,.2.15.17.35C126.47,78.32,126.37,78.59,126.26,78.34Zm-3.13-5.91c-.73-.18,0-.91,0,0a2.25,2.25,0,0,1,.7,1.22c.13.27,1.85,2.67,1.56,2.95,0,0-1.93-2.59-1.56-2.95A1.49,1.49,0,0,1,123.13,72.43Zm3.13,26.05c2.41,3.71,4.26,7.73,6.25,11.29.34.12.46.46.52.87.73.18,0,.9,0,0-.34-.12-.46-.47-.52-.87-1.92-2.7-3.62-6.09-5.38-9.21a30.55,30.55,0,0,1-1.91-3.12C125.38,96.86,126,98.11,126.26,98.48ZM115,47.26c-.16-.28-1.1-1.64-1-1.91s1.13,1.13,1.39,1.56c2.61,4.16,5.28,9.62,7.47,13.72,2.47,4.62,4.95,8.61,7.46,13.71.17.34,1.33,1.74.7,1.91-.24.07-1-1.55-1.22-1.91C125,65.83,120,56,115,47.26Zm4.86,22.57c.52,0-.16.72,0,0C119.62,69.85,119.73,69.58,119.83,69.83Zm-6.07-25c-.66-.25.07-1,0,0C114,44.81,113.87,45.08,113.76,44.82Zm-3.3-27.61a30.62,30.62,0,0,1,4,5c1.48.91.46,1.45,0,0-1.09-1.14-2.35-2.55-3.47-3.82C110.44,17.83,109.29,16.07,110.46,17.21Zm-.18,28c-.21,0-.1-.25,0,0C110.5,45.16,110.39,45.42,110.28,45.17Zm-.35-.52c-.14.14-.52-.69-.51-.69C109.47,43.61,110.23,44.36,109.93,44.65ZM86.32,24.33a69.07,69.07,0,0,1,5.38,5.91c.61.68,2.31,2.45,1.39,1.91-.39-.23-1.54-1.58-1.91-1.91-1.63-1.51-2.62-2.65-4.51-4.52-.38-.36-2.37-1.93-2.26-2.26S86,24.06,86.32,24.33Zm-21.71-1ZM47.77,44.48c.52-.73,0,1.41-.35,1S47.61,44.7,47.77,44.48Zm-5.9,24.31a75.07,75.07,0,0,1,3-16.5c.22-.76.34-1.89.87-2.26.08-.05-.77,3.52-1,5-.63,3.44-1.08,7.41-1.74,11.28-.3,1.79-.59,3-.87,4.87S41.8,69.72,41.87,68.79Zm-2.26-3.3a45,45,0,0,1,.87-5.56c.2-1,.43-3.06.87-3.47.1-.1.32-.27.34,0,.09,1.16-1.25,6.24-1.56,8.51,0,.13-.25,3-.69,2.6A18.24,18.24,0,0,0,39.61,65.49Zm2.08,7.64Zm-5.55,30c.3-.92.57,1.27,0,.69A2,2,0,0,1,36.14,103.17ZM36,99.7c.12.11-.07-.08,0,0ZM28.15,88.58c0-.12,0-1.19.17-1.39.4-.42.36,4,.18,5C28.17,94.07,28.1,89.16,28.15,88.58Zm0,7.12c.09-.1.45-.21.52,0,.31.93.16,7.58.17,9.2,0,.34.14,2.51-.17,2.61s-.14-1-.17-1.21a53.27,53.27,0,0,1-.35-10.25C28.15,96,28.11,95.75,28.15,95.7ZM4.36,116A5.83,5.83,0,0,1,4,112.9,5.78,5.78,0,0,1,4.36,116ZM4,109.6c.3-.32.38,4.33,0,1.56C4,110.73,3.56,110.06,4,109.6Zm.7-4.34c0,.07,0,.12,0,.17l.05-.32S4.72,105.18,4.71,105.26Zm0-.7c-.07-.08.11.11,0,0Zm1,6.77c.08.08-.3.22-.35.17S5.7,111.28,5.75,111.33Zm-.35-1.21c.17-.57.38.69.18.69S5.34,110.32,5.4,110.12Zm.18,4.34a6,6,0,0,1,0-2.61C5.87,111.3,6,118.6,5.58,114.46Zm-.18-5.73a40.26,40.26,0,0,1-.17-5.21,157.43,157.43,0,0,1,.69-16.33c.31-2.79,1-5.34,1-7.81,0-.67-.19-1.41-.17-1.91,0-.32.9-3.62.52-4-.15-.16-.55,1.51-.52,1.38A98.88,98.88,0,0,0,5.23,87c-.19,3.21.2,5.51-.18,7.64-.06.36-.62,1.8-.69,2.43a76.7,76.7,0,0,0-.17,8.34c0,1.31.15,4.62-.18,3.47-.22-.78-.11-.25-.17-1.74-.18-4.18,0-7.47.17-10.76C4.82,78.45,8.48,60.56,15,48c.57-2.38,2-4.24,2.78-5.56.54-.94,2.09-3.62,2.78-4.51-.93,1.2.45-.77.69-.52s-.5,1.17-.52,1.21a51.36,51.36,0,0,0-3.82,7.12c-.18.49-.17,1.15-.35,1.57-.1.24-.89,1.18-1,1.56-.21.54-.37,1.5-.69,2.43-.9,2.59-1.69,4.83-2.61,7.29-1,2.82.72-2.72.7-3.12-4.38,11.73-6.1,27-6.77,41.84-.19,4.13.05,6-.18,9.38C5.84,107.85,5.68,111.16,5.4,108.73ZM7,127.66c-.37.36-.5-2.43-.51-2.61-.12-1.21-.32-2.28-.35-2.78a4.7,4.7,0,0,1,0-1.91c.15-.35.27,1.61.35,2.6C6.58,124.66,7.5,127.12,7,127.66Zm.35-4.7a1,1,0,0,1,0-.17C7.94,122.17,7.31,123.86,7.31,123Zm0-.69Zm.52,1.91c0,.25-.3.12-.34,0S7.83,124.18,7.83,124.18Zm.18,3.3a4.31,4.31,0,0,1-.52-2.09C7.69,124.9,8.52,127.45,8,127.48ZM10.61,160c-.25.57-.43-.68,0,0Zm0,.52c.1-.48.55.5.35.7C11,161.15,10.47,161.21,10.61,160.47ZM11.3,162c-.12.13-.35-.36-.34-.52C11,160.94,11.4,161.94,11.3,162Zm3.13-68.41c-.06.33-.22-.11-.17-.35S14.48,93.39,14.43,93.62Zm.17-1c.09,0-.45-2.49,0-3C15.23,89,14.85,92.48,14.6,92.58ZM13,69.48c1.32-4.92,0,1.69-.52,1.22-.09-.09.71-3.34.7-3.3.14-.7,1-3.21.69-3.47a14.56,14.56,0,0,0-.69,1.9c-2.13,9.07-2.82,16.83-3.48,26.4-.13,2-.21,7-.52,9-.49,3.29-.4-2.59-.35-3.65a200.44,200.44,0,0,1,2.78-25.52c.14-.73.94-5.52.35-3.48A95.58,95.58,0,0,0,9.57,82.68c-.9,10.46-1.27,18.9-1.22,28.65,0,1.27.31,1.07.35,2.61.07,2.39,0,4.56.17,7.29,0,.44.14,1.77.18,2.27h0c0,.3,0,.25,0,0a3.5,3.5,0,0,0,0,1.2c.08,1.2-.35,1.06-.35,0a53.73,53.73,0,0,0-.52-6.08,168.17,168.17,0,0,1,0-29c.17-2.16.4-5.36.69-8,.16-1.33.35-3.86,0-1.74A166.46,166.46,0,0,0,7.31,98.48c0,.48-.21,4.84-.35,3-.1-1.45.15-6.26.18-6.94A169.76,169.76,0,0,1,10.26,69c.26-1.19.29-2.47.53-3.65.56-2.87,2.25-6.69,3.12-9.55.37-1.19.5-2.55.87-3.47.25-.62.89-1.22,1.21-1.91,2.15-4.46,3.68-8.74,6.26-12.85.2-.32,1-2,1.38-1.91s-.23.86-.34,1a62.94,62.94,0,0,0-3.13,5.56c-.33.67-1.07,2-1.21,2.43-.42,1.2-.3,2.43-.7,3.3s-1.9,1.68-1.21,2.78c0,0,.51,0,.52,0,.2.77-.78,2.42-1.22,3.64-.48,1.37-1.09,2.54-.87,3.65.62-1.46.8-2.13,1.39-3.82.19-.53,2.15-5.75,1.39-2.6-.64,2.65-2.31,6.63-2.95,8.68C14.44,63,13.82,66.55,13,69.48Zm9-17.46c-.22,2.26-1.34,4.15-2.07,6.52-.27.88-1.15,4.82-1.56,4.86-.67.06-.12-.52-.18-1s-.33-1-.35-.7C18,60.3,19.06,58.08,19.47,57c1.05-2.87,1.64-5,2.78-7.64.22-.52,1.75-3.62,1.38-2.26-.49,1.88-1.4,3.69-1.56,4.86-.15,0-.16.07-.17.18S22.05,52.09,22.06,52ZM20.51,65c.07-.35,0-1.46.35-1.74C21.63,62.66,20.11,67,20.51,65ZM19.12,48.65c0-.22.25-.11,0,0C18.86,50.74,18.27,49.17,19.12,48.65Zm-1.56,61.64s0-.16,0-.17C18.18,109.49,17.56,111.18,17.56,110.29ZM17.21,108c-.95-9.16.37-19,1.39-27.26.16-1.24,0-3.23.35-3.82.2-.33.33.39.34.52.12,1.79-.76,5.69-.69,7.29,0,1.07.32,1.39.35,2.09.07,1.6-.22,3.74-.35,5.9-.24,4.14-.3,8.37-.87,12a31.08,31.08,0,0,0,.17,4.69C18,111.06,17.25,108.39,17.21,108Zm1.91,16.15c-.36.36-.49-1.9-.52-2.08a30.81,30.81,0,0,1-.35-4c0-.37-.33-1-.17-1.38s.62,2.32.69,3.12S19.37,123.94,19.12,124.18ZM19,108c-.82-6.79-.12-15.17.52-22.75.06-.79,0-3.07.34-3.29s.06,2.6,0,3.29a173.44,173.44,0,0,0-.69,20.84C19.17,107.6,19.36,111.45,19,108Zm.69,7a.31.31,0,0,1-.17-.35C19.64,114.12,19.87,115,19.64,115Zm1,9.55c-.12.19-.47-1.58-.52-1.92-.29-1.92-.33-4.11-.52-6.41,0-.17-.28-.62-.17-.88s.3-.18.34,0c.19.85.12,2.64.35,4.69C20.35,121.71,21.07,123.93,20.68,124.53Zm.18-57.65c-.11-1.33.71-3.49.69-4.51,0-.68-.41-.19-.35-.7,0-.15.43-.48.53-1a43.6,43.6,0,0,1,2.78-9.21c.11-.24,0-.21.17-.34.92-.63-.5,1.62-.17,1.73,0,0,.68-.7.51-1.21.3.94-.65,2.51-1,3.82-1,3.48-1.46,6-2.43,10.24C21.48,66,21,68.38,20.86,66.88Zm4.69-14.07c-.72,2-1.1,5.66-1.92,8a23.94,23.94,0,0,0-1.21,3.82c0,.14-.73,4.13-1,3.82s.8-4.53.87-4.86a83.59,83.59,0,0,1,2.43-9c.49-1.53,1.24-2.9,1.56-4.17,0-.06,0-.31,0-.35s.32-.27.35,0C26.65,50.66,25.91,51.79,25.55,52.81Zm1.38,49.83a108.92,108.92,0,0,1,0-13.88,4.28,4.28,0,0,1,.18-1.05,1,1,0,0,0,0-.17c.54,2.66,0,5.71,0,9.9,0,1.56.14,3.67.17,4.52a33.11,33.11,0,0,1,0,5S27,102.93,26.93,102.64Zm1.91,21c-.79-3.23-.78-5.39-1-9.2-.06-.95-.68-2.83-.35-3.65.18-.43.66,3,.7,3.47.24,2.5.31,4.47.69,7.3C29.05,123.12,29.69,127.08,28.84,123.66Zm.7-.35Zm.32-3.39a26.4,26.4,0,0,1-.32-2.68,8.76,8.76,0,0,1-.17-2.78c.17-.4,1.23,6.06,1,6.24s-.5-.67-.55-.78l0,.09C29.86,119.91,29.86,119.89,29.86,119.92Zm.37,1.14c0-.11.76,1.16.35,1.55C30.61,122.59,30.07,121.63,30.23,121.06Zm2.09,18.05a29.48,29.48,0,0,1-1.22-3.64c-.15-.63-1.05-3.5-.87-4s.79,2.1,1.22,3.82C31.76,136.54,32.64,138.8,32.32,139.11Zm-.7-79.35c0,.12.35-.17.35-.35a25.24,25.24,0,0,1-1,5.73c0,2.8-.7.66,0,0-.41-1.32-.64,1.54-.7,2.26h.35c0-.21.25-.11,0,0-.16.85.08,2.34-.35,2.43s.25-2.54,0-2.43c-.08,0-.23,0-.17.17-.35-.89,0-2.95.35-4.52a86,86,0,0,1,2.08-8.5c.18-.61,2-5.87,1.22-2.78-.43,1.67-.57,2.29-.87,3.47S31.45,59.11,31.62,59.76Zm-1,7.29Zm20,117.39c-.95-.33-.18.39-1.39-.18a15.4,15.4,0,0,1-2.08-1.56c-.72-.53-1.7-.95-2.26-1.39a21.18,21.18,0,0,1-3.13-3.65c-2.82-3.69-6.76-7.68-8.5-11.81-.21,0-.11-.25,0,0a60.15,60.15,0,0,0,19.27,19.28C55.11,186.79,50.56,184.44,50.55,184.44ZM35.79,149.71c0-.58.44.42.35.52S35.78,149.86,35.79,149.71Zm.7,1.56c-.52,0,.16-.72,0,0C36.7,151.25,36.59,151.52,36.49,151.27Zm.34.86c-.52,0,.17-.71,0,0C37.35,152.17,36.67,152.86,36.83,152.13Zm.7,1.57c.73.18,0,.91,0,0C36.64,153,37.4,152.2,37.53,153.7Zm10.24,21a9.31,9.31,0,0,1,1.74,1.22c.55.43,2.24,1.73,1.39,1.38a12.07,12.07,0,0,1-3.13-2.6C47.56,174.73,47.66,174.46,47.77,174.71ZM57.15,187c-.28.28-3.53-1.66-3.47-1.56-.73.16,0-.52,0,0C54.34,185.31,57.37,186.82,57.15,187Zm.69-4.69a.17.17,0,0,1-.34,0,1,1,0,0,1-1-.52c-.39,0-.65,0-.69-.35-.13,0-.34,0-.35-.17s-.34,0-.35-.17a.5.5,0,0,1-.52-.35c-.13,0-.34,0-.34-.17a.48.48,0,0,1-.52-.36,16.55,16.55,0,0,1-4.17-2.77c-.34-.31-1.92-1.86-.7-1,1.6,1.06,3.6,3,4.87,3.81a.49.49,0,0,1,.52.36c.13,0,.34,0,.34.17a.48.48,0,0,1,.52.35c.14,0,.35,0,.35.17s.34,0,.35.17h.35c0-.17-.15-.2-.18-.34s-.34,0-.35-.18-.34,0-.34-.17c-.21,0-.11-.25,0,0,.14,0,.34,0,.34.17s.35,0,.35.18c.28.51,4.62,1.45,4.69,1.91S58,182.28,57.84,182.35Zm-1.21-1.21c-.31-.1-.28-.09-.13-.06A8.91,8.91,0,0,1,54,179.57c-.21,0-.11-.25,0,0A20.7,20.7,0,0,1,57,181c1,.51-.12.22-.48.12Zm4.16,2.25Zm.53.17c.11.12-.08-.07,0,0Zm.51.18Zm3.13-.52c.11-.33-1.31,0-1.56,0s-.66-.51-.69-.52c-.69-.23-2-.42-2.78-.7a5.31,5.31,0,0,0-.87-.17c-.05-.31,4.88,1,5,1C64.62,183,65.14,182.67,65,183.22Zm-2.78-2.08a9.39,9.39,0,0,1-4-1.39c-.72.16,0-.52,0,0,1.36.43,2.73.85,4,1.39.8.07,1.78.22,2.61.34C67.53,181.87,62,181.78,62.18,181.14Zm4.87,0c-.45.38-2.32.14-3.3,0a26.5,26.5,0,0,1-12.85-6.25A52.68,52.68,0,0,1,42,164.64c-.1,0-.2,0-.17-.17-.21,0-.11-.25,0,0,.1,0,.2,0,.17.17,4.73,5.55,9.65,11.46,17.36,14.24,1.49.54,4.18,1.16,6.08,1.74.2,0,.4.48.53.52S67.31,180.91,67.05,181.14Zm-.35-.88c-.09-.08.43-.26.52-.17S66.78,180.36,66.7,180.26Zm5.38-10.76s.16-.33.18-.34C72.9,168.46,72.48,169.9,72.08,169.5Zm.87-1.21c-.43,1-.32-.07-.18-.53a15.11,15.11,0,0,1,1.57-3.12C75.32,164,73.21,167.68,73,168.29Zm12.68,13c-.19.73-.92,0,0,0C85.61,181.1,85.88,181.21,85.63,181.31Zm0-1.56c0,.51-.72-.17,0,0C85.66,179.23,86.35,179.91,85.63,179.75Zm-6.95-1.22c-1.74.46,1.87-1,3.3-1.73,1.89-1,2.64-2,4.51-2.09.72,0,1.55-.18.52.52a53.76,53.76,0,0,1-7.29,4.17c-.41.19-4.67,2.33-3.3.35C76.16,180.13,80.86,178,78.68,178.53Zm36.47-83.35c-.45-.12-1.6-4.05-2.26-4-.39,0,1.1,2.28,1.21,2.61s-.17.46-.17.52c0,.67.8.88.7,1.55-.07.44-2.21,3-2.61,3a18.76,18.76,0,0,1-1.22-2.61c-3.3-6.23-6.66-11.8-10.07-17.71,2.83,5.65,6.14,11.39,9,16.84.43.82.67,1.59,1,2.44.22.49,1,1.1.87,1.73,0,.47-2.39,2.87-3.3,4a242.9,242.9,0,0,0-15.45,21.35,76.53,76.53,0,0,0-6.25,11.29c-1.39,3.31-3,6.44-4.52,9.38a27.51,27.51,0,0,0-2.08,3.65c-.18.59.39.22.35.69a21.22,21.22,0,0,1-1,1.91c-2.26,4.85-4.56,10.31-6.95,14.41a.18.18,0,0,1,0,.35c.17.72-.52,0,0,0v-.35c-1,1.77-2.28,4.74-3.3,7.13a21.1,21.1,0,0,1-1,2.25,20.57,20.57,0,0,1-2.43-.69,42.84,42.84,0,0,1-6.78-3.13c1.36,1.29,4.37,2.58,6.6,3.3.29.09,2.51.56,2.61.69l-.27.38a5.54,5.54,0,0,0-.25,1.18c.58.06,1.29-3.67,1.73-3.46,0-.22.26-.12,0,0-.29,1.28-.72,1.82-.69,3.12.23.11,1.28-3.24,1.56-2.95s-.83,2.15-.87,2.26c-.37.94-.4,2.13-.69,2.43-.09.09-.83-.12-.87,0s.7.34.87.17c-.5.5-.29.48-.87.52a6.59,6.59,0,0,1-1.56-.17,37.25,37.25,0,0,1-10.42-3.48,20.8,20.8,0,0,0,6.07,2.78c.5.14,3.63.87,1.74.7a4.11,4.11,0,0,1-.86-.18c-8.37-1.71-13.13-8-17.37-13.2-5.16-6.38-8.3-13.36-10.94-21.7-.52,0,.17-.72,0,0A66.64,66.64,0,0,0,45,163.42c1.45,1.83,2.78,3.9,4.69,5.39a7.4,7.4,0,0,1,1,.35c.35.22,2.39,2.58,2.78,2.42s-1.67-2.36-1.73-2.42a52.4,52.4,0,0,1-12-17.55c-.78-2-1.11-3-1.91-5.2-.12-.36-1.41-3.42-1.38-3.48.49-.94,1.16,1.09,1.38,1.57,2.84,6.07,5.05,10.88,8.69,15.45.57.72,1.21,1.32,1.73,2.08,1.37,2,3.16,4.92,5.39,6.26-.24-.59-.86-.83-1.39-1.39s-2.21-2.57-.52-1.05c1,.93,1.95,1.93,2.77,2.61,0,.14.07.17.18.17s0-.13-.08-.15c1.3.18,3,1.31,4.42,1.89a45.4,45.4,0,0,1-6.42-5.56c-.46-.48-1-1.53-.18-.69,1.28,1.28,2.26,2.08,3.3,2.95.45.37,3.54,3.26,4.17,3s-.74-1.09-.87-1.21c-3.69-3.35-6.3-5-9-9.21-.21,0-.11-.25,0,0,2.06,1.73,3.36,3.86,5.21,5.56a25.71,25.71,0,0,0,11.11,5.9,31.44,31.44,0,0,1-10.24-6.59c-2-1.91-3.52-4.36-5.56-6.26.45.52,2.87,4,1.22,2.09-5.24-6.13-8.56-13.47-10.77-20.49-.35-1.11-.66-2.61-1.22-4.34-.35-1.12-1.69-3.83-1.56-4.17.28-.73.78,1.15.87,1.39,1.83,4.94,3.33,9.92,5.21,13.89a34.58,34.58,0,0,0,4,6.77c5,6.28,10.2,12.53,18.58,15.46a28.32,28.32,0,0,0,2.78.69c-.08-.14-2.69,6.78-1.91,5.21a76.13,76.13,0,0,0,3.47-8.51c-.68.29-1,2.94-1.38,3.13-.51.26-2.88-.84-3.82-1.22a23.92,23.92,0,0,1-3.65-1.56c-.51-.33-.83-1-1.39-1.39s-1.22-.64-1.74-1c-7.29-5.73-13-14.55-16.32-24-.2,0-.19-.27-.18-.52-.52,0,.17-.72,0,0,.21,0,.2.28.18.52.47-.12.23-.3.17-.69-.36-2.4-2.26-6-2.95-8.33-.31-1.07-.29-2.14-.52-3.3-.1-.53-.57-1.53-.87-3s-.57-5.06,0-3c1.36,5,1.86,10.45,3.82,14.24-2.05-7.47-4-14.25-4.86-22.57-.16-1.44.09-2.19,0-3.65-.27-4.41-1.16-9.78-.69-15.28.26-3.17.2-6.22.34-9.38,0-.64.42-4.45.87-4s-.26,3.61-.35,5.38a125.49,125.49,0,0,0,.18,13.72c.21,4.68.31,7.6.87,12.33.26,2.24,1.3,8.27,1.21,5.9-.15-3.87-1.06-10.45-1.39-14.58,0-.49-.27-5.25-.17-5.21.31.11.25,2.25.19,1.72.11,1.4.36,3,.5,4.71.21,2.44.51,4.19.87,6.24a42.8,42.8,0,0,0,1,5.74c.46,1.4.36.38.35-.7s-.35-3.14-.52-4.69a142.32,142.32,0,0,1-.35-28.48c0-.36.24-4.79.7-4.34s-.26,2.19-.35,3.3c-.11,1.39-.45,5.8-.35,5.91.39.38.51-3,.52-3.13.39-5.65,2.13-11.94,2.09-16.5-.07-5.55,1.42-11,2.77-15.62,1.31-4.51,2.89-8.83,4-13.55a21.19,21.19,0,0,0-1.39,3.13c-1,2.58-.06-.86,0-1.39.07-.71-.29-.47-.18-1a31.18,31.18,0,0,1,1.4-3.65,29.33,29.33,0,0,0,1.21-3.82,5.31,5.31,0,0,0-.69,1c-1.36,2.67,0-.59.17-1.39-.84,1.11-.11-1.6.35-2.78.27-.68.74-1.43,1-2.08.22-.47,1.36-2.72,1.21-1a1.08,1.08,0,0,1,1.22-.52c1.28.2,1.08-.11.48-.17,1.49.05,2.74.9,4.21,1.56a40.85,40.85,0,0,1,6.25,3.47c1.84,1.25,3.57,3.12,5.21,4.17a51.49,51.49,0,0,0-11.81-9c-1.42-.81-.4-.73.52-.35.7.29,0,.13,1,.69A50.49,50.49,0,0,1,74.16,37.53c.63,0,.11.63,0,.35a6.58,6.58,0,0,0,1.22,1.39c.27.19.69,0,.87.17,1,.87,1.76,2.53,2.78,3.82a33.76,33.76,0,0,0,3.12,3.48C78,40.72,73,34.58,67.22,30.06,65.4,28.65,64,27.69,62,26.42c-1-.65-2.51-1.05-2.95-1.56-.1-.12.41-.3.34-.35-.33-.24-3.47-1.41-3.29-1.74.4-.74.73.05,1.73,0,.55,0,.66-.4,1-.35,1.31.17,2.55,1.28,4,1.57.88.17,2.76-.07,3.47.34-.4-.49-1.52-1-.69-.69a14.27,14.27,0,0,1,3.12,1.74c.67.39,1.33.5,1.91.86s1.09,1.17,1.57,1.39,1,.09,1.21.18a26.89,26.89,0,0,1,4,3.65c1,.95,2.11,1.9,3,2.77.33.35.55.92.87,1.22s1,.48,1.38.87a46.05,46.05,0,0,1,3,3.82c1.09,1.37,1.91,2.91,3,4,.2.2.53.32.69.52a97.75,97.75,0,0,1,7,11.11c2.25,3.9,4.36,7.92,6.42,11.64,2.21,4,4.56,7.8,6.6,11.46,1.12,2,1.91,4.16,3,6.08,1.41,2.58,2.82,4.49,3.82,7.12a8.83,8.83,0,0,0,.69,1.21C116.69,94.16,115.42,95.26,115.15,95.18Zm-77.62,55.4c-.52,0,.16-.72,0,0C37.73,150.56,37.63,150.82,37.53,150.58Zm.52,1.38c-.08-.07.11.12,0,0Zm.52.87c.13,0,.2.15.17.35.21,0,.11.25,0,0-.13,0-.2-.15-.17-.35-.14,0-.2-.15-.18-.34-.51,0,.17-.73,0,0C38.53,152.52,38.6,152.63,38.57,152.83Zm.87,1.74c.51-.51,0,1.3,0,.17C39.44,154.72,39.42,154.59,39.44,154.57Zm.69,1.22c.73.17,0,.9,0,0C39.92,155.8,40,155.53,40.13,155.79Zm.52.86c.69,0,0,.77,0,0C40.44,156.67,40.54,156.4,40.65,156.65Zm2.08,3.3c.11,0,.21,0,.18.17.13,0,.2.15.17.35.21,0,.11.26,0,0-.13,0-.2-.14-.17-.35-.11,0-.21,0-.18-.17-.13,0-.19-.15-.17-.35-.1,0-.2,0-.17-.17a.47.47,0,0,1-.35-.52c-.73-.18,0-.92,0,0a.47.47,0,0,1,.35.52c.1,0,.2,0,.17.17C42.7,159.64,42.76,159.75,42.73,160Zm-5.38-45.32c-.52,0,.17-.72,0,0C37.56,114.61,37.46,114.88,37.35,114.63Zm12.16,46.19c.37.44,1.88,2,1.21,1.74-1.07-.44-2.29-2.35-2.78-3a46,46,0,0,1-7.11-12.49c-.52,0,.16-.73,0,0A61.91,61.91,0,0,0,49.51,160.82Zm68.06-68.41c-.1,0,0,.27-.17.34-.52.2-1.58-2.49-1.73-2.78-1.8-3.37-3.81-7-5.39-9.9C104.18,69,98.14,57.62,91.53,47.6A57.88,57.88,0,0,1,87,40.31c-1-.41-.29-1.15,0,0,4.86,5.32,8.6,11.77,12.51,18.06-2-4.61-5.1-8.22-7.47-12.5-1.23-1-.3-1.38,0,0,5.62,6.68,9.21,14.76,13.72,23.09,2,3.68,4.59,7.89,6.6,11.81,1.41,2.75,3.61,6.42,4.86,9.55.14.34-.15,1-.18.87,0,.25.5.08.52.17C117.68,91.75,117.49,92.45,117.57,92.41Zm.7-1.92c0-.07.39-.31.52-.17S118.18,90.84,118.27,90.49Zm0-.34c-.58,0-.71-1.1-.87-1.39-3.64-6.78-7.1-12.63-10.59-19.28-.49-.94-1.71-2.86-1.56-3.13,0,0,1.14.83.86.53.82.86.78,2.16,1.4,2.08.31,0,0-.24,0-.35-.92-2.68-3.16-5.7-4.17-7.64-.17.7,1.06,2,1.21,2.61.07.26-.11,1.44,0,1.39-.13.06-.3-.45-.34-.52-1.52-2.88-3.59-6.53-5-8.86-1.27-2-2.73-4.57-4-6.6-.28-.45-1.81-3.64-.69-2.08,1.85,2.57,3.65,5.62,5.38,8.16,1.89,2.76-.21-.87-.52-1.91,0,.09-.14.2-.17,0-.1,0-.2-.14,0-.17-.2-.26-.22-.71-.52-.87,0,.21-.25.11,0,0A122.38,122.38,0,0,0,84.19,32.57a.31.31,0,0,1,0,.1c0,.54-1.43-.91-1.39-.87-2-1.87-4.44-4.3-6.25-5.9-.11,0-.21,0-.18-.18-.21,0-.1-.25,0,0,.11,0,.21,0,.18.18A45.52,45.52,0,0,1,83,31.28c-.15-.67-1.71-1.8-1.39-1.91s2.36,1.64,3,2.26c.85.88,1.53,2.16,2.43,3.3s1.94,1.92,2.78,3a125.1,125.1,0,0,1,9,12.85q1.52,2.39,3,4.86c1.92,3.35,3.53,7.08,5.38,10.42,3.35,6,6.78,11.94,9.89,17.71a23.82,23.82,0,0,1,1.4,2.61c.06.21-.37.17-.35.34s.32.37.35.52a3,3,0,0,1-.35,1.57C119.8,87.53,118.16,90.15,118.27,90.15ZM99.52,50c.13,0,.2.15.17.35.73.18,0,.92,0,0-.14,0-.2-.14-.17-.35C98.83,50,99.55,49.27,99.52,50Zm1.21,2.09c-.13,0-.2-.15-.17-.35a.48.48,0,0,1-.35-.52c-.21,0-.11-.26,0,0a.47.47,0,0,1,.35.52c.13,0,.2.15.17.35a.47.47,0,0,1,.35.52c.52,0-.17.72,0,0A.48.48,0,0,1,100.73,52.12Zm.87,1.73c0-.25.31-.12.35,0S101.6,53.86,101.6,53.85Zm12.33,22.58Zm4.86,8.68c-.13,0-.2-.15-.17-.35-.52,0,.16-.72,0,0,.13,0,.2.15.17.35C119.52,85.3,118.79,86,118.79,85.11Zm1.91.87c-.27.27-.71-.9-.69-.87-2.89-5.77-6.39-11.21-8.86-16.85C105.45,58,99.6,47.08,92.75,37.88c-.72-1-2.22-2.42-1-1.56,1,.69.48.49,1.57,1.91C95.37,41,97.45,43.65,99,46c2.3,3.55,5.47,8.19,6.94,11.29.34.72.28,1.07.52,1.56.34.67,1,1.34,1.39,2.08.48.92.62,1.86,1.05,2.61a17.31,17.31,0,0,1,2.25,4.68c3.33,4.25,5.88,10.2,8.51,15.29C119.94,84.08,121,85.64,120.7,86ZM95.52,34.93c-1.44-.9-.49-1.51,0,0C95.73,34.91,95.63,35.18,95.52,34.93Zm.7,1.56C96,36.71,95,35.28,95,35.27,95,35,96.51,36.2,96.22,36.49Zm3.47,4.17c-.21,0-.1-.25,0,0a81.74,81.74,0,0,1,7.12,11.46c.31.62,1.44,3,.17,1.21-3.25-4.65-5.76-9.87-8.85-14.06a8.18,8.18,0,0,1-1.39-1.74c-1.2-1.67,1.71,1.23,1.39,1.74C98.74,39.44,99.8,42,99.69,40.66Zm2.43,7.12c-.73-1.13-1.11-1.75-1.91-3a8.45,8.45,0,0,1-.87-1.56c.14-.48,1.57,1.85,2.26,3,.46.74,1,1.68,1.57,2.61S102.48,48.33,102.12,47.78Zm10.77,14.41c-3.45-6.52-7-12.93-10.77-18.75-.59-.92-1-1.82-1.56-2.78-1.49-2.7-3.85-4.47-5.39-7.47-.1,0-.2,0-.17-.17s-.2,0-.17-.18c-.21,0-.11-.25,0,0,.1,0,.2,0,.17.18.11,0,.21,0,.17.17.41.12.47.58.88.69-.7-1-1.08-1.57-2.09-2.77-.44-.53-3.42-3.75-1.74-2.43a19.15,19.15,0,0,1,1.92,2.08A141.74,141.74,0,0,1,109.59,53c2.58,4.47,4.79,9,7.46,13.89,1.76,3.21,4,7.15,5.74,10.41.78,1.48,1.94,2.71,1.91,4.18,0,.35.22.3.17.86,0,.2-.39.36-.35.52s1,.05.35.35c-.12.06,0,.29-.17.35-.38.11-1.48-1.92-1.57-2.08C119.49,74.68,116.38,68.79,112.89,62.19Zm32.29,75a6.32,6.32,0,0,1-1.38-1.56c-2.18-2.56-3.48-4.33-5.21-6.77-4.66-6.58-8-12.26-12.16-19.45-1.31-2.25-3-4.77-4.34-7.46-.31-.61-1-2.4.18-2.44.75,0,2.68,4.15,3.12,4.86s.9,1.09,1.22,1.57c.66,1,1,2.26,1.56,3.3a230.89,230.89,0,0,0,13.2,21.36c.25.15.54.26.52.69.1,0,.2,0,.17.17.21,0,.11.25,0,0-.11,0-.21,0-.17-.17-.26-.15-.55-.26-.52-.69a48.8,48.8,0,0,1-3.13-4,48.41,48.41,0,0,0,5.38,8.16c.48.58,2.11,2.33,2.09,2.43C145.64,137.54,145.32,137.29,145.18,137.2Zm8.34,3.65c-3.6-2.1-5.91-6.46-8.34-8.85,0,.32.2.38.18.69.1,0,.21,0,.17.17.21,0,.11.26,0,0-.1,0-.2,0-.17-.17-.73-.06-2.07-2.73-2.43-2.61s.3,1,.35,1c-.62-.15-2.23-2.59-3-3.65-1-1.55-1.84-2.93-2.6-4-3.95-5.52-8-12.35-11.46-18.41-.74-1.31-1.8-3-2.43-4.17a10.08,10.08,0,0,1-1-2.43c.14-.59,1.07-.66,1.39-.52,1,.45,1.42,1.52,2.25,3,5.19,9,9.92,17.09,15.28,25.35,1.17,1.81,2.56,3.53,3.82,5.21,2.14,2.85,4.84,6.61,7.82,9C154.74,141.63,153.42,140.79,153.52,140.85ZM141.37,122.1ZM162,137.9a32.23,32.23,0,0,1-5-4.51,96.26,96.26,0,0,1-9.55-12c-1.35-2-3.27-5.81-4.86-6.94.6,1.48,1.83,2.33,2.26,4,.13,0,.2.14.17.34.21,0,.11.26,0,0-.13,0-.2-.14-.17-.34-5.45-7.6-9.46-15-14.07-23.27-.59-1.06-2.12-3.08-1.91-3.47.31-.56,1.3-.18,1.57,0a13.21,13.21,0,0,1,.87,1.39c1.47,2.72,3.71,6.77,5,9,7.09,12.18,14.24,23.92,23.09,33C159.76,135.46,163.87,139.17,162,137.9Zm-3.47-19.8c-.21,0-.11-.25,0,0,.27-.42-.72-.68-1.05-1a35.86,35.86,0,0,1-2.6-3.82c-4.41-6.62-8.37-13.38-12.33-20.49-1.27-2.28-2.32-4.34-3.48-6.42-.34-.63-1.31-1.51-.69-1.91,1.06-.69,1.35,1,1.57,1.38,1.27,2.39,2.51,4.5,3.64,6.43,2,3.47,3.09,6,4.69,8.85,1.32,2.4,3,4.75,4.52,7.13a138,138,0,0,0,14.93,20.14.66.66,0,0,1,.7.69c.71-.16,0,.52,0,0a1.51,1.51,0,0,1-.7-.69C164.06,125.55,161.79,121.36,158.56,118.1Zm15.1,25.53c.3,0-1.08-.14-1.21-.18-.48-.15-.71-.64-.87-.69-.42-.14-1.4-.11-2.09-.35a10.69,10.69,0,0,1-3.81-2.43.48.48,0,0,0,.17,0c.85-.32,1.39.87,2.08,1.22a44.66,44.66,0,0,0,5.21,1.73C173.05,142.9,176.83,143.87,173.66,143.63Zm-2.08-5.21c-.21,0-.11-.26,0,0C172.3,138.25,171.61,138.93,171.58,138.42Zm.18,3.3c.1.11-.08-.07,0,0Zm1-2.78c.21,0,.11.25,0,0C171.67,139,172.41,138.24,172.79,138.94Zm.7.17c.08.08-.3.23-.35.18S173.44,139.07,173.49,139.11Zm1.39,2.43c-.21,0-.11-.25,0,0C175.8,141.36,175.08,142.07,174.88,141.54Zm2.94.72c.07.1,1.52-.13,1.57.15S177.82,142.45,177.82,142.26Zm2.27-.19a10.15,10.15,0,0,1-2.78-.53C177.2,141.05,180.31,141.85,180.09,142.07Zm-2.26-1c1.11-.2.38.53,0,0C176.91,141.21,177.63,140.5,177.83,141Zm1.74.35s.77-.27.87-.17S179.91,141.72,179.57,141.37ZM181,141a5.08,5.08,0,0,1-2.25-.34c-2.1-.45-4.88-1.3-5.91-2.26-.13,0-.34,0-.34-.17-.72.16,0-.52,0,0,.13,0,.34,0,.34.17h.53c.2-.53.91.18,0,0a14.23,14.23,0,0,0,1.91,1,12.15,12.15,0,0,0,2.26.35c-.23-.07,2.4,1.41,2.95.87a9.37,9.37,0,0,0-1.91-.87c.09-.39,2.68.32,2.95.34C182.56,140.28,180.88,141.05,181,141Zm.7-1.56a5,5,0,0,1-2.08-.35c-.38-.12-.64-.5-1-.69-.58-.27-1.25-.15-1.74-.35a4,4,0,0,1-1.39-1c.67-.67,2.41.48,3.65.87a27.65,27.65,0,0,1,3.47.87C182.55,138.88,181.56,139.49,181.65,139.46Zm2.43-2.77c-.08-.09.3-.23.35-.18S184.13,136.73,184.08,136.69Zm.27-.46.08.11c-.12-.05-.13-.08-.08-.11s-.21-.41-.1-.41c-.34,0-.69.54-.92.46,1.09,1.06-.89,1.1-2,.75a33.24,33.24,0,0,1-6.26-2.43c-1.6-1-.66-.85,1,0,.16.08,3.11,1.28,1.56.52a34.38,34.38,0,0,1-4-2.08c-.07-.06-.06-.44-.34-.7s-.77-.31-1-.52a22.82,22.82,0,0,1-2.26-1.91c-1.53-1.47,2.07,1.21,2.08,1.22a30.88,30.88,0,0,0,9.38,4.51c-.86-.37-2-1-3.3-1.56s-3.75-1.38-3-1.91c-.06-.52-2.52-1.31-2.26-1.91.17-.4,1.53.42,1.39.35,2.55,1.3,4.55,2.94,7.12,4,.6.25,3.29.84,3.47,1C185.28,136,184.52,136.12,184.35,136.23Zm1.47-1.63c-.18.1-1.87,0-2.08,0,.66.4,2.6.54,1,.52s-5.94-1.78-6.25-2.43c-.14,0-.34,0-.35-.17s-.34,0-.35-.18c-.21,0-.11-.25,0,0,.14,0,.34,0,.35.18s.34,0,.35.17c1.84.52,3.15,1.59,5.21,1.91-.8-.38-2.17-1-3.82-1.74a33.89,33.89,0,0,1-4-1.73c0-.19,2.91,1,3.3.87-1-.67-2-.63-2.78-1.05-.17-.09-.29-.54-.52-.69s-.67-.17-.87-.35.29-.28.35-.17c-.32-.61-2.05-1.06-2.26-1.74-.72.17,0-.52,0,0,3.49,1.84,6.77,3.89,11.11,4.86v-.17c-.2,0-.49,0-.51-.17-.73.16,0-.52,0,0,.2,0,.49,0,.51.17.82-.12.82.29,0,.17.62.69,2,.07,2.26.7A4,4,0,0,1,185.82,134.6Zm-3.3-4.17c.72-.16,0,.52,0,0C181.07,130.43,181.82,129.68,182.52,130.43Zm.87.35c-.73.17,0-.52,0,0C184.52,130.74,183.78,131.48,183.39,130.78Zm.52-1.57c.08.09-.3.23-.35.18S183.86,129.17,183.91,129.21Zm.34,2.09c.38-.06.53-.06.56,0,.47,0,1.07.08,1.18.37.36,1-2.25.47-2.43.17,0,.07,1.33-.41,1.25-.54A4.78,4.78,0,0,0,184.25,131.3Zm-1.38-2.09c-.09-.08.43-.25.52-.17S183,129.3,182.87,129.21Zm3.64,2.79a1.08,1.08,0,0,1,0-.18C187.14,131.2,186.51,132.89,186.51,132Zm-.17-5c.17.2.67.36.69.52.15,1-1.39.08-2.08-.18a14.93,14.93,0,0,1-2.78-1c-.17-.13-.16-.85-.17-.87-.29-.32-1.37-.47-2.08-.86a15.21,15.21,0,0,1-5-3.83c-.12-.15,0-.52-.17-.69-.63-.75-1.62-1.46-2.78-2.77-.39-.45-.73-1-1.22-1.57s-2.16-2.28-.52-1c2,1.5,3.82,4.76,5.56,5.9.2.13.64-.09.87,0,.54.24,2.12,2.07,2.95,2.61.16.11,1.87.76,1.74.86.43-.32-1.16-1.25-1.05-1-.07-.14.33-.35.18-.52-1.24-1.33-3-1.93-4.17-3.12-1.39-1.37-2.15-2.83-3.65-3.82a11,11,0,0,0,1.57,1.91c.56.63,2.51,2.72,1,1.56-2.11-1.65-3.54-3.82-5.21-5.73a47.44,47.44,0,0,1-3.13-4A236.66,236.66,0,0,1,152,85.11c-.25-.45-1.86-3.26-.87-2.08,1.58,1.88,4,6.88,4.69,8.16,2.28,4,3.53,5.59,5.16,8.25a1.23,1.23,0,0,1-.13-.26c-.06-.29.38-.45.35-.52-.1-.23-.38-.36-.52-.52-.53-.68-.25-.5-.35-1,0,0-.31-.28-.34-.35a19.68,19.68,0,0,0-1.57-2.6c-.38.72-1.14-1.17-2.07-2.78-.18-.29-2.14-3.24-1.92-3.47.42-.42,1.12,2,1.39,1.73a43.69,43.69,0,0,0-3.13-5.73,10.72,10.72,0,0,1-1.21-2.6c-.47-1.15-2-3-1.57-3.47.69-.68,1.65,1.53,1.57,1.39a14.66,14.66,0,0,1,.86,2.08c.06.22.29.06.35.18,2.24,4.32,5,9.37,7.3,13A201.92,201.92,0,0,0,172.1,112.2a62,62,0,0,0,6.08,6.94,33.16,33.16,0,0,0,2.77,2.61c.24.15.57,0,1.05.17.67.3,1.69,1.36,2.95,2.08.48.28,3.43,1.42,3.48,1.57a1.13,1.13,0,0,1-.87.87C188.13,127.25,186.93,127.17,186.34,127Zm-2.43-9.55c-.11,0-.2,0-.17-.17-.73.16,0-.52,0,0,.1,0,.2,0,.17.17C184.12,117.39,184,117.66,183.91,117.41Zm1,5.55c.08.45-1.36-.5-1.39-.52s-.53-.23-.52-.17C182.93,121.67,185,123,185,123Zm1.73-3.64c0,.08,2,.62,2.09.87S186.72,119.67,186.68,119.32Zm1.57,8c-.08-.08.3-.22.35-.17S188.3,127.35,188.25,127.3Zm.18-.69s.15-.32.17-.35C189.3,125.53,189.06,127.25,188.43,126.61Zm.17-.87c-.07-.27.52,0,.52,0C189.13,126,188.64,125.93,188.6,125.74Zm4.34-19.44c-.33,3.49-.83,7.41-1.39,10.42A10.13,10.13,0,0,1,191,119c-.76,0-.26-3.25-.7-1.22-.22,1-.37.73-.69,1.22-.07.12-.07.65-.17.69-.75.29-2.2-1.21-3-1.73-1-.68-2-1.28-2.77-1.91,0,.09-.15.2-.18,0-3.45-2.12-6.16-5.48-8.85-8.86a96.85,96.85,0,0,1-7.29-10.42c-3.14-5.19-6.6-11.25-9.73-16.84-.32-.56-3.26-5.25-2.78-5.73.67-.66,1,.67,1.22,1,2.63,3.94,4.21,8.3,6.77,11.64-1.72-3.15-3.41-6.4-5.21-9.73-.19-.35-1.92-3.1-1.91-3.12.15-.55,4.2-1.81,5.21-2.09a39.22,39.22,0,0,1,16.32-.69c-.12-.29.82-.29.7,0,.62-.13.62.3,0,.17,3.68,1.32,7.1,3.37,9.2,6.08,1,1.33,3,3.76,3.3,5.21.09.42-.28.68-.18,1,.34,1.19,1.6,2.73,1.91,4,.1.38-.06.79,0,1.22.34,2.39,1.26,5.11,1.22,7.64,0,1.35-.49,3.07-.52,4.51C192.89,103,193.16,104,192.94,106.3Zm10.59-14.77c.29-.78.57.82.35,1S203.27,92.25,203.53,91.53Zm0,36.82c-.2-.21.3-.49.35-.52C204.86,127.08,203.88,128.7,203.53,128.35Zm1.39-.87c.07-.2.37-.19.35,0S204.85,127.68,204.92,127.48Zm3.13-4.34c-.08-.08.3-.23.34-.18S208.1,123.18,208.05,123.14Zm2.25-1.56c0,.52-.72-.17,0,0C210.48,120.85,211.22,121.58,210.3,121.58Zm.87-.52c-.09-.09.3-.23.34-.18S211.22,121.1,211.17,121.06Zm.34-.36c-.08-.08.44-.26.53-.17S211.61,120.8,211.51,120.7Zm6.26-2.6s.23-.28.35-.17C218.43,118.25,216.37,119,217.77,118.1Zm-150,58.18a.56.56,0,0,1,.08-.15C67.89,175.84,67.91,175.74,67.74,176.28ZM84.06,32.41l-.87-.95C82.94,31.86,83.7,32.12,84.06,32.41Zm99.27,103.87-.12-.12A.27.27,0,0,0,183.33,136.28ZM82.5,1.59a2.9,2.9,0,0,0,.39,0C82.64,1.57,82.48,1.57,82.5,1.59Zm-2.26.35c2,.1,1.64-.8,0,0Zm0,0c-1.11-.21-.38.52,0,0Zm17.37,0c0-.06-.43.09-.35.17S97.69,2,97.61,1.94Zm.87.52c0-.52-.73.16,0,0Zm0,0c0,.52.72-.17,0,0ZM99,2.8c.11.12-.08-.07,0,0Zm.69.35Zm1,.52Zm.35.17Zm.52.18c-.1-.26-.21,0,0,0Zm.35.17c0-.17-.21-.13-.35-.17C101.61,4.19,101.81,4.15,102,4.19Zm0,0c.11.25.21,0,0,0ZM65,6.8h.7V6.62C65.38,6.63,65,6.54,65,6.8ZM64.27,7c.27,0,.66.08.69-.17C64.68,6.81,64.3,6.71,64.27,7Zm0,0A4.75,4.75,0,0,0,62,7.84,4.43,4.43,0,0,0,64.27,7ZM61.49,8c.25,0,.49,0,.52-.17C61.76,7.82,61.52,7.81,61.49,8Zm0,0c-.72-.17,0,.52,0,0Zm-.7.35ZM57.84,10.1c-.43-.43-1.67.35-2.26.69C55.8,11,57.74,10,57.84,10.1Zm-2.26.69c-.24,0-.49,0-.52.17C55.31,11,55.56,11,55.58,10.79Zm-.52.17c-.92-.18-.2.53,0,0Zm-1.21.52c.72.17,0-.52,0,0Zm0,0c-.2,0-.31,0-.35.18C53.7,11.69,53.81,11.62,53.85,11.48Zm-.35.18c-.25,0-.49,0-.52.17C53.23,11.85,53.47,11.86,53.5,11.66Zm62,.87c-.1-.26-.2,0,0,0Zm0,0c0,.14.07.16.18.17C115.7,12.55,115.6,12.54,115.49,12.53Zm.18.17c0,.15.07.16.17.18C115.87,12.73,115.77,12.71,115.67,12.7Zm.17.18c0,.14.07.16.17.16S116,12.88,115.84,12.88ZM116,13c0,.15.07.17.18.18C116.22,13.07,116.12,13.06,116,13Zm.18.18c0,.15.06.17.17.18C116.39,13.25,116.29,13.23,116.19,13.22Zm.17.18c0,.14.07.16.17.17C116.57,13.42,116.47,13.41,116.36,13.4Zm.17.17c0,.15.07.16.17.17C116.74,13.59,116.64,13.58,116.53,13.57Zm-69.45.35c.25-.11,0-.21,0,0Zm74.66,3.64c-.1-.25-.21,0,0,0Zm0,0c.11.25.22,0,0,0Zm-86.12,1c.76,0,.05-.68,0,0Zm0,0c-.81.13-1.15.71-1.57,1.22A4,4,0,0,0,35.62,18.6Zm-1.57,1.22c-.29-.06-.32.13-.34.35C33.86,20.09,34,20,34.05,19.82Zm-.34.35c-.25.1,0,.21,0,0Zm-.87.69c.11.11-.08-.07,0,0Zm-1.39,3.3c-.72-.17,0,.52,0,0Zm34.9.17c.18.73.91,0,0,0ZM53,26.76c.17,0,.14-.21.17-.34C53,26.42,53,26.63,53,26.76Zm0,0c-.7.39,0,1.13,0,0Zm-23.79.18a18.08,18.08,0,0,0-3.64,2.78c-.92.91.23.19,1-.52a5,5,0,0,1,1.91-1.39C28.61,27.4,29.07,27.34,29.19,26.94ZM52.11,28.5Zm-.69,1.74c.52,0-.17-.72,0,0Zm-.18.34c.17,0,.14-.21.18-.34C51.25,30.25,51.28,30.45,51.24,30.58Zm-.17.53c.21,0,.15-.32.17-.53C51,30.61,51.1,30.9,51.07,31.11Zm-.17.35c.17,0,.13-.22.17-.35C50.9,31.11,50.93,31.32,50.9,31.46Zm32.29,0c0-.15-.06-.17-.17-.18C83,31.43,83.09,31.44,83.19,31.46Zm-32.29,0c-.52,0,.16.71,0,0Zm-.35.86c.52,0-.17-.72,0,0Zm81.27.18c-.11-.25-.21,0,0,0Zm-80.75.17c.25-.11,0-.21,0,0Zm45.32,1.74a.48.48,0,0,0-.34-.53A.47.47,0,0,0,96.39,34.41Zm.18.17c0-.15-.07-.16-.18-.17C96.36,34.55,96.46,34.57,96.57,34.58Zm.34.52a.47.47,0,0,0-.34-.52A.46.46,0,0,0,96.91,35.1Zm-26.22,0c0-.14-.07-.16-.17-.17S70.59,35.09,70.69,35.1Zm0,0c.11.25.21,0,0,0Zm26.22,0c.11.25.21,0,0,0ZM74.16,37.53c-.25.11,0,.21,0,0ZM50,39.44c.52,0-.17-.72,0,0ZM49.86,42c-.44.43-.48,1.32-.7,2.09-.11.4-.43,2-.17.87C49.1,44.54,50.42,41.5,49.86,42ZM15,48.82c.26-.51,2-3.29,1.91-3.82-.06-.33-1.39,2-1.91,3C15.17,47.88,14.28,50.14,15,48.82Zm33.69-3c-.35.34-.43,1.52-.52,1.91C47.73,49.45,48.92,45.59,48.64,45.87Zm69.11.52c0-.2,0-.31-.18-.35C117.55,46.24,117.62,46.35,117.75,46.39Zm.35.52a.48.48,0,0,0-.35-.52A.48.48,0,0,0,118.1,46.91ZM100.21,77.47A210.82,210.82,0,0,0,82.15,46.74c1.18,2.75,3.29,5,4.86,7.46C91.66,61.57,95.62,69.74,100.21,77.47Zm18.06-30.21c0-.2,0-.31-.17-.35C118.07,47.11,118.13,47.22,118.27,47.26Zm.18.34c0-.2,0-.31-.18-.34C118.24,47.46,118.31,47.56,118.45,47.6Zm0,0c.1.26.21,0,0,0Zm.34.53c-.11-.26-.21,0,0,0Zm.18.34c0-.2,0-.31-.18-.34C118.76,48.33,118.83,48.43,119,48.47Zm0,0c.1.25.21,0,0,0Zm.17.52c.11.12-.07-.07,0,0Zm.35.35c-.11-.25-.21,0,0,0Zm.17.35c0-.21,0-.31-.17-.35C119.46,49.54,119.52,49.65,119.66,49.69Zm.17.34c0-.2,0-.31-.17-.34C119.63,49.89,119.7,50,119.83,50Zm0,0c.11.25.22,0,0,0Zm.18.53ZM17,50.73c-.25.1,0,.21,0,0Zm-6.25.69c.51,0-.17-.72,0,0Zm0,0c-.18,0-.14.22-.18.35C10.78,51.77,10.74,51.56,10.79,51.42Zm-.18.35c-.2,0-.14.31-.18.52C10.64,52.26,10.58,52,10.61,51.77Zm11.29.35c-1.1.83-.39,2,0,0Zm-11.47.17c-.2,0-.14.32-.17.52C10.47,52.78,10.41,52.49,10.43,52.29Zm110.62.18c-.07-.08.11.11,0,0Zm.17.34Zm-111,0c-.25.11,0,.21,0,0ZM99.17,53v.17h.17C99.38,53,99.28,53,99.17,53Zm22.57.52c-.1-.26-.21,0,0,0Zm0,0c.11.25.22,0,0,0ZM13.39,54c.52,0-.16-.72,0,0Zm108.53,0c.11.11-.07-.08,0,0ZM13.39,54c-.25.1,0,.21,0,0Zm108.7.34c.11.12-.07-.07,0,0Zm.35.35c-.11-.25-.21,0,0,0Zm.17.35c0-.2,0-.31-.17-.35C122.41,54.92,122.48,55,122.61,55.07Zm.18.35c0-.2,0-.31-.18-.35C122.58,55.27,122.65,55.38,122.79,55.42Zm-109.92,0c.25-.11,0-.21,0,0Zm109.92,0c-.17.72.52,0,0,0Zm.34.69c-.1-.25-.21,0,0,0Zm.18.35c0-.2,0-.31-.18-.35C123.11,56.31,123.17,56.42,123.31,56.46Zm.17.35c0-.21,0-.31-.17-.35C123.28,56.66,123.34,56.77,123.48,56.81Zm.17.34c0-.2,0-.31-.17-.34C123.45,57,123.52,57.11,123.65,57.15Zm.35.53a.48.48,0,0,0-.35-.53A.5.5,0,0,0,124,57.68Zm.18.34c0-.2,0-.31-.18-.34C124,57.88,124,58,124.18,58ZM15.47,58c-.52,0,.17.72,0,0Zm108.88.35c0-.21,0-.31-.17-.35C124.15,58.22,124.21,58.33,124.35,58.37Zm-24.66.34c0-.2,0-.3-.17-.34C99.49,58.57,99.55,58.68,99.69,58.71Zm24.83,0c0-.2,0-.3-.17-.34C124.32,58.57,124.39,58.68,124.52,58.71Zm-24.66.36c0-.21,0-.32-.17-.36C99.66,58.92,99.73,59,99.86,59.07Zm24.66-.36a7.41,7.41,0,0,0,1.39,2.61A7.59,7.59,0,0,0,124.52,58.71Zm108.53.36a3.06,3.06,0,0,0,.17,1.73C233.66,65.45,233.34,58.27,233.05,59.07Zm-133,.34c0-.2,0-.31-.18-.34C99.84,59.27,99.9,59.38,100,59.41Zm0,0c.1.25.2,0,0,0Zm.17.52Zm2.43,0Zm-71,.18c.25-.11,0-.21,0,0Zm0,0c-.63.76.48.65,0,0Zm71.37.17c-.11-.25-.21,0,0,0Zm60.08,0c1.3.21.56-.53,0,0Zm-148.29.17c.11.11-.08-.07,0,0Zm85.78-.17a1,1,0,0,0,0,.17C100.56,61.58,101.06,59.77,100.56,60.28Zm2.43,0c0,.2,0,.31.18.35C103.19,60.42,103.13,60.32,103,60.28Zm60.08,0c-1.11-.2-.38.53,0,0Zm73.8,5.55a31.38,31.38,0,0,0-.87-5.38c-.21.21.29,2,.25,1.51,0-.15-.05-.32-.08-.47.05.24.07.39.08.47a56.66,56.66,0,0,1,.27,10.13,29.49,29.49,0,0,1-.52,5.2c-.34,1.29.21.28.35-.34A46.36,46.36,0,0,0,236.87,65.83Zm-133.7-5.2c0,.2,0,.31.17.34C103.37,60.77,103.3,60.67,103.17,60.63Zm-71.89.52a4.3,4.3,0,0,0-.35,1.56c-.09.54-.11,2.66.17,1.22C31.24,63.19,31.68,60.57,31.28,61.15Zm69.8,0c-.11-.26-.21,0,0,0Zm0,0c0,.2,0,.31.17.34C101.28,61.29,101.22,61.19,101.08,61.15Zm25,.52c0-.2,0-.31-.18-.35C125.88,61.52,126,61.63,126.09,61.67Zm-24.84-.18c.11.26.21,0,0,0Zm25,.52c0-.2,0-.31-.17-.34C126.06,61.87,126.12,62,126.26,62Zm.17.36c0-.21,0-.31-.17-.36C126.23,62.22,126.3,62.32,126.43,62.37Zm.18.16c0-.14-.07-.16-.18-.16S126.5,62.53,126.61,62.53Zm0,0c-.17.73.52,0,0,0Zm-24,9.56c-.81-1.54-1.24-2.71-1.91-4-1.09-2.09-2-4.3-2.78-5-.11-.11-.45-.23-.52,0s1.14,2.14,1.39,2.61c.56,1,.89,1.65,1.39,2.6.59,1.14,1.39,2.84,2.09,4,.25.42,1.62,1.69.87.35C102.09,70.72,103.23,73.19,102.64,72.09ZM13.91,63.58c.25-.11,0-.22,0,0Zm0,0c-.25.1,0,.21,0,0Zm219.48,3.3c0-.12-.06-1.29-.17-.87C233,66.74,233.34,67.09,233.39,66.88Zm1.92-.53c-.16.89.28.76.34.7S235.43,65.66,235.31,66.35Zm-119.64.36c.11.11-.07-.08,0,0Zm13.19.17c.17-.72-.52,0,0,0Zm-13,.17c.11.12-.07-.07,0,0Zm13-.17c.11.25.21,0,0,0ZM116,67.4Zm13.2.35c.11.11-.07-.08,0,0Zm103.49,0c.12.11-.07-.08,0,0Zm.35,0c.11.11-.07-.08,0,0Zm2.26,1.56c-.46.47-.13,2-.18,3.12,0,.55-.71,1.87,0,2.43-.15-.12.18-.54.18-.52C235.35,73.81,235.54,69.07,235.31,69.31Zm-2.43,2.08a5.85,5.85,0,0,0-.18-1.74A2.57,2.57,0,0,0,232.88,71.39ZM102.82,70ZM43.43,71.39c0,.06,0,.28,0,.35-.13,1-.56,4-.7,5.55,0,.41-.09,2.77.18,2.61a25.52,25.52,0,0,0,.52-4.17C43.64,73.77,43.87,70.78,43.43,71.39Zm134.58,0v-.17h-.7C177.36,71.46,177.75,71.36,178,71.39Zm-46.71.18Zm101.4.34c-.26.33-.58,5.35-.17,3.3C232.6,74.85,233.14,71.36,232.7,71.91Zm-28.47.18Zm.34.52c.17-.72-.52,0,0,0Zm0,0c-.16.72.53,0,0,0ZM7.31,73.3Zm197.61,1a71.52,71.52,0,0,1,2.26,7.47c0-.17.63,2.27.52.7A46.13,46.13,0,0,0,205.27,74c-.1-.16-.45-.2-.52,0S204.89,74.27,204.92,74.34ZM2.28,74.69c-.15,1,.09-.69,0,0Zm232.51.52c-.09.08,0,.57,0,.7-.15.81-.48,3-.52,3.47s-.24,2,0,.69C234.37,79.49,235.23,74.78,234.79,75.21ZM2.1,77.47c0-.12-.06-1-.17-.52C1.78,77.61,2,77.82,2.1,77.47Zm98.11,0c-.06.58.3.74.52,1A1,1,0,0,0,100.21,77.47ZM1.58,81.64A26.76,26.76,0,0,0,1.76,78c-.38.61-.21,2.52-.35,3.82-1.56,14.31-2,30-.35,44.11.36,3,1.28,9.41,2.08,12.85s.21.45-.17-1.74C0,119.76-.33,100.19,1.58,81.64Zm1.56-.35c0-.08-.05-1.15-.17-.69C2.81,81.25,3.1,81.48,3.14,81.29ZM3,81.81c.25-.11,0-.21,0,0Zm0,0c-.52,1.25.2,2,0,0ZM2.8,84.59c0-.08-.06-1.15-.18-.7C2.46,84.55,2.75,84.77,2.8,84.59Zm205.25,3c0,.34.07,1.37.17.87s-.28-3.64-.52-3A6.65,6.65,0,0,0,208.05,87.54ZM2.62,86.5c0-.08-.06-1.15-.17-.7C2.29,86.46,2.58,86.68,2.62,86.5Zm115-.7c-.1-.25-.2,0,0,0Zm0,0c.11.26.22,0,0,0Zm.18.7Zm115.82.17c.52,0-.17-.72,0,0Zm0,0c-.61.6-.14,2.46,0,0Zm-70.67.18c.1.25.21,0,0,0ZM2.28,87.54c.11.11-.08-.07,0,0Zm0,.35c-.15,1,.09-.7,0,0Zm115.82.87c-.26.1,0,.21,0,0ZM156,90c0-.2,0-.31-.17-.35C155.75,89.83,155.81,89.93,156,90Zm.18.35c0-.21,0-.31-.18-.35C155.92,90.18,156,90.28,156.13,90.32Zm0,0a3.78,3.78,0,0,0,1,1.74A3.26,3.26,0,0,0,156.13,90.32Zm1.21,2.09c0-.21,0-.32-.17-.35C157.14,92.26,157.21,92.36,157.34,92.41Zm50.88-.18c0,.12.37.25.35,0C208.57,92.22,208.14,92,208.22,92.23Zm-50.36,1c-.06-.41-.18-.75-.52-.86C157.4,92.81,157.52,93.15,157.86,93.27Zm.18.35c0-.2,0-.31-.18-.35C157.83,93.47,157.9,93.58,158,93.62Zm0,0a.48.48,0,0,0,.34.52A.47.47,0,0,0,158,93.62Zm11.63,4.52c-.11-.26-.21,0,0,0Zm0,0a.48.48,0,0,0,.35.52A.47.47,0,0,0,169.67,98.14Zm.35.52c0,.2,0,.3.17.34C170.22,98.8,170.15,98.69,170,98.66Zm.17.34c0,.15.07.17.18.18C170.4,99,170.3,99,170.19,99Zm.18.18c0,.2,0,.31.17.34C170.57,99.32,170.5,99.21,170.37,99.18ZM1.58,99.52Zm169,0c0,.15.07.17.17.18C170.74,99.55,170.65,99.53,170.54,99.52Zm.17.18c.11.25.21,0,0,0Zm-169.13.52c.12.11-.07-.08,0,0Zm.18.69c0-.24-.11-.68-.18-.35S1.69,101.24,1.76,100.91ZM228,100.74c.11.11-.08-.07,0,0Zm-.18.52c.12.11-.07-.07,0,0Zm-55.39,1c-.11-.25-.21,0,0,0Zm0,0c0,.2,0,.31.17.34C172.65,102.45,172.58,102.34,172.45,102.3Zm.17.34c0,.16.07.17.17.18C172.83,102.67,172.73,102.66,172.62,102.64Zm.17.18a.48.48,0,0,0,.35.52A.48.48,0,0,0,172.79,102.82Zm.35.52a.48.48,0,0,0,.35.52A.48.48,0,0,0,173.14,103.34Zm.35.52a.47.47,0,0,0,.35.52A.48.48,0,0,0,173.49,103.86Zm.35.52c0,.15.06.17.17.18C174.05,104.41,173.94,104.39,173.84,104.38Zm.17.18c0,.2,0,.31.18.34C174.21,104.71,174.14,104.6,174,104.56Zm.18.34c0,.15.06.17.17.18C174.39,104.93,174.29,104.91,174.19,104.9Zm.17.18a.48.48,0,0,0,.35.52A.48.48,0,0,0,174.36,105.08Zm.35.52c0,.15.06.16.17.18C174.91,105.63,174.81,105.61,174.71,105.6Zm.17.18a.48.48,0,0,0,.35.52A.47.47,0,0,0,174.88,105.78Zm-46.19.34Zm46.54.18a.48.48,0,0,0,.34.52A.47.47,0,0,0,175.23,106.3Zm.34.52c0,.15.07.16.18.17S175.68,106.82,175.57,106.82Zm.18.17c0,.15.07.16.17.17S175.85,107,175.75,107Zm-46.36.35Zm46.53-.18a.47.47,0,0,0,.35.52A.48.48,0,0,0,175.92,107.16Zm.35.52c0,.15.06.17.17.18C176.47,107.71,176.37,107.7,176.27,107.68Zm.17.18c0,.43.27.54.52.69C177,108.12,176.69,108,176.44,107.86Zm-37.51.52c-.1-.25-.2,0,0,0Zm0,0c-.16.72.52,0,0,0Zm38,.17c0,.44.27.55.53.7C177.51,108.81,177.22,108.7,177,108.55Zm-46.53.35c-.11-.25-.21,0,0,0Zm0,0c0,.2,0,.31.17.35C130.63,109.05,130.56,108.94,130.43,108.9Zm.17.35c.11.25.21,0,0,0Zm46.89,0c0,.15.07.16.17.17C177.69,109.27,177.59,109.25,177.49,109.25Zm.17.17c0,.15.07.16.17.18C177.87,109.45,177.76,109.43,177.66,109.42Zm-46.71.35c-.11-.26-.21,0,0,0Zm8.85.17c.17-.72-.52,0,0,0Zm38-.34c0,.43.27.54.52.69C178.38,109.85,178.09,109.75,177.83,109.6Zm-46.88.17a.27.27,0,0,0,.17.35C131.15,109.91,131.08,109.81,131,109.77Zm8.85.17c0,.15.07.16.18.18C140,110,139.91,110,139.8,109.94Zm-8.68.18c.11.25.21,0,0,0Zm8.86,0c0,.2,0,.31.17.34C140.18,110.26,140.11,110.15,140,110.12Zm38.37.17c0,.14.07.17.18.17S178.46,110.3,178.35,110.29Zm-46.88.35c-.11-.26-.21,0,0,0Zm8.68-.18c.1.26.21,0,0,0Zm38.38,0c0,.44.26.55.52.7C179.08,110.72,178.78,110.62,178.53,110.46Zm-47.06.18c0,.19,0,.3.17.34C131.67,110.79,131.6,110.68,131.47,110.64Zm8.85.34Zm-8.68,0c.11.26.21,0,0,0Zm38.9.18c-.1-.25-.21,0,0,0Zm0,0c.11.25.21,0,0,0Zm8.51,0c0,.15.06.16.17.17C179.25,111.18,179.15,111.17,179.05,111.16Zm.17.17c0,.15.07.17.17.17S179.33,111.34,179.22,111.33Zm.17.17c0,.15.07.17.18.18C179.6,111.53,179.5,111.51,179.39,111.5Zm-47.23.35c-.1-.25-.21,0,0,0Zm47.41-.17c0,.14.07.16.17.17S179.67,111.69,179.57,111.68Zm-47.41.17c.11.26.21,0,0,0Zm47.58,0c0,.15.07.17.18.17S179.85,111.86,179.74,111.85Zm.18.17c.11.64.63.87,1,1.22C180.84,112.6,180.32,112.38,179.92,112Zm-47.58.36c.11.11-.07-.08,0,0Zm8.85,0c.12.11-.07-.08,0,0Zm.35.34c-.11-.25-.21,0,0,0Zm80.4.34c.73-.17,0-.9,0,0Zm-80.4-.34c0,.2,0,.31.17.34C141.74,112.87,141.67,112.75,141.54,112.72Zm.17.34c.11.26.22,0,0,0Zm80,.36c.17,0,.14-.22.18-.36C221.77,113.07,221.8,113.28,221.76,113.42ZM181,113.24c0,.15.08.16.18.18C181.16,113.27,181.06,113.25,181,113.24Zm-47.74.35c-.11-.25-.21,0,0,0Zm47.92-.17c0,.14.07.16.18.17C181.34,113.44,181.24,113.42,181.13,113.42Zm40.29.52a.48.48,0,0,0,.34-.52A.46.46,0,0,0,221.42,113.94Zm-88.21-.35c0,.2,0,.3.17.35C133.4,113.74,133.34,113.63,133.21,113.59Zm48.1,0c0,.15.06.16.17.17C181.51,113.62,181.41,113.6,181.31,113.59Zm-39.25.35c.11.11-.07-.08,0,0Zm39.42-.18c0,.15.07.16.17.18C181.68,113.79,181.58,113.77,181.48,113.76Zm-48.1.18c.11.25.21,0,0,0Zm48.27,0c0,.14.07.16.17.17C181.86,114,181.75,114,181.65,113.94Zm39.41.52a.5.5,0,0,0,.36-.52A.48.48,0,0,0,221.06,114.46Zm-39.24-.35c0,.15.08.16.18.17C182,114.13,181.93,114.12,181.82,114.11Zm-48.27.35Zm9,0c-.11-.26-.21,0,0,0Zm39.42-.18c0,.15.07.17.17.18C182.21,114.31,182.11,114.29,182,114.28Zm.17.18c0,.14.07.16.18.17C182.38,114.48,182.27,114.47,182.17,114.46Zm-48.27.34c-.11-.25-.21,0,0,0Zm48.45-.17c.1.25.2,0,0,0Zm-48.45.17a.47.47,0,0,0,.35.52A.48.48,0,0,0,133.9,114.8Zm49,.35c-.11-.25-.21,0,0,0Zm0,0c0,.15.06.17.17.17S183,115.16,182.87,115.15Zm-48.62.17c.1.26.2,0,0,0Zm38.2,0c0,.15.07.17.17.18C172.66,115.35,172.55,115.34,172.45,115.32Zm10.59,0c0,.15.07.17.17.18C183.24,115.35,183.15,115.34,183,115.32Zm.17.18c0,.15.07.16.18.17C183.42,115.52,183.32,115.51,183.21,115.5Zm.18.17c0,.15.07.17.17.17S183.49,115.68,183.39,115.67Zm.17.17V116h.18C183.77,115.87,183.67,115.85,183.56,115.84Zm37,.52c.72-.17,0-.91,0,0Zm-85.78-.16c-.11-.26-.21,0,0,0Zm39.76,0c-.1-.26-.2,0,0,0Zm-39.76,0c0,.19,0,.3.17.34C135,116.34,134.9,116.23,134.77,116.2Zm39.76,0c0,.14.07.16.18.16S174.64,116.2,174.53,116.2Zm.18.16c.1.26.21,0,0,0Zm45.84,0c-.25.11,0,.22,0,0Zm-85.61.18c0,.15.07.16.17.18C135.15,116.57,135.05,116.55,134.94,116.54Zm.17.18c0,.19,0,.3.18.34C135.32,116.86,135.25,116.75,135.11,116.72Zm85.09.17c.26-.11,0-.21,0,0Zm-.35.52a.48.48,0,0,0,.35-.52A.48.48,0,0,0,219.85,117.41Zm-84.56-.35c.11.25.21,0,0,0Zm40.28.35c-.1-.25-.21,0,0,0Zm-39.93.17c-.11-.25-.21,0,0,0Zm39.93-.17c0,.15.07.16.18.17C175.78,117.43,175.68,117.42,175.57,117.41Zm44.11.17c.15,0,.16-.07.17-.17S219.69,117.48,219.68,117.58Zm-84,0c.1.26.2,0,0,0Zm40.11,0c0,.15.07.17.17.17S175.85,117.59,175.75,117.58Zm43.93,0c-.25.11,0,.21,0,0Zm-43.76.17c0,.16.07.17.18.18C176.13,117.78,176,117.76,175.92,117.75ZM136,118.1c-.1-.25-.21,0,0,0Zm40.12-.17c0,.15.06.17.17.17S176.2,117.94,176.1,117.93Zm33,.34c.52,0-.17-.71,0,0Zm10.25-.17c.25-.1,0-.21,0,0Zm-83.36,0c0,.21,0,.31.18.35C136.18,118.25,136.12,118.14,136,118.1Zm40.29,0c0,.15.06.17.17.17S176.37,118.11,176.27,118.1Zm42.89.17c.15,0,.16-.06.18-.17C219.19,118.07,219.17,118.17,219.16,118.27Zm-42.72,0c0,.16.07.17.18.18C176.65,118.3,176.55,118.29,176.44,118.27Zm42.72,0c-.73.19,0,.91,0,0Zm-83,.18c.11.25.2,0,0,0Zm40.46,0c0,.14.06.17.17.17S176.72,118.46,176.62,118.45Zm.17.17c0,.15.07.16.17.17C177,118.65,176.9,118.63,176.79,118.62ZM136.5,119c-.1-.25-.21,0,0,0Zm40.46-.18c0,.15.07.17.18.18C177.17,118.83,177.07,118.81,177,118.79ZM136.5,119c0,.2,0,.31.18.35C136.71,119.12,136.64,119,136.5,119Zm40.64,0c0,.15.06.17.17.17S177.24,119,177.14,119Zm.17.17c0,.15.07.17.18.18C177.51,119.17,177.42,119.16,177.31,119.14Zm41.68.18c.25-.11,0-.21,0,0Zm-82.31,0c.11.25.21,0,0,0Zm40.81,0c.1.25.2,0,0,0Zm41.5,0c-.16,0-.17.06-.18.17C219,119.53,219,119.43,219,119.32Zm-82,.52c-.11-.25-.21,0,0,0Zm0,0c.1.25.2,0,0,0Zm.34.52c-.11-.25-.21,0,0,0Zm-29.17.17c.11.12-.07-.07,0,0Zm29.17-.17c0,.2,0,.31.18.34C137.57,120.51,137.51,120.4,137.37,120.36Zm-30,1.56a4,4,0,0,0-.52,1.22C107.51,122.79,108.86,119.1,107.33,121.92Zm30.22-1.22c.1.26.21,0,0,0Zm.34.53c-.11-.26-.21,0,0,0Zm0,0c0,.2,0,.3.18.35C138.1,121.38,138,121.27,137.89,121.23Zm-96.72.69c0-.23-.1-.67-.17-.34S41.11,122.25,41.17,121.92Zm96.9-.34c0,.14.07.16.17.17C138.27,121.6,138.17,121.59,138.07,121.58Zm.17.17c0,.2,0,.31.17.35C138.45,121.9,138.38,121.79,138.24,121.75Zm.17.35c0,.14.07.16.18.17C138.62,122.12,138.52,122.11,138.41,122.1Zm43.76.51c-.23-.85-1-.12,0,0Zm-141-.17Zm97.42-.17c0,.2,0,.31.17.34C138.79,122.41,138.72,122.31,138.59,122.27Zm.17.34a.49.49,0,0,0,.34.53A.47.47,0,0,0,138.76,122.61Zm43.41,0a3.7,3.7,0,0,0,1.74,1.39A3.46,3.46,0,0,0,182.17,122.61Zm-75.71,1.22a.74.74,0,0,0,.35-.69C106.51,123.18,106.42,123.44,106.46,123.83Zm32.64-.69a.48.48,0,0,0,.36.52A.48.48,0,0,0,139.1,123.14Zm.36.52c0,.41.17.75.52.87C139.92,124.12,139.8,123.78,139.46,123.66Zm-33.17.52c.17,0,.13-.21.17-.35C106.3,123.84,106.33,124.05,106.29,124.18Zm77.62-.18c0,.15.06.17.17.18C184.11,124,184,124,183.91,124Zm-78.14,1c.34-.12.46-.47.52-.87C106,124.3,105.83,124.65,105.77,125.05Zm78.31-.87a6.18,6.18,0,0,0,2.26,1.56A5.11,5.11,0,0,0,184.08,124.18Zm-44.1.35a.48.48,0,0,0,.34.52A.46.46,0,0,0,140,124.53Zm42.37.52c-.11-.25-.21,0,0,0Zm-76.76.34c.17,0,.14-.21.18-.34C105.6,125.05,105.64,125.26,105.59,125.39Zm34.73-.34a.48.48,0,0,0,.35.52A.47.47,0,0,0,140.32,125.05Zm42.38.17c0-.17-.22-.13-.35-.17C182.35,125.22,182.56,125.18,182.7,125.22Zm.17.17c0-.15-.07-.16-.17-.17C182.66,125.37,182.76,125.39,182.87,125.39Zm-77.45.35c.17,0,.14-.21.17-.35C105.43,125.4,105.46,125.61,105.42,125.74Zm27.44.18c0-.91-.73-.18,0,0Zm50-.53c.11.26.21,0,0,0Zm.69.18Zm-42.89,0a.47.47,0,0,0,.35.52A.48.48,0,0,0,140.67,125.57Zm43.41.17c-.11-.25-.21,0,0,0Zm2.95,0c.05.05.43-.09.35-.17S187,125.66,187,125.74ZM104.72,127a1.7,1.7,0,0,0,.7-1.22A1.81,1.81,0,0,0,104.72,127Zm79.88-.87a.48.48,0,0,0-.52-.35v.18c.1,0,.2.13,0,.17,0,.17.22.14.35.17S184.45,126.06,184.6,126.09Zm1.74-.35c.21.43.71.57,1.22.7A1.79,1.79,0,0,0,186.34,125.74Zm25.17.18c.26-.11,0-.21,0,0Zm-73.62.17c-.11-.25-.21,0,0,0Zm46.19,0v-.17C183.89,126,184,126.09,184.08,126.09Zm27.43-.17c-.24.11,0,.21,0,0Zm-73.62.17c.11.25.21,0,0,0Zm3.13,0c0,.2,0,.31.17.35C141.22,126.24,141.16,126.13,141,126.09Zm43.41.17a1.26,1.26,0,0,0,.52.35c0-.09.14-.19.18,0h.51a1.7,1.7,0,0,0-1-.52C184.64,126.24,184.53,126.26,184.43,126.26Zm26.22.18c.91,0,.18-.73,0,0Zm-72.41.17c-.11-.25-.21,0,0,0Zm2.95-.17c0,.15.07.16.18.17C141.4,126.46,141.3,126.45,141.19,126.44Zm69.29.17c.14,0,.16-.06.17-.17C210.5,126.41,210.49,126.5,210.48,126.61Zm-69.11,0a.47.47,0,0,0,.34.52A.47.47,0,0,0,141.37,126.61Zm43.76,0H185C185,126.81,185.13,126.71,185.13,126.61Zm.51,0a.76.76,0,0,0,.7.35C186.3,126.65,186,126.56,185.64,126.61Zm24.49.18c.2,0,.31,0,.35-.18C210.27,126.58,210.16,126.65,210.13,126.79Zm0,0c-.25.1,0,.2,0,0ZM104.72,127c-.51,0,.17.72,0,0Zm104.54.34c.91,0,.18-.73,0,0Zm-67.55-.17a.5.5,0,0,0,.35.53A.47.47,0,0,0,141.71,127.13Zm67.2.35c.21,0,.32,0,.35-.18C209.06,127.28,209,127.35,208.91,127.48Zm-.34.18c.2,0,.31,0,.34-.18C208.71,127.45,208.61,127.52,208.57,127.66Zm-66.51,0c0,.14.07.16.18.17C142.27,127.68,142.17,127.67,142.06,127.66Zm66.16.17c.2,0,.31,0,.35-.17C208.36,127.63,208.25,127.69,208.22,127.83Zm-66,0c0,.2,0,.3.17.35C142.43,128,142.37,127.86,142.24,127.83Zm66,0c-.72-.17,0,.52,0,0Zm-.87.35c.72.16,0-.52,0,0Zm-64.94,0c0,.15.06.16.17.17C142.61,128.2,142.51,128.19,142.41,128.18Zm64.94,0H207v.17C207.21,128.37,207.31,128.31,207.35,128.18Zm1.91.17c.05.05.43-.09.35-.17S209.18,128.26,209.26,128.35Zm-66.68,0a.47.47,0,0,0,.35.52A.48.48,0,0,0,142.58,128.35Zm.35.52a.47.47,0,0,0,.35.52A.47.47,0,0,0,142.93,128.87Zm.35.52c0,.15.06.16.17.17C143.48,129.42,143.38,129.4,143.28,129.39Zm.17.17a.47.47,0,0,0,.35.52A.48.48,0,0,0,143.45,129.56Zm-.87.35Zm1.22.17a3.73,3.73,0,0,0,1.21,1.74A3.78,3.78,0,0,0,143.8,130.08Zm58,1.74c.25-.11,0-.21,0,0Zm-56.79,0c0,.15.07.16.17.18C145.22,131.85,145.12,131.83,145,131.82Zm56.44.52a.48.48,0,0,0,.35-.52A.47.47,0,0,0,201.45,132.34ZM179.22,132c.11.24.21,0,0,0Zm-3.3.52c-.11-.24-.37-.32-.69-.35C175.27,132.48,175.52,132.56,175.92,132.52Zm25.53-.18c-.25.11,0,.22,0,0Zm-25.53.18c.11.25.21,0,0,0Zm25,.52c.25-.11,0-.21,0,0Zm-99.15,1.56Zm-.18.52c.52,0-.16-.72,0,0Zm-.17.35c.17,0,.13-.22.17-.35C101.43,135.12,101.47,135.33,101.43,135.47Zm0,0c-.52,0,.17.72,0,0Zm80,.17a1.58,1.58,0,0,0,1.22.35A1.56,1.56,0,0,0,181.48,135.64Zm1.73.52c0-.2-.31-.14-.51-.17C182.72,136.19,183,136.14,183.21,136.16Zm-140.65,0c-.16.72.52,0,0,0Zm100.55,7.12c-.11-.25-.21,0,0,0Zm-46,.35c-.62.34-.39.76-.52,1-.43.89-1.85,4.06-1,3C96,146.94,97.58,143.36,97.09,143.63Zm-1.92,4.69Zm51.06,0c-.11-.25-.21,0,0,0Zm0,0c0,.17.21.14.35.17C146.57,148.32,146.36,148.36,146.23,148.32Zm-52.61,3.81c.55.29,1.38-3.64,1.38-3.64A10.77,10.77,0,0,0,93.62,152.13Zm53-3.64c0,.15.06.17.17.18C146.78,148.52,146.68,148.5,146.58,148.49Zm.17.18c0,.16.21.13.34.17C147.09,148.67,146.88,148.7,146.75,148.67Zm.34.17c0,.14.07.16.18.18C147.3,148.86,147.2,148.85,147.09,148.84Zm.18.18c0,.16.21.13.34.17C147.61,149,147.4,149.05,147.27,149Zm.34.17c0,.14.08.16.18.17C147.82,149.21,147.72,149.19,147.61,149.19Zm1.22,0h-.17C148.69,149.38,148.83,149.29,148.83,149.19Zm-4.51.69c-.11-.25-.21,0,0,0Zm0,0c0,.15.07.17.17.17C144.52,149.9,144.43,149.89,144.32,149.88Zm-50.7,2.25c-.53,0,.16.73,0,0Zm88.9,3c.15,0,.16-.07.18-.18h-.18Zm-.17.17c.14,0,.16-.07.17-.17-.15,0-.16.07-.17.17m-133.54.53c-.1-.26-.21,0,0,0Zm0,0c0,.14.07.16.18.17C49,155.81,48.92,155.79,48.81,155.79ZM49,156c0,.2,0,.31.17.35C49.19,156.11,49.12,156,49,156Zm.17.35c0,.14.07.16.17.17C49.37,156.33,49.27,156.31,49.16,156.31Zm.17.17c-.16.72.52,0,0,0Zm1.22,1.73c0-.91-.73-.18,0,0ZM97.78,160s-.3.05-.17.17C98,160.55,98.41,159.32,97.78,160Zm-1.91,2.44s-.3,0-.17.17C96.13,163,96.5,161.76,95.87,162.39Zm5.73.86c-.27.1-.94.27-.69.52S102.51,162.91,101.6,163.25Zm-5.9.35s-.33.19-.18.35C95.9,164.32,96.24,162.8,95.7,163.6ZM49,165c-.11-.24-.21,0,0,0Zm-38.2.18c-.11-.25-.21,0,0,0ZM49,165c0,.15.07.17.17.18C49.19,165,49.09,165,49,165Zm.17.18c.17.7.76,1,1.22,1.39C50.21,165.85,49.62,165.57,49.16,165.16Zm45.15.69c-.33.08-.86.53-.69.7S94.89,165.73,94.31,165.85Zm-23.1.35c.25-.11,0-.21,0,0Zm-20.83.35c.1.25.21,0,0,0Zm46.71.35s-.33.19-.18.35C97.53,167.86,97.83,165.9,97.09,166.9Zm-4.34.35a5.19,5.19,0,0,0-1.91,1.21C91.05,168.68,94,167,92.75,167.25Zm.34.51c1.67-.21.89-1.18,0,0Zm0,0c-.25.12,0,.22,0,0Zm-39.24.7c0-.15-.07-.16-.17-.17C53.65,168.43,53.74,168.45,53.85,168.46Zm0,0c.11.25.21,0,0,0Zm1.39.52a.49.49,0,0,0-.52-.35A.47.47,0,0,0,55.24,169Zm.17.18c0-.15-.06-.17-.17-.18C55.21,169.13,55.31,169.14,55.41,169.16Zm.87.69c-.22-.3-.36-.69-.87-.69C55.63,169.45,55.77,169.84,56.28,169.85Zm35.08-.18c.25-.1,0-.21,0,0Zm0,0c-.21,0-.31.05-.35.18C91.21,169.88,91.32,169.81,91.36,169.67Zm-34.21.87c-.23-.29-.36-.68-.87-.69C56.34,170.31,56.74,170.43,57.15,170.54ZM91,169.85c-1.29,0-.54.73,0,0Zm-31.95.52c.1.25.21,0,0,0Zm-.7,1a2,2,0,0,0-1.21-.87A1.9,1.9,0,0,0,58.36,171.41Zm32.3-.69c.25-.11,0-.21,0,0Zm-.35.17c.21,0,.31,0,.35-.17C90.46,170.69,90.35,170.75,90.31,170.89Zm0,0c-.91,0-.17.73,0,0Zm-24,.17c.2.54.92-.18,0,0Zm25.52.18c-.4,0-1.17.62-.86.69S92.79,171.13,91.87,171.24Zm-24.3.17c-.21-.53-.93.19,0,0Zm-9.21,0a.48.48,0,0,0,.52.35A.47.47,0,0,0,58.36,171.41Zm9.21,0c.38.53,1.11-.2,0,0Zm-8,1.39c-.11-.26-.21,0,0,0Zm.35.17c0-.17-.21-.13-.35-.17C59.59,173,59.79,172.93,59.93,173Zm0,0c.1.26.21,0,0,0Zm-4.35,1.39c-.1-.25-.2,0,0,0Zm4.17,2.26c-1.34-.79-2.73-1.55-4.17-2.26A10.9,10.9,0,0,0,59.75,176.62Zm-4-.87c-.18-.73-.91,0,0,0Zm3.82.18c0-.53-.72.17,0,0Zm.35.17c0-.17-.21-.14-.35-.17C59.59,176.1,59.79,176.06,59.93,176.1Zm31.94,0c.26-.11,0-.21,0,0Zm-31.6.18c0-.17-.21-.14-.34-.18C59.93,176.27,60.14,176.24,60.27,176.28Zm31.6-.18c-.24.1,0,.21,0,0Zm-31.25.35c0-.17-.21-.14-.35-.17C60.28,176.44,60.49,176.41,60.62,176.45Zm0,0c0,.51.72-.17,0,0Zm-.87.17a2.88,2.88,0,0,0,1.74.69A3.71,3.71,0,0,0,59.75,176.62Zm30,.18c.72.16,0-.52,0,0Zm-27.61.34c0-.52-.72.17,0,0Zm6.43-.17c-.52,0,.17.72,0,0Zm-5.9.34c0-.2-.32-.14-.53-.17C62.21,177.34,62.5,177.29,62.71,177.31Zm-.7.18c0-.2-.31-.15-.52-.18C61.52,177.52,61.81,177.46,62,177.49Zm.7-.18c0,.53.72-.16,0,0Zm30.56.18s.42-.09.35-.18S93.18,177.41,93.27,177.49Zm-30.74.17c0-.2-.32-.15-.52-.17C62,177.7,62.33,177.64,62.53,177.66Zm4.86,0Zm-4.16.18c-.06-.24-.44-.14-.7-.18C62.59,177.9,63,177.81,63.23,177.84Zm27.43,0c.12.11-.07-.08,0,0Zm-23.44.87c1-.15-.32-.08-.7-.18a18.58,18.58,0,0,0-3.29-.69A11.3,11.3,0,0,0,67.22,178.71Zm23.27-.35c1-.45-1.48.63,0,0Zm2.43,0c-.33-.33-1.36.8-1.91,1C91.33,179.72,93.12,178.55,92.92,178.36Zm-5.56,1.73c.21,0,.31,0,.35-.17h-.35Zm0,0c-.25.11,0,.21,0,0Zm3.13.7c.68-.68-.49.48,0,0Zm-34,.87c0-.17-.21-.14-.34-.18C56.11,181.65,56.32,181.62,56.45,181.66Zm0,0v.17h.35C56.8,181.66,56.59,181.69,56.45,181.66Zm.7.34c0-.17-.21-.13-.35-.17C56.8,182,57,182,57.15,182Zm.35.18c0-.17-.22-.13-.35-.18C57.15,182.17,57.36,182.14,57.5,182.18Zm0,0v.17h.34C57.84,182.18,57.63,182.21,57.5,182.18ZM87,188.77c.73.17,0-.51,0,0ZM26.07,194c-.11-.25-.21,0,0,0Zm0,0c0,.15.06.17.17.18C26.27,194,26.17,194,26.07,194Zm.17.18c0,.15.07.16.17.17C26.45,194.19,26.35,194.16,26.24,194.16Zm.17.17c0,.15.07.17.18.17S26.52,194.34,26.41,194.33Zm.18.17c0,.15.06.17.17.18C26.79,194.53,26.69,194.52,26.59,194.5Zm.17.18c0,.15.07.17.17.18C27,194.71,26.87,194.69,26.76,194.68Zm.17.18c0,.14.07.16.18.17C27.14,194.88,27,194.86,26.93,194.86ZM81.8,197.8c.73.17,0-.52,0,0Z"/></g><g id="Text"><path class="cls-2" d="M391.68,86.12v65.09H378.61L342.9,94.3v56.91h-8.85V86.12h13L382.84,143V86.12Z"/><path class="cls-2" d="M487.94,86.12v65.09H474.87L439.16,94.3v56.91h-8.83V86.12h13L479.1,143V86.12Z"/><path class="cls-2" d="M553.39,85.25a95.34,95.34,0,0,1,11.07.47,23.21,23.21,0,0,1,6.62,1.7c5.49,2.35,8.75,7.68,9.8,15.91a110.11,110.11,0,0,1,.44,12.11q0,15-.5,18.93a26.58,26.58,0,0,1-2.9,9.84,13.79,13.79,0,0,1-6.11,5.44,27,27,0,0,1-10.68,2.28c-2.26.12-5.11.18-8.57.18a108,108,0,0,1-12.44-.48,22.11,22.11,0,0,1-6.81-2,15,15,0,0,1-7.84-9.78A42.85,42.85,0,0,1,524,128.58q-.12-4.23-.12-12.81a116.42,116.42,0,0,1,.44-12.51c1-8.15,4.31-13.44,9.79-15.84a27.58,27.58,0,0,1,9.64-2C546.27,85.31,549.49,85.25,553.39,85.25Zm-1.72,8.12q-6.39,0-9.12.25a14.62,14.62,0,0,0-4.57,1c-2.22.92-3.72,3-4.5,6.16a34.59,34.59,0,0,0-.78,7.81v10c0,7.88.07,12.54.22,14a20.43,20.43,0,0,0,1.59,6.79,6.76,6.76,0,0,0,3.54,3.28,18.83,18.83,0,0,0,6.16,1.05c2.15.11,5,.17,8.41.17,4.6,0,7.87-.08,9.84-.25a16,16,0,0,0,4.73-1c2.23-.94,3.73-3,4.51-6.24a34.78,34.78,0,0,0,.78-7.77V118.67c0-7.86-.08-12.54-.22-14a20.62,20.62,0,0,0-1.59-6.82,6.8,6.8,0,0,0-3.54-3.26,19.91,19.91,0,0,0-6.33-1Q557.4,93.37,551.67,93.37Z"/><path class="cls-2" d="M659.67,86.12h9.52l-23.87,65.09H633.81L609.73,86.12h9.45l20.41,55.62Z"/><path class="cls-2" d="M733.91,137.77H701.82l-5.12,13.44h-9.4L712,86.12h11.23l25.21,65.09h-9.35ZM731,130.3,717.73,95.53,704.65,130.3Z"/><path class="cls-2" d="M804.76,94.52v56.69h-8.85V94.52H774.4v-8.4h51.72v8.4Z"/><path class="cls-2" d="M886.12,85.25a95.38,95.38,0,0,1,11.06.47,23.55,23.55,0,0,1,6.63,1.7c5.47,2.35,8.74,7.68,9.8,15.91a111.68,111.68,0,0,1,.42,12.11c0,10-.15,16.32-.5,18.93a26.6,26.6,0,0,1-2.88,9.84,13.68,13.68,0,0,1-6.13,5.44,26.94,26.94,0,0,1-10.66,2.28q-3.4.18-8.58.18a108.24,108.24,0,0,1-12.44-.48,22,22,0,0,1-6.81-2,15,15,0,0,1-7.85-9.78,44.11,44.11,0,0,1-1.5-11.29c-.06-2.82-.11-7.09-.11-12.81a118.39,118.39,0,0,1,.45-12.51q1.54-12.23,9.8-15.84a27.5,27.5,0,0,1,9.61-2C879,85.31,882.21,85.25,886.12,85.25Zm-1.75,8.12q-6.36,0-9.11.25a14.76,14.76,0,0,0-4.57,1c-2.21.92-3.71,3-4.48,6.16a34,34,0,0,0-.79,7.81v10c0,7.88.08,12.54.23,14a21.32,21.32,0,0,0,1.56,6.79,6.87,6.87,0,0,0,3.54,3.28,19.18,19.18,0,0,0,6.18,1.05c2.17.11,4.93.17,8.4.17,4.6,0,7.89-.08,9.84-.25a16,16,0,0,0,4.73-1c2.25-.94,3.73-3,4.52-6.24a36,36,0,0,0,.77-7.77V118.67c0-7.86-.06-12.54-.22-14a19.47,19.47,0,0,0-1.58-6.82,6.77,6.77,0,0,0-3.54-3.26,19.86,19.86,0,0,0-6.33-1C891.24,93.42,888.21,93.37,884.37,93.37Z"/><path class="cls-2" d="M949.94,151.21V86.12h32.82c5.79,0,10.2,1,13.21,3a13.08,13.08,0,0,1,5.38,7.78,32.6,32.6,0,0,1,.82,8.19c0,5.54-.71,9.58-2.16,12.12-1.5,2.75-4.31,4.31-8.35,4.67q9.58.61,9.61,12.35v17h-8.82V135.86c0-4-.92-6.75-2.71-8.23s-4.73-2-8.48-1.95H958.79v25.53Zm8.85-33.43h21.57c4.44,0,7.63-.57,9.58-1.78,2.28-1.37,3.39-4.16,3.39-8.4,0-5.74-.5-9.36-1.53-10.85-1.33-1.81-4.31-2.72-9-2.72H958.79Z"/><path class="cls-2" d="M1085.48,105.05h-8.85a36,36,0,0,0-.39-6.52,5.85,5.85,0,0,0-4.54-4.73,39.58,39.58,0,0,0-8.74-.65,85,85,0,0,0-11.41.45q-4.79.77-6.1,4.26a16.09,16.09,0,0,0-.79,5.55,16.53,16.53,0,0,0,1.06,6.74c.81,1.74,2.84,2.83,6.07,3.23,1.19.17,4.67.34,10.5.57a109.15,109.15,0,0,1,13.19,1q7,1.44,9.56,6.84,1.62,3.47,1.61,10.67,0,10.53-3.44,14.42c-2.37,2.68-5.78,4.23-10.19,4.68-3.35.32-8,.5-13.68.5q-10.46,0-14-1.13c-5.57-1.76-8.74-6-9.55-12.84-.19-1.45-.33-4.18-.41-8.23h8.85v2.45a27.34,27.34,0,0,0,.74,7,5.94,5.94,0,0,0,2.38,3.42,9.62,9.62,0,0,0,5.12,1.22q3.84.18,9.11.18a63.23,63.23,0,0,0,10.25-.56,7.12,7.12,0,0,0,4.32-2.17c1.11-1.3,1.7-4.57,1.7-9.78a14.17,14.17,0,0,0-.85-5.61c-.74-1.76-2.58-2.82-5.5-3.19-1.45-.18-5.12-.39-11-.6s-9.47-.5-11-.67c-4.87-.72-8.43-2.57-10.72-5.58-2-2.5-3-6.41-3-11.67,0-7.57,1.69-12.67,5.07-15.24A18.81,18.81,0,0,1,1051,85.57c2.93-.21,6.33-.32,10.16-.32,7.39,0,12.46.44,15.18,1.38q8.45,2.79,9.14,13.35C1085.46,100.75,1085.48,102.45,1085.48,105.05Z"/><path class="cls-2" d="M268.16,146.48H301.8v4.57H268.16Z"/><path class="cls-2" d="M272.5,127.94h29.3v4.56H272.5v11.14h-4.34V116.88h4.34Z"/><path class="cls-2" d="M268.16,90.82V86.26h23.38a15.19,15.19,0,0,1,6.25.94,7.33,7.33,0,0,1,3.95,5.08,36.05,36.05,0,0,1,.52,7.66c0,2.71-.05,4.66-.17,5.83a12.2,12.2,0,0,1-.69,3.11,7.09,7.09,0,0,1-3.61,4.18,15.76,15.76,0,0,1-6.25,1H268.16v-4.57h23.38c2.38,0,3.92-.22,4.62-.61a4.27,4.27,0,0,0,1.76-3,34.44,34.44,0,0,0,.25-5.22c0-3.78-.19-6.26-.57-7.41A3.18,3.18,0,0,0,295,91.11a16.21,16.21,0,0,0-3.47-.29Z"/><path class="cls-3" d="M286.37,62.53a5.6,5.6,0,1,1-5.59-5.6A5.6,5.6,0,0,1,286.37,62.53Z"/></g></g></g></g></svg>