<?xml version="1.0" encoding="utf-8"?>
<!-- Generator: Adobe Illustrator 23.1.1, SVG Export Plug-In . SVG Version: 6.00 Build 0)  -->
<svg version="1.1" id="Layer_1" xmlns="http://www.w3.org/2000/svg" xmlns:xlink="http://www.w3.org/1999/xlink" x="0px" y="0px"
	 viewBox="0 0 500 500" style="enable-background:new 0 0 500 500;" xml:space="preserve">
<style type="text/css">
	.st0{fill-rule:evenodd;clip-rule:evenodd;fill:#FFFFFF;}
</style>
<g id="logo_white">
	<path class="st0" d="M205.1,52.1C204.8,51.1,203.4,52.5,205.1,52.1L205.1,52.1z M333.2,242.7c-0.6-0.9-1.6-2.2-2.2-3.1
		c6.4,10.5,12.6,21.1,21.5,29.6C346.4,261,339,251.9,333.2,242.7z M330.9,239.5c0,0-0.1-0.1-0.1-0.2c0,0.1,0.1,0.2,0.2,0.3
		C331,239.6,330.9,239.5,330.9,239.5z M352.9,352.5c7.2-1.1,13.1-6.5,18.7-8.5c0-0.2,0.3-0.4,0.3,0c0.8-1.1,2.4-1.6,3.6-2.6
		c1.8-1.5,3.2-4,5.2-5.9c4.2-3.9,9-7.8,12.8-12.4c2.1-2.6,3.5-5.9,5.2-8.9c0.9-1.4,2.1-2.8,3-4.3c1.6-2.6,2.5-5,4.6-7.2
		c-2.2,0.4,0.8-3.2,1.3-3.6c0.6-0.5,1.3,0,2-0.3c0.4-0.2,1.3-0.9,2-1.3c1.7-1,4.3-3,6.2-3.6c-0.5,0.1-0.8-0.4,0-0.3
		c3.1-3.1,7.1-5.1,11.5-7.2c4-2,7.9-5.6,10.8-9.2c-2.5,1.1-3.5,3.2-6.2,5.2c-1.2,0.9-0.2-0.4-1.3,0.3c-0.6,0.4-2.3,2.3-2.3,2.3
		c4.7-3.3-2.2,2-2.9,1.3c0-0.1,4.6-4,4.9-4.3c4.7-4.2,9-8.9,12.1-14.4c-2,1.7-2.4,3.1-4.3,4.9c-1.3,1.3,3.6-5.8,2-5.6
		c-0.3,0.1-0.7,2-1,2.3c-0.4,0.5-1,0.4-1.3,0.7c0.1-0.1-1,1.8-1.3,1.3c-0.5-0.8,5-9,5.2-9.8c0.5-1.3-0.5,0.1,0-1.6
		c0.2-0.9,2-5.3,0-2c-0.5,0.9-1.7,3.7-2,4.3c-0.2,1.2,1.1-2,1.3-1c0.2,0.9-1.1,2.2-2.3,4.3c-1.4,2.5-2.8,5.3-4.6,6.2
		c0,0.4-0.5,0.2,0,0c1.6-3.4,4.2-5.8,5.6-9.5c-0.9,0.4-1.7,2.9-2.3,3.6c-0.3,0.3-1,0.3-1.3,0.7c-0.5,0.7-0.4,1.7-1,2.3
		c-0.5,0.5-1.7,0.7-2.3,1.3c-0.9,1-1.1,2.7-2.3,3.9c-0.1,0.1-0.6,1-0.7,1c-0.3,0.1-1.1-0.2-1.3,0c-0.7,0.7-1.4,2.2-2.9,3.3
		c-1,0.7-3.4,2.2-2,0.3c0.8-1.1-0.3-1.1-0.3-1c1.1-1.7,3.8-2.7,5.9-4.6c-0.1,0,5.2-5,3.9-5.6c0.1,0.1-1,1.5-1.3,1.6
		c-0.3,0.1-1.1-0.2-1.3,0c-1.2,0.9-1.7,2.4-2.6,3.3c-1,0.9-2.3,2-3.3,2.6c0.1-0.1-1-0.5-1.3-0.3c-0.2,0.1-6,5.5-3.6,0.3
		c-0.9,1.6-1.6,3.7-3.9,4.3c-2.8,0.7-0.7-3.1-1-4.9c0-0.2-0.5,1.7-1,1c-0.6-0.9,0.6-2.2,0.7-3.3c0.1-0.8-0.4-1.2-0.3-2.3
		c0.1-3.2,1.9-8.7,2.3-14.4c0.2-3.5,0.2-6.8,0.7-10.8c-0.2,1.4,1.3-5.4,0.3-5.2c0.4-0.1-1.3,6.2-1.3,6.2c-0.8,2.1-0.3-5.1-0.3-6.9
		c0-0.2-0.1-10.1-0.6-5.6c-0.3,2.3-0.2,7.4-0.3,9.8c-0.1,1.5,0.4,4.9-0.3,5.2c-0.2,0.1-0.3-5.1-0.3-5.6c0.5-12,0.4-22.7-2.3-34.1
		c-1.1-4.7-2.1-10-3.9-14.1c-1.6-3.7-3.7-6.9-6.2-10.8c-1.1-1.7-2.1-3.7-3.3-5.2c-1.3-1.7-2.7-3.9-3.6-4.6c-0.4-0.3-0.4,0.8-1,0.7
		c-1.3-0.3-3-3.4-4.3-4.3c-1.1-0.8-3.6-1.5-5.6-2.6c-4.3-2.3-12.7-5.1-17.7-5.9c-3-0.4-3.9-0.1-1,1c0.3,0.1,2.4,0.1,2,1
		c-0.7,1.3-4.4-0.3-5.2-0.3c-3.1-0.1-10.2,1.1-15.4,1.6c-4.6,0.5-9.7,0.7-14.1,1.6c-1.6,0.3-3.2,0.8,0.7,0.7c0.4-1,1.7,0.4,0,0
		c-7,2.3-12.7,2.9-19.3,5.6c-1.4,0.6-3.1,2-3.9,1.6c0,0-2.7-5.7-2.9-6.2c-6.2-11.7-12.1-22-18.7-34.4c-0.8-1.5-1.2-2.7-2.3-4.6
		c-1.7-3,0.5,2.7,1,3.6c1.7,3.2,3,5.5,4.6,8.5c2.1,4.1,4.1,7.5,6.2,11.8c3,6,6.6,11.8,10.1,18.7c0,0.1,2.2,2.6,1,3.3
		c-1,0.6-2.6-3-2.6-2.9c-4.9-9.5-10.4-18.9-15.1-27.5c-6-11.1-10.2-21.3-17.4-31.4c0.4,1.3,1.3,2.5,2.6,4.9c0.4,0.7,3,4.5,2.6,4.9
		c-0.1,0.1-2.3-2.8-1.3-1.3c-4.6-7.2-9.8-15.9-14.4-22.6c-6-8.7-12.2-15.5-18-21.3c2.2,3.4,5.5,5.6,7.5,9.2c1.6,0.4,0.2,1.8,0,0
		c-14.3-13.9-28-28.3-49.8-34.7c9.1,3.6,17.8,7.7,24.6,13.8c0.4,0,0.2,0.5,0,0c-8.3-4.2-17.3-10-28.2-12.1c-3.2-0.6-6.7-1.3-10.2-1
		c0.3,0,1.5,0.2,1.3,0.3c-1.3,0.5-10.8,0.2-13.4,0.7c-2.5,0.4,0,0.5,2,0.3c0.9-0.1,8.5,0,7.9,0.7c0.3-0.4-3.8-0.1-5.5,0
		c1.5,0.1,4.7,0.4,4.5,0.7c-0.2,0.2-2.8-0.1-3.9,0c-11.1,1-21.7,6.8-33.1,8.8c0.2,0,0.4,0.3,0,0.3c-1.2,0.7-3.8,1.5-5.9,2.6
		c-1.5,0.8-3,2.4-4.9,2.9c-1,0.3-2,0-3,0.3c-0.2,0.1-0.4,0.6-1,1c-1.3,0.7-3.4,1.4-5.9,2.6c-1.1,0.5-2.9,1.5-4.3,2
		c0.7-0.3-1.3,0.7-1.6,0.3c0,0,3.6-2.3,2.6-2.3c-2.5,0-8,5-10.8,5.9c0.1,0-2.4,0.6-2.6,0.3c0-0.1,3.3-1.7,2.3-2.3
		c-3.8,1.1-5,4.6-8.5,6.2c-2.2,1-11.9,5.5-5.2,0.7c-0.2,0.1,2.8-1.8,2.6-2c0,0-1.7,0.1-2.3,0.3c-2.5,1-5.9,5.1-8.2,7.2
		c-2.8,2.5-5.7,4.5-7.9,6.9c4.6-1.4-0.7,1.2-2,2.3c-1.4,1.2-1.7,2.9-2.3,3c3-1.6,0.1,1.2-1.3,1.6c-12.3,12.3-22.5,25.1-29.5,43.9
		c-5.3,14.1-9.8,28.8-13.4,46.2c0,0-1,3-1,3c-0.4-0.4,0.5-3.3,0.7-4.3c0.5-3.6,2.4-11,2.6-13.4c0-0.4-0.6,0.2-0.7-0.7
		c0,0,0.9-3.1,0.3-2.9c-0.5,0.1-2.3,8.6-3.3,13.4c-3.1,15-3.8,29.5-4.6,45.5c-0.5,10.9-0.8,21.6-0.3,32.1
		c0.5,11.5,2.9,23.5,3.9,33.4c0,0.2-0.4,0.8-0.3,1.3c0.3,4.9,1.8,10.3,2.6,14.7c2.1,11.3,5.4,22.2,7.9,33.7c0.4,0,0.2,0.5,0,0
		c-7.7-20.8-13.3-53.6-14.7-81.2c-0.3-6.6-0.4-14.1-0.6-21.6c0,0,0.1-4.1-0.7-3.3c-1,1,0,3.1,0,3.9c0,1.1,0,15.8-0.3,8.9
		c0-0.3-0.1-1.9-0.3-1.3c-1,2.8,0.4,14.2,0.7,18c0.1,1.5,0.1,3.6,0.3,5.2c0.6,4.4,0.4-2.3,0.3-4.6c-1.3-1.6,0.5-4.7,0-5.2
		c1.1,1.1-0.8,3.2,0,5.2c1,6.1,1.2,16.5,2,20.6c-0.1-0.5,0.3,0,0.3,0.3c0.5,2.4,0.2,4.4,0.3,6.9c0,0.7,0.6,0.5,0.7,1
		c0,0.5-0.7,0.8-0.7,1.3c0.3,2.1,1.7,5.1,2,6.5c0,0.2-0.4,0.6-0.3,1c0,0.4,0.6,0.2,0.6,0.7c0.6,8.9,3.4,19.2,5.9,28.2
		c1.2,4.5,2.4,8.4,4.2,13.8c1.8,5.1,2.8,7.2,4.3,11.5c1.3,3.7-1.6-1.3-2.3-2.6c5.3,17.8,15.1,34.3,25.9,47.5
		c1.6,1.9,3.5,3.8,4.6,5.6c0.4,0.6,0.3,1.5,0.7,2c0.4,0.5,2,1.8,2.6,2.6c-0.1-0.1,1,1.6,0.7,1.6c-1.2,0.1-2-2.6-3.6-2.9
		c12.1,13.2,32,28.5,61.3,26.2c10-0.8,19.8-3.7,27.5-7.5c2.5-1.3,5.7-2.5,7.5-3.9c0,0,0.5-1.2,0.6-1.3c0.7-0.7,2.1-1.1,2.6-1.6
		c0.6-0.6,0.9-2.4,1.6-3.3c0.6-0.7,2.1-1.2,2-3.3c-1.9-1.8,2.9-3.1,5.2-4.9c0.7-0.6,3.7-3.6,3-5.6c-0.1-0.3-1.1-0.3-1-0.7
		c-0.1,0.3,5.2-3.3,4.9-3.6c-1-1.2-2,2.7-3.6,1.3c-0.3-0.2,1.6-1.4,0.3-1.6c0.1,0-4.8,2.4-4.9,2c-0.4-1.5,5.4-2.6,5.9-3.9
		c-1.9,0.3,0.7-1,0.3-1.3c-0.6-0.4-6.3,4-2.6,1c0.6-0.5,3-2.2,3.3-2.9c0,0.1-1.9,0.7-1.6-0.7c0.1-0.9,2.8-0.6,3.9-2.3
		c0.1-0.2-0.1-1.3,0-1.6c-0.1,0.3,1.2-0.9,0.3-1.3c0.1,0-1.2,1-1.3,0.8c-0.1,0.2-0.4,0,0-0.2c0.6-1,0.9-0.6,1-1.6
		c0.1-0.6-0.8-1.6-0.7-2c0.1-0.2,0.9-0.4,1.3-1c1.1-1.4,2.8-2.6,3.6-4.6c-3.9-1-5.6,2.2-8.8,2.9c-0.1,1-1.4-0.3,0,0
		c2.5-1.6-1.2-1.3,2-2c0-0.3,0.6-0.4,0.7,0c0.4,0.1,0.6-0.1,0.7-0.3c-0.4,0-0.2-0.5,0,0c0.5-0.3,3.4-2,2.6-2.3
		c-0.4-0.1-2.6,2.2-3.3,1.6c-0.2-0.2,1.5-1.2,0.3-1.6c-2.5,0.3,1.3-1.5,0,0c1.8-0.5,2.9-1.7,3.6-3.3c-0.6-0.2-4.4,2.6-4.6,2
		c-0.3-1.5,4.6-2.6,6.2-3.6c0.3-0.2,1.9-1,1.6-1.6c-0.5-1.3-3.4,1.4-3.3,1.3c0.1,0-0.7-0.5-1-0.3c-1.6,0.6-3.3,2.5-3.9,1.3
		c-0.9-1.6,2.9-2,3.9-2.6c0.6-0.4,0.9-1.3,1.3-1.6c2.1-1.8,3.8-2,0.3-3.3c-0.1,1-1.4-0.3,0,0c0.8-2.5-0.6-0.9-2.6,0.3
		c-3.6,2.2-8.2,4.9-12.1,6.9c-0.9,0.4-9.8,4.6-7.5,1.3c0.8-1.2,2.3-3.7,3.3-5.2c0.4-0.6,1.1-0.9,1.3-1.3c0.4-0.7,0.1-1.6,0.3-2
		c0.3-0.5,2-1.6,2.6-2.6c0.1-0.1,0.2-2.1,1-1.6c0.6,0.3-0.5,5.2,1,2c1.4-3,2.3-6.1,4.6-8.5c0.1-0.1,0.6-0.7,1-1
		c1.9-1.7,2.8-3.4,3.9-6.9c1.1-3.3,2.3-8.8,3.9-11.8c0.3-0.4,1.1-0.6,1.3-1c1.1-2.1,1.4-4.9,2.6-7.2c1.1-2.2,2.6-4,3.6-6.2
		c4-8.8,8.4-18,12.4-26.9c2.1-4.5,3.8-9.1,5.9-13.4c4.4-9,8.4-16.8,13.8-25.2c2.2-3.5,5.3-7.5,8.2-11.5c2.8-3.9,5.3-8.7,8.2-11.1
		c0.9-0.8,1.4-1.1,2-1c0.9,0.2,3.7,5.9,4.6,7.5c7.6,13.3,14.8,24.9,22.3,38c2.4,4.3,5.8,8.2,8.5,12.5c3.3,5.1,7.5,10,11.1,15.4
		c0.2,0,0.4,0.1,0.3,0.3c2.3,2.2,5.4,5.1,7.9,7.2c2.1,1.9-0.4,0.3-1.6-0.6c-2.5-2-4.7-4.4-6.2-6.6c-0.2,0-0.4,0-0.3-0.3
		c-2.3-0.7-3.1-3.9-5.2-5.2c-0.5-0.3-0.8,0.3-1.6,0c-1.3-0.5-5.4-5.7-6.6-7.2c-3.9-4.9-7.1-9.8-11.1-14.4c4.2,6.8,10.1,16,16.1,23.3
		c1.3,1.6,5.2,5.8,5.2,6.9c0-0.6-1.2,0-0.3,1c0.4,0,0.2,0.5,0,0c-4.5-3.9,2,3.2,2.9,4.3c2.8,2.9,3.8,4,6.6,5.9
		c0.5,0.3,0.6-0.1,1,0.3c-0.2-0.3-0.2,0.7,0,0.7c-1.4,0.3-5.6-4-6.2-4.6c-1.9-1.7-3.5-3.1-5.9-4.9c2.7,4.5,6.5,7.9,10.5,11.1
		c0-0.2,0.3-0.4,0.3,0c1.1,0.7,3,2.6,3,2.6c-1.6,0.4-2.4-2.2-4.9-2.3c-0.2,0.3,4.9,2.6,3.9,3c-0.6,0.2-4.5-2.1-5.2-2.6
		c-1.6-1.2-3.7-3-4.3-3.6c-0.5-0.6-0.2-1.2-0.7-1.6c-1.7-1.7-3.9-2.9-5.6-4.6c-4.8-4.8-9.2-10.2-13.4-16c-2.7-3.7-5.8-7.2-8.5-11.5
		c-3.1-4.9-3.8-6.4-6.6-10.8c-2.4-3.8,0.8,2.4,1.3,3.3c9.2,15.1,19.3,29.3,30.8,41.9c3,3.3,8.4,6.8,13.1,9.8c4.3,2.8-3.6-0.9-5.2-2
		c-2.2-1.3-3.7-2.7-5.9-3.9c1.3,3,4.8,4.5,7.9,6.2c0.9,0.5,2.7,1.3,2.9,1.6c0.2,0.2-0.2,1.1,0,1.3c1.5,1.2,4.3,2.3,6.6,3.3
		 M29.6,259.8c-0.2-0.4,0.7,0,0.7,0C30.3,260.2,29.7,260,29.6,259.8z M29.9,266c0-0.9-0.3-2.4,0-3.3C29.9,262.9,30.1,272.4,29.9,266
		z M30.2,261.4c-0.1,0.6-0.4-0.2-0.3-0.7C30,260.1,30.3,261,30.2,261.4z M384,168.1C383.8,167.9,384.2,168.3,384,168.1L384,168.1z
		 M383.3,166.7c1.8,1.2-1,0.3-2.3-0.3c0.3,0.2-2.6-1.6-2.6-1.3C378.5,164,383,166.5,383.3,166.7z M356.8,184.8
		c0.2,0.1-0.6,0.4-0.6,0.3C356,184.9,356.7,184.7,356.8,184.8z M337.5,166.7C337.7,167,337.3,166.6,337.5,166.7L337.5,166.7z
		 M319.1,199.2c12.2,22.2,25,43.6,39.3,62.5c0.2,0,0.4,0,0.3,0.3c0.2,0,0.4,0.1,0.3,0.3c0.4,0,0.2,0.5,0,0c-0.2,0-0.4-0.1-0.3-0.3
		c-0.2,0-0.4-0.1-0.3-0.3c-15.6-18.5-28.8-41.7-40.9-63.9c0.4,0.6-1-2.6-1-2.6C317.2,194.6,319.2,199.2,319.1,199.2z M335.8,226.4
		C336.2,226.3,336,226.8,335.8,226.4C335.4,226.4,335.6,225.9,335.8,226.4z M336.5,227.3c0.3,0.1,0.4,0.3,0.3,0.7c0.4,0,0.2,0.5,0,0
		C336.5,227.9,336.4,227.7,336.5,227.3C336.1,227.4,336.3,226.9,336.5,227.3z M337.8,230C338,230.2,337.7,229.8,337.8,230L337.8,230
		z M367.6,267.6c0.2,0,0.4,0,0.3,0.3c1.3,0.3,1.8,1.4,2.6,2.3c0.2,0,0.4,0.1,0.3,0.3c1.4-0.3,0.1,1,0,0c-0.2,0-0.4-0.1-0.3-0.3
		c-1.3-0.3-1.8-1.4-2.6-2.3C367.7,267.9,367.5,267.9,367.6,267.6c-0.2,0-0.4-0.1-0.3-0.3c-0.2,0-0.4,0-0.3-0.3c-0.4,0-0.2-0.5,0,0
		c0.2,0,0.4,0.1,0.3,0.3C367.5,267.3,367.6,267.3,367.6,267.6z M371.5,273.8c0.2,0.5-0.9,0.2-1,0
		C370.4,273.4,371.5,273.7,371.5,273.8z M368.3,270.9c0.8,0.8,3.6,3,1.3,1.6c-3.1-1.8-5.9-5.5-7.5-7.5c-7.7-9.8-15.3-19.4-21-30.1
		c-0.6-0.2-0.9-0.9-1-1.6c-0.4,0-0.2-0.5,0,0c0.7,0.2,0.9,0.9,1,1.6C349.5,246.9,358.1,260.4,368.3,270.9z M344,248.3
		c6,8.9,12.9,16.9,19.3,25.2c0.4,0,0.2,0.5,0,0c-4.2-2.7-6.3-6.6-9.2-10.5c-1.4-1.9-3.2-3.4-4.6-5.2c-8.6-11.5-15.8-24-22.9-36.4
		c-0.7-0.9-2.5-2.8-2-3.3c0.1-0.1,2.4,2.9,2,3.3C333,230,338.1,239.5,344,248.3z M322.4,214.6C322.3,214.4,322.6,214.8,322.4,214.6
		L322.4,214.6z M319.8,209.3C319.4,209.4,319.6,208.9,319.8,209.3C320.2,209.3,320,209.8,319.8,209.3z M318.1,206.1
		c-0.3,0.2-2.5-3.3-2.6-3.6c-0.7-1.3-2.2-3.4-2-4.2C314,196.6,318.3,205.9,318.1,206.1z M314.5,174.3
		C314.6,173.3,315.9,174.6,314.5,174.3C313.3,176.1,311.5,174.4,314.5,174.3z M313.6,197.2c0.1,0.1-0.6,0.4-0.7,0.3
		C312.7,197.4,313.5,197.1,313.6,197.2z M310.3,175.9c0.1-0.4,0.6-0.2,1-0.3C313.6,175,309.9,177.3,310.3,175.9z M306,175.3
		c-0.1,0.1-1.3-1-1.3-1.3C304.9,172.9,306.6,174.7,306,175.3z M305,201.8c1.3,0.8,3.1,5.7,3.6,6.6c9.6,18,20.8,34.6,30.8,51.1
		c0.2,0,0.4,0,0.3,0.3c1,0.1-0.3,1.4,0,0c-0.2,0-0.4,0-0.3-0.3c-11.8-16.4-22.9-35.5-32.7-54C305.6,203.4,303.7,201,305,201.8z
		 M340.1,265c-10.5-13.3-19.2-28.2-27.2-42.9c-0.3-0.1-0.4-0.3-0.3-0.6c-0.2-0.1-0.4-0.3-0.3-0.7c-0.4,0-0.2-0.5,0,0
		c0.3,0.1,0.4,0.3,0.3,0.7c0.3,0.1,0.4,0.3,0.3,0.6c8,12.8,16.3,27.2,25.2,39.3c1,1.4,4,5.3,3.9,5.6
		C341.9,268.1,340.5,265.6,340.1,265z M342.7,267.9c0.2,0.5-0.6,0-0.7,0C342,267.5,342.6,267.7,342.7,267.9z M311.3,219.2
		C310.3,219.1,311.6,217.8,311.3,219.2C311.7,219.1,311.5,219.6,311.3,219.2z M306.3,210.3C305.4,210.2,306.7,208.9,306.3,210.3
		C306.7,210.3,306.6,210.8,306.3,210.3z M304.4,170C304.6,170.2,304.2,169.9,304.4,170L304.4,170z M303.7,168.4
		C304.1,168.3,303.9,168.9,303.7,168.4C303.3,168.4,303.5,167.9,303.7,168.4z M295.9,154.3C296.1,154.5,295.7,154.2,295.9,154.3
		L295.9,154.3z M295.5,153.6C295.4,153.5,295.8,153.9,295.5,153.6L295.5,153.6z M294.6,151.4C295.9,151.7,294.6,153.1,294.6,151.4
		C294.2,151.4,294.3,150.9,294.6,151.4z M303.1,168.7c0.9,1.6,2.9,7.1,0.3,2.6c-5-8.8-10.3-19.1-15.4-28.8c-0.5-1-2.5-3.6-2.3-4.3
		c0.2-0.7,1.3,1,1.6,1.6c0.6,1.1-0.4-0.2,1,2.3C293.7,151.6,298.1,159.5,303.1,168.7z M302.7,203.8
		C302.3,203.8,302.5,203.3,302.7,203.8C303.1,203.7,302.9,204.2,302.7,203.8z M298.5,177.6c-7-12.3-14.5-26.5-21.6-40
		c-0.6-1.2-3.3-4.8-3-5.9c0.1-0.4,1.7,1.7,2,2.3c2.7,4.9,5.4,10.2,7.9,15.1c2.3,4.5,4.3,7.3,6.6,11.8c2.4,4.8,5.5,9.2,8.2,14.7
		C299.3,177.2,300.1,180.4,298.5,177.6z M299.1,207.7C298.7,207.7,298.9,207.2,299.1,207.7C299.5,207.7,299.3,208.2,299.1,207.7z
		 M320.8,274.2c0.2,0,0.4,0.1,0.3,0.3c0.4,0,0.2,0.5,0,0C320.9,274.5,320.7,274.5,320.8,274.2c-0.3-0.1-0.4-0.3-0.3-0.7
		c-0.2,0-0.4-0.1-0.3-0.3c-12.1-17.6-24.8-37.1-34.7-57c-1.9-3.8,0.7-0.1,1.6,1.6c10.7,19.3,21.7,37.9,33.1,55.3
		c0.2,0,0.4,0.1,0.3,0.3C320.7,273.6,320.8,273.8,320.8,274.2z M276.9,220.5c2.3,2.3,3.9,6.5,5.9,10.2c5.1,9.2,11.2,18.7,16.7,28.5
		c1.7,3-1.8-1.9-2.6-3.3c-6-9.8-11.6-19.2-17.4-29.8c-0.7-1.3-2.8-4.6-2.6-5.2C276.9,220.8,276.9,220.5,276.9,220.5z M279.8,218.2
		c1-0.2,1.4,2.3,2,3.3c2,3.7,4.3,7.1,5.6,10.5c0.3,0.1,0.4,0.3,0.3,0.7c2.2,2.8,4,6.1,5.6,9.5c0.3,0.1,0.4,0.3,0.3,0.7
		c0.4,0,0.2,0.5,0,0c-0.3-0.1-0.4-0.3-0.3-0.7c-2.3-2.7-4-6-5.6-9.5c-0.3-0.1-0.4-0.3-0.3-0.7c-1.5-2-2.7-3.7-4.2-6.5
		C282.6,224.4,279.4,218.2,279.8,218.2z M295.5,246C295.9,246,295.7,246.5,295.5,246C295.1,246,295.3,245.5,295.5,246z M295.9,247
		c0.1-1.4,3.2,4.8,1.3,2.3C297,249.1,295.8,247.9,295.9,247z M299.1,252.2c-0.3-0.1-0.4-0.3-0.3-0.7c-0.2,0-0.4-0.1-0.3-0.3
		c-0.4,0-0.2-0.5,0,0c0.2,0,0.4,0,0.3,0.3C299.1,251.6,299.2,251.8,299.1,252.2c1.2,1.1,2,2.6,2.6,4.3c0.4,0,0.2,0.5,0,0
		C300.6,255.4,299.8,253.9,299.1,252.2z M271.3,146.1c-0.6-1.2-2.7-5.2-2.6-5.6c0.1-0.4,0.6-0.2,1,0.3c1.9,2.5,3.6,7.2,5.6,10.8
		c4.7,8.9,9.9,19.3,15.4,28.8c0.4,0.7,0.4-0.2,1,1c0.2,0.3,0.4,1.6,0.3,1.6c-0.5,0.5-3.1-5-3.3-5.2
		C282.9,167.1,277.2,157.3,271.3,146.1z M270.3,124.5C272,125.3,270.5,126.7,270.3,124.5C269.9,124.5,270.1,124,270.3,124.5z
		 M271.3,127.1c0.1-0.7,1.8,1.1,1.3,1.6C272.5,128.9,271.3,127.1,271.3,127.1z M285.4,137.3C285.8,137.2,285.6,137.7,285.4,137.3
		C285,137.3,285.2,136.8,285.4,137.3z M291,144.5c0.3,0.1,0.4,0.3,0.3,0.6c0.2,0.1,0.4,0.3,0.3,0.7c0.2,0.1,0.4,0.3,0.3,0.6
		c0.4,0,0.2,0.5,0,0c-0.3-0.1-0.4-0.3-0.3-0.6c-0.3-0.1-0.4-0.3-0.3-0.7C291,145.1,290.9,144.9,291,144.5
		C290.6,144.5,290.7,144,291,144.5z M289.6,142.2c0.3,0.1,0.4,0.3,0.3,0.7c0.4,0,0.2,0.5,0,0C289.7,142.8,289.6,142.6,289.6,142.2
		C287.8,141.3,289.5,139.6,289.6,142.2z M288.3,139.9C288.7,139.9,288.5,140.4,288.3,139.9C287.4,139.8,288.6,138.5,288.3,139.9z
		 M269,106.8c6.8,9,12.5,19.1,17.7,29.8c0.3,0.1,0.4,0.3,0.3,0.7c0.3,0.1,0.4,0.3,0.3,0.7c1.4,0.3,0,1.7,0,0
		c-0.3-0.1-0.4-0.3-0.3-0.7c-0.3-0.1-0.4-0.3-0.3-0.7C280.8,126.7,274.9,116.8,269,106.8C267.3,106.1,268.7,104.7,269,106.8z
		 M267.4,104.9C267.2,104.7,267.6,105.1,267.4,104.9L267.4,104.9z M263.8,98.6c1.3,1.8,3.9,6.3,1,2.6c-0.4-0.5-4.4-4.9-4.3-5.6
		C260.7,94.7,263.5,98.2,263.8,98.6z M265.4,116.3C264.4,116.2,265.7,114.9,265.4,116.3C266.8,116.7,265.4,118,265.4,116.3z
		 M261.8,111.2c0.4,0.6,0.9,1.4,1.7,2.5C263.4,113.6,262.3,112,261.8,111.2c-0.1-0.1-0.2-0.3-0.3-0.4c-0.7-1-1-1.5,0,0
		C261.6,111,261.6,111,261.8,111.2c-0.2-0.3-0.3-0.5-0.3-0.5c0.1-1.1,3.4,3.5,2.9,3.9C264.3,114.8,262.7,112.6,261.8,111.2
		C261.7,111.2,261.7,111.2,261.8,111.2z M256.9,90.8c0.2,0,0.4,0,0.3,0.3c0.2,0,0.4,0,0.3,0.3c0.4,0.1,0.7,0.4,0.7,1
		c1.3,0.2,2.6,2.3,2.3,2.6c-0.1,0.1-2.9-2.3-2.3-2.6c-0.4-0.1-0.7-0.4-0.7-1c-0.2,0-0.4-0.1-0.3-0.3C257,91.1,256.8,91,256.9,90.8
		C256.5,90.8,256.7,90.3,256.9,90.8z M255.6,148.4c1.4,2.7,2.5,5.5,3.9,8.2c1.4,2.5,3.2,4.7,4.6,7.2c2.8,5.4,5.5,10.5,8.2,15.7
		c1.4,2.7,3.1,5.3,4.2,7.9c0.4,0.9,2.9,8.1,1,4.9c-13.8-23.3-25.2-48.6-39.6-70.1c-1.4-0.3,0-1.7,0,0c4.5,4.7,7.1,11.2,11.1,16.4
		c-1.9-4.4-4.8-7.9-6.9-12.1c-0.4,0-0.2-0.5,0,0C247,133.2,251.6,141.1,255.6,148.4z M270.3,237.5
		C269.3,237.4,270.6,236.1,270.3,237.5C270.7,237.5,270.5,238,270.3,237.5z M272.9,246.3c2.9,5.1,5.4,8.5,7.5,13.4
		c1.9,1.6,2.8,4.2,3.9,6.6c0.3,0.1,0.4,0.3,0.3,0.7c3.6,3,5.2,8,7.5,12.1c0.6,0.3,1.1,0.6,1,1.6c0.4,0,0.2,0.5,0,0
		c-0.4-0.5-0.9-0.8-1-1.6c-2.9-3.6-5.1-8-7.5-12.1c-0.3-0.1-0.4-0.3-0.3-0.7c-1.6-1.9-2.8-4.2-3.9-6.6c-4.6-6.9-9.6-15.4-13.8-22.9
		c-0.8-1.5-2.4-5.6-0.3-2.3C268.7,238.2,271,243,272.9,246.3z M270.6,238.5C270.5,238.3,270.9,238.7,270.6,238.5L270.6,238.5z
		 M279.5,263C279.7,263.2,279.4,262.9,279.5,263L279.5,263z M279.2,262.4C279,262.3,279.4,262.6,279.2,262.4L279.2,262.4z
		 M254.9,186.4C253.9,186.3,255.2,185,254.9,186.4c2.2,3.6,5,8.2,7.2,12.1c1.3,2.3,3.2,6.5,1,3C259.9,196.5,257.2,191.2,254.9,186.4
		z M255.6,190C255.8,190.2,255.4,189.9,255.6,190L255.6,190z M267,194.9c-1.9-3.5-3.4-5.2-5.6-9.5c-0.6-1.1-3.1-5.5-3-5.9
		c0.1-0.4,0.8-0.3,1,0c1.9,2.2,5.7,10.2,7.9,14.4c0,0.1,2.7,4.5,2.3,4.9c-0.5,0.5-2-2.3-1.6-1.6C267.2,195.9,267.9,196.4,267,194.9z
		 M265.4,199.5c-0.3-0.1-0.4-0.3-0.3-0.7c-1.6-0.8-0.2-2.2,0,0C265.3,198.9,265.5,199.1,265.4,199.5
		C265.8,199.5,265.6,200,265.4,199.5z M259.5,188.4C258.1,188,259.5,186.6,259.5,188.4c0.5,0.7,1.2,1.2,1.3,2.3c0.2,0.5,3.5,5,3,5.6
		c-0.1,0.1-3.6-4.9-3-5.6C260.2,190.1,259.5,189.6,259.5,188.4z M265.4,237.5c4.6,7,8,14.6,11.8,21.3c0.6,0.2,0.9,0.9,1,1.6
		c1.4,0.3,0,1.7,0,0c-0.6-0.2-0.9-0.9-1-1.6c-3.6-5.1-6.8-11.5-10.2-17.4c-0.7-1.2-3.7-5.5-3.6-5.9
		C263.7,234.4,265,236.8,265.4,237.5z M244.1,140.9c-0.3-0.5-2.1-3.1-2-3.6c0.1-0.6,2.1,2.1,2.6,2.9c4.9,7.9,10,18.2,14.1,25.9
		c4.7,8.7,9.3,16.3,14.1,25.9c0.3,0.6,2.5,3.3,1.3,3.6c-0.4,0.1-1.9-2.9-2.3-3.6C263,175.9,253.7,157.4,244.1,140.9z M253.3,183.5
		C254.3,183.5,253,184.8,253.3,183.5C252.9,183.5,253.1,183,253.3,183.5z M241.8,136.3C240.6,135.8,242,134.4,241.8,136.3
		C242.2,136.3,242,136.8,241.8,136.3z M235.6,84.2c3,3,5.6,6.5,7.5,9.5c2.8,1.7,0.9,2.7,0,0c-2.1-2.2-4.4-4.8-6.6-7.2
		C235.6,85.4,233.4,82.1,235.6,84.2z M235.3,136.9C234.9,137,235.1,136.5,235.3,136.9C235.7,136.9,235.5,137.4,235.3,136.9z
		 M234.6,136c-0.3,0.3-1-1.3-1-1.3C233.7,134,235.2,135.4,234.6,136z M190.1,97.6c2.6,2.1,7.1,7.7,10.1,11.1
		c1.1,1.3,4.3,4.6,2.6,3.6c-0.7-0.4-2.9-3-3.6-3.6c-3.1-2.8-4.9-5-8.5-8.5c-0.7-0.7-4.5-3.6-4.3-4.3
		C186.6,95.5,189.4,97.1,190.1,97.6z M149.1,95.7C149.3,95.9,149,95.5,149.1,95.7L149.1,95.7z M117.4,135.6c1-1.4,0.1,2.7-0.7,2
		C116.2,137.1,117.1,136.1,117.4,135.6z M106.2,181.5c0.9-11.8,2.5-20.7,5.6-31.1c0.4-1.4,0.6-3.6,1.6-4.3c0.2-0.1-1.4,6.6-2,9.5
		c-1.2,6.5-2,14-3.3,21.3c-0.6,3.4-1.1,5.6-1.6,9.2C106,189.8,106.1,183.2,106.2,181.5z M102,175.3c0.3-3.2,0.7-5.8,1.6-10.5
		c0.4-1.9,0.8-5.8,1.6-6.5c0.2-0.2,0.6-0.5,0.7,0c0.2,2.2-2.4,11.8-2.9,16.1c0,0.2-0.5,5.8-1.3,4.9C101.8,179.3,102,175.4,102,175.3
		z M105.9,189.7C105.8,189.5,106.1,189.9,105.9,189.7L105.9,189.7z M95.4,246.3c0.6-1.7,1.1,2.4,0,1.3
		C95.3,247.6,95.4,246.5,95.4,246.3z M95.1,239.8C95.3,240,95,239.6,95.1,239.8L95.1,239.8z M80.4,218.8c0-0.2,0-2.2,0.3-2.6
		c0.7-0.8,0.7,7.5,0.3,9.5C80.4,229.2,80.3,219.9,80.4,218.8z M80.4,232.3c0.2-0.2,0.8-0.4,1,0c0.6,1.7,0.3,14.3,0.3,17.4
		c0,0.6,0.3,4.7-0.3,4.9c-0.6,0.2-0.3-1.9-0.3-2.3c-0.7-4.6-1.2-14.1-0.7-19.3C80.4,232.8,80.3,232.3,80.4,232.3z M35.5,270.6
		c-0.1,0.3-1.3-3.6-0.6-5.9C34.9,264.5,36.2,268.5,35.5,270.6z M34.8,258.5c0.6-0.6,0.7,8.2,0,2.9C34.7,260.6,34,259.3,34.8,258.5z
		 M36.1,250.3c0,0.1,0,0.2,0,0.3c0-0.2,0.1-0.5,0.1-0.6C36.2,250,36.2,250.1,36.1,250.3z M36.1,249C36,248.8,36.4,249.2,36.1,249
		L36.1,249z M38.1,261.7c0.2,0.2-0.6,0.4-0.7,0.3C37.3,261.9,38,261.6,38.1,261.7z M37.5,259.4c0.3-1.1,0.7,1.3,0.3,1.3
		C37.5,260.7,37.3,259.8,37.5,259.4z M37.8,267.6c-0.2-1.8-0.5-4,0-4.9C38.3,261.7,38.6,275.4,37.8,267.6z M37.5,256.8
		c-0.4-3.1-0.3-4.5-0.3-9.8c0-11.1,0.3-21.7,1.3-30.8c0.6-5.3,1.9-10.1,2-14.7c0-1.3-0.4-2.7-0.3-3.6c0-0.6,1.7-6.8,1-7.5
		c-0.3-0.3-1,2.9-1,2.6c-1.5,7.1-2.6,17.1-2.9,22.9c-0.4,6.1,0.4,10.4-0.3,14.4c-0.1,0.7-1.2,3.4-1.3,4.6
		c-0.6,4.8-0.3,10.7-0.3,15.7c0,2.5,0.3,8.7-0.3,6.6c-0.4-1.5-0.2-0.5-0.3-3.3c-0.3-7.9,0-14.1,0.3-20.3
		c1.5-33.9,8.4-67.6,20.6-91.4c1.1-4.5,3.8-8,5.2-10.5c1-1.8,3.9-6.8,5.2-8.5c-1.8,2.3,0.8-1.4,1.3-1c0.3,0.3-0.9,2.2-1,2.3
		c-2.5,4.2-5.6,9.1-7.2,13.4c-0.3,0.9-0.3,2.2-0.7,2.9c-0.2,0.5-1.7,2.2-2,2.9c-0.4,1-0.7,2.8-1.3,4.6c-1.7,4.9-3.2,9.1-4.9,13.8
		c-2,5.3,1.3-5.1,1.3-5.9c-8.3,22.1-11.5,50.9-12.8,78.9c-0.4,7.8,0.1,11.3-0.3,17.7C38.3,255.2,38,261.4,37.5,256.8z M40.4,292.5
		c-0.7,0.7-1-4.6-1-4.9c-0.2-2.3-0.6-4.3-0.7-5.2c0-0.7-0.4-2.6,0-3.6c0.3-0.7,0.5,3,0.7,4.9C39.7,286.9,41.4,291.5,40.4,292.5z
		 M41.1,283.7c0,0,0-0.3,0-0.3C42.2,282.2,41.1,285.4,41.1,283.7z M41.1,282.4C41.3,282.6,40.9,282.2,41.1,282.4L41.1,282.4z
		 M42,286c0,0.5-0.6,0.2-0.6,0C41.2,285.5,42,286,42,286z M42.4,292.2c-0.2,0-1.3-3.3-1-3.9C41.8,287.3,43.3,292.1,42.4,292.2z
		 M47.3,353.4C46.8,354.5,46.5,352.2,47.3,353.4L47.3,353.4z M47.3,354.4c0.2-0.9,1,0.9,0.7,1.3C48,355.7,47,355.8,47.3,354.4z
		 M48.6,357.4c-0.2,0.2-0.7-0.7-0.7-1C48,355.3,48.8,357.2,48.6,357.4z M54.5,228.3c-0.1,0.6-0.4-0.2-0.3-0.6
		C54.3,227,54.6,227.9,54.5,228.3z M54.8,226.4c0.2-0.1-0.9-4.7,0-5.6C56,219.6,55.3,226.2,54.8,226.4z M51.9,182.8
		c2.5-9.3-0.1,3.2-1,2.3c-0.2-0.2,1.3-6.3,1.3-6.2c0.3-1.3,1.8-6,1.3-6.5c0,0-1,2.3-1.3,3.6c-4,17.1-5.3,31.7-6.6,49.8
		c-0.2,3.7-0.4,13.2-1,17c-0.9,6.2-0.8-4.9-0.7-6.9c0.8-16.1,2.5-33,5.2-48.1c0.3-1.4,1.8-10.4,0.7-6.6c-2,6.7-4,20.1-4.6,26.5
		c-1.7,19.7-2.4,35.7-2.3,54c0,2.4,0.6,2,0.7,4.9c0.1,4.5-0.1,8.6,0.3,13.8c0.1,0.8,0.3,3.4,0.3,4.3c0,0,0,0,0,0c0,0.6,0,0.5,0,0
		c0,0.5-0.2-0.2,0,2.3c0.2,2.3-0.6,2-0.6,0c0-5.5-0.6-6.3-1-11.5c-1.6-20-1.5-35,0-54.7c0.3-4.1,0.7-10.1,1.3-15.1
		c0.3-2.5,0.7-7.3,0-3.3c-1.9,11.5-2.5,24.3-2.9,35c0,0.9-0.4,9.1-0.7,5.6c-0.2-2.7,0.3-11.8,0.3-13.1c0.7-16,3-34.2,5.9-48.1
		c0.5-2.3,0.5-4.7,1-6.9c1.1-5.4,4.3-12.6,5.9-18c0.7-2.2,0.9-4.8,1.6-6.6c0.5-1.2,1.7-2.3,2.3-3.6c4-8.4,6.9-16.5,11.8-24.2
		c0.4-0.6,2-3.7,2.6-3.6c0.7,0.1-0.4,1.6-0.6,2c-2.3,3.8-4.1,6.8-5.9,10.5c-0.6,1.3-2,3.8-2.3,4.6c-0.8,2.3-0.6,4.6-1.3,6.2
		c-0.8,1.8-3.6,3.2-2.3,5.2c0.1,0.1,1-0.1,1,0c0.4,1.4-1.5,4.6-2.3,6.9c-0.9,2.6-2.1,4.8-1.6,6.9c1.2-2.8,1.5-4,2.6-7.2
		c0.4-1,4.1-10.9,2.6-4.9c-1.2,5-4.4,12.5-5.6,16.4C54.5,170.6,53.3,177.3,51.9,182.8z M68.9,149.9c-0.4,4.3-2.5,7.8-3.9,12.3
		c-0.5,1.7-2.2,9.1-2.9,9.2c-1.2,0.1-0.2-1-0.3-2c-0.1-1-0.6-1.9-0.7-1.3c0.1-2.6,2.2-6.8,2.9-8.9c2-5.4,3.1-9.4,5.2-14.4
		c0.4-1,3.3-6.8,2.6-4.3c-0.9,3.5-2.6,7-2.9,9.2c-0.3-0.1-0.3,0.1-0.3,0.3C68.8,150.1,68.8,150,68.9,149.9z M66,174.3
		c0.1-0.7-0.1-2.8,0.7-3.3C68.1,169.9,65.2,178,66,174.3z M63.3,143.5C63.3,143.1,63.8,143.3,63.3,143.5
		C62.8,147.4,61.7,144.5,63.3,143.5z M60.4,259.8c0,0,0-0.3,0-0.3C61.6,258.3,60.4,261.5,60.4,259.8z M59.7,255.5
		c-1.8-17.3,0.7-35.8,2.6-51.4c0.3-2.3,0-6.1,0.7-7.2c0.4-0.6,0.6,0.7,0.7,1c0.2,3.4-1.4,10.7-1.3,13.8c0.1,2,0.6,2.6,0.7,3.9
		c0.1,3-0.4,7.1-0.7,11.1c-0.5,7.8-0.6,15.8-1.6,22.6c-0.4,2.3,0.2,6.9,0.3,8.8C61.2,261.2,59.8,256.2,59.7,255.5z M63.3,286
		c-0.7,0.7-0.9-3.6-1-3.9c-0.5-3.5-0.4-4-0.7-7.5c0-0.7-0.6-1.8-0.3-2.6c0.4-1,1.2,4.4,1.3,5.9C62.8,279.5,63.8,285.5,63.3,286z
		 M63,255.5c-1.5-12.8-0.2-28.6,1-42.9c0.1-1.5,0-5.8,0.7-6.2c0.7-0.5,0.1,4.9,0,6.2c-1.1,14.2-1.8,24.2-1.3,39.3
		C63.4,254.7,63.8,262,63,255.5z M64.3,268.6c-0.2,0-0.4-0.4-0.3-0.7C64.3,267,64.7,268.6,64.3,268.6z M66.3,286.6
		c-0.2,0.4-0.9-3-1-3.6c-0.5-3.6-0.6-7.8-1-12.1c0-0.3-0.5-1.2-0.3-1.6c0.2-0.4,0.6-0.3,0.7,0c0.3,1.6,0.2,5,0.7,8.8
		C65.6,281.3,67,285.5,66.3,286.6z M66.6,177.9c-0.2-2.5,1.3-6.6,1.3-8.5c0-1.3-0.8-0.4-0.7-1.3c0-0.3,0.8-0.9,1-2
		c0.8-4.7,3.2-13,5.2-17.4c0.2-0.5-0.1-0.4,0.3-0.7c1.7-1.2-0.9,3.1-0.3,3.3c0,0,1.3-1.3,1-2.3c0.6,1.8-1.2,4.7-2,7.2
		c-2,6.6-2.7,11.3-4.6,19.3C67.8,176.2,66.8,180.7,66.6,177.9z M75.4,151.4c-1.3,3.9-2.1,10.7-3.6,15.1c-0.7,2.1-1.5,3.6-2.3,7.2
		c-0.1,0.3-1.4,7.8-2,7.2c-0.6-0.6,1.5-8.6,1.6-9.2c1.3-6.1,2.9-11.8,4.6-17c0.9-2.9,2.4-5.5,3-7.9c0-0.1-0.1-0.6,0-0.7
		c0.2-0.2,0.6-0.5,0.7,0C77.5,147.3,76.1,149.4,75.4,151.4z M78.1,245.3c-0.4-8.1-0.7-18.7,0-26.2c0-0.2,0.1-1.8,0.3-2
		c0,0,0-0.3,0-0.3c1,5,0,10.8,0,18.7c0,2.9,0.3,6.9,0.3,8.5c0.1,2.2,0.4,9.1,0,9.5C78.7,253.5,78.1,245.9,78.1,245.3z M81.7,285
		c-1.5-6.1-1.5-10.2-2-17.4c-0.1-1.8-1.3-5.3-0.7-6.9c0.3-0.8,1.2,5.7,1.3,6.5c0.4,4.7,0.6,8.4,1.3,13.8
		C82.1,284,83.3,291.4,81.7,285z M83,284.3C82.8,284.2,83.2,284.5,83,284.3L83,284.3z M83.6,277.9c-0.3-1.3-0.4-2.8-0.6-5.1
		c-0.1-1.3-0.7-4.3-0.3-5.2c0.3-0.8,2.3,11.4,2,11.8C84.2,279.8,83.7,278.1,83.6,277.9c0,0.1,0,0.1,0,0.2
		C83.6,277.9,83.6,277.9,83.6,277.9z M84.3,280.1c0.1-0.2,1.4,2.2,0.7,2.9C85,283,84,281.2,84.3,280.1z M88.2,314.1
		c-0.2,0.2-2.1-6.1-2.3-6.9c-0.3-1.2-2-6.6-1.6-7.5c0.4-1.1,1.5,4,2.3,7.2C87.2,309.3,88.8,313.5,88.2,314.1z M86.9,164.5
		c0.1,0.2,0.7-0.3,0.7-0.7c0,2.9-1.1,7.6-2,10.8c0,5.3-1.3,1.2,0,0c-0.8-2.5-1.2,2.9-1.3,4.2c0.2,0,0.4,0,0.7,0c0-0.4,0.5-0.2,0,0
		c-0.3,1.6,0.2,4.4-0.7,4.6c-0.6,0.1,0.5-4.8,0-4.6c-0.2,0-0.4,0.1-0.3,0.3c-0.7-1.7,0.1-5.6,0.7-8.5c1.1-5.8,2.4-10.9,3.9-16
		c0.3-1.1,3.8-11.1,2.3-5.2c-0.8,3.2-1.1,4.3-1.6,6.5C88.6,158.2,86.6,163.2,86.9,164.5z M84.9,178.2
		C84.8,178.1,85.2,178.4,84.9,178.2L84.9,178.2z M122.6,399.6c-1.8-0.6-0.3,0.7-2.6-0.3c-1.2-0.6-2.5-1.9-3.9-2.9
		c-1.4-1-3.2-1.8-4.3-2.6c-2.1-1.7-4-4.4-5.9-6.9c-5.3-7-12.8-14.5-16-22.3c-0.4,0-0.2-0.5,0,0c9.1,14.6,21.6,27.2,36.4,36.4
		C131.2,404,122.6,399.6,122.6,399.6z M94.8,334.1c0.1-1.1,0.8,0.8,0.7,1C95.2,335.3,94.7,334.4,94.8,334.1z M96.1,337.1
		C95.1,337,96.4,335.7,96.1,337.1C96.5,337,96.3,337.5,96.1,337.1z M96.7,338.7C95.8,338.6,97,337.3,96.7,338.7
		C97.7,338.8,96.4,340.1,96.7,338.7z M98,341.6C99.4,342,98,343.4,98,341.6C96.4,340.2,97.8,338.8,98,341.6z M117.4,381.3
		c1.1,0.6,2,1.2,3.3,2.3c1,0.8,4.2,3.3,2.6,2.6C121.2,385.3,118.3,382.3,117.4,381.3C117,381.3,117.2,380.8,117.4,381.3z
		 M135.1,404.5c-0.5,0.5-6.7-3.1-6.6-2.9c-1.4,0.3-0.1-1,0,0C129.8,401.3,135.5,404.1,135.1,404.5z M136.4,395.7
		c0,0.3-0.6,0.4-0.7,0c-1,0-1.7-0.3-2-1c-0.7,0.1-1.2-0.1-1.3-0.7c-0.2-0.1-0.6,0-0.6-0.3c-0.3-0.1-0.7,0-0.7-0.3
		c-0.6,0-0.8-0.3-1-0.7c-0.3-0.1-0.6,0-0.7-0.3c-0.6,0-0.8-0.3-1-0.7c-3-1.4-5.6-3.2-7.9-5.2c-0.6-0.6-3.6-3.5-1.3-2
		c3,2,6.8,5.6,9.2,7.2c0.6,0,0.8,0.3,1,0.7c0.3,0.1,0.6,0,0.7,0.3c0.6,0,0.8,0.3,1,0.7c0.3,0.1,0.6,0,0.7,0.3c0.2,0.1,0.6,0,0.6,0.3
		c0.2,0,0.4,0,0.7,0c0-0.3-0.3-0.4-0.3-0.6c-0.3-0.1-0.6,0-0.7-0.3c-0.3-0.1-0.6,0-0.7-0.3c-0.4,0-0.2-0.5,0,0
		c0.3,0.1,0.6,0,0.7,0.3c0.3,0.1,0.6,0,0.7,0.3c0.5,1,8.7,2.7,8.8,3.6C141.7,397.7,136.6,395.5,136.4,395.7z M134.1,393.4
		c-0.6-0.2-0.5-0.2-0.2-0.1c-1.7-0.6-3.9-2.1-4.7-2.8c-0.4,0-0.2-0.5,0,0c1.8,0.6,4.4,2,5.6,2.6c1.8,1-0.2,0.4-0.9,0.2
		C133.9,393.3,134,393.4,134.1,393.4z M141.9,397.6C142.1,397.9,141.8,397.5,141.9,397.6L141.9,397.6z M142.9,398
		C143.1,398.2,142.8,397.8,142.9,398L142.9,398z M143.9,398.3C144.1,398.5,143.8,398.2,143.9,398.3L143.9,398.3z M149.8,397.3
		c0.2-0.6-2.5,0.1-3,0c-0.4-0.1-1.2-1-1.3-1c-1.3-0.4-3.8-0.8-5.2-1.3c-0.1,0-1.7-0.4-1.6-0.3c-0.1-0.6,9.2,1.9,9.5,1.9
		C149.2,396.9,150.1,396.3,149.8,397.3z M144.5,393.4c-3.1-0.3-5.4-1.4-7.5-2.6c-1.4,0.3-0.1-1,0,0
		C139.6,391.6,142.2,392.4,144.5,393.4c1.5,0.1,3.3,0.4,4.9,0.6C154.6,394.8,144.2,394.6,144.5,393.4z M153.7,393.4
		c-0.8,0.7-4.4,0.3-6.2,0c-9.5-1.4-18.4-6.7-24.2-11.8c-6.5-5.7-12.2-12.6-16.7-19.3c-0.2,0-0.4-0.1-0.3-0.3c-0.4,0-0.2-0.5,0,0
		c0.2,0,0.4,0,0.3,0.3c8.9,10.5,18.2,21.6,32.7,26.9c2.8,1,7.9,2.2,11.5,3.3c0.4,0.1,0.8,0.9,1,1C152.2,393.6,154.2,393,153.7,393.4
		z M153.1,391.7c-0.2-0.2,0.8-0.5,1-0.3C154.2,391.6,153.2,391.9,153.1,391.7z M163.2,371.4c0,0,0.3-0.6,0.3-0.6
		C164.8,369.5,164,372.2,163.2,371.4z M164.9,369.2c-0.8,1.9-0.6-0.1-0.3-1c0.4-1.1,2.4-5.5,2.9-5.9
		C169.3,361.1,165.4,368,164.9,369.2z M188.8,393.7C188.4,395.1,187,393.7,188.8,393.7C188.7,393.3,189.2,393.5,188.8,393.7z
		 M188.8,390.8C188.7,391.7,187.4,390.5,188.8,390.8C188.8,389.8,190.1,391.1,188.8,390.8z M175.7,388.5c-3.3,0.9,3.5-1.9,6.2-3.3
		c3.6-1.9,5-3.8,8.5-3.9c1.4-0.1,2.9-0.3,1,1c-4,2.7-9.2,5.7-13.8,7.9c-0.8,0.4-8.8,4.4-6.2,0.7
		C170.9,391.5,179.8,387.4,175.7,388.5z M244.4,231.3c-0.8-0.2-3-7.6-4.3-7.5c-0.7,0.1,2.1,4.3,2.3,4.9c0.2,0.4-0.3,0.9-0.3,1
		c0,1.3,1.5,1.7,1.3,2.9c-0.1,0.8-4.2,5.8-4.9,5.6c-0.5-0.1-1.6-3.5-2.3-4.9c-6.2-11.8-12.6-22.3-19-33.4
		c5.3,10.6,11.6,21.5,17,31.8c0.8,1.5,1.3,3,2,4.6c0.4,0.9,1.8,2.1,1.6,3.3c-0.1,0.9-4.5,5.4-6.2,7.5
		c-10.9,13.6-19.8,25.8-29.2,40.3c-4.3,6.7-8.7,14-11.8,21.3c-2.6,6.2-5.6,12.1-8.5,17.7c-1.2,2.3-3.3,4.8-3.9,6.9
		c-0.3,1.1,0.7,0.4,0.7,1.3c0,0.6-1.3,2.2-2,3.6c-4.3,9.1-8.6,19.4-13.1,27.2c0.3,0,0.4,0.6,0,0.7c0.3,1.4-1,0.1,0,0
		c0-0.2,0-0.4,0-0.7c-1.9,3.3-4.3,9-6.2,13.4c-0.4,0.8-1.7,4.2-2,4.2c-0.2,0.1-3.7-1-4.6-1.3c-5.1-1.7-9-3.9-12.8-5.9
		c2.6,2.4,8.2,4.9,12.4,6.2c0.5,0.2,4.7,1.1,4.9,1.3c0,0-0.3,0.4-0.5,0.7c-0.2,0.8-0.6,2.2-0.5,2.2c1.1,0.1,2.4-6.9,3.3-6.5
		c0-0.4,0.5-0.2,0,0c-0.6,2.4-1.4,3.4-1.3,5.9c0.4,0.2,2.4-6.1,3-5.6c0.6,0.6-1.6,4.1-1.6,4.3c-0.7,1.8-0.8,4-1.3,4.6
		c-0.2,0.2-1.6-0.2-1.6,0c-0.2,0.4,1.3,0.6,1.6,0.3c-0.9,0.9-0.5,0.9-1.6,1c-0.8,0-1.5-0.1-3-0.3c-7.6-1.3-14.2-3.9-19.6-6.6
		c2.4,1.8,7.3,4.1,11.5,5.2c0.9,0.3,6.8,1.6,3.3,1.3c-1.1-0.1-0.6-0.1-1.6-0.3c-15.8-3.2-24.8-15-32.8-24.9
		c-9.7-12-15.7-25.2-20.6-40.9c-1-0.1,0.3-1.4,0,0c5.1,14.2,11.6,25.8,20,36.4c2.7,3.4,5.2,7.4,8.8,10.2c0.2,0.2,1.4,0.3,2,0.7
		c0.7,0.4,4.5,4.9,5.2,4.6c0.9-0.4-3.1-4.4-3.3-4.6c-9.4-9.4-17.7-20.6-22.6-33.1c-1.5-3.8-2.1-5.6-3.6-9.8
		c-0.2-0.7-2.7-6.5-2.6-6.6c0.9-1.8,2.2,2.1,2.6,3c5.4,11.4,9.5,20.5,16.4,29.1c1.1,1.4,2.3,2.5,3.3,3.9c2.6,3.8,6,9.3,10.2,11.8
		c-0.4-1.1-1.6-1.6-2.6-2.6c-1.2-1.2-4.2-4.8-1-2c1.9,1.8,3.7,3.6,5.2,4.9c-0.1,0.3,0.1,0.3,0.3,0.3c0-0.2,0-0.3-0.1-0.3
		c2.5,0.3,5.7,2.5,8.3,3.6c-4.1-3-8.4-6.5-12.1-10.5c-0.9-0.9-1.9-2.9-0.3-1.3c2.4,2.4,4.3,3.9,6.2,5.6c0.8,0.7,6.7,6.1,7.9,5.6
		c1-0.5-1.4-2.1-1.6-2.3c-7-6.3-11.9-9.4-17-17.4c-0.4,0-0.2-0.5,0,0c3.9,3.3,6.3,7.3,9.8,10.5c5.6,5.1,12.7,9.1,21,11.1
		c-7.7-3.1-13.8-7.2-19.3-12.4c-3.8-3.6-6.6-8.2-10.5-11.8c0.8,1,5.4,7.6,2.3,3.9c-9.9-11.6-16.1-25.4-20.3-38.6
		c-0.7-2.1-1.2-4.9-2.3-8.2c-0.7-2.1-3.2-7.2-2.9-7.9c0.5-1.4,1.5,2.2,1.6,2.6c3.5,9.3,6.3,18.7,9.8,26.2c2.1,4.4,4.5,8.9,7.5,12.8
		c9.4,11.8,19.2,23.6,35,29.2c1.2,0.4,5.3,1.4,5.2,1.3c-0.2-0.3-5.1,12.8-3.6,9.8c2.8-5.6,4.8-11.2,6.6-16.1
		c-1.3,0.5-1.9,5.6-2.6,5.9c-1,0.5-5.4-1.6-7.2-2.3c-3.2-1.3-5.4-2-6.9-2.9c-1-0.6-1.6-1.8-2.6-2.6c-1-0.7-2.3-1.2-3.3-2
		c-13.8-10.8-24.6-27.4-30.8-45.2c-0.4-0.1-0.3-0.5-0.3-1c-1-0.1,0.3-1.4,0,0c0.4,0,0.4,0.5,0.3,1c0.9-0.2,0.4-0.6,0.3-1.3
		c-0.7-4.5-4.3-11.3-5.6-15.7c-0.6-2-0.6-4-1-6.2c-0.2-1-1.1-2.9-1.6-5.6c-0.5-2.5-1.1-9.6,0-5.6c2.6,9.5,3.5,19.7,7.2,26.9
		c-3.9-14.1-7.5-26.9-9.2-42.6c-0.3-2.7,0.2-4.1,0-6.9c-0.5-8.3-2.2-18.5-1.3-28.8c0.5-6,0.4-11.7,0.6-17.7c0.1-1.2,0.8-8.4,1.6-7.5
		c0.9,0.9-0.5,6.8-0.7,10.2c-0.5,10.2-0.1,15.7,0.3,25.9c0.4,8.8,0.6,14.3,1.6,23.3c0.5,4.2,2.5,15.6,2.3,11.1
		c-0.3-7.3-2-19.7-2.6-27.5c-0.1-0.9-0.5-9.9-0.3-9.8c0.6,0.2,0.5,4.2,0.4,3.2c0.2,2.6,0.7,5.6,1,8.9c0.4,4.6,1,7.9,1.6,11.8
		c0.7,4.2,0.9,7.5,2,10.8c0.9,2.6,0.7,0.7,0.7-1.3c0-2.2-0.7-5.9-1-8.8c-2-18.4-2.2-36.2-0.7-53.7c0.1-0.7,0.5-9,1.3-8.2
		c0.7,0.7-0.5,4.1-0.7,6.2c-0.2,2.6-0.8,10.9-0.7,11.1c0.7,0.7,1-5.6,1-5.9c0.7-10.7,4-22.5,3.9-31.1c-0.1-10.5,2.7-20.7,5.2-29.5
		c2.5-8.5,5.4-16.6,7.5-25.5c-0.9,1.3-2,4.3-2.6,5.9c-1.9,4.9-0.1-1.6,0-2.6c0.1-1.3-0.5-0.9-0.3-2c0.4-2,1.8-4.6,2.6-6.9
		c1.1-2.9,2-5.5,2.3-7.2c-0.4,0.5-0.9,1.1-1.3,2c-2.6,5,0-1.1,0.3-2.6c-1.6,2.1-0.2-3,0.7-5.2c0.5-1.3,1.4-2.7,2-3.9
		c0.4-0.9,2.6-5.1,2.3-2c0.7-0.8,1.1-1.2,2.3-1c2.4,0.4,2-0.2,0.9-0.3c2.8,0.1,5.2,1.7,7.9,2.9c4.3,1.9,8.3,4.2,11.8,6.6
		c3.5,2.3,6.7,5.9,9.8,7.9c-5.8-6.3-14.5-12.6-22.3-17c-2.7-1.5-0.8-1.4,1-0.6c1.3,0.5,0,0.2,2,1.3c10.4,5.5,19.2,13.4,26.2,21.3
		c1.2-0.1,0.2,1.2,0,0.7c0.2,0.7,2,2.4,2.3,2.6c0.5,0.4,1.3,0,1.6,0.3c1.8,1.6,3.3,4.8,5.2,7.2c2,2.6,4.2,4.9,5.9,6.6
		c-7.9-11.3-17.3-22.9-28.2-31.4c-3.4-2.7-6.2-4.5-9.8-6.9c-1.9-1.2-4.7-2-5.6-2.9c-0.2-0.2,0.8-0.6,0.7-0.7
		c-0.6-0.4-6.6-2.7-6.2-3.3c0.8-1.4,1.4,0.1,3.3,0c1-0.1,1.2-0.7,2-0.7c2.5,0.3,4.8,2.4,7.5,3c1.7,0.3,5.2-0.1,6.6,0.7
		c-0.8-0.9-2.9-1.8-1.3-1.3c2.5,0.8,4.2,2.3,5.9,3.3c1.2,0.7,2.5,1,3.6,1.6c1.2,0.7,2,2.2,2.9,2.6c0.7,0.3,2,0.2,2.3,0.3
		c2.2,1.3,4.9,4.3,7.5,6.9c1.9,1.8,4,3.6,5.6,5.2c0.6,0.7,1.1,1.7,1.6,2.3c0.8,0.8,1.9,0.9,2.6,1.6c2,2,3.8,4.9,5.6,7.2
		c2.1,2.6,3.6,5.5,5.6,7.5c0.4,0.4,1,0.6,1.3,1c4.6,5.7,8.8,13.5,13.1,21c4.3,7.3,8.2,14.9,12.1,21.9c4.2,7.5,8.6,14.7,12.4,21.6
		c2.1,3.8,3.6,7.9,5.6,11.5c2.7,4.9,5.3,8.5,7.2,13.4c0.4,1.1,1.3,2.2,1.3,2.3C247.4,229.3,245,231.4,244.4,231.3z M98,335.8
		C97.1,335.7,98.4,334.4,98,335.8C98.4,335.7,98.2,336.2,98,335.8z M99,338.4C98.9,338.2,99.2,338.6,99,338.4L99,338.4z M100,340
		c0.3,0.1,0.4,0.3,0.3,0.7c0.4,0,0.2,0.5,0,0C100.1,340.6,100,340.4,100,340c-0.3-0.1-0.4-0.3-0.3-0.6c-1-0.1,0.3-1.4,0,0
		C99.9,339.4,100.1,339.6,100,340z M101.6,343.3c1-1,0,2.5,0,0.3C101.6,343.6,101.6,343.3,101.6,343.3z M103,345.6
		C104.3,345.9,103,347.3,103,345.6C102.6,345.6,102.8,345.1,103,345.6z M103.9,347.2C105.2,347.3,103.9,348.7,103.9,347.2
		C103.5,347.3,103.7,346.7,103.9,347.2z M107.9,353.4c0.2,0,0.4,0,0.3,0.3c0.3,0.1,0.4,0.3,0.3,0.7c0.4,0,0.2,0.5,0,0
		c-0.3-0.1-0.4-0.3-0.3-0.7C108,353.7,107.8,353.7,107.9,353.4c-0.3-0.1-0.4-0.3-0.3-0.7c-0.2,0-0.4,0-0.3-0.3
		c-0.4-0.1-0.7-0.4-0.7-1c-1.4-0.3,0-1.7,0,0c0.4,0.1,0.7,0.4,0.7,1c0.2,0,0.4,0,0.3,0.3C107.8,352.8,107.9,353,107.9,353.4z
		 M97.7,267.9C96.7,267.9,98,266.6,97.7,267.9C98.1,267.9,97.9,268.4,97.7,267.9z M120.6,355.1c0.7,0.8,3.5,3.8,2.3,3.3
		c-2-0.8-4.3-4.4-5.2-5.6c-5.6-7.1-10.3-15-13.4-23.6c-1-0.1,0.3-1.4,0,0C108.5,338.4,114.4,347.7,120.6,355.1z M249,226
		c-0.2,0.1,0,0.5-0.3,0.7c-1,0.4-3-4.7-3.3-5.2c-3.4-6.4-7.2-13.3-10.2-18.7c-11.5-21-22.9-42.4-35.4-61.2
		c-2.9-4.4-6.4-9.1-8.5-13.8c-2-0.8-0.5-2.2,0,0c9.2,10,16.2,22.2,23.6,34.1c-3.9-8.7-9.6-15.5-14.1-23.6c-2.3-1.8-0.6-2.6,0,0
		c10.6,12.6,17.4,27.9,25.9,43.6c3.8,6.9,8.7,14.9,12.4,22.3c2.7,5.2,6.8,12.1,9.2,18c0.3,0.6-0.3,1.9-0.3,1.6
		c0.1,0.5,0.9,0.2,1,0.3C249.2,224.8,248.9,226.1,249,226z M250.3,222.4c0-0.1,0.7-0.6,1-0.3C251.7,222.5,250.2,223.1,250.3,222.4z
		 M250.3,221.8c-1.1,0-1.3-2.1-1.6-2.6c-6.9-12.8-13.4-23.8-20-36.4c-0.9-1.8-3.2-5.4-3-5.9c0,0,2.2,1.6,1.6,1
		c1.5,1.6,1.5,4.1,2.6,3.9c0.6-0.1,0.1-0.5,0-0.7c-1.7-5.1-5.9-10.8-7.9-14.4c-0.3,1.3,2,3.7,2.3,4.9c0.1,0.5-0.2,2.7,0,2.6
		c-0.2,0.1-0.6-0.8-0.7-1c-2.9-5.4-6.8-12.3-9.5-16.7c-2.4-3.8-5.1-8.6-7.5-12.5c-0.5-0.9-3.4-6.9-1.3-3.9
		c3.5,4.9,6.9,10.6,10.1,15.4c3.6,5.2-0.4-1.6-1-3.6c0,0.2-0.3,0.4-0.3,0c-0.2,0-0.4-0.3,0-0.3c-0.4-0.5-0.4-1.3-1-1.6
		c0,0.4-0.5,0.2,0,0c-7.9-13.5-17.2-25.6-27.3-36.9c0,0.1,0.1,0.1,0.1,0.2c0.1,1-2.7-1.7-2.6-1.6c-3.7-3.5-8.4-8.1-11.8-11.1
		c-0.2,0-0.4,0-0.3-0.3c-0.4,0-0.2-0.5,0,0c0.2,0,0.4,0,0.3,0.3c4.6,2.8,8.2,6.7,12.1,10.2c-0.3-1.3-3.2-3.4-2.6-3.6
		c0.7-0.2,4.4,3.1,5.6,4.2c1.6,1.7,2.9,4.1,4.6,6.2c1.6,2,3.7,3.6,5.2,5.6c6.4,7.9,11.6,15.6,17,24.2c1.9,3,3.8,6.1,5.6,9.2
		c3.6,6.3,6.7,13.4,10.1,19.7c6.3,11.4,12.8,22.5,18.7,33.4c0.7,1.4,2.3,3.9,2.6,4.9c0.1,0.4-0.7,0.3-0.7,0.6c0,0.3,0.6,0.7,0.7,1
		c0.2,1.3-0.4,2.2-0.7,2.9C253.2,216.8,250.1,221.8,250.3,221.8z M215,146.1c0.3,0.1,0.4,0.3,0.3,0.7c1.4,0.3,0,1.7,0,0
		C215,146.7,214.9,146.5,215,146.1C213.7,146,215,144.7,215,146.1z M217.3,150c-0.3-0.1-0.4-0.3-0.3-0.7c-0.4-0.1-0.7-0.4-0.7-1
		c-0.4,0-0.2-0.5,0,0c0.4,0.1,0.7,0.4,0.7,1C217.2,149.5,217.3,149.7,217.3,150c0.4,0.1,0.7,0.4,0.7,1c1,0.1-0.3,1.4,0,0
		C217.5,150.9,217.2,150.6,217.3,150z M218.9,153.3c0-0.5,0.6-0.2,0.7,0C219.7,153.8,218.9,153.3,218.9,153.3z M242.2,195.9
		C242.4,196.1,242,195.8,242.2,195.9L242.2,195.9z M251.3,212.3c-0.2-0.1-0.4-0.3-0.3-0.6c-1-0.1,0.3-1.4,0,0
		C251.2,211.7,251.4,211.9,251.3,212.3C252.7,212.6,251.3,214,251.3,212.3z M254.9,213.9c-0.5,0.5-1.3-1.7-1.3-1.6
		c-5.4-10.9-12-21.1-16.7-31.8c-10.8-19.3-21.8-39.9-34.7-57.3c-1.3-1.8-4.2-4.6-2-2.9c1.8,1.3,0.9,0.9,3,3.6
		c4,5.2,7.9,10.2,10.8,14.7c4.3,6.7,10.3,15.4,13.1,21.3c0.6,1.4,0.5,2,1,2.9c0.6,1.3,1.9,2.5,2.6,3.9c0.9,1.7,1.2,3.5,2,4.9
		c1.7,2.9,3.4,5.4,4.3,8.8c6.3,8,11.1,19.2,16,28.8C253.5,210.3,255.6,213.3,254.9,213.9z M207.4,117.6
		C204.7,115.9,206.5,114.8,207.4,117.6C207.8,117.6,207.6,118.1,207.4,117.6z M208.7,120.6c-0.4,0.4-2.3-2.3-2.3-2.3
		C206.5,117.8,209.3,120,208.7,120.6z M215.3,128.4C214.9,128.5,215.1,128,215.3,128.4c4.7,6.3,9.7,14.1,13.4,21.6
		c0.6,1.2,2.7,5.7,0.3,2.3c-6.1-8.8-10.9-18.6-16.7-26.5c-1-0.7-1.9-2.3-2.6-3.3c-2.3-3.1,3.2,2.3,2.6,3.3
		C213.5,126.1,215.5,130.9,215.3,128.4z M219.9,141.9c-1.4-2.1-2.1-3.3-3.6-5.6c-0.5-0.7-1.7-2.7-1.6-2.9c0.3-0.9,3,3.5,4.3,5.6
		c0.9,1.4,1.8,3.2,3,4.9C222.9,145.4,220.6,142.9,219.9,141.9z M240.2,169c-6.5-12.3-13.2-24.4-20.3-35.4c-1.1-1.7-2-3.4-2.9-5.2
		c-2.8-5.1-7.3-8.4-10.2-14.1c-0.2,0-0.4,0-0.3-0.3c-0.2,0-0.4-0.1-0.3-0.3c-0.4,0-0.2-0.5,0,0c0.2,0,0.4,0.1,0.3,0.3
		c0.2,0,0.4,0,0.3,0.3c0.8,0.2,0.9,1.1,1.6,1.3c-1.3-1.8-2-3-3.9-5.2c-0.8-1-6.5-7.1-3.3-4.6c1.1,0.8,2.7,2.8,3.6,3.9
		c11.3,13.2,20.4,26.7,29.1,41.9c4.9,8.4,9,17,14.1,26.2c3.3,6.1,7.5,13.5,10.8,19.7c1.5,2.8,3.7,5.1,3.6,7.9c0,0.7,0.4,0.6,0.3,1.6
		c0,0.4-0.7,0.7-0.7,1c0.1,0.3,1.8,0.1,0.7,0.6c-0.2,0.1,0.1,0.5-0.3,0.7c-0.7,0.2-2.8-3.6-3-3.9C252.6,192.6,246.8,181.5,240.2,169
		z M301.1,310.5c-1.2-0.7-1.8-2-2.6-3c-4.1-4.8-6.6-8.2-9.8-12.8c-8.8-12.4-15-23.1-22.9-36.7c-2.5-4.2-5.6-9-8.2-14.1
		c-0.6-1.2-2-4.5,0.3-4.6c1.4,0,5.1,7.8,5.9,9.2c0.8,1.3,1.7,2,2.3,3c1.2,1.9,1.9,4.3,2.9,6.2c8,14.6,15.6,26.8,24.9,40.3
		c0.5,0.3,1,0.5,1,1.3c0.2,0,0.4,0,0.3,0.3c0.4,0,0.2,0.5,0,0c-0.2,0-0.4,0-0.3-0.3c-0.5-0.3-1-0.5-1-1.3c-2.3-2.2-3.9-5.1-5.9-7.5
		c2.4,4.7,6.4,10.8,10.1,15.4c0.9,1.1,4,4.4,3.9,4.6C302,311.2,301.3,310.7,301.1,310.5z M316.8,317.4c-6.8-4-11.2-12.2-15.7-16.7
		c-0.1,0.6,0.4,0.7,0.3,1.3c0.2,0,0.4,0.1,0.3,0.3c0.4,0,0.2,0.5,0,0c-0.2,0-0.4-0.1-0.3-0.3c-1.4-0.1-3.9-5.2-4.6-4.9
		c-0.5,0.2,0.6,2,0.7,2c-1.2-0.3-4.2-4.9-5.6-6.9c-2-2.9-3.5-5.5-4.9-7.5c-7.5-10.4-15.1-23.3-21.6-34.7c-1.4-2.5-3.4-5.7-4.6-7.9
		c-0.7-1.3-2.1-4.2-2-4.6c0.3-1.1,2-1.2,2.6-1c1.9,0.8,2.7,2.9,4.3,5.6c9.8,16.9,18.7,32.2,28.8,47.8c2.2,3.4,4.8,6.6,7.2,9.8
		c4,5.4,9.1,12.5,14.7,17C319.1,318.9,316.6,317.3,316.8,317.4z M293.9,282C293.8,281.9,294.1,282.3,293.9,282L293.9,282z
		 M332.9,311.8c-3.7-2.6-7.1-5.9-9.5-8.5c-7.3-7.9-12.8-14.9-18-22.6c-2.5-3.8-6.2-11-9.2-13.1c1.1,2.8,3.5,4.4,4.3,7.5
		c0.2,0.1,0.4,0.3,0.3,0.7c0.4,0,0.2,0.5,0,0c-0.3-0.1-0.4-0.3-0.3-0.7c-10.3-14.3-17.8-28.2-26.5-43.9c-1.1-2-4-5.8-3.6-6.5
		c0.6-1.1,2.5-0.3,3,0c0.2,0.2,1.5,2.3,1.6,2.6c2.8,5.1,7,12.8,9.5,17c13.4,23,26.9,45.1,43.6,62.2
		C328.6,307.2,336.3,314.2,332.9,311.8z M326.3,274.5C325.9,274.5,326.1,274,326.3,274.5c0.5-0.8-1.4-1.3-2-2
		c-1.7-1.9-3.3-4.8-4.9-7.2c-8.3-12.5-15.8-25.2-23.3-38.6c-2.4-4.3-4.4-8.2-6.5-12.1c-0.6-1.2-2.5-2.8-1.3-3.6c2-1.3,2.5,1.9,3,2.6
		c2.4,4.5,4.7,8.5,6.9,12.1c3.8,6.5,5.8,11.2,8.9,16.7c2.5,4.5,5.7,8.9,8.5,13.4c8.5,13.8,17.9,26.7,28.2,38c0.8,0,1.3,0.5,1.3,1.3
		c1.4-0.3,0.1,1,0,0c-0.6-0.3-1-0.7-1.3-1.3C336.7,288.6,332.4,280.6,326.3,274.5z M354.8,322.6c0.6,0-2-0.3-2.3-0.3
		c-0.9-0.3-1.3-1.2-1.6-1.3c-0.8-0.3-2.6-0.2-3.9-0.7c-3.1-1-7-4-7.2-4.6c0,0,0.3,0,0.3,0c1.6-0.6,2.6,1.6,3.9,2.3
		c2.1,1,6.6,2.3,9.8,3.3C353.7,321.3,360.8,323.1,354.8,322.6z M350.9,312.8C350.5,312.8,350.7,312.3,350.9,312.8
		C352.2,312.5,351,313.8,350.9,312.8z M351.2,319C351.4,319.3,351.1,318.9,351.2,319L351.2,319z M353.2,313.8
		C353.6,313.8,353.4,314.3,353.2,313.8C351.1,313.9,352.5,312.5,353.2,313.8z M354.5,314.1c0.2,0.2-0.6,0.4-0.6,0.3
		C353.7,314.3,354.4,314,354.5,314.1z M357.1,318.7C356.7,318.7,356.9,318.2,357.1,318.7C358.8,318.4,357.5,319.7,357.1,318.7z
		 M362.7,320.1c0.1,0.2,2.9-0.3,3,0.3C365.8,321.1,362.7,320.4,362.7,320.1z M366.9,319.7c-0.3,0.3-5.2-0.8-5.2-1
		C361.5,317.8,367.3,319.3,366.9,319.7z M362.7,317.7C364.8,317.4,363.4,318.7,362.7,317.7C360.9,318.1,362.3,316.7,362.7,317.7z
		 M366,318.4c0,0,1.5-0.5,1.6-0.3C367.6,318.1,366.6,319,366,318.4z M368.6,317.7c-1.4,0.4-3.4-0.5-4.3-0.6c-4-0.9-9.2-2.5-11.1-4.3
		c-0.2-0.1-0.6,0-0.7-0.3c-1.4,0.3-0.1-1,0,0c0.3,0.1,0.6,0,0.7,0.3c0.3,0,0.7,0,1,0c0.4-1,1.7,0.3,0,0c1.3,0.7,2.3,1.5,3.6,2
		c1.7,0.6,3.6,0.5,4.3,0.6c-0.4-0.1,4.5,2.7,5.6,1.6c0.1-0.1-3.6-1.9-3.6-1.6c0.2-0.7,5.1,0.6,5.6,0.7
		C371.6,316.3,368.4,317.8,368.6,317.7z M369.9,314.8c-0.8,0.2-2.5-0.2-3.9-0.7c-0.7-0.2-1.2-0.9-2-1.3c-1.1-0.5-2.3-0.3-3.3-0.7
		c-1-0.4-2.7-1.8-2.6-2c1.3-1.3,4.5,0.9,6.9,1.6c1,0.3,6.4,1.2,6.5,1.6C371.6,313.7,369.7,314.8,369.9,314.8z M374.5,309.6
		c-0.2-0.2,0.6-0.4,0.7-0.3C375.3,309.4,374.6,309.6,374.5,309.6z M375,308.7c0.1,0.1,0.1,0.2,0.2,0.2
		C374.9,308.8,374.9,308.7,375,308.7c-0.2-0.3-0.4-0.8-0.2-0.8c-0.6,0-1.3,1-1.7,0.9c2.1,2-1.7,2.1-3.8,1.4c-3.9-1.2-9-2.9-11.8-4.6
		c-3-1.8-1.2-1.6,2,0c0.3,0.2,5.9,2.4,2.9,1c-2.5-1.2-6-2.8-7.5-3.9c-0.1-0.1-0.1-0.8-0.7-1.3c-0.6-0.5-1.4-0.6-2-1
		c-1.3-1-3.1-2.5-4.2-3.6c-2.9-2.8,3.9,2.3,3.9,2.3c5.7,3.9,11.2,6.6,17.7,8.5c-1.6-0.7-3.8-1.9-6.2-2.9c-2.4-1.1-7.1-2.6-5.6-3.6
		c-0.1-1-4.7-2.5-4.3-3.6c0.3-0.7,2.9,0.8,2.6,0.7c4.8,2.5,8.6,5.5,13.4,7.5c1.1,0.5,6.2,1.6,6.5,2
		C376.7,308.3,375.3,308.5,375,308.7z M377.7,305.6c-0.3,0.2-3.5-0.1-3.9,0c1.2,0.8,4.9,1,2,1c-2.9,0-11.2-3.4-11.8-4.6
		c-0.3-0.1-0.6,0-0.7-0.3c-0.3-0.1-0.6,0-0.7-0.3c-0.4,0-0.2-0.5,0,0c0.3,0.1,0.6,0,0.7,0.3c0.3,0.1,0.6,0,0.7,0.3
		c3.5,1,6,3,9.8,3.6c-1.5-0.7-4.1-1.8-7.2-3.3c-0.9-0.4-7.4-2.8-7.5-3.3c-0.1-0.4,5.5,1.8,6.2,1.6c-1.8-1.3-3.8-1.2-5.2-2
		c-0.3-0.2-0.5-1-1-1.3c-0.6-0.4-1.3-0.3-1.6-0.7c-0.1-0.1,0.5-0.5,0.7-0.3c-0.6-1.2-3.9-2-4.3-3.3c-1.4,0.3-0.1-1,0,0
		c6.6,3.5,12.8,7.3,21,9.2c0-0.1,0-0.2,0-0.3c-0.4,0-0.9,0.1-1-0.3c-1.4,0.3-0.1-1,0,0c0.4,0,0.9-0.1,1,0.3c1.5-0.2,1.5,0.6,0,0.3
		c1.2,1.3,3.7,0.1,4.3,1.3C379.1,303.8,378,305.5,377.7,305.6z M371.5,297.8C372.9,297.5,371.6,298.7,371.5,297.8
		C368.8,297.8,370.2,296.3,371.5,297.8z M373.2,298.4C371.8,298.7,373.1,297.4,373.2,298.4C375.3,298.3,373.9,299.7,373.2,298.4z
		 M374.2,295.5c0.1,0.2-0.6,0.4-0.7,0.3C373.3,295.6,374.1,295.4,374.2,295.5z M374.8,299.4c0.7-0.1,1-0.1,1,0c0.9,0,2,0.1,2.2,0.7
		c0.7,1.9-4.3,0.9-4.6,0.3c0.1,0.1,2.5-0.8,2.4-1C375.3,299.4,374.8,299.4,374.8,299.4z M372.2,295.5c-0.2-0.2,0.8-0.5,1-0.3
		C373.3,295.3,372.3,295.6,372.2,295.5z M379.1,300.7c0-0.1,0-0.3,0-0.3C380.2,299.2,379.1,302.4,379.1,300.7z M378.7,291.2
		c0.3,0.4,1.3,0.7,1.3,1c0.3,1.9-2.6,0.1-3.9-0.3c-1.8-0.7-4.3-1.2-5.2-2c-0.3-0.3-0.3-1.6-0.3-1.6c-0.5-0.6-2.6-0.9-3.9-1.6
		c-3.4-1.9-7.1-4-9.5-7.2c-0.2-0.3-0.1-1-0.3-1.3c-1.2-1.4-3.1-2.7-5.2-5.2c-0.7-0.8-1.4-1.9-2.3-2.9c-1.1-1.3-4.1-4.3-1-2
		c3.7,2.8,7.2,9,10.5,11.1c0.4,0.2,1.2-0.2,1.6,0c1,0.4,4,3.9,5.6,4.9c0.3,0.2,3.5,1.4,3.3,1.6c0.8-0.6-2.2-2.4-2-2
		c-0.1-0.3,0.6-0.7,0.3-1c-2.3-2.5-5.6-3.6-7.9-5.9c-2.6-2.6-4.1-5.3-6.9-7.2c0.8,1.4,1.6,2,2.9,3.6c1.1,1.2,4.7,5.1,2,3
		c-4-3.1-6.7-7.2-9.8-10.8c-2.2-2.4-4-4.8-5.9-7.5c-9.9-13.8-19.4-29.5-28.2-45.5c-0.5-0.8-3.5-6.1-1.6-3.9c3,3.5,7.5,13,8.8,15.4
		c4.3,7.6,6.7,10.6,9.7,15.6c-0.1-0.2-0.2-0.4-0.2-0.5c-0.1-0.5,0.7-0.8,0.7-1c-0.2-0.4-0.7-0.7-1-1c-1-1.3-0.5-0.9-0.7-2
		c0-0.1-0.6-0.5-0.6-0.7c-0.9-1.9-1.9-3.3-3-4.9c-0.7,1.4-2.2-2.2-3.9-5.2c-0.3-0.5-4-6.1-3.6-6.5c0.8-0.8,2.1,3.8,2.6,3.3
		c-1.5-3.5-3.9-7.8-5.9-10.8c-1.4-2.1-1.4-2.8-2.3-4.9c-0.9-2.2-3.8-5.7-3-6.6c1.3-1.3,3.1,2.9,3,2.6c0.4,0.8,1.4,3.1,1.6,3.9
		c0.1,0.4,0.5,0.1,0.7,0.3c4.2,8.2,9.4,17.7,13.8,24.6c7.3,11.5,14.8,23.3,22.9,33.4c3.7,4.6,7.3,9.2,11.5,13.1
		c1.8,1.7,3.7,3.9,5.2,4.9c0.4,0.3,1.1-0.1,2,0.3c1.3,0.6,3.2,2.6,5.6,3.9c0.9,0.5,6.5,2.7,6.6,3c0,0.1-0.4,1.5-1.6,1.6
		C382.1,291.7,379.8,291.6,378.7,291.2z M374.2,273.2c-0.2,0-0.4,0-0.3-0.3c-1.4,0.3-0.1-1,0,0C374,272.9,374.2,272.9,374.2,273.2
		C374.5,273.2,374.3,273.7,374.2,273.2z M376.1,283.7c0.2,0.8-2.6-1-2.6-1c0,0-1-0.4-1-0.3C372.3,281.2,376.1,283.7,376.1,283.7z
		 M379.4,276.8c0,0.2,3.9,1.2,3.9,1.6C383.4,279.1,379.4,277.5,379.4,276.8z M382.3,291.9c-0.2-0.1,0.6-0.4,0.7-0.3
		C383.1,291.7,382.4,292,382.3,291.9z M382.7,290.6c0,0,0.3-0.6,0.3-0.7C384.3,288.5,383.9,291.7,382.7,290.6z M383,288.9
		c-0.1-0.5,1-0.1,1,0C384,289.4,383.1,289.3,383,288.9z M391.2,252.2c-0.6,6.6-1.6,14-2.6,19.7c-0.1,0.6-0.7,4.2-1,4.3
		c-1.4,0-0.5-6.1-1.3-2.3c-0.4,1.9-0.7,1.4-1.3,2.3c-0.1,0.2-0.1,1.2-0.3,1.3c-1.4,0.5-4.2-2.3-5.6-3.3c-1.9-1.3-3.9-2.4-5.2-3.6
		c0,0.2-0.3,0.4-0.3,0c-6.5-4-11.6-10.3-16.7-16.7c-4.7-5.9-9.5-12.6-13.7-19.6c-5.9-9.8-12.4-21.2-18.4-31.8
		c-0.6-1.1-6.1-9.9-5.2-10.8c1.3-1.2,1.8,1.3,2.3,2c5,7.4,7.9,15.7,12.8,21.9c-3.2-5.9-6.4-12.1-9.8-18.3c-0.4-0.7-3.6-5.8-3.6-5.9
		c0.3-1,7.9-3.4,9.8-3.9c8.4-2.3,21.3-3.2,30.8-1.3c-0.2-0.5,1.5-0.5,1.3,0c1.2-0.2,1.2,0.6,0,0.3c7,2.5,13.4,6.3,17.4,11.5
		c1.9,2.5,5.6,7.1,6.2,9.8c0.2,0.8-0.5,1.3-0.3,2c0.6,2.3,3,5.1,3.6,7.5c0.2,0.7-0.1,1.5,0,2.3c0.6,4.5,2.4,9.6,2.3,14.4
		c0,2.5-0.9,5.8-1,8.5C391.1,246,391.6,247.8,391.2,252.2z M411.2,224.4c0.5-1.5,1.1,1.5,0.6,2C411.4,226.7,410.7,225.7,411.2,224.4
		z M411.2,293.8c-0.4-0.4,0.6-0.9,0.6-1C413.7,291.4,411.8,294.5,411.2,293.8z M413.8,292.2c0.1-0.4,0.7-0.4,0.7,0
		C414.4,292.4,413.6,292.6,413.8,292.2z M419.7,284c-0.2-0.2,0.6-0.4,0.6-0.3C420.5,283.8,419.8,284.1,419.7,284z M423.9,281.1
		C423.9,282,422.6,280.7,423.9,281.1C424.3,279.7,425.7,281.1,423.9,281.1z M425.6,280.1c-0.2-0.2,0.6-0.4,0.6-0.3
		C426.4,279.9,425.7,280.2,425.6,280.1z M426.2,279.4c-0.2-0.2,0.8-0.5,1-0.3C427.4,279.3,426.4,279.6,426.2,279.4z M438,274.5
		c0,0,0.4-0.5,0.7-0.3C439.3,274.8,435.4,276.2,438,274.5z M155,384.2c0-0.1,0.1-0.2,0.1-0.3C155.3,383.4,155.4,383.2,155,384.2z
		 M185.8,112.9c-0.5-0.6-1.1-1.2-1.6-1.8C183.7,111.8,185.1,112.3,185.8,112.9z M373.1,308.8c-0.1-0.1-0.1-0.1-0.2-0.2
		C372.9,308.7,373,308.8,373.1,308.8z M182.9,54.7c0,0,0.3,0,0.7,0C183.1,54.7,182.8,54.7,182.9,54.7z M178.6,55.4
		C182.3,55.6,181.7,53.9,178.6,55.4L178.6,55.4z M178.6,55.4C176.5,55,177.9,56.4,178.6,55.4L178.6,55.4z M211.4,55.4
		c-0.1-0.1-0.8,0.2-0.7,0.3C210.8,55.8,211.5,55.6,211.4,55.4z M213,56.4C212.9,55.4,211.6,56.7,213,56.4L213,56.4z M213,56.4
		C213.1,57.4,214.4,56.1,213,56.4L213,56.4z M214,57C214.2,57.2,213.8,56.9,214,57L214,57z M215.3,57.7
		C215.2,57.5,215.5,57.9,215.3,57.7L215.3,57.7z M217.3,58.7C217.1,58.5,217.5,58.9,217.3,58.7L217.3,58.7z M217.9,59
		C218.1,59.2,217.8,58.9,217.9,59L217.9,59z M218.9,59.3C218.7,58.8,218.5,59.4,218.9,59.3L218.9,59.3z M219.5,59.7
		c0-0.3-0.4-0.3-0.7-0.3C218.9,59.6,219.3,59.6,219.5,59.7z M219.5,59.7C219.8,60.1,219.9,59.6,219.5,59.7L219.5,59.7z M149.8,64.6
		c0.4,0,0.9,0,1.3,0c0-0.1,0-0.2,0-0.3C150.6,64.3,149.9,64.1,149.8,64.6z M148.5,64.9c0.5,0,1.2,0.2,1.3-0.3
		C149.3,64.6,148.5,64.4,148.5,64.9z M148.5,64.9c-1.9,0.1-3,0.9-4.3,1.6C146.1,66.4,147.3,65.7,148.5,64.9z M143.2,66.9
		c0.5,0,0.9,0.1,1-0.3C143.8,66.5,143.3,66.5,143.2,66.9z M143.2,66.9C141.9,66.5,143.2,67.8,143.2,66.9L143.2,66.9z M141.9,67.5
		C141.8,67.4,142.1,67.7,141.9,67.5L141.9,67.5z M136.4,70.8c-0.8-0.8-3.2,0.7-4.3,1.3C132.5,72.5,136.2,70.6,136.4,70.8z
		 M132.1,72.1c-0.5,0-0.9-0.1-1,0.3C131.6,72.5,132,72.5,132.1,72.1z M131.1,72.4C129.4,72.1,130.7,73.4,131.1,72.4L131.1,72.4z
		 M128.8,73.4C130.2,73.7,128.9,72.4,128.8,73.4L128.8,73.4z M128.8,73.4c-0.4-0.1-0.6,0.1-0.7,0.3
		C128.6,73.8,128.8,73.7,128.8,73.4z M128.2,73.7c-0.5,0-0.9-0.1-1,0.3C127.7,74.1,128.1,74.1,128.2,73.7z M245.1,75.4
		C244.9,74.9,244.7,75.4,245.1,75.4L245.1,75.4z M245.1,75.4c-0.1,0.3,0.1,0.3,0.3,0.3C245.5,75.4,245.3,75.4,245.1,75.4z
		 M245.4,75.7c-0.1,0.3,0.1,0.3,0.3,0.3C245.8,75.7,245.6,75.7,245.4,75.7z M245.8,76c-0.1,0.3,0.1,0.3,0.3,0.3
		C246.1,76.1,246,76,245.8,76z M246.1,76.3c-0.1,0.3,0.1,0.3,0.3,0.3C246.5,76.4,246.3,76.4,246.1,76.3z M246.4,76.7
		c-0.1,0.3,0.1,0.3,0.3,0.3C246.8,76.7,246.6,76.7,246.4,76.7z M246.7,77c-0.1,0.3,0.1,0.3,0.3,0.3C247.1,77.1,246.9,77,246.7,77z
		 M247.1,77.3c-0.1,0.3,0.1,0.3,0.3,0.3C247.5,77.4,247.3,77.4,247.1,77.3z M116.1,78C116.5,77.8,116,77.6,116.1,78L116.1,78z
		 M256.9,84.9C256.7,84.4,256.5,84.9,256.9,84.9L256.9,84.9z M256.9,84.9C257.1,85.3,257.3,84.8,256.9,84.9L256.9,84.9z M94.4,86.8
		C95.9,86.9,94.5,85.5,94.4,86.8L94.4,86.8z M94.4,86.8c-1.5,0.2-2.2,1.3-2.9,2.3C92.7,88.6,93.6,87.8,94.4,86.8z M91.5,89.1
		c-0.6-0.1-0.6,0.3-0.7,0.7C91.1,89.6,91.4,89.5,91.5,89.1z M90.8,89.8C90.4,90,90.9,90.2,90.8,89.8L90.8,89.8z M89.2,91.1
		C89.4,91.3,89.1,91,89.2,91.1L89.2,91.1z M86.6,97.3C85.2,97,86.5,98.3,86.6,97.3L86.6,97.3z M152.4,97.6
		C152.8,99,154.1,97.6,152.4,97.6L152.4,97.6z M127.2,102.2c0.3,0,0.3-0.4,0.3-0.7C127.2,101.6,127.3,102,127.2,102.2z M127.2,102.2
		C125.9,103,127.3,104.4,127.2,102.2L127.2,102.2z M82.3,102.6c-2.1,1.1-4.8,3.2-6.9,5.2c-1.7,1.7,0.4,0.4,2-1
		c1.5-1.3,1.9-2,3.6-2.6C81.2,103.4,82.1,103.3,82.3,102.6z M125.6,105.5C125.8,105.7,125.4,105.4,125.6,105.5L125.6,105.5z
		 M124.2,108.8C125.2,108.7,123.9,107.4,124.2,108.8L124.2,108.8z M123.9,109.4c0.3,0,0.3-0.4,0.3-0.6
		C123.9,108.8,124,109.2,123.9,109.4z M123.6,110.4c0.4,0,0.3-0.6,0.3-1C123.5,109.5,123.6,110,123.6,110.4z M123.3,111.1
		c0.3,0,0.2-0.4,0.3-0.7C123.3,110.4,123.3,110.8,123.3,111.1z M184.2,111.1c0.1-0.3-0.1-0.3-0.3-0.3C183.8,111,184,111,184.2,111.1
		z M123.3,111.1C122.3,111.1,123.6,112.4,123.3,111.1L123.3,111.1z M122.6,112.7C123.6,112.6,122.3,111.3,122.6,112.7L122.6,112.7z
		 M275.9,113C275.7,112.6,275.5,113.1,275.9,113L275.9,113z M123.6,113.4C124.1,113.2,123.6,113,123.6,113.4L123.6,113.4z
		 M209.1,116.6c0-0.6-0.2-0.9-0.6-1C208.4,116.2,208.7,116.5,209.1,116.6z M209.4,117c0.1-0.3-0.1-0.3-0.3-0.3
		C209,116.9,209.2,116.9,209.4,117z M210,118c0-0.6-0.2-0.9-0.6-1C209.4,117.5,209.6,117.8,210,118z M160.6,118
		c0.1-0.3-0.1-0.3-0.3-0.3C160.2,117.9,160.4,117.9,160.6,118z M160.6,118C160.8,118.4,161,117.9,160.6,118L160.6,118z M210,118
		C210.3,118.4,210.4,117.9,210,118L210,118z M167.1,122.5C166.7,122.7,167.2,122.9,167.1,122.5L167.1,122.5z M121.6,126.1
		C122.6,126.1,121.3,124.8,121.6,126.1L121.6,126.1z M121.3,131c-0.8,0.8-0.9,2.5-1.3,3.9c-0.2,0.8-0.8,3.7-0.3,1.6
		C119.9,135.7,122.4,130,121.3,131z M55.5,143.8c0.5-1,3.8-6.2,3.6-7.2c-0.1-0.6-2.6,3.9-3.6,5.6C55.9,142,54.2,146.3,55.5,143.8z
		 M119,138.3c-0.7,0.7-0.8,2.9-1,3.6C117.3,145,119.5,137.7,119,138.3z M249.4,139.2c0-0.4-0.1-0.6-0.3-0.6
		C249,139,249.1,139.2,249.4,139.2z M250,140.2c0-0.6-0.2-0.9-0.7-1C249.3,139.8,249.6,140.1,250,140.2z M216.3,197.9
		c-10-20.7-21.3-40.1-34.1-58c2.2,5.2,6.2,9.4,9.2,14.1C200.1,167.9,207.6,183.3,216.3,197.9z M250.3,140.9c0.1-0.4-0.1-0.6-0.3-0.7
		C250,140.6,250.1,140.8,250.3,140.9z M250.7,141.5c0.1-0.4-0.1-0.6-0.3-0.7C250.3,141.3,250.4,141.4,250.7,141.5z M250.7,141.5
		C250.9,142,251.1,141.5,250.7,141.5L250.7,141.5z M251.3,142.5C251.1,142,250.9,142.5,251.3,142.5L251.3,142.5z M251.6,143.2
		c0.1-0.4-0.1-0.6-0.3-0.6C251.3,142.9,251.4,143.1,251.6,143.2z M251.6,143.2C251.8,143.6,252,143.1,251.6,143.2L251.6,143.2z
		 M252,144.1C252.2,144.4,251.8,144,252,144.1L252,144.1z M252.6,144.8C252.4,144.3,252.2,144.8,252.6,144.8L252.6,144.8z
		 M253,145.5c0.1-0.4-0.1-0.6-0.3-0.6C252.6,145.2,252.7,145.4,253,145.5z M253.3,146.1c0.1-0.4-0.1-0.6-0.3-0.7
		C252.9,145.8,253,146,253.3,146.1z M253.3,146.1C253.5,146.6,253.7,146.1,253.3,146.1L253.3,146.1z M253.6,147.1
		C253.5,147,253.8,147.3,253.6,147.1L253.6,147.1z M59.4,147.4C58.9,147.6,59.4,147.8,59.4,147.4L59.4,147.4z M47.6,148.7
		C48.6,148.7,47.3,147.4,47.6,148.7L47.6,148.7z M47.6,148.7c-0.3,0-0.3,0.4-0.3,0.7C47.6,149.4,47.5,149,47.6,148.7z M47.3,149.4
		c-0.4,0-0.3,0.6-0.3,1C47.3,150.3,47.2,149.8,47.3,149.4z M68.6,150C66.5,151.6,67.8,153.8,68.6,150L68.6,150z M46.9,150.4
		c-0.4,0.1-0.3,0.6-0.3,1C47,151.3,46.9,150.8,46.9,150.4z M255.6,150.7C255.4,150.6,255.8,150.9,255.6,150.7L255.6,150.7z
		 M255.9,151.4C256.1,151.6,255.8,151.2,255.9,151.4L255.9,151.4z M46.6,151.4C46.1,151.6,46.7,151.7,46.6,151.4L46.6,151.4z
		 M214.3,151.7c0,0.1,0,0.2,0,0.3c0.1,0,0.2,0,0.3,0C214.7,151.7,214.5,151.7,214.3,151.7z M256.9,152.7
		C256.7,152.2,256.5,152.7,256.9,152.7L256.9,152.7z M256.9,152.7C257.1,153.1,257.3,152.6,256.9,152.7L256.9,152.7z M52.5,153.6
		C53.5,153.6,52.2,152.3,52.5,153.6L52.5,153.6z M257.2,153.6C257.4,153.9,257.1,153.5,257.2,153.6L257.2,153.6z M52.5,153.6
		C52,153.8,52.5,154,52.5,153.6L52.5,153.6z M257.5,154.3C257.8,154.5,257.4,154.2,257.5,154.3L257.5,154.3z M258.2,155
		C258,154.5,257.8,155,258.2,155L258.2,155z M258.5,155.6c0.1-0.4-0.1-0.6-0.3-0.7C258.1,155.3,258.3,155.5,258.5,155.6z
		 M258.9,156.3c0.1-0.4-0.1-0.6-0.3-0.7C258.5,156,258.6,156.2,258.9,156.3z M51.5,156.3C52,156.1,51.5,155.9,51.5,156.3L51.5,156.3
		z M258.9,156.3C258.5,157.6,259.8,156.3,258.9,156.3L258.9,156.3z M259.5,157.6C259.3,157.1,259.1,157.6,259.5,157.6L259.5,157.6z
		 M259.8,158.2c0-0.4-0.1-0.6-0.3-0.7C259.5,158,259.6,158.2,259.8,158.2z M260.2,158.9c0.1-0.4-0.1-0.6-0.3-0.7
		C259.8,158.6,259.9,158.8,260.2,158.9z M260.5,159.5c0.1-0.4-0.1-0.6-0.3-0.7C260.1,159.3,260.2,159.5,260.5,159.5z M261.1,160.5
		c0-0.6-0.2-0.9-0.7-1C260.5,160.1,260.7,160.4,261.1,160.5z M261.5,161.2c0-0.4-0.1-0.6-0.3-0.7
		C261.1,160.9,261.2,161.1,261.5,161.2z M56.4,161.2C55.5,161.3,56.8,162.5,56.4,161.2L56.4,161.2z M261.8,161.8
		c0.1-0.4-0.1-0.6-0.3-0.6C261.4,161.6,261.5,161.8,261.8,161.8z M215.3,162.5c0.1-0.4-0.1-0.6-0.3-0.7
		C214.9,162.2,215,162.4,215.3,162.5z M262.1,162.5c0.1-0.4-0.1-0.6-0.3-0.7C261.7,162.2,261.9,162.4,262.1,162.5z M215.6,163.1
		c0.1-0.4-0.1-0.6-0.3-0.7C215.2,162.9,215.4,163.1,215.6,163.1z M262.1,162.5c0.7,1.8,1.4,3.7,2.6,4.9
		C264,165.6,263.4,163.7,262.1,162.5z M466.8,163.1c-0.5,1.4,0.3,2.7,0.3,3.3C468,175.2,467.4,161.6,466.8,163.1z M216,163.8
		c0.1-0.4-0.1-0.6-0.3-0.7C215.6,163.5,215.7,163.7,216,163.8z M216,163.8C216.1,164.3,216.3,163.8,216,163.8L216,163.8z
		 M216.3,164.8C216.1,164.6,216.5,165,216.3,164.8L216.3,164.8z M220.9,164.8C221.1,165,220.7,164.6,220.9,164.8L220.9,164.8z
		 M86.9,165.1C87.4,164.9,86.9,164.7,86.9,165.1L86.9,165.1z M86.9,165.1C85.7,166.5,87.8,166.4,86.9,165.1L86.9,165.1z
		 M221.5,165.4C221.3,165,221.1,165.5,221.5,165.4L221.5,165.4z M334.8,165.4C337.3,165.8,335.9,164.4,334.8,165.4L334.8,165.4z
		 M55.1,165.8C55.4,166,55,165.6,55.1,165.8L55.1,165.8z M216.9,165.4c0,0,0,0.3,0,0.3C216.9,167.9,217.9,164.5,216.9,165.4z
		 M221.5,165.4c-0.1,0.4,0.1,0.6,0.3,0.7C221.9,165.7,221.8,165.5,221.5,165.4z M334.8,165.4C332.7,165.1,334.1,166.4,334.8,165.4
		L334.8,165.4z M474,175.9c-0.2-3.8-1.5-10.3-1.6-10.2c-0.4,0.4,0.5,3.8,0.5,2.9c0-0.3-0.1-0.6-0.1-0.9c0.1,0.5,0.1,0.7,0.1,0.9
		c0.9,5.7,0.8,13.7,0.5,19.1c-0.1,1.8-0.2,7-1,9.8c-0.6,2.4,0.4,0.5,0.6-0.6C474.4,190.7,474.4,182.3,474,175.9z M221.8,166.1
		c-0.1,0.4,0.1,0.6,0.3,0.6C222.2,166.4,222.1,166.2,221.8,166.1z M86.3,167.1c-0.5,0.7-0.5,2.1-0.7,2.9c-0.2,1-0.2,5,0.3,2.3
		C86.2,170.9,87,166,86.3,167.1z M217.9,167.1C217.7,166.6,217.5,167.1,217.9,167.1L217.9,167.1z M217.9,167.1
		c-0.1,0.4,0.1,0.6,0.3,0.6C218.3,167.3,218.2,167.1,217.9,167.1z M265.1,168.1c0.1-0.4-0.1-0.6-0.3-0.7
		C264.7,167.8,264.8,168,265.1,168.1z M218.2,167.7C218.4,168.2,218.6,167.7,218.2,167.7L218.2,167.7z M265.4,168.7
		c0.1-0.4-0.1-0.6-0.3-0.6C265,168.4,265.2,168.6,265.4,168.7z M265.7,169.4c0-0.4-0.1-0.6-0.3-0.7
		C265.4,169.1,265.5,169.3,265.7,169.4z M266.1,169.7c0.1-0.3-0.1-0.3-0.3-0.3C265.7,169.6,265.9,169.7,266.1,169.7z M266.1,169.7
		C265.8,171.1,267,169.8,266.1,169.7L266.1,169.7z M220.9,187.7c-1.5-2.9-2.3-5.1-3.6-7.5c-2.1-3.9-3.8-8.1-5.2-9.5
		c-0.2-0.2-0.9-0.4-1,0c0,0.2,2.2,4,2.6,4.9c1.1,2,1.7,3.1,2.6,4.9c1.1,2.1,2.6,5.4,3.9,7.5c0.5,0.8,3.1,3.2,1.6,0.7
		C219.8,185.1,222,189.8,220.9,187.7z M53.5,171.7C54,171.5,53.5,171.3,53.5,171.7L53.5,171.7z M53.5,171.7
		C53,171.9,53.5,172.1,53.5,171.7L53.5,171.7z M467.5,177.9c0.1-0.2-0.1-2.4-0.3-1.6C466.8,177.6,467.4,178.3,467.5,177.9z
		 M471.1,176.9c-0.3,1.7,0.5,1.4,0.6,1.3C471.8,178.2,471.3,175.6,471.1,176.9z M245.4,177.6C245.6,177.8,245.3,177.4,245.4,177.6
		L245.4,177.6z M270.3,177.9C270.6,176.5,269.3,177.8,270.3,177.9L270.3,177.9z M245.8,178.2C246,178.4,245.6,178.1,245.8,178.2
		L245.8,178.2z M270.3,177.9C270.5,178.4,270.7,177.9,270.3,177.9L270.3,177.9z M246.1,178.9C246.3,179.1,245.9,178.7,246.1,178.9
		L246.1,178.9z M271,179.5C271.2,179.7,270.8,179.4,271,179.5L271,179.5z M466.2,179.5C466.4,179.7,466,179.4,466.2,179.5
		L466.2,179.5z M466.8,179.5C467,179.7,466.7,179.4,466.8,179.5L466.8,179.5z M471.1,182.5c-0.9,0.9-0.2,3.8-0.3,5.9
		c0,1-1.3,3.5,0,4.6c-0.3-0.2,0.3-1,0.3-1C471.2,191,471.5,182,471.1,182.5z M466.5,186.4c0.2-0.8-0.3-3.2-0.3-3.3
		C465.7,184.8,466.5,186.4,466.5,186.4z M221.2,183.8C221.4,184,221.1,183.6,221.2,183.8L221.2,183.8z M109.2,186.4
		c-0.1,0.1,0,0.5,0,0.7c-0.2,1.9-1.1,7.5-1.3,10.5c-0.1,0.8-0.2,5.2,0.3,4.9c0.4-0.2,0.7-5.2,1-7.9
		C109.6,190.9,110,185.2,109.2,186.4z M363,186.4c0-0.1,0-0.2,0-0.3c-0.4,0-0.9,0-1.3,0C361.8,186.5,362.5,186.3,363,186.4z
		 M274.9,186.7C275.1,186.9,274.8,186.6,274.9,186.7L274.9,186.7z M466.2,187.4c-0.5,0.6-1.1,10.1-0.3,6.2
		C466,192.9,467,186.3,466.2,187.4z M412.5,187.7C412.3,187.6,412.7,187.9,412.5,187.7L412.5,187.7z M413.1,188.7
		C413.4,187.3,412.1,188.6,413.1,188.7L413.1,188.7z M413.1,188.7C412.8,190,414.1,188.8,413.1,188.7L413.1,188.7z M41.1,190
		C40.9,189.9,41.3,190.2,41.1,190L41.1,190z M413.8,192c1,2.4,3.4,10.4,4.3,14.1c-0.1-0.3,1.2,4.3,1,1.3c-0.2-3.1-3.8-14.8-4.6-16.1
		c-0.2-0.3-0.8-0.4-1,0C413.4,191.5,413.7,191.8,413.8,192z M31.6,192.6C31.3,194.6,31.7,191.3,31.6,192.6L31.6,192.6z M470.1,193.6
		c-0.2,0.2,0,1.1,0,1.3c-0.3,1.5-0.9,5.7-1,6.5c-0.1,0.6-0.4,3.8,0,1.3C469.3,201.7,470.9,192.8,470.1,193.6z M31.2,197.9
		c0.1-0.2-0.1-1.9-0.3-1C30.6,198.1,31.1,198.5,31.2,197.9z M216.3,197.9c-0.1,1.1,0.6,1.4,1,2C217.3,198.8,217,198.2,216.3,197.9z
		 M30.2,205.7c0.2-1.6,0.6-7.2,0.3-6.9c-0.7,1.2-0.4,4.7-0.7,7.2c-2.9,27-3.8,56.5-0.7,83.2c0.7,5.7,2.4,17.8,3.9,24.2
		c1.5,6.3,0.4,0.9-0.3-3.3C27.3,277.6,26.6,240.7,30.2,205.7z M33.2,205.1c0-0.2-0.1-2.2-0.3-1.3C32.6,205,33.1,205.4,33.2,205.1z
		 M32.9,206.1C33.3,205.8,32.8,205.7,32.9,206.1L32.9,206.1z M32.9,206.1C31.9,208.4,33.2,209.8,32.9,206.1L32.9,206.1z M32.5,211.3
		c0-0.2-0.1-2.2-0.3-1.3C31.9,211.2,32.5,211.6,32.5,211.3z M419.7,216.9c0.1,0.6,0.1,2.6,0.3,1.6c0.2-0.9-0.5-6.9-1-5.6
		C418.8,213.7,419.7,217.2,419.7,216.9z M32.2,214.9c0-0.2-0.1-2.2-0.3-1.3C31.6,214.8,32.1,215.2,32.2,214.9z M249,213.6
		C248.8,213.1,248.6,213.6,249,213.6L249,213.6z M249,213.6C249.2,214.1,249.4,213.6,249,213.6L249,213.6z M249.4,214.9
		C249.6,215.1,249.2,214.8,249.4,214.9L249.4,214.9z M467.8,215.2C468.8,215.2,467.5,213.9,467.8,215.2L467.8,215.2z M467.8,215.2
		C466.7,216.4,467.6,219.9,467.8,215.2L467.8,215.2z M334.5,215.5C334.7,216,334.9,215.5,334.5,215.5L334.5,215.5z M31.6,216.9
		C31.8,217.1,31.4,216.7,31.6,216.9L31.6,216.9z M31.6,217.5C31.3,219.4,31.7,216.2,31.6,217.5L31.6,217.5z M250,219.2
		C249.5,219.3,250,219.5,250,219.2L250,219.2z M321.4,221.4c0.1-0.4-0.1-0.6-0.3-0.7C321,221.2,321.2,221.4,321.4,221.4z
		 M321.7,222.1c0-0.4-0.1-0.6-0.3-0.6C321.4,221.8,321.5,222,321.7,222.1z M321.7,222.1c0.4,1.3,1.1,2.4,2,3.3
		C323.3,224,322.7,222.9,321.7,222.1z M324,226c0.1-0.4-0.1-0.6-0.3-0.7C323.6,225.8,323.8,226,324,226z M420,225.7
		c0.1,0.2,0.7,0.5,0.7,0C420.7,225.7,419.8,225.3,420,225.7z M325,227.7c-0.1-0.8-0.3-1.4-1-1.6C324.1,226.8,324.4,227.4,325,227.7z
		 M325.4,228.3c0-0.4-0.1-0.6-0.3-0.6C325,228,325.1,228.2,325.4,228.3z M325.4,228.3c0,0.6,0.2,0.8,0.6,1
		C326,228.7,325.8,228.5,325.4,228.3z M347.3,236.8C347.1,236.4,346.9,236.9,347.3,236.8L347.3,236.8z M347.3,236.8
		c0,0.6,0.2,0.8,0.7,1C348,237.3,347.7,237,347.3,236.8z M348,237.8c-0.1,0.4,0.1,0.6,0.3,0.6C348.3,238.1,348.2,237.9,348,237.8z
		 M348.3,238.5c-0.1,0.3,0.1,0.3,0.3,0.3C348.7,238.5,348.5,238.5,348.3,238.5z M348.6,238.8c-0.1,0.4,0.1,0.6,0.3,0.6
		C349,239.1,348.9,238.9,348.6,238.8z M30.2,239.5C30,241.4,30.4,238.1,30.2,239.5L30.2,239.5z M348.9,239.5
		c-0.1,0.3,0.1,0.3,0.3,0.3C349.3,239.5,349.1,239.5,348.9,239.5z M349.3,239.8C349.5,240.3,349.6,239.8,349.3,239.8L349.3,239.8z
		 M30.2,240.8C30.5,241,30.1,240.6,30.2,240.8L30.2,240.8z M30.6,242.1c0.1-0.4-0.2-1.3-0.3-0.7C30.2,241.9,30.5,242.7,30.6,242.1z
		 M457.3,241.8C457.5,242,457.2,241.6,457.3,241.8L457.3,241.8z M457,242.7C457.2,242.9,456.9,242.6,457,242.7L457,242.7z
		 M352.5,244.7C352.3,244.2,352.1,244.7,352.5,244.7L352.5,244.7z M352.5,244.7c0,0.4,0.1,0.6,0.3,0.6
		C352.9,245,352.8,244.8,352.5,244.7z M352.9,245.3c-0.1,0.3,0.1,0.3,0.3,0.3C353.2,245.4,353,245.4,352.9,245.3z M353.2,245.7
		c0,0.6,0.2,0.8,0.7,1C353.8,246.1,353.6,245.8,353.2,245.7z M353.8,246.7c0,0.6,0.3,0.9,0.6,1C354.5,247.1,354.2,246.8,353.8,246.7
		z M354.5,247.6c0,0.6,0.3,0.8,0.7,1C355.2,248.1,354.9,247.8,354.5,247.6z M355.2,248.6c-0.1,0.3,0.1,0.3,0.3,0.3
		C355.5,248.7,355.3,248.6,355.2,248.6z M355.5,249c-0.1,0.4,0.1,0.6,0.3,0.7C355.9,249.2,355.7,249,355.5,249z M355.8,249.6
		c-0.1,0.3,0.1,0.3,0.3,0.3C356.2,249.7,356,249.6,355.8,249.6z M356.1,249.9c0,0.6,0.2,0.8,0.6,1
		C356.8,250.4,356.5,250.1,356.1,249.9z M356.8,250.9c-0.1,0.3,0.1,0.3,0.3,0.3C357.2,251,357,250.9,356.8,250.9z M357.1,251.3
		c0,0.6,0.2,0.8,0.7,1C357.8,251.7,357.5,251.4,357.1,251.3z M270,251.9C269.8,251.8,270.2,252.1,270,251.9L270,251.9z M357.8,252.2
		c0,0.6,0.2,0.8,0.6,1C358.4,252.7,358.2,252.4,357.8,252.2z M358.4,253.2c-0.1,0.3,0.1,0.3,0.3,0.3
		C358.8,253.3,358.6,253.2,358.4,253.2z M358.7,253.5c-0.1,0.3,0.1,0.3,0.3,0.3C359.1,253.6,358.9,253.6,358.7,253.5z M271.3,254.2
		C271.5,254.4,271.2,254.1,271.3,254.2L271.3,254.2z M359.1,253.9c0,0.6,0.2,0.8,0.7,1C359.7,254.3,359.5,254,359.1,253.9z
		 M359.7,254.8c-0.1,0.3,0.1,0.3,0.3,0.3C360.1,254.9,359.9,254.9,359.7,254.8z M360.1,255.2c-0.1,0.8,0.5,1,1,1.3
		C361.1,255.7,360.5,255.5,360.1,255.2z M289.3,256.2C289.1,255.7,288.9,256.2,289.3,256.2L289.3,256.2z M289.3,256.2
		C289,257.5,290.3,256.2,289.3,256.2L289.3,256.2z M361,256.5c-0.1,0.8,0.5,1,1,1.3C362.1,257,361.5,256.8,361,256.5z M273.3,257.1
		C273.1,256.7,272.9,257.2,273.3,257.1L273.3,257.1z M273.3,257.1c-0.1,0.4,0.1,0.6,0.3,0.7C273.6,257.4,273.5,257.2,273.3,257.1z
		 M273.6,257.8C273.8,258.3,274,257.8,273.6,257.8L273.6,257.8z M362,257.8c-0.1,0.3,0.1,0.3,0.3,0.3
		C362.4,257.8,362.2,257.8,362,257.8z M362.3,258.1c-0.1,0.3,0.1,0.3,0.3,0.3C362.7,258.2,362.5,258.1,362.3,258.1z M274.2,258.8
		C274.1,258.3,273.9,258.8,274.2,258.8L274.2,258.8z M291,259.1C291.3,257.7,290,259,291,259.1L291,259.1z M362.7,258.5
		c-0.1,0.8,0.5,1,1,1.3C363.7,258.9,363.2,258.7,362.7,258.5z M274.2,258.8c-0.1,0.4,0.1,0.6,0.3,0.7
		C274.6,259.1,274.5,258.9,274.2,258.8z M291,259.1c-0.1,0.3,0.1,0.3,0.3,0.3C291.3,259.2,291.2,259.1,291,259.1z M274.6,259.4
		C274.8,259.9,275,259.4,274.6,259.4L274.6,259.4z M291.3,259.4c-0.1,0.4,0.1,0.6,0.3,0.7C291.7,259.7,291.5,259.5,291.3,259.4z
		 M363.7,259.8c-0.1,0.3,0.1,0.3,0.3,0.3C364.1,259.8,363.9,259.8,363.7,259.8z M275.2,260.4C275,259.9,274.8,260.4,275.2,260.4
		L275.2,260.4z M291.6,260.1C291.8,260.6,292,260.1,291.6,260.1L291.6,260.1z M364,260.1c0,0.8,0.5,1,1,1.3
		C365,260.6,364.5,260.4,364,260.1z M275.2,260.4c-0.1,0.4,0.1,0.6,0.3,0.6C275.6,260.7,275.5,260.5,275.2,260.4z M291.9,261.1
		C291.8,260.9,292.2,261.3,291.9,261.1L291.9,261.1z M275.6,261.1C275.8,261.5,275.9,261,275.6,261.1L275.6,261.1z M348.9,261.4
		C348.7,260.9,348.5,261.4,348.9,261.4L348.9,261.4z M348.9,261.4C349.1,261.9,349.3,261.4,348.9,261.4L348.9,261.4z M365,261.4
		c-0.1,0.3,0.1,0.3,0.3,0.3C365.4,261.5,365.2,261.4,365,261.4z M365.3,261.7c-0.1,0.3,0.1,0.3,0.3,0.3
		C365.7,261.8,365.5,261.8,365.3,261.7z M365.6,262.1c-0.1,0.3,0.1,0.3,0.3,0.3C366,262.1,365.8,262.1,365.6,262.1z M276.5,262.7
		C276.3,262.2,276.1,262.7,276.5,262.7L276.5,262.7z M366,262.4c-0.1,0.3,0.1,0.3,0.3,0.3C366.3,262.4,366.2,262.4,366,262.4z
		 M276.5,262.7C276.7,263.2,276.9,262.7,276.5,262.7L276.5,262.7z M366.3,262.7c0,0.3,0.1,0.3,0.3,0.3
		C366.7,262.8,366.5,262.7,366.3,262.7z M366.6,263c0.2,1.2,1.2,1.6,2,2.3C368.4,264.1,367.4,263.7,366.6,263z M276.9,263.7
		C277.1,263.9,276.7,263.6,276.9,263.7L276.9,263.7z M293.6,263.7C293.8,263.9,293.4,263.6,293.6,263.7L293.6,263.7z M294.2,264.3
		C294,263.9,293.8,264.4,294.2,264.3L294.2,264.3z M445.9,265C447.3,264.7,445.9,263.3,445.9,265L445.9,265z M294.2,264.3
		c-0.1,0.4,0.1,0.6,0.3,0.7C294.6,264.6,294.5,264.4,294.2,264.3z M294.6,265C294.8,265.5,295,265,294.6,265L294.6,265z
		 M445.5,265.7c0.3,0,0.3-0.4,0.3-0.7C445.6,265,445.6,265.4,445.5,265.7z M368.6,265.3c-0.1,0.3,0.1,0.3,0.3,0.3
		C369,265.4,368.8,265.3,368.6,265.3z M278.5,266C278.3,265.5,278.1,266,278.5,266L278.5,266z M368.9,265.7
		c-0.1,0.3,0.1,0.3,0.3,0.3C369.3,265.7,369.1,265.7,368.9,265.7z M444.9,266.6c0.4-0.1,0.7-0.4,0.7-1
		C445.1,265.8,444.9,266.1,444.9,266.6z M278.5,266c-0.1,0.4,0.1,0.6,0.3,0.7C278.9,266.3,278.8,266.1,278.5,266z M369.2,266
		c-0.1,0.3,0.1,0.3,0.3,0.3C369.6,266,369.4,266,369.2,266z M295.2,266.6C295.4,266.9,295.1,266.5,295.2,266.6L295.2,266.6z
		 M369.6,266.3c-0.1,0.3,0.1,0.3,0.3,0.3C369.9,266.4,369.8,266.3,369.6,266.3z M278.8,266.6C279,267.1,279.2,266.6,278.8,266.6
		L278.8,266.6z M369.9,266.6c-0.1,0.3,0.1,0.3,0.3,0.3C370.3,266.7,370.1,266.7,369.9,266.6z M444.2,267.6c0.4-0.1,0.7-0.4,0.7-1
		C444.5,266.8,444.2,267.1,444.2,267.6z M370.2,267c-0.1,0.3,0.1,0.3,0.3,0.3C370.6,267,370.4,267,370.2,267z M279.2,267.6
		C279,267.5,279.4,267.8,279.2,267.6L279.2,267.6z M296.2,267.6C296,267.1,295.8,267.7,296.2,267.6L296.2,267.6z M370.5,267.3
		c-0.1,0.3,0.1,0.3,0.3,0.3C370.9,267.3,370.7,267.3,370.5,267.3z M370.9,267.6c-0.1,0.3,0.1,0.3,0.3,0.3
		C371.3,267.7,371.1,267.6,370.9,267.6z M279.8,268.3C279.6,267.8,279.4,268.3,279.8,268.3L279.8,268.3z M371.2,267.9
		C371.4,268.4,371.6,267.9,371.2,267.9L371.2,267.9z M279.8,268.3c0,0.6,0.2,0.8,0.7,1C280.5,268.7,280.2,268.4,279.8,268.3z
		 M372.2,268.9C372,268.5,371.8,269,372.2,268.9L372.2,268.9z M372.2,268.9c-0.1,0.3,0.1,0.3,0.3,0.3
		C372.6,269,372.4,268.9,372.2,268.9z M280.5,269.3C280.7,269.7,280.9,269.2,280.5,269.3L280.5,269.3z M352.5,269.3
		c-0.1,0.3,0.1,0.3,0.3,0.3C352.9,269.3,352.7,269.3,352.5,269.3z M372.5,269.3c-0.1,0.3,0.1,0.3,0.3,0.3
		C372.9,269.3,372.7,269.3,372.5,269.3z M372.8,269.6c0,0.3,0.1,0.3,0.3,0.3C373.2,269.6,373,269.6,372.8,269.6z M373.2,269.9
		c-0.1,0.3,0.1,0.3,0.3,0.3C373.5,270,373.4,269.9,373.2,269.9z M373.5,270.2c0,0.1,0,0.2,0,0.3c0.1,0,0.2,0,0.3,0
		C373.9,270.3,373.7,270.3,373.5,270.2z M443.3,271.2C444.6,270.9,443.3,269.5,443.3,271.2L443.3,271.2z M281.5,270.9
		C281.3,270.4,281.1,270.9,281.5,270.9L281.5,270.9z M356.5,270.9C356.3,270.4,356.1,270.9,356.5,270.9L356.5,270.9z M281.5,270.9
		c-0.1,0.4,0.1,0.6,0.3,0.6C281.8,271.2,281.7,271,281.5,270.9z M356.5,270.9c-0.1,0.3,0.1,0.3,0.3,0.3
		C356.8,270.9,356.7,270.9,356.5,270.9z M356.8,271.2C357,271.7,357.2,271.2,356.8,271.2L356.8,271.2z M443.3,271.2
		C442.8,271.4,443.3,271.6,443.3,271.2L443.3,271.2z M281.8,271.6c-0.1,0.3,0.1,0.3,0.3,0.3C282.2,271.6,282,271.6,281.8,271.6z
		 M282.1,271.9c0,0.4,0.1,0.6,0.3,0.6C282.5,272.2,282.4,272,282.1,271.9z M442.6,272.2C443.1,272,442.6,271.8,442.6,272.2
		L442.6,272.2z M441.9,273.2c0.4-0.1,0.7-0.4,0.7-1C442.2,272.4,441.9,272.6,441.9,273.2z M282.4,272.5
		C282.6,273,282.8,272.5,282.4,272.5L282.4,272.5z M358.4,273.2C358.2,272.7,358,273.2,358.4,273.2L358.4,273.2z M283.1,273.5
		C282.9,273,282.7,273.6,283.1,273.5L283.1,273.5z M358.4,273.2c-0.1,0.3,0.1,0.3,0.3,0.3C358.8,273.2,358.6,273.2,358.4,273.2z
		 M441.6,273.5c0.3,0.1,0.3-0.1,0.3-0.3C441.7,273.1,441.6,273.3,441.6,273.5z M283.1,273.5C283.3,274,283.5,273.5,283.1,273.5
		L283.1,273.5z M358.7,273.5c-0.1,0.3,0.1,0.3,0.3,0.3C359.1,273.6,358.9,273.5,358.7,273.5z M441.6,273.5
		C441.1,273.7,441.6,273.9,441.6,273.5L441.6,273.5z M359.1,273.8c-0.1,0.3,0.1,0.3,0.3,0.3C359.5,273.9,359.3,273.9,359.1,273.8z
		 M283.7,274.5C283.5,274,283.3,274.5,283.7,274.5L283.7,274.5z M359.4,274.2c-0.1,0.3,0.1,0.3,0.3,0.3
		C359.8,274.2,359.6,274.2,359.4,274.2z M421.6,274.8C422.6,274.8,421.3,273.5,421.6,274.8L421.6,274.8z M441,274.5
		C441.4,274.3,440.9,274.1,441,274.5L441,274.5z M283.7,274.5c-0.1,0.4,0.1,0.6,0.3,0.7C284.1,274.8,284,274.6,283.7,274.5z
		 M359.7,274.5c-0.1,0.3,0.1,0.3,0.3,0.3C360.1,274.6,359.9,274.5,359.7,274.5z M440.6,274.8c0.3,0.1,0.3-0.1,0.3-0.3
		C440.7,274.4,440.7,274.6,440.6,274.8z M360.1,274.8c-0.1,0.3,0.1,0.3,0.3,0.3C360.4,274.9,360.3,274.9,360.1,274.8z M440.6,274.8
		C439.3,275.2,440.6,276.5,440.6,274.8L440.6,274.8z M284.1,275.2C284.3,275.6,284.5,275.1,284.1,275.2L284.1,275.2z M360.4,275.2
		c-0.1,0.3,0.1,0.3,0.3,0.3C360.8,275.2,360.6,275.2,360.4,275.2z M360.7,275.5c-0.1,0.3,0.1,0.3,0.3,0.3
		C361.1,275.5,360.9,275.5,360.7,275.5z M284.7,276.1C284.5,275.7,284.3,276.2,284.7,276.1L284.7,276.1z M361,275.8
		c-0.1,0.3,0.1,0.3,0.3,0.3C361.4,275.9,361.2,275.8,361,275.8z M284.7,276.1c-0.1,0.4,0.1,0.6,0.3,0.6
		C285.1,276.4,285,276.2,284.7,276.1z M361.4,276.1c-0.1,0.3,0.1,0.3,0.3,0.3C361.8,276.2,361.6,276.2,361.4,276.1z M361.7,276.5
		c-0.1,0.3,0.1,0.3,0.3,0.3C362.1,276.5,361.9,276.5,361.7,276.5z M440.3,276.8C440.8,276.6,440.3,276.4,440.3,276.8L440.3,276.8z
		 M285.1,276.8C285.3,277.3,285.4,276.8,285.1,276.8L285.1,276.8z M362,276.8C362.2,277.3,362.4,276.8,362,276.8L362,276.8z
		 M440.3,276.8c-0.3-0.1-0.3,0.1-0.3,0.3C440.3,277.2,440.3,277,440.3,276.8z M285.7,277.8C285.5,277.3,285.3,277.8,285.7,277.8
		L285.7,277.8z M285.7,277.8C285.9,278.3,286.1,277.7,285.7,277.8L285.7,277.8z M286.4,278.8C286.2,278.3,286,278.8,286.4,278.8
		L286.4,278.8z M231.3,279.1C231.6,279.3,231.2,279,231.3,279.1L231.3,279.1z M286.4,278.8c-0.1,0.4,0.1,0.6,0.3,0.6
		C286.7,279,286.6,278.8,286.4,278.8z M229.7,281.7c-0.5,0.8-0.9,1.5-1,2.3C230,283.3,232.6,276.4,229.7,281.7z M286.7,279.4
		C286.9,279.9,287.1,279.4,286.7,279.4L286.7,279.4z M287.3,280.4C287.1,279.9,287,280.4,287.3,280.4L287.3,280.4z M287.3,280.4
		c-0.1,0.4,0.1,0.6,0.3,0.7C287.7,280.7,287.6,280.5,287.3,280.4z M104.9,281.7c0.1-0.4-0.2-1.3-0.3-0.7
		C104.5,281.5,104.8,282.3,104.9,281.7z M287.7,281.1c-0.1,0.3,0.1,0.3,0.3,0.3C288.1,281.1,287.9,281.1,287.7,281.1z M288,281.4
		c-0.1,0.4,0.1,0.6,0.3,0.7C288.4,281.7,288.3,281.5,288,281.4z M288.3,282c-0.1,0.3,0.1,0.3,0.3,0.3
		C288.7,282.1,288.5,282.1,288.3,282z M370.9,283C370.4,281.4,369,282.8,370.9,283L370.9,283z M104.9,282.7
		C104.6,284.6,105.1,281.4,104.9,282.7L104.9,282.7z M288.7,282.4c-0.1,0.4,0.1,0.6,0.3,0.6C289,282.6,288.9,282.4,288.7,282.4z
		 M289,283c0,0.6,0.2,0.9,0.6,1C289.7,283.4,289.4,283.1,289,283z M370.9,283c0.8,1.2,1.9,2.1,3.3,2.6
		C373.3,284.5,372.4,283.5,370.9,283z M228.1,285.3c0.4-0.2,0.6-0.7,0.7-1.3C228.2,284.1,228,284.6,228.1,285.3z M289.6,284
		c0,0.6,0.3,0.8,0.7,1C290.3,284.4,290.1,284.1,289.6,284z M290.3,285c0.1,0.8,0.3,1.4,1,1.6C291.2,285.9,290.9,285.2,290.3,285z
		 M227.7,286c0.3,0,0.3-0.4,0.3-0.6C227.8,285.3,227.8,285.7,227.7,286z M374.2,285.6c-0.1,0.3,0.1,0.3,0.3,0.3
		C374.5,285.7,374.3,285.7,374.2,285.6z M226.8,287.6c0.6-0.2,0.9-0.9,1-1.6C227.1,286.2,226.9,286.8,226.8,287.6z M374.5,286
		c1.1,1.3,2.6,2.2,4.3,3C377.8,287.5,376.1,286.7,374.5,286z M291.3,286.6c0,0.6,0.2,0.8,0.6,1C291.9,287,291.7,286.8,291.3,286.6z
		 M371.2,287.6C371,287.1,370.8,287.6,371.2,287.6L371.2,287.6z M226.4,288.2c0.3,0,0.3-0.4,0.3-0.6
		C226.4,287.6,226.5,288,226.4,288.2z M291.9,287.6c0,0.6,0.2,0.8,0.7,1C292.6,288,292.3,287.7,291.9,287.6z M371.9,287.9
		c0-0.3-0.4-0.3-0.7-0.3C371.2,287.9,371.6,287.9,371.9,287.9z M372.2,288.2c0.1-0.3-0.1-0.3-0.3-0.3
		C371.8,288.2,372,288.2,372.2,288.2z M226.1,288.9c0.3,0,0.3-0.4,0.3-0.7C226.1,288.3,226.2,288.7,226.1,288.9z M277.9,289.2
		C277.9,287.5,276.5,288.9,277.9,289.2L277.9,289.2z M372.2,288.2C372.4,288.7,372.6,288.2,372.2,288.2L372.2,288.2z M373.5,288.6
		C373.7,288.8,373.4,288.5,373.5,288.6L373.5,288.6z M292.6,288.6c0,0.6,0.2,0.8,0.7,1C293.3,289,293,288.7,292.6,288.6z
		 M374.5,288.9C374.3,288.4,374.1,288.9,374.5,288.9L374.5,288.9z M380,288.9c0.1,0.1,0.8-0.2,0.7-0.3
		C380.6,288.5,379.9,288.8,380,288.9z M224.8,291.2c0.8-0.4,1.1-1.3,1.3-2.3C225.3,289.3,225,290.3,224.8,291.2z M375.5,289.6
		c-0.1-0.4-0.4-0.7-1-0.7c0,0.1,0,0.2,0,0.3c0.2,0,0.4,0.3,0,0.3c0,0.3,0.4,0.3,0.7,0.3C375.1,289.7,375.2,289.5,375.5,289.6z
		 M378.7,288.9c0.4,0.8,1.3,1.1,2.3,1.3C380.6,289.4,379.7,289.2,378.7,288.9z M426.2,289.2C426.7,289,426.2,288.8,426.2,289.2
		L426.2,289.2z M287.3,289.6C287.1,289.1,287,289.6,287.3,289.6L287.3,289.6z M374.5,289.6c0-0.1,0-0.2,0-0.3
		C374.1,289.3,374.3,289.6,374.5,289.6z M426.2,289.2C425.7,289.4,426.3,289.6,426.2,289.2L426.2,289.2z M287.3,289.6
		C287.5,290,287.7,289.5,287.3,289.6L287.3,289.6z M293.2,289.6c0,0.4,0.1,0.6,0.3,0.7C293.6,289.8,293.5,289.6,293.2,289.6z
		 M375.1,289.9c0.2,0.3,0.6,0.5,1,0.7c0-0.2,0.3-0.4,0.3,0c0.3,0,0.6,0,1,0c-0.5-0.5-1.1-0.8-2-1
		C375.5,289.8,375.3,289.9,375.1,289.9z M424.6,290.2C426.3,290.2,424.9,288.8,424.6,290.2L424.6,290.2z M288,290.6
		C287.8,290.1,287.6,290.6,288,290.6L288,290.6z M293.6,290.2c-0.1,0.3,0.1,0.3,0.3,0.3C294,290.3,293.8,290.2,293.6,290.2z
		 M424.3,290.6c0.3,0.1,0.3-0.1,0.3-0.3C424.3,290.2,424.3,290.3,424.3,290.6z M293.9,290.6c0,0.6,0.2,0.8,0.6,1
		C294.6,291,294.3,290.7,293.9,290.6z M376.4,290.6c-0.1,0-0.2,0-0.3,0C376.2,290.9,376.4,290.7,376.4,290.6z M377.4,290.6
		c0.2,0.4,0.7,0.6,1.3,0.7C378.6,290.6,378.2,290.5,377.4,290.6z M423.6,290.9c0.4,0.1,0.6-0.1,0.7-0.3
		C423.9,290.5,423.7,290.6,423.6,290.9z M423.6,290.9C423.1,291.1,423.6,291.3,423.6,290.9L423.6,290.9z M224.8,291.2
		C223.8,291.3,225.1,292.6,224.8,291.2L224.8,291.2z M422,291.9C423.7,291.9,422.3,290.5,422,291.9L422,291.9z M294.6,291.5
		c0,0.6,0.2,0.8,0.7,1C295.2,292,295,291.7,294.6,291.5z M421.3,292.2c0.4,0.1,0.6-0.1,0.7-0.3C421.6,291.8,421.4,291.9,421.3,292.2
		z M420.7,292.5c0.4,0,0.6-0.1,0.6-0.3C420.9,292.1,420.7,292.3,420.7,292.5z M295.2,292.5c-0.1,0.3,0.1,0.3,0.3,0.3
		C295.6,292.6,295.4,292.5,295.2,292.5z M420,292.8c0.4,0.1,0.6-0.1,0.7-0.3C420.3,292.5,420.1,292.6,420,292.8z M295.5,292.8
		c-0.1,0.4,0.1,0.6,0.3,0.7C295.9,293.1,295.8,292.9,295.5,292.8z M420,292.8C418.6,292.5,419.9,293.8,420,292.8L420,292.8z
		 M418.4,293.5C419.7,293.8,418.4,292.5,418.4,293.5L418.4,293.5z M295.9,293.5c-0.1,0.3,0.1,0.3,0.3,0.3
		C296.3,293.6,296.1,293.5,295.9,293.5z M418.4,293.5c-0.2,0-0.4,0-0.7,0c0,0.1,0,0.2,0,0.3C418.1,293.9,418.3,293.8,418.4,293.5z
		 M422,293.8c0.1,0.1,0.8-0.2,0.6-0.3C422.5,293.4,421.8,293.7,422,293.8z M296.2,293.8c0,0.6,0.3,0.8,0.7,1
		C296.9,294.2,296.6,294,296.2,293.8z M296.8,294.8c0,0.6,0.2,0.8,0.7,1C297.5,295.2,297.3,294.9,296.8,294.8z M297.5,295.8
		c-0.1,0.3,0.1,0.3,0.3,0.3C297.9,295.8,297.7,295.8,297.5,295.8z M297.8,296.1c0,0.6,0.2,0.9,0.7,1
		C298.5,296.5,298.2,296.3,297.8,296.1z M296.2,296.8C296.4,297,296.1,296.6,296.2,296.8L296.2,296.8z M298.5,297.1
		c0.5,1.3,1.2,2.5,2.3,3.3C300.2,299.1,299.6,297.9,298.5,297.1z M407.9,300.4C408.4,300.2,407.8,300,407.9,300.4L407.9,300.4z
		 M300.8,300.4c-0.1,0.3,0.1,0.3,0.3,0.3C301.2,300.4,301,300.4,300.8,300.4z M407.2,301.4c0.4-0.1,0.7-0.4,0.7-1
		C407.5,300.5,407.2,300.8,407.2,301.4z M365.3,300.7C365.5,301.2,365.7,300.7,365.3,300.7L365.3,300.7z M359.1,301.7
		c-0.2-0.4-0.7-0.6-1.3-0.7C357.8,301.6,358.3,301.8,359.1,301.7z M407.2,301.4C406.8,301.6,407.3,301.8,407.2,301.4L407.2,301.4z
		 M359.1,301.7C359.3,302.2,359.5,301.7,359.1,301.7L359.1,301.7z M406.2,302.7C406.7,302.5,406.2,302.3,406.2,302.7L406.2,302.7z
		 M219.2,305.6C219.1,305.5,219.4,305.8,219.2,305.6L219.2,305.6z M218.9,306.6C219.9,306.5,218.6,305.2,218.9,306.6L218.9,306.6z
		 M218.6,307.3c0.3,0,0.3-0.4,0.3-0.6C218.6,306.6,218.6,307,218.6,307.3z M218.6,307.3C217.6,307.3,218.9,308.6,218.6,307.3
		L218.6,307.3z M369.6,307.6c0.5,0.5,1.3,0.7,2.3,0.7C371.4,307.7,370.6,307.5,369.6,307.6z M372.8,308.6c0-0.4-0.6-0.3-1-0.3
		C371.9,308.6,372.4,308.5,372.8,308.6z M107.5,308.6C107.2,309.9,108.5,308.6,107.5,308.6L107.5,308.6z M297.2,322
		C297,321.5,296.8,322,297.2,322L297.2,322z M210.4,322.6c-1.2,0.6-0.7,1.4-1,2c-0.8,1.7-3.5,7.6-2,5.6
		C208.4,328.9,211.3,322.1,210.4,322.6z M206.8,331.5C206.6,331.4,207,331.7,206.8,331.5L206.8,331.5z M303.1,331.5
		C302.9,331,302.7,331.5,303.1,331.5L303.1,331.5z M303.1,331.5c0,0.3,0.4,0.2,0.7,0.3C303.7,331.5,303.3,331.6,303.1,331.5z
		 M203.8,338.7c1,0.5,2.6-6.9,2.6-6.9C206.1,331.8,203.6,337.6,203.8,338.7z M303.7,331.8c-0.1,0.3,0.1,0.3,0.3,0.3
		C304.1,331.9,303.9,331.8,303.7,331.8z M304.1,332.2c0,0.3,0.4,0.3,0.6,0.3C304.7,332.2,304.3,332.2,304.1,332.2z M304.7,332.5
		c-0.1,0.3,0.1,0.3,0.3,0.3C305.1,332.5,304.9,332.5,304.7,332.5z M305,332.8c0,0.3,0.4,0.2,0.6,0.3
		C305.7,332.8,305.3,332.9,305,332.8z M305.7,333.1c0,0.3,0.1,0.3,0.3,0.3C306.1,333.2,305.9,333.1,305.7,333.1z M308,333.1
		c-0.1,0-0.2,0-0.3,0C307.7,333.5,308,333.3,308,333.1z M299.5,334.4C299.3,334,299.1,334.5,299.5,334.4L299.5,334.4z M299.5,334.4
		c-0.1,0.3,0.1,0.3,0.3,0.3C299.9,334.5,299.7,334.5,299.5,334.4z M203.8,338.7C202.8,338.8,204.1,340.1,203.8,338.7L203.8,338.7z
		 M371.5,344.3c0.3,0.1,0.3-0.1,0.3-0.3c-0.1,0-0.2,0-0.3,0C371.5,344.1,371.5,344.2,371.5,344.3z M371.2,344.6
		c0.3,0.1,0.3-0.1,0.3-0.3C371.2,344.2,371.2,344.4,371.2,344.6 M119.3,345.6C119.1,345.1,118.9,345.6,119.3,345.6L119.3,345.6z
		 M119.3,345.6c-0.1,0.3,0.1,0.3,0.3,0.3C119.7,345.6,119.5,345.6,119.3,345.6z M119.7,345.9c-0.1,0.4,0.1,0.6,0.3,0.7
		C120,346.2,119.9,346,119.7,345.9z M120,346.6c-0.1,0.3,0.1,0.3,0.3,0.3C120.4,346.6,120.2,346.6,120,346.6z M120.3,346.9
		C120,348.2,121.3,347,120.3,346.9L120.3,346.9z M122.6,350.2C122.6,348.4,121.2,349.8,122.6,350.2L122.6,350.2z M211.7,353.4
		c0,0-0.6,0.1-0.3,0.3C212.2,354.6,212.9,352.3,211.7,353.4z M208.1,358c0,0-0.6,0.1-0.3,0.3C208.6,359.2,209.3,356.8,208.1,358z
		 M218.9,359.7c-0.5,0.2-1.8,0.5-1.3,1C218.1,361.1,220.6,359,218.9,359.7z M207.8,360.3c0,0-0.6,0.4-0.3,0.7
		C208.1,361.7,208.8,358.8,207.8,360.3z M119.7,362.9C119.5,362.5,119.3,363,119.7,362.9L119.7,362.9z M47.6,363.3
		C47.4,362.8,47.2,363.3,47.6,363.3L47.6,363.3z M119.7,362.9c-0.1,0.3,0.1,0.3,0.3,0.3C120,363,119.9,363,119.7,362.9z M120,363.3
		c0.3,1.3,1.4,1.8,2.3,2.6C122,364.6,120.8,364,120,363.3z M205.1,364.6c-0.6,0.1-1.6,1-1.3,1.3
		C204.4,366.5,206.2,364.3,205.1,364.6z M161.6,365.2C162.1,365,161.5,364.8,161.6,365.2L161.6,365.2z M122.3,365.9
		C122.5,366.4,122.7,365.8,122.3,365.9L122.3,365.9z M210.4,366.5c0,0-0.6,0.4-0.3,0.7C211.2,368.4,211.8,364.7,210.4,366.5z
		 M202.2,367.2c-0.8,0.1-3.8,2.1-3.6,2.3C199,369.9,204.6,366.8,202.2,367.2z M202.8,368.2C206,367.8,204.5,365.9,202.8,368.2
		L202.8,368.2z M202.8,368.2C202.4,368.4,202.9,368.6,202.8,368.2L202.8,368.2z M128.8,369.5c0.1-0.3-0.1-0.3-0.3-0.3
		C128.4,369.4,128.6,369.5,128.8,369.5z M128.8,369.5C129,370,129.2,369.5,128.8,369.5L128.8,369.5z M131.5,370.5
		c-0.1-0.4-0.4-0.7-1-0.7C130.6,370.2,130.9,370.5,131.5,370.5z M131.8,370.8c0.1-0.3-0.1-0.3-0.3-0.3
		C131.4,370.7,131.6,370.8,131.8,370.8z M133.4,372.1c-0.4-0.6-0.7-1.3-1.6-1.3C132.2,371.3,132.5,372.1,133.4,372.1z M199.6,371.8
		C200.1,371.6,199.5,371.4,199.6,371.8L199.6,371.8z M199.6,371.8c-0.4,0-0.6,0.1-0.7,0.3C199.3,372.2,199.5,372,199.6,371.8z
		 M135.1,373.4c-0.4-0.6-0.7-1.3-1.6-1.3C133.5,373,134.3,373.2,135.1,373.4z M198.9,372.1C196.5,372.1,197.9,373.5,198.9,372.1
		L198.9,372.1z M138.7,373.1C138.9,373.6,139.1,373.1,138.7,373.1L138.7,373.1z M137.3,375.1c-0.5-0.8-1.3-1.4-2.3-1.6
		C135.5,374.2,136.3,374.8,137.3,375.1z M198.3,373.7C198.7,373.5,198.2,373.3,198.3,373.7L198.3,373.7z M197.6,374.1
		c0.4,0.1,0.6-0.1,0.7-0.3C197.9,373.7,197.7,373.8,197.6,374.1z M197.6,374.1C195.9,374.1,197.3,375.5,197.6,374.1L197.6,374.1z
		 M152.4,374.4C152.8,375.4,154.2,374,152.4,374.4L152.4,374.4z M200.6,374.7c-0.8,0.1-2.2,1.2-1.6,1.3
		C199.6,376.2,202.3,374.5,200.6,374.7z M154.7,375.1C154.3,374.1,153,375.4,154.7,375.1L154.7,375.1z M137.3,375.1
		c0.1,0.4,0.4,0.7,1,0.6C138.2,375.3,137.9,375,137.3,375.1z M154.7,375.1C155.4,376,156.8,374.7,154.7,375.1L154.7,375.1z
		 M139.6,377.7C139.4,377.2,139.2,377.7,139.6,377.7L139.6,377.7z M140.3,378c0-0.3-0.4-0.3-0.7-0.3C139.6,378,140,377.9,140.3,378z
		 M140.3,378C140.5,378.5,140.7,378,140.3,378L140.3,378z M132.1,380.6C131.9,380.1,131.7,380.7,132.1,380.6L132.1,380.6z
		 M140,384.9c-2.5-1.5-5.1-2.9-7.9-4.3C134.2,382.5,136.9,383.9,140,384.9z M132.4,383.2C132.1,381.9,130.7,383.2,132.4,383.2
		L132.4,383.2z M139.6,383.6C139.6,382.6,138.3,383.9,139.6,383.6L139.6,383.6z M140.3,383.9c0-0.3-0.4-0.3-0.7-0.3
		C139.6,383.9,140,383.8,140.3,383.9z M200.6,383.9C201,383.7,200.5,383.5,200.6,383.9L200.6,383.9z M140.9,384.2
		c0-0.3-0.4-0.3-0.6-0.3C140.3,384.2,140.7,384.2,140.9,384.2z M200.6,383.9C200.1,384.1,200.6,384.3,200.6,383.9L200.6,383.9z
		 M141.6,384.6c0-0.3-0.4-0.3-0.7-0.3C141,384.5,141.4,384.5,141.6,384.6z M141.6,384.6C141.7,385.5,143,384.2,141.6,384.6
		L141.6,384.6z M140,384.9c0.8,0.7,1.9,1.2,3.3,1.3C142.4,385.5,141.3,385.1,140,384.9z M196.6,385.2
		C198,385.5,196.7,384.2,196.6,385.2L196.6,385.2z M144.5,385.9C144.5,384.9,143.2,386.2,144.5,385.9L144.5,385.9z M156.7,385.5
		C155.7,385.6,157,386.9,156.7,385.5L156.7,385.5z M145.5,386.2c-0.1-0.4-0.6-0.3-1-0.3C144.6,386.2,145.1,386.1,145.5,386.2z
		 M144.2,386.5c-0.1-0.4-0.6-0.3-1-0.3C143.3,386.6,143.8,386.5,144.2,386.5z M145.5,386.2C145.6,387.2,146.9,385.9,145.5,386.2
		L145.5,386.2z M203.2,386.5c0.1,0.1,0.8-0.2,0.7-0.3C203.7,386.1,203,386.4,203.2,386.5z M145.2,386.8c-0.1-0.4-0.6-0.3-1-0.3
		C144.3,386.9,144.8,386.8,145.2,386.8z M154.4,386.8C154.2,386.7,154.6,387.1,154.4,386.8L154.4,386.8z M146.5,387.2
		c-0.1-0.5-0.8-0.3-1.3-0.3C145.3,387.3,146,387.1,146.5,387.2z M198.3,387.2C198.5,387.4,198.1,387,198.3,387.2L198.3,387.2z
		 M154,388.8c2-0.3-0.6-0.1-1.3-0.3c-0.4-0.1-4.1-1.2-6.2-1.3C148.7,388,152.3,389.1,154,388.8z M197.9,388.2
		C199.9,387.3,195.1,389.3,197.9,388.2L197.9,388.2z M202.5,388.2c-0.6-0.6-2.6,1.5-3.6,2C199.5,390.7,202.9,388.5,202.5,388.2z
		 M192,391.4c0.4,0.1,0.6-0.1,0.7-0.3c-0.2,0-0.4,0-0.7,0C192,391.2,192,391.3,192,391.4z M192,391.4
		C191.6,391.6,192.1,391.8,192,391.4L192,391.4z M197.9,392.7C199.2,391.4,197,393.7,197.9,392.7L197.9,392.7z M133.7,394.4
		c0-0.3-0.4-0.3-0.6-0.3C133.1,394.4,133.5,394.3,133.7,394.4z M133.7,394.4c0,0.1,0,0.2,0,0.3c0.2,0,0.4,0,0.7,0
		C134.4,394.4,134,394.4,133.7,394.4z M135.1,395c0-0.3-0.4-0.3-0.7-0.3C134.4,395,134.8,395,135.1,395z M135.7,395.4
		c0-0.3-0.4-0.2-0.7-0.3C135.1,395.3,135.5,395.3,135.7,395.4z M135.7,395.4c0,0.1,0,0.2,0,0.3c0.2,0,0.4,0,0.7,0
		C136.4,395.4,136,395.4,135.7,395.4z M191.4,407.8C192.7,408.1,191.5,406.8,191.4,407.8L191.4,407.8z M76.4,417.6
		C76.2,417.1,76,417.7,76.4,417.6L76.4,417.6z M76.4,417.6c-0.1,0.3,0.1,0.3,0.3,0.3C76.8,417.7,76.6,417.7,76.4,417.6z M76.8,418
		c-0.1,0.3,0.1,0.3,0.3,0.3C77.1,418,77,418,76.8,418z M77.1,418.3c-0.1,0.3,0.1,0.3,0.3,0.3C77.5,418.3,77.3,418.3,77.1,418.3z
		 M77.4,418.6c-0.1,0.3,0.1,0.3,0.3,0.3C77.8,418.7,77.6,418.6,77.4,418.6z M77.7,418.9c-0.1,0.3,0.1,0.3,0.3,0.3
		C78.1,419,77.9,419,77.7,418.9z M78.1,419.3c-0.1,0.3,0.1,0.3,0.3,0.3C78.4,419.3,78.3,419.3,78.1,419.3z M181.6,424.8
		C182.9,425.2,181.6,423.9,181.6,424.8L181.6,424.8z"/>
</g>
</svg>
