<?xml version="1.0" encoding="utf-8"?>
<!-- Generator: Adobe Illustrator 23.1.1, SVG Export Plug-In . SVG Version: 6.00 Build 0)  -->
<svg version="1.1" id="Layer_1" xmlns="http://www.w3.org/2000/svg" xmlns:xlink="http://www.w3.org/1999/xlink" x="0px" y="0px"
	 viewBox="0 0 2000 1744" style="enable-background:new 0 0 2000 1744;" xml:space="preserve">
<style type="text/css">
	.st0{fill-rule:evenodd;clip-rule:evenodd;fill:url(#SVGID_1_);}
</style>
<g id="Logo_3_">
	<linearGradient id="SVGID_1_" gradientUnits="userSpaceOnUse" x1="251.5387" y1="207.7918" x2="1439.629" y2="1395.8821">
		<stop  offset="0" style="stop-color:#00D9D4"/>
		<stop  offset="1" style="stop-color:#00E4A1"/>
	</linearGradient>
	<path class="st0" d="M798.8,1.3C797.1-3.1,791.1,2.9,798.8,1.3L798.8,1.3z M1365.2,844.4c-2.5-4-7.1-9.7-9.6-13.7
		c28.2,46.3,55.7,93.4,95.1,131C1423.6,925.4,1390.8,884.9,1365.2,844.4z M1355.1,829.9c-0.1-0.2-0.3-0.4-0.4-0.7
		c0.2,0.5,0.5,1,0.9,1.5C1355.4,830.5,1355.2,830.2,1355.1,829.9z M1452.1,1329.7c31.8-5,57.9-28.7,82.6-37.7c0-0.8,1.1-1.6,1.5,0
		c3.5-4.6,10.6-7,15.9-11.6c8-6.9,14-17.6,23.2-26.1c18.5-17.1,39.8-34.4,56.5-55c9.4-11.6,15.4-26,23.2-39.1
		c3.8-6.4,9.2-12.4,13.1-18.8c6.9-11.6,11.2-22.3,20.3-31.8c-9.8,1.9,3.8-14.4,5.8-15.9c2.6-2,5.6-0.1,8.7-1.5c2-0.9,5.7-4,8.7-5.8
		c7.5-4.4,19-13.4,27.5-15.9c-2.4,0.3-3.5-1.6,0-1.4c13.7-13.6,31.6-22.4,50.7-31.9c17.5-8.7,35-24.7,47.8-40.6
		c-11,4.9-15.3,14-27.5,23.2c-5.3,4-1-1.8-5.8,1.4c-2.5,1.7-10,10-10.2,10.2c20.7-14.6-9.9,8.9-13,5.8c-0.2-0.3,20.4-17.6,21.8-18.8
		c20.7-18.8,39.9-39.4,53.6-63.7c-8.9,7.6-10.5,13.7-18.8,21.7c-5.9,5.8,16.1-25.6,8.7-24.6c-1.5,0.2-3.1,8.7-4.3,10.1
		c-1.7,2.1-4.6,1.7-5.8,2.9c0.4-0.4-4.4,7.8-5.8,5.8c-2.4-3.5,22-40,23.2-43.4c2-5.7-2,0.5,0-7.3c1-3.9,8.8-23.4,0-8.7
		c-2.4,4-7.7,16.2-8.7,18.8c-0.9,5.4,4.9-8.7,5.8-4.3c0.8,3.8-4.9,9.6-10.1,18.8c-6.4,11.3-12.5,23.3-20.3,27.5c0.2,1.7-2.1,0.9,0,0
		c7.2-15,18.6-25.9,24.6-42c-4.1,1.6-7.3,13-10.1,15.9c-1.4,1.5-4.5,1.1-5.8,2.9c-2.1,3-1.8,7.5-4.4,10.2c-2.3,2.3-7.5,2.9-10.1,5.8
		c-4,4.5-4.8,12.1-10.1,17.3c-0.3,0.3-2.9,4.4-2.9,4.4c-1.3,0.7-4.8-0.9-5.8,0c-3.3,3-6.1,9.7-13,14.5c-4.6,3.2-14.9,9.8-8.7,1.5
		c3.6-4.8-1.2-4.9-1.5-4.3c4.7-7.7,16.9-12.1,26.1-20.2c-0.2,0.2,23.1-22.1,17.4-24.6c0.5,0.3-4.4,6.8-5.9,7.2
		c-1.3,0.5-4.7-0.8-5.8,0c-5.2,4.1-7.6,10.8-11.6,14.5c-4.4,4.2-10,9-14.4,11.6c0.6-0.3-4.3-2.1-5.8-1.4
		c-1.1,0.5-26.8,24.1-15.9,1.4c-3.8,7-6.9,16.3-17.4,18.8c-12.2,3-3.1-13.6-4.3-21.7c-0.1-0.8-2.3,7.7-4.3,4.3
		c-2.5-4.1,2.5-9.6,2.9-14.4c0.3-3.6-1.7-5.2-1.5-10.2c0.5-14,8.6-38.7,10.1-63.7c1-15.3,0.8-30.1,2.9-47.8
		c-0.7,6.1,5.8-23.9,1.4-23.2c1.7-0.3-5.7,27.4-5.8,27.5c-3.7,9.4-1.5-22.4-1.5-30.4c0-0.7-0.3-44.5-2.8-24.6
		c-1.3,10.1-1,32.9-1.5,43.4c-0.3,6.8,1.9,21.8-1.4,23.2c-0.9,0.4-1.5-22.5-1.5-24.6c2.2-53.1,1.6-100.5-10.2-150.6
		c-4.9-20.8-9.4-44.4-17.4-62.3c-7.2-16.3-16.2-30.5-27.6-47.8c-4.8-7.4-9.1-16.3-14.5-23.2c-5.7-7.4-11.8-17.2-15.9-20.2
		c-1.7-1.3-2,3.5-4.4,2.9c-5.6-1.5-13.2-15-18.9-18.8c-5-3.5-15.8-6.8-24.6-11.6c-18.9-10.3-56.1-22.8-78.2-26.1
		c-13.1-2-17.1-0.4-4.4,4.3c1.2,0.5,10.8,0.4,8.7,4.3c-2.9,5.6-19.4-1.4-23.2-1.4c-13.6-0.3-45.1,4.8-68.1,7.2
		c-20.4,2.1-42.9,3-62.3,7.2c-7.1,1.5-14.3,3.6,2.9,2.9c1.7-4.4,7.7,1.6,0,0c-31.1,10.2-56,12.9-85.5,24.6
		c-6.3,2.5-13.7,8.8-17.4,7.3c0,0-11.7-25.1-13-27.5c-27.6-51.8-53.5-97.2-82.5-152.1c-3.6-6.7-5.5-12.1-10.2-20.3
		c-7.6-13.3,2.3,12,4.3,16c7.3,14,13.4,24.2,20.3,37.6c9.3,18.3,18,33,27.5,52.2c13.3,26.7,29.3,52.1,44.9,82.6
		c0.1,0.2,9.7,11.6,4.4,14.5c-4.6,2.5-11.7-13.3-11.6-13c-21.5-41.8-46.1-83.7-66.7-121.7c-26.4-48.9-45.2-94.1-76.8-139.1
		c2,5.8,5.5,11.2,11.6,21.7c1.7,3,13.4,19.9,11.6,21.7c-0.5,0.4-10.2-12.6-5.8-5.8c-20.5-31.8-43.3-70.5-63.7-100
		c-26.6-38.3-53.9-68.5-79.7-94.2c9.6,15.1,24.4,24.9,33.3,40.6c7.2,1.9,1,8.1,0,0C955.8,93.4,895,29.7,798.8,1.3
		c40.4,16.1,78.9,34.2,108.7,60.9c1.7-0.2,0.9,2.1,0,0c-36.8-18.4-76.6-44.4-124.6-53.6c-14-2.7-29.7-5.9-44.9-4.4
		c1.4-0.2,6.8,1,5.8,1.4c-5.8,2.4-47.7,0.9-59.4,2.9c-11.1,1.9,0,2,8.7,1.4c4-0.2,37.7-0.1,34.8,2.9c1.5-1.6-16.7-0.5-24.3-0.1
		c6.6,0.3,20.8,1.8,19.9,3c-0.8,1.1-12.4-0.5-17.4,0c-49.3,4.5-96.1,30-146.3,39.1c0.8,0,1.7,1.2,0,1.5c-5.3,3.2-16.7,6.7-26.1,11.6
		c-6.6,3.5-13.4,10.6-21.7,13c-4.4,1.2-8.8-0.1-13.1,1.4c-1.1,0.4-1.6,2.8-4.3,4.3c-5.8,3.3-15.2,6.4-26.1,11.6
		c-4.9,2.4-13,6.4-18.8,8.7c3.1-1.2-5.8,3.1-7.2,1.4c0,0.1,15.8-10.3,11.6-10.1c-11.2,0.1-35.4,22-47.8,26.1
		c0.3-0.1-10.5,2.8-11.6,1.4c-0.2-0.2,14.5-7.4,10.1-10.1c-16.8,4.8-22,20.5-37.7,27.5c-9.6,4.3-52.4,24.5-23.2,2.9
		c-0.7,0.5,12.2-8,11.6-8.7c-0.1-0.1-7.7,0.5-10.1,1.4c-11.1,4.5-26.1,22.8-36.2,31.9c-12.3,11-25.2,19.7-34.8,30.4
		c20.3-6-3.2,5.4-8.7,10.1c-6.1,5.2-7.7,12.7-10.1,13.1c13.4-7.1,0.3,5.3-5.8,7.2c-54.3,54.6-99.3,111.2-130.4,194.1
		C96.1,488,75.8,553,60,630c0-0.1-4.3,13.1-4.4,13.1c-2-1.9,2.3-14.8,2.9-18.8c2.4-16.1,10.8-48.7,11.6-59.4
		c0.1-1.7-2.5,0.9-2.9-2.9c0-0.1,4.2-13.8,1.4-13c-2.3,0.6-10.1,38-14.5,59.4c-13.5,66.4-17,130.6-20.3,201.4
		c-2.3,48.4-3.6,95.4-1.4,141.9c2.4,50.9,12.9,103.9,17.4,147.8c0.1,1.1-1.6,3.3-1.5,5.8c1.4,21.7,8,45.7,11.6,65.2
		c9.3,49.9,23.8,98.1,34.8,149.2c1.7-0.1,0.9,2.1,0,0c-34.2-92-58.8-237.1-65.2-359.3c-1.5-29.2-1.9-62.5-2.9-95.6
		c0,0,0.6-18-2.9-14.5c-4.4,4.4,0,13.9,0,17.4c0,4.9,0.1,70-1.4,39.1c-0.1-1.2-0.5-8.6-1.4-5.8c-4.4,12.5,1.7,62.8,2.9,79.7
		c0.4,6.7,0.4,15.9,1.4,23.2c2.8,19.7,1.8-10.3,1.5-20.3c-5.8-6.9,2.4-20.8,0-23.2c4.9,5-3.4,14,0,23.2c4.3,27.2,5.5,73.2,8.7,91.3
		c-0.3-2.1,1.2,0,1.5,1.4c2.1,10.4,0.8,19.5,1.4,30.4c0.2,3.2,2.7,2,2.9,4.3c0.2,2.1-3.2,3.4-2.9,5.8c1.2,9.4,7.5,22.4,8.7,29
		c0.2,0.9-1.7,2.5-1.4,4.4c0.2,1.6,2.8,1,2.9,2.9c2.6,39.4,14.9,84.7,26.1,124.6c5.5,19.8,10.7,37.2,18.8,60.8
		c7.9,22.6,12.3,32,18.9,50.7c5.7,16.4-7-5.7-10.2-11.6c23.4,78.7,66.6,151.6,114.5,210.1c6.9,8.5,15.7,16.6,20.3,24.6
		c1.6,2.9,1.3,6.5,2.9,8.7c1.6,2.3,9,8,11.6,11.6c-0.4-0.6,4.2,7.2,2.9,7.3c-5.3,0.4-8.8-11.7-15.9-13
		c53.4,58.6,141.7,125.8,270.9,115.9c44.1-3.4,87.7-16.4,121.7-33.3c11.2-5.5,25.4-11.1,33.3-17.3c0-0.1,2.2-5.2,2.9-5.8
		c3.1-3.3,9.3-4.8,11.6-7.2c2.6-2.8,4.2-10.5,7.2-14.5c2.5-3.3,9.2-5.3,8.7-14.5c-8.5-7.8,12.8-13.9,23.2-21.7
		c3.2-2.5,16.6-16,13-24.6c-0.4-1.1-4.9-1.5-4.4-2.9c-0.6,1.5,23-14.5,21.7-15.9c-4.5-5.2-8.7,11.8-15.9,5.8c-1.2-1,6.9-6.3,1.4-7.2
		c0.4,0.1-21.2,10.5-21.7,8.7c-1.7-6.6,24-11.5,26.1-17.4c-8.4,1.5,3.3-4.6,1.5-5.8c-2.9-1.8-27.7,17.9-11.6,4.4
		c2.6-2.2,13.4-9.9,14.5-13c-0.2,0.5-8.2,3.3-7.2-2.9c0.6-4,12.3-2.8,17.4-10.1c0.5-0.7-0.5-5.5,0-7.2c-0.5,1.5,5.3-3.8,1.5-5.8
		c0.4,0.2-5.4,4.4-5.9,3.6c-0.4,0.7-1.6,0.1,0.1-0.7c2.8-4.6,3.9-2.7,4.3-7.3c0.3-2.8-3.4-7.3-2.9-8.7c0.2-0.7,3.9-1.8,5.8-4.4
		c4.8-6.3,12.2-11.7,15.9-20.3c-17.3-4.4-24.8,9.9-39.1,13c-0.3,4.4-6-1.4,0,0c11-7-5.4-5.8,8.7-8.7c0-1.4,2.5-1.8,2.9,0
		c1.7,0.2,2.6-0.3,2.9-1.4c-1.7,0.2-0.9-2.1,0,0c2.1-1.3,15.2-8.9,11.6-10.1c-1.6-0.5-11.5,9.6-14.5,7.3c-1-0.8,6.4-5.1,1.4-7.3
		c-10.9,1.2,5.6-6.6,0,0c7.9-2.3,12.7-7.6,15.9-14.5c-2.7-1.1-19.6,11.4-20.3,8.7c-1.5-6.7,20.3-11.6,27.5-15.9
		c1.4-0.8,8.3-4.4,7.2-7.3c-2.2-5.8-15,6-14.5,5.8c0.4-0.2-2.9-2-4.3-1.5c-7,2.6-14.6,11-17.4,5.8c-3.8-7.2,12.7-8.8,17.4-11.6
		c2.7-1.6,3.8-5.5,5.8-7.3c9.3-8,17-9,1.5-14.5c-0.3,4.3-6.1-1.3,0,0c3.6-11.2-2.6-4-11.6,1.5c-15.9,9.6-36.4,21.8-53.6,30.4
		c-3.8,1.9-43.4,20.5-33.3,5.8c3.5-5.2,10.2-16.2,14.5-23.2c1.6-2.6,4.8-3.8,5.8-5.7c1.7-3.2,0.4-7.2,1.4-8.8
		c1.5-2.2,9-7.2,11.6-11.6c0.3-0.4,0.9-9.3,4.3-7.2c2.5,1.5-2.1,23.2,4.3,8.7c6-13.4,10.2-26.9,20.3-37.6c0.3-0.4,2.8-3,4.3-4.4
		c8.5-7.6,12.3-15.1,17.4-30.4c4.8-14.6,10-39.1,17.4-52.2c1.1-1.9,5-2.7,5.8-4.3c4.8-9.5,6.2-21.5,11.6-31.9
		c4.9-9.5,11.5-17.7,16-27.5c17.5-39.1,37.1-79.7,55.1-118.8c9.1-19.8,16.7-40.1,26.1-59.4c19.3-39.7,37.3-74.3,60.8-111.5
		c9.9-15.7,23.4-33,36.2-50.7c12.6-17.3,23.6-38.6,36.2-49.3c4-3.3,6.4-4.7,8.7-4.3c4.2,0.8,16.3,26.2,20.3,33.3
		c33.4,58.9,65.4,110.3,98.5,168c10.8,18.9,25.5,36.3,37.7,55.1c14.6,22.5,33,44.3,49.2,68c0.9,0.1,1.7,0.2,1.4,1.5
		c10.1,9.6,24.1,22.4,34.8,31.9c9.3,8.2-1.9,1.4-7.2-2.9c-11-8.8-20.8-19.3-27.5-29c-0.9-0.1-1.7-0.2-1.4-1.5
		c-10.3-3.2-13.8-17.2-23.1-23.2c-2.3-1.4-3.7,1.4-7.3,0c-5.9-2.4-23.8-25.3-29-31.8c-17.2-21.6-31.4-43.5-49.3-63.8
		c18.8,30.1,44.6,70.6,71,102.9c5.7,7,23.2,25.8,23.2,30.4c0-2.8-5.2,0.2-1.5,4.4c1.8-0.1,0.9,2.1,0,0c-20-17.2,8.9,14.4,13,18.8
		c12.3,13,17,17.8,29,26c2.1,1.5,2.8-0.5,4.3,1.5c-0.8-1.2-0.7,3.1,0,3c-6,1.2-24.6-17.8-27.5-20.3c-8.6-7.6-15.4-13.8-26-21.7
		c11.7,20.1,28.7,35,46.3,49.3c0-0.8,1.2-1.6,1.4,0c4.7,3.2,13.2,11.5,13.1,11.6c-6.9,1.9-10.6-9.8-21.8-10.2
		c-1,1.4,21.9,11.7,17.4,13.1c-2.5,0.7-19.9-9.2-23.2-11.6c-7.2-5.3-16.6-13.1-18.8-15.9c-2-2.6-0.8-5.1-2.9-7.3
		c-7.4-7.6-17.3-12.9-24.6-20.2c-21.2-21.2-40.6-44.9-59.4-71c-11.8-16.5-25.8-31.7-37.6-50.7c-13.6-21.8-16.9-28.3-29-47.8
		c-10.5-16.8,3.5,10.8,5.8,14.5c40.6,67,85.3,129.5,136.2,185.4c13.4,14.8,37.3,30.2,57.9,43.5c19.2,12.3-15.7-4.1-23.2-8.7
		c-9.5-5.9-16.3-12.1-26-17.4c5.7,13.3,21.3,19.9,34.8,27.5c4,2.3,11.9,5.9,13,7.2c0.8,1-1,5,0,5.8c6.6,5.2,19.1,10,29,14.5
		 M22.3,919.8c-0.7-1.9,2.9,0,2.9,0C25.4,921.9,22.6,920.8,22.3,919.8z M23.7,947.3c-0.1-4.2-1.3-10.5,0-14.5
		C23.5,933.6,24.5,975.8,23.7,947.3z M25.2,927c-0.5,2.8-1.8-0.9-1.4-2.9C24.3,921.4,25.6,925,25.2,927z M1589.8,514.2
		C1589.1,513.5,1590.7,515.1,1589.8,514.2L1589.8,514.2z M1586.9,508.3c8,5.2-4.5,1.4-10.1-1.4c1.4,0.7-11.5-6.9-11.6-5.7
		C1565.7,496.4,1585.3,507.3,1586.9,508.3z M1469.5,588c0.7,0.6-2.5,1.8-2.9,1.4C1465.9,588.8,1469.2,587.6,1469.5,588z M1384,508.3
		C1385,509.3,1383.5,507.8,1384,508.3L1384,508.3z M1302.9,651.8c53.9,98.2,110.6,192.7,173.8,276.7c0.9,0.1,1.7,0.2,1.5,1.4
		c0.9,0.1,1.7,0.2,1.4,1.5c1.8-0.2,0.9,2.1,0,0c-0.8-0.1-1.7-0.2-1.4-1.5c-0.9-0.1-1.7-0.2-1.5-1.4
		c-69-81.7-127.6-184.5-181.1-282.5c1.6,2.9-4.6-11.3-4.4-11.6C1294.3,631.4,1303.1,652.1,1302.9,651.8z M1376.8,772
		C1378.6,771.9,1377.7,774.1,1376.8,772C1375.1,772.1,1375.9,769.9,1376.8,772z M1379.7,776.4c1.1,0.3,1.7,1.2,1.5,2.9
		c1.7-0.1,0.9,2.1,0,0C1380,778.9,1379.5,778,1379.7,776.4C1377.9,776.5,1378.9,774.3,1379.7,776.4z M1385.5,787.9
		C1386.4,788.9,1384.9,787.3,1385.5,787.9L1385.5,787.9z M1517.3,954.6c0.9,0.1,1.7,0.2,1.5,1.4c5.8,1.4,8.1,6.4,11.6,10.2
		c0.9,0.1,1.7,0.2,1.4,1.5c6-1.4,0.3,4.3,0,0c-0.8-0.1-1.7-0.2-1.4-1.5c-5.9-1.4-8.2-6.3-11.6-10.2
		C1517.9,955.9,1517.1,955.7,1517.3,954.6c-0.9-0.1-1.7-0.2-1.5-1.5c-0.9-0.1-1.7-0.2-1.4-1.5c-1.8,0.2-0.9-2.1,0,0
		c0.9,0.1,1.7,0.2,1.4,1.5C1516.8,953.1,1517.6,953.3,1517.3,954.6z M1534.7,982c0.7,2.1-4.1,0.7-4.3,0
		C1529.7,980.1,1534.5,981.4,1534.7,982z M1520.2,969.1c3.6,3.7,16.1,13.2,5.8,7.2c-13.7-8-26.2-24.4-33.3-33.3
		c-34.2-43.2-67.7-85.7-92.8-133.2c-2.8-1-3.8-3.9-4.4-7.3c-1.7,0.2-0.9-2.1,0,0c2.9,1,3.9,3.9,4.4,7.3
		C1437.2,862.7,1475.2,922.6,1520.2,969.1z M1413,869.1c26.4,39.4,57.2,74.7,85.5,111.5c1.7-0.1,0.9,2.1,0,0
		c-18.8-11.9-27.8-29.3-40.6-46.4c-6.2-8.4-14.3-15.1-20.3-23.2c-37.9-51.1-69.8-106-101.4-160.8c-3-3.8-10.9-12.3-8.7-14.5
		c0.6-0.5,10.6,12.7,8.7,14.5C1364.4,788.1,1386.9,830,1413,869.1z M1317.4,719.9C1316.8,719.2,1318.3,720.8,1317.4,719.9
		L1317.4,719.9z M1305.8,696.7C1304.1,696.8,1304.9,694.6,1305.8,696.7C1307.5,696.5,1306.7,698.8,1305.8,696.7z M1298.6,682.2
		c-1.2,1.1-10.9-14.7-11.6-16c-3.2-5.8-9.7-14.9-8.7-18.8C1280.1,640.2,1299.2,681.5,1298.6,682.2z M1282.6,541.7
		C1282.9,537.3,1288.7,543.1,1282.6,541.7C1277.1,549.7,1269.4,542,1282.6,541.7z M1278.3,643.1c0.7,0.7-2.5,1.8-2.9,1.4
		C1274.7,643.9,1277.9,642.7,1278.3,643.1z M1263.8,548.9c0.5-1.8,2.5-1,4.4-1.4C1278.7,545,1262.2,555.1,1263.8,548.9z M1245,546
		c-0.5,0.5-6-4.2-5.8-5.8C1239.8,535.6,1247.3,543.6,1245,546z M1240.6,663.3c5.8,3.4,13.8,25.1,15.9,29
		c42.5,79.5,91.8,153.1,136.2,226c0.9,0.1,1.7,0.2,1.4,1.4c4.3,0.3-1.4,6,0,0c-0.9-0.1-1.7-0.2-1.4-1.4
		c-52.3-72.4-101.5-156.9-144.9-239C1243.3,670.6,1234.6,659.9,1240.6,663.3z M1395.6,942.9c-46.3-58.8-85.1-124.5-120.2-189.8
		c-1.2-0.3-1.7-1.2-1.5-2.9c-1.1-0.3-1.7-1.2-1.4-2.9c-1.8,0.2-0.9-2.1,0,0c1.1,0.3,1.7,1.2,1.4,2.9c1.1,0.3,1.7,1.2,1.5,2.9
		c35.5,56.6,71.9,120.2,111.5,173.9c4.4,6,17.5,23.5,17.4,24.6C1403.7,956.5,1397.6,945.4,1395.6,942.9z M1407.2,955.9
		c0.7,2-2.9,0.1-2.9,0C1404.2,953.9,1406.9,955,1407.2,955.9z M1268.2,740.1C1263.8,739.8,1269.5,734.1,1268.2,740.1
		C1269.9,739.9,1269.1,742.2,1268.2,740.1z M1246.4,701C1242.1,700.7,1247.8,695,1246.4,701C1248.2,700.9,1247.3,703.1,1246.4,701z
		 M1237.7,522.8C1238.7,523.8,1237.1,522.2,1237.7,522.8L1237.7,522.8z M1234.9,515.6C1236.6,515.4,1235.7,517.7,1234.9,515.6
		C1233.1,515.7,1233.9,513.5,1234.9,515.6z M1200.1,453.3C1201,454.2,1199.4,452.7,1200.1,453.3L1200.1,453.3z M1198.6,450.4
		C1198,449.8,1199.6,451.3,1198.6,450.4L1198.6,450.4z M1194.3,440.2C1200.4,441.8,1194.3,447.9,1194.3,440.2
		C1192.5,440.4,1193.4,438.2,1194.3,440.2z M1231.9,517c3.9,7.2,12.7,31.5,1.4,11.6c-22-38.8-45.4-84.4-68.1-127.4
		c-2.3-4.4-10.9-15.7-10.1-18.8c0.7-3,5.6,4.3,7.2,7.2c2.8,5-1.8-0.7,4.4,10.1C1190.5,441.2,1210,476.2,1231.9,517z M1230.5,672
		C1228.7,672.2,1229.6,669.9,1230.5,672C1232.3,671.9,1231.4,674.2,1230.5,672z M1211.7,556.2c-31.1-54.2-64.2-117.4-95.6-176.7
		c-2.9-5.3-14.5-21.2-13.1-26.1c0.6-1.8,7.4,7.7,8.7,10.1c11.8,21.7,23.9,45.1,34.8,66.7c10,19.9,18.9,32.1,29,52.1
		c10.7,21.2,24.4,40.5,36.2,65.2C1215.1,554.7,1218.9,568.9,1211.7,556.2z M1214.6,689.4C1212.8,689.6,1213.7,687.3,1214.6,689.4
		C1216.3,689.3,1215.4,691.5,1214.6,689.4z M1310.2,983.5c0.9,0.1,1.7,0.2,1.4,1.5c1.8-0.1,0.9,2.1,0,0
		C1310.7,984.9,1309.9,984.8,1310.2,983.5c-1.1-0.3-1.7-1.2-1.5-2.9c-0.9-0.1-1.7-0.2-1.4-1.5c-53.6-77.7-109.5-164.1-153.6-252
		c-8.5-17,3.1-0.3,7.2,7.3c47.3,85.3,96,167.7,146.4,244.8c0.9,0.1,1.7,0.2,1.4,1.5C1309.9,980.9,1310.4,981.8,1310.2,983.5z
		 M1116.1,745.9c10.3,10.4,17.1,28.6,26.1,44.9c22.5,40.7,49.7,82.5,73.9,126c7.4,13.3-7.9-8.6-11.6-14.5
		c-26.7-43.5-51.3-85.1-76.8-131.8c-3.2-5.7-12.5-20.2-11.6-23.2C1116.1,747.2,1116.1,746,1116.1,745.9z M1129.1,735.8
		c4.4-0.8,6.3,10.2,8.7,14.5c8.9,16.3,19.2,31.3,24.6,46.3c1.2,0.3,1.7,1.2,1.5,2.9c9.8,12.4,17.7,26.8,24.6,42
		c1.2,0.3,1.7,1.2,1.4,2.9c1.8-0.2,0.9,2.1,0,0c-1.1-0.3-1.7-1.2-1.4-2.9c-10.1-12-17.8-26.6-24.6-42c-1.2-0.3-1.7-1.2-1.5-2.9
		c-6.6-8.7-12-16.2-18.8-29C1141.3,763.4,1127.5,736.1,1129.1,735.8z M1198.6,858.9C1200.4,858.8,1199.5,861.1,1198.6,858.9
		C1196.9,859,1197.7,856.8,1198.6,858.9z M1200.1,863.3c0.5-6.2,14.1,21,5.8,10.1C1205.3,872.7,1199.7,867.1,1200.1,863.3z
		 M1214.6,886.5c-1.1-0.3-1.7-1.2-1.5-2.9c-0.9-0.1-1.7-0.2-1.4-1.5c-1.8,0.1-0.9-2.1,0,0c0.9,0,1.7,0.2,1.4,1.5
		C1214.2,883.9,1214.8,884.8,1214.6,886.5c5.1,5,8.8,11.4,11.6,18.8c1.7-0.2,0.9,2.1,0,0C1221,900.3,1217.3,893.9,1214.6,886.5z
		 M1091.4,417.1c-2.7-5.1-12-23.1-11.6-24.6c0.5-1.8,2.6-0.9,4.3,1.4c8.5,11,16.1,31.8,24.6,47.8c21,39.4,43.9,85.4,68.1,127.5
		c1.9,3.3,1.9-0.7,4.4,4.4c0.7,1.5,1.8,6.9,1.4,7.2c-2.3,2.4-13.8-21.9-14.4-23.2C1142.7,509.7,1117.6,466.4,1091.4,417.1z
		 M1087.1,321.4C1094.3,324.9,1088,331,1087.1,321.4C1085.3,321.6,1086.2,319.4,1087.1,321.4z M1091.4,333.1c0.3-3.3,8,5.1,5.8,7.2
		C1096.6,341,1091.5,332.9,1091.4,333.1z M1153.7,378C1155.4,377.8,1154.6,380.1,1153.7,378C1152,378.1,1152.8,375.8,1153.7,378z
		 M1178.3,409.8c1.1,0.3,1.7,1.2,1.5,2.9c1.1,0.4,1.7,1.2,1.5,2.9c1.1,0.3,1.7,1.2,1.4,2.9c1.8-0.1,0.9,2.1,0,0
		c-1.1-0.3-1.7-1.2-1.4-2.9c-1.2-0.4-1.7-1.2-1.5-2.9C1178.7,412.4,1178.1,411.5,1178.3,409.8C1176.6,410,1177.4,407.7,1178.3,409.8
		z M1172.5,399.7c1.2,0.3,1.7,1.2,1.5,2.9c1.7-0.1,0.9,2.1,0,0C1172.8,402.3,1172.3,401.4,1172.5,399.7
		C1164.4,395.7,1171.9,388.2,1172.5,399.7z M1166.7,389.6C1168.5,389.4,1167.6,391.7,1166.7,389.6
		C1162.4,389.2,1168.1,383.5,1166.7,389.6z M1081.2,243.3c30.2,39.8,55.3,84.7,78.3,131.8c1.1,0.3,1.7,1.2,1.4,2.9
		c1.2,0.3,1.7,1.2,1.4,2.9c6.1,1.5,0,7.6,0,0c-1.1-0.3-1.7-1.2-1.4-2.9c-1.1-0.3-1.7-1.2-1.4-2.9
		C1133.4,331.1,1107.3,287.3,1081.2,243.3C1073.6,240.3,1079.8,234.1,1081.2,243.3z M1074,234.6C1073.4,233.9,1075,235.5,1074,234.6
		L1074,234.6z M1058.1,207c5.9,8,17.3,27.9,4.3,11.6c-1.6-2.1-19.3-21.8-18.8-24.6C1044.3,189.8,1056.8,205.2,1058.1,207z
		 M1065.3,285.2C1061,285,1066.7,279.2,1065.3,285.2C1071.4,286.8,1065.3,292.8,1065.3,285.2z M1049.2,262.8
		c1.8,2.6,4.2,6.1,7.4,10.9C1056.4,273.3,1051.6,266.4,1049.2,262.8c-0.4-0.6-0.8-1.1-1.1-1.6c-3.2-4.6-4.5-6.6,0,0
		c0.3,0.5,0.6,0.8,0.9,1.2c-0.6-0.9-1.1-1.7-1-1.7c0.5-4.9,15,15.4,13,17.4c-0.5,0.5-7.4-9.2-12-15.6
		C1049.1,262.5,1049.1,262.6,1049.2,262.8z M1027.7,172.2c0.9,0.1,1.7,0.2,1.5,1.5c0.9,0.1,1.7,0.2,1.4,1.5c1.8,0.6,3,1.8,2.9,4.3
		c5.7,0.7,11.5,10.2,10.1,11.6c-0.4,0.4-12.8-10.4-10.1-11.6c-1.8-0.6-3-1.9-2.9-4.3c-0.9-0.1-1.7-0.2-1.4-1.5
		C1028.3,173.6,1027.4,173.5,1027.7,172.2C1025.9,172.4,1026.8,170.1,1027.7,172.2z M1021.9,427.2c6.3,11.8,11,24.5,17.4,36.2
		c6,11.1,14.4,20.6,20.3,31.9c12.4,23.8,24.2,46.6,36.2,69.6c6.2,11.9,13.8,23.5,18.8,34.7c1.7,3.8,12.8,36,4.4,21.7
		c-61.1-102.9-111.7-214.8-175.3-310c-6.1-1.5,0-7.6,0,0c19.8,20.8,31.5,49.6,49.2,72.5c-8.4-19.6-21.2-34.8-30.4-53.6
		c-1.7,0.1-0.9-2.1,0,0C984.1,359.9,1004.5,394.9,1021.9,427.2z M1087.1,821.2C1082.7,821,1088.5,815.3,1087.1,821.2
		C1088.8,821.1,1088,823.4,1087.1,821.2z M1098.7,860.4c13,22.7,24,37.7,33.3,59.4c8.5,6.9,12.5,18.4,17.4,29
		c1.1,0.3,1.7,1.2,1.4,2.9c15.8,13.2,22.8,35.2,33.3,53.6c2.6,1.4,5,2.7,4.4,7.3c1.8-0.2,0.9,2.1,0,0c-1.7-2.2-4.2-3.6-4.4-7.3
		c-12.8-16.1-22.6-35.4-33.3-53.6c-1.2-0.3-1.7-1.2-1.4-2.9c-7.2-8.2-12.4-18.5-17.4-29c-20.6-30.4-42.4-68.1-60.8-101.4
		c-3.8-6.7-10.5-24.7-1.5-10.1C1079.8,824.4,1090.2,845.7,1098.7,860.4z M1088.5,825.6C1087.9,825,1089.4,826.5,1088.5,825.6
		L1088.5,825.6z M1127.7,934.3C1128.6,935.2,1127,933.7,1127.7,934.3L1127.7,934.3z M1126.2,931.4
		C1125.6,930.8,1127.2,932.3,1126.2,931.4L1126.2,931.4z M1019,595.3C1014.7,595,1020.4,589.3,1019,595.3
		c9.9,16,22.2,36.3,31.8,53.6c5.6,10,14.3,28.7,4.4,13C1041.2,639.8,1029.2,616.6,1019,595.3z M1021.9,611.2
		C1022.8,612.2,1021.3,610.6,1021.9,611.2L1021.9,611.2z M1072.6,632.9c-8.5-15.5-15-22.9-24.6-42c-2.5-4.9-13.7-24.3-13.1-26
		c0.7-1.9,3.4-1.2,4.4,0c8.4,9.6,25.2,45.3,34.8,63.7c0.2,0.4,12,19.8,10.1,21.7c-2.1,2.1-8.9-10-7.3-7.2
		C1073.3,637.2,1076.2,639.5,1072.6,632.9z M1065.3,653.2c-1.1-0.3-1.7-1.2-1.4-2.9c-7.2-3.4-1-9.6,0,0
		C1065,650.6,1065.6,651.5,1065.3,653.2C1067.1,653.1,1066.2,655.3,1065.3,653.2z M1039.3,603.9
		C1033.2,602.4,1039.3,596.3,1039.3,603.9c2.4,2.9,5.3,5.4,5.8,10.2c1.1,2.2,15.4,22.2,13.1,24.6c-0.3,0.2-16.1-21.6-13.1-24.6
		C1042.1,611.7,1039.3,609.2,1039.3,603.9z M1065.3,821.2c20.1,31,35.5,64.5,52.2,94.2c2.8,1,3.8,3.9,4.3,7.3c6.1,1.5,0,7.5,0,0
		c-2.9-1-3.9-3.9-4.3-7.3c-16.1-22.5-30.2-50.8-44.9-76.8c-3-5.3-16.4-24.2-15.9-26.1C1058,807.7,1063.4,818.2,1065.3,821.2z
		 M971.2,393.9c-1.3-2.3-9.2-13.7-8.7-15.9c0.6-2.5,9.4,9.5,11.6,13c21.8,34.8,44,80.3,62.3,114.5c20.6,38.6,41.3,71.9,62.3,114.4
		c1.4,2.8,11.1,14.5,5.8,15.9c-2,0.5-8.5-13-10.1-15.9C1054.8,548.8,1013.4,467,971.2,393.9z M1011.7,582.2
		C1016.1,582.5,1010.3,588.3,1011.7,582.2C1010,582.4,1010.8,580.1,1011.7,582.2z M961,373.6C955.6,371.5,961.7,365.4,961,373.6
		C962.8,373.5,961.9,375.7,961,373.6z M933.5,143.3c13.3,13.2,24.9,29,33.3,42c12.3,7.5,3.8,12,0,0c-9.1-9.6-19.6-21.3-29-31.9
		C933.4,148.4,923.8,133.7,933.5,143.3z M932.1,376.5C930.3,376.7,931.2,374.4,932.1,376.5C933.8,376.4,933,378.6,932.1,376.5z
		 M929.2,372.2c-1.2,1.2-4.4-5.7-4.3-5.8C925.3,363.5,931.6,369.7,929.2,372.2z M732.2,202.7c11.6,9.2,31.3,34,44.9,49.3
		c5,5.7,19.2,20.4,11.6,15.9c-3.3-1.9-12.9-13.1-15.9-15.9c-13.6-12.6-21.9-22.1-37.7-37.7c-3.1-3-19.8-16.1-18.8-18.9
		C716.9,193.4,729.3,200.4,732.2,202.7z M551,194C552,195,550.5,193.4,551,194L551,194z M410.5,370.7c4.3-6.1,0.2,11.8-2.9,8.7
		C405.4,377.2,409.2,372.6,410.5,370.7z M361.3,573.5c4-52.4,11.3-91.4,24.7-137.6c1.8-6.3,2.8-15.8,7.2-18.8
		c0.7-0.5-6.4,29.4-8.7,42c-5.2,28.7-9,61.8-14.5,94.1c-2.5,14.9-4.9,24.9-7.2,40.6C360.3,610.3,360.7,581.3,361.3,573.5z
		 M342.4,546c1.2-14.1,3.1-25.6,7.2-46.4c1.7-8.5,3.6-25.5,7.2-29c0.8-0.8,2.7-2.3,2.9,0c0.7,9.7-10.4,52-13,71
		c-0.2,1.1-2.1,25.5-5.8,21.7C341.6,564,342.4,546.5,342.4,546z M359.8,609.7C359.2,609.2,360.8,610.7,359.8,609.7L359.8,609.7z
		 M313.5,860.4c2.5-7.6,4.8,10.6,0,5.8C313.1,865.8,313.3,861,313.5,860.4z M312,831.4C313,832.3,311.4,830.8,312,831.4L312,831.4z
		 M246.8,738.7c0.1-1-0.1-9.9,1.4-11.6c3.3-3.6,3,33.4,1.4,42C247,784.4,246.4,743.5,246.8,738.7z M246.8,798.1
		c0.8-0.9,3.7-1.8,4.3,0c2.6,7.7,1.4,63.2,1.5,76.8c0,2.8,1.1,20.9-1.5,21.7c-2.6,0.8-1.2-8.2-1.4-10.1c-3-20.5-5.3-62.5-2.9-85.5
		C246.9,800.4,246.5,798.5,246.8,798.1z M48.3,967.6c-0.3,1.1-5.6-15.7-2.9-26.1C45.7,940.5,51.3,958.3,48.3,967.6z M45.5,914
		c2.5-2.6,3.1,36.2,0,13C45,923.4,41.7,917.9,45.5,914z M51.3,877.8c-0.1,0.6-0.2,1.1-0.2,1.5c0.2-1,0.3-2.2,0.4-2.7
		C51.4,876.8,51.3,877.1,51.3,877.8z M51.3,872C50.7,871.3,52.2,872.9,51.3,872L51.3,872z M60,928.5c0.7,0.7-2.5,1.9-2.9,1.4
		C56.4,929.2,59.6,928.1,60,928.5z M57.1,918.3c1.4-4.7,3.2,5.8,1.4,5.8C57.1,924.1,56.5,920.1,57.1,918.3z M58.5,954.6
		c-0.8-7.8-2.2-17.6,0-21.7C61,928.2,62.2,989.1,58.5,954.6z M57.1,906.8c-1.6-13.6-1.5-19.9-1.5-43.5c0-49,1.5-96.1,5.8-136.2
		c2.5-23.3,8.6-44.6,8.7-65.2c0-5.6-1.7-11.8-1.5-15.9c0.1-2.7,7.5-30.2,4.4-33.3c-1.3-1.3-4.6,12.6-4.4,11.6
		c-6.5,31.5-11.5,75.8-13,101.4c-1.6,26.8,1.7,45.9-1.4,63.7c-0.5,3-5.2,15-5.8,20.3c-2.5,21.2-1.4,47.3-1.4,69.5
		c0,11,1.2,38.6-1.4,29c-1.9-6.5-0.9-2.1-1.5-14.5c-1.5-34.9,0.2-62.3,1.5-89.8c6.8-149.7,37.3-299,91.3-404.2
		c4.7-19.8,16.9-35.4,23.2-46.3c4.5-7.8,17.4-30.3,23.2-37.7c-7.8,10,3.7-6.4,5.8-4.3c1.3,1.3-4.2,9.8-4.3,10.1
		c-11.1,18.7-24.7,40.4-31.9,59.4c-1.5,4-1.4,9.6-2.9,13c-0.9,2-7.5,9.9-8.7,13c-1.8,4.5-3.1,12.5-5.8,20.3
		c-7.5,21.6-14.1,40.4-21.7,60.9c-8.7,23.5,6-22.8,5.8-26.1c-36.5,97.9-50.9,225.4-56.5,349.1c-1.6,34.4,0.5,50.1-1.4,78.2
		C60.7,899.4,59.4,927,57.1,906.8z M70.1,1064.7c-3.1,3.1-4.2-20.2-4.3-21.8c-0.9-10-2.7-19-2.9-23.1c-0.2-3-2-11.3,0-16
		c1.3-2.9,2.2,13.4,2.9,21.7C66.9,1039.6,74.6,1060.2,70.1,1064.7z M73,1025.5c0-0.2-0.1-1.3,0-1.5C78.2,1018.9,73,1033,73,1025.5z
		 M73,1019.8C74,1020.7,72.4,1019.1,73,1019.8L73,1019.8z M77.3,1035.6c0.2,2.1-2.6,1-2.9,0C73.8,1033.7,77.3,1035.6,77.3,1035.6z
		 M78.8,1063.2c-1,0-5.6-14.5-4.3-17.4C76.2,1041.7,83.1,1063,78.8,1063.2z M100.5,1334.1C98.4,1338.9,96.9,1328.4,100.5,1334.1
		L100.5,1334.1z M100.5,1338.4c0.8-4,4.6,4.1,2.9,5.8C103.6,1344.1,99.3,1344.6,100.5,1338.4z M106.3,1351.5c-1,1.1-3-3-2.9-4.4
		C103.7,1342.3,107.1,1350.7,106.3,1351.5z M132.4,780.7c-0.6,2.8-1.8-0.9-1.4-2.9C131.5,775.1,132.8,778.8,132.4,780.7z M133.8,772
		c0.7-0.3-3.8-20.8,0-24.6C139,742.1,135.8,771.2,133.8,772z M120.8,579.3c11-41.1-0.4,14.1-4.3,10.1c-0.7-0.7,5.9-27.9,5.8-27.6
		c1.2-5.8,8-26.8,5.8-29c0,0-4.5,10.4-5.8,15.9c-17.8,75.6-23.5,140.4-29,220.2c-1.1,16.3-1.8,58.3-4.3,75.3
		c-4.1,27.5-3.3-21.6-2.9-30.4c3.4-71.1,10.9-145.9,23.2-213c1.1-6.1,7.8-46,2.9-29c-8.7,29.8-17.9,88.8-20.3,117.3
		c-7.5,87.3-10.6,157.7-10.2,239c0.1,10.6,2.6,9,2.9,21.7c0.5,19.9-0.5,38.1,1.4,60.8c0.3,3.7,1.1,14.8,1.5,19c0,0,0-0.1,0-0.1
		c0.2,2.5,0.2,2.1,0,0.1c0.1,2.1-0.7-0.8,0,10c0.7,10-2.9,8.8-2.9,0c0-24.2-2.5-27.7-4.4-50.7c-7.1-88.5-6.7-154.8,0-241.9
		c1.4-18.1,3.3-44.8,5.8-66.6c1.3-11.1,2.9-32.2,0-14.5c-8.3,50.7-10.9,107.5-13,155c-0.2,4-1.8,40.4-2.9,24.7
		c-0.9-12.1,1.2-52.2,1.5-58c3.1-70.7,13.1-151.2,26.1-213c2.1-10,2.4-20.6,4.3-30.4c4.7-24,18.8-55.8,26.1-79.7
		c3-9.9,4.2-21.3,7.2-29c2.1-5.1,7.4-10.2,10.1-15.9c17.9-37.2,30.7-72.9,52.2-107.2c1.7-2.6,8.6-16.4,11.6-15.9
		c3.3,0.5-1.9,7.1-2.9,8.7c-10.3,16.7-18.1,30-26.1,46.4c-2.8,5.6-9,16.9-10.2,20.3c-3.4,10-2.5,20.3-5.8,27.5
		c-3.7,8.1-15.9,14-10.2,23.2c0.4,0.3,4.3-0.4,4.4,0c1.7,6.4-6.5,20.2-10.1,30.4c-4,11.4-9.1,21.2-7.3,30.5
		c5.2-12.2,6.7-17.8,11.6-31.9c1.6-4.4,17.9-48,11.6-21.7c-5.3,22.1-19.3,55.3-24.6,72.4C132.5,525.3,127.3,554.9,120.8,579.3z
		 M196.1,433.6c-1.8,18.9-11.2,34.7-17.3,54.4c-2.3,7.3-9.6,40.2-13,40.5c-5.5,0.5-1-4.4-1.4-8.6c-0.4-4.2-2.8-8.6-2.9-5.8
		c0.5-11.4,9.7-30,13-39.2c8.8-23.9,13.7-41.6,23.2-63.7c1.9-4.3,14.6-30.2,11.6-18.9c-4.1,15.6-11.7,30.8-13,40.6
		c-1.2-0.3-1.4,0.5-1.5,1.4C195.6,434.7,195.9,434.3,196.1,433.6z M183.1,541.7c0.5-3-0.3-12.2,2.9-14.5
		C192.4,522.4,179.8,558.2,183.1,541.7z M171.5,405.5C171.3,403.7,173.6,404.6,171.5,405.5C169.3,423,164.5,409.9,171.5,405.5z
		 M158.5,919.8c0-0.2-0.1-1.3,0-1.4C163.7,913.1,158.5,927.2,158.5,919.8z M155.6,900.9c-7.9-76.4,3-158.3,11.6-227.4
		c1.3-10.4-0.2-26.9,2.9-31.9c1.7-2.8,2.8,3.2,2.9,4.3c1,14.9-6.4,47.5-5.8,60.8c0.4,8.8,2.6,11.5,2.9,17.4
		c0.6,13.4-1.8,31.3-2.9,49.3c-2,34.5-2.5,69.8-7.2,99.9c-1.6,10,1.1,30.6,1.4,39.1C162,926.2,155.9,903.9,155.6,900.9z
		 M171.5,1035.6c-3,3-4.1-15.8-4.3-17.3c-2.3-15.3-2-17.5-2.9-33.3c-0.2-3.1-2.8-8.1-1.5-11.6c1.6-4.3,5.2,19.4,5.8,26.1
		C169.4,1007.3,173.6,1033.6,171.5,1035.6z M170,900.9c-6.8-56.7-1-126.6,4.4-189.8c0.5-6.6,0.1-25.6,2.9-27.5
		c3.2-2.3,0.4,21.7,0,27.5c-4.8,62.6-7.9,107-5.8,173.8C171.9,897.4,173.5,929.5,170,900.9z M175.8,958.9c-0.9-0.1-1.8-1.8-1.4-3
		C175.8,951.7,177.8,959.1,175.8,958.9z M184.6,1038.6c-1,1.6-3.9-13.2-4.3-16c-2.4-16.1-2.8-34.4-4.4-53.6
		c-0.1-1.4-2.3-5.2-1.4-7.3c0.7-1.7,2.5-1.5,2.9,0c1.5,7.1,0.9,22,2.9,39.1C181.8,1015.1,187.8,1033.6,184.6,1038.6z M186,557.6
		c-0.9-11.1,6-29.1,5.8-37.6c-0.1-5.6-3.4-1.6-2.9-5.8c0.1-1.2,3.6-4,4.4-8.7c3.4-20.7,14-57.6,23.2-76.8c0.9-2-0.3-1.7,1.4-2.9
		c7.7-5.2-4.1,13.5-1.4,14.5c0.2,0.1,5.7-5.9,4.3-10.1c2.5,7.8-5.4,21-8.7,31.9c-8.7,29-12.2,50-20.3,85.5
		C191.2,550,187,570.1,186,557.6z M225.1,440.2c-6,17-9.2,47.2-16,66.6c-3.2,9.4-6.8,16-10.1,31.9c-0.3,1.1-6.1,34.5-8.7,31.8
		c-2.7-2.7,6.7-37.8,7.3-40.6c5.6-26.8,12.8-52.2,20.3-75.3c4.1-12.7,10.4-24.2,13-34.8c0.1-0.5-0.3-2.6,0-2.9
		c0.9-0.7,2.6-2.3,2.9,0C234.4,422.3,228.1,431.7,225.1,440.2z M236.7,856c-1.8-35.9-3.2-82.6,0-115.9c0.1-0.9,0.7-7.8,1.4-8.7
		c0.1-0.1,0-1.3,0-1.4c4.5,22.2,0,47.6,0,82.6c0,13,1.2,30.7,1.5,37.7c0.4,9.5,1.6,40.4,0,42C239.7,892.1,236.8,858.4,236.7,856z
		 M252.6,1031.3c-6.6-27-6.5-45-8.7-76.8c-0.5-7.9-5.7-23.6-2.9-30.4c1.4-3.5,5.4,25.1,5.8,29c2,20.8,2.6,37.3,5.8,60.9
		C254.3,1026.8,259.7,1059.9,252.6,1031.3z M258.4,1028.4C257.8,1027.8,259.4,1029.4,258.4,1028.4L258.4,1028.4z M261.1,1000.1
		c-1.3-5.8-1.6-12.4-2.7-22.4c-0.6-5.9-3.3-19.1-1.4-23.2c1.5-3.3,10.3,50.5,8.7,52.1C263.8,1008.6,261.5,1001,261.1,1000.1
		c0.1,0.2,0.1,0.5,0.2,0.7C261.1,1000,261.1,999.9,261.1,1000.1z M264.2,1009.6c0.3-0.9,6.3,9.7,2.9,13
		C267.4,1022.4,262.8,1014.4,264.2,1009.6z M281.6,1160.2c-0.8,0.8-9.3-26.9-10.1-30.4c-1.3-5.2-8.8-29.2-7.3-33.3
		c1.8-4.8,6.5,17.5,10.1,31.9C276.9,1138.7,284.3,1157.6,281.6,1160.2z M275.8,498.2c0.3,1,2.9-1.4,2.9-2.9
		c0.1,13-4.7,33.8-8.7,47.8c-0.1,23.3-5.8,5.5,0,0c-3.4-11-5.3,12.9-5.8,18.8c1,0,1.9,0,2.9,0c-0.2-1.7,2.1-0.9,0,0
		c-1.3,7.1,0.7,19.5-2.9,20.3c-2.7,0.6,2.1-21.2,0-20.3c-0.7,0-1.9,0.3-1.4,1.5c-3-7.4,0.4-24.6,2.9-37.7
		c4.9-25.6,10.6-48.3,17.4-71c1.5-5,16.7-48.9,10.1-23.2c-3.6,14-4.7,19.1-7.2,29C283.4,470.4,274.4,492.8,275.8,498.2z M267.1,559
		C266.5,558.4,268.1,560,267.1,559L267.1,559z M433.7,1538.4c-7.9-2.7-1.5,3.3-11.6-1.5c-5.5-2.5-11.1-8.5-17.4-13
		c-6-4.4-14.2-7.9-18.8-11.6c-9.3-7.4-17.8-19.6-26.1-30.4c-23.5-30.8-56.4-64.1-71-98.5c-1.8,0.1-0.9-2.1,0,0
		c40.2,64.7,95.4,120.1,160.8,160.8C471.8,1558,433.8,1538.4,433.7,1538.4z M310.6,1248.6c0.3-4.8,3.7,3.6,2.9,4.4
		C312.4,1254,310.5,1249.9,310.6,1248.6z M316.4,1261.7C312,1261.4,317.7,1255.6,316.4,1261.7
		C318.1,1261.5,317.3,1263.8,316.4,1261.7z M319.3,1268.9C314.9,1268.6,320.7,1262.9,319.3,1268.9
		C323.6,1269.2,317.9,1274.9,319.3,1268.9z M325.1,1282C331.1,1283.4,325.1,1289.5,325.1,1282C317.7,1275.7,324,1269.4,325.1,1282z
		 M410.5,1457.2c5,2.5,8.7,5.5,14.5,10.1c4.6,3.6,18.7,14.5,11.6,11.6C427.3,1475.1,414.6,1461.6,410.5,1457.2
		C408.8,1457.4,409.6,1455.1,410.5,1457.2z M488.8,1560.1c-2.3,2.4-29.5-13.8-29-13c-6,1.4-0.3-4.3,0,0
		C465.3,1545.6,490.6,1558.2,488.8,1560.1z M494.6,1521c0,1.4-2.5,1.8-2.9,0c-4.4,0.1-7.4-1.3-8.7-4.4c-3.3,0.4-5.4-0.4-5.8-2.9
		c-1.1-0.3-2.8,0-2.9-1.4c-1.1-0.3-2.9-0.1-2.9-1.4c-2.5,0.1-3.7-1.1-4.3-2.9c-1.1-0.3-2.8,0-2.9-1.4c-2.5,0.1-3.7-1.1-4.4-2.9
		c-13.2-6.2-25-14.2-34.8-23.1c-2.9-2.5-16-15.5-5.8-8.7c13.3,8.8,30,24.6,40.6,31.8c2.5,0,3.7,1.2,4.4,2.9c1.1,0.3,2.8,0,2.9,1.4
		c2.5-0.1,3.7,1.2,4.3,2.9c1.1,0.3,2.9,0,2.9,1.4c1.1,0.3,2.8,0,2.9,1.4c1,0,1.9,0,2.9,0c0-1.4-1.2-1.7-1.5-2.9
		c-1.1-0.3-2.9-0.1-2.9-1.5c-1.1-0.3-2.9-0.1-2.9-1.4c-1.8,0.2-0.9-2.1,0,0c1.1,0.4,2.8,0.1,2.9,1.4c1.1,0.4,2.9,0,2.9,1.5
		c2.3,4.3,38.5,12.1,39.1,16C518.3,1530.1,495.8,1520.3,494.6,1521z M484.4,1510.8c-2.6-0.8-2.3-0.8-1.1-0.4
		c-7.4-2.7-17.4-9.4-20.6-12.6c-1.8,0.1-0.9-2.1,0,0c8.1,2.6,19.3,8.8,24.6,11.6c8,4.3-1,1.9-4,1
		C483.7,1510.6,484.1,1510.7,484.4,1510.8z M519.2,1529.7C520.1,1530.6,518.6,1529,519.2,1529.7L519.2,1529.7z M523.5,1531.1
		C524.5,1532.1,522.9,1530.5,523.5,1531.1L523.5,1531.1z M527.9,1532.6C528.8,1533.5,527.3,1532,527.9,1532.6L527.9,1532.6z
		 M553.9,1528.2c0.9-2.8-10.9,0.3-13.1,0c-1.9-0.3-5.5-4.3-5.8-4.3c-5.8-1.9-16.9-3.6-23.2-5.9c-0.3-0.1-7.3-1.8-7.3-1.4
		c-0.4-2.6,40.7,8.3,42,8.6C551.1,1526.5,555.4,1523.6,553.9,1528.2z M530.8,1510.8c-13.7-1.3-23.9-6.1-33.3-11.6
		c-6,1.4-0.3-4.3,0,0C508.8,1502.8,520.2,1506.4,530.8,1510.8c6.6,0.6,14.8,1.9,21.7,2.9C575.4,1517,529,1516.2,530.8,1510.8z
		 M571.3,1510.8c-3.7,3.2-19.3,1.2-27.5,0c-42-6.1-81.4-29.6-107.2-52.2c-28.6-25.1-54-55.5-73.9-85.4c-0.9-0.1-1.7-0.2-1.5-1.5
		c-1.7,0.1-0.9-2.1,0,0c0.9,0.1,1.7,0.2,1.5,1.5c39.4,46.3,80.5,95.6,144.8,118.8c12.4,4.5,34.9,9.7,50.7,14.5
		c1.6,0.5,3.3,4,4.4,4.4C564.8,1511.6,573.5,1509,571.3,1510.8z M568.5,1503.6c-0.7-0.7,3.6-2.2,4.3-1.4
		C573.5,1502.9,569.2,1504.3,568.5,1503.6z M613.4,1413.7c0.1,0.2,1.3-2.7,1.5-2.8C620.2,1405,616.7,1417.1,613.4,1413.7z
		 M620.6,1403.6c-3.6,8.4-2.7-0.6-1.5-4.4c1.6-4.9,10.4-24.3,13-26C640.3,1367.9,622.8,1398.5,620.6,1403.6z M726.3,1512.3
		C724.8,1518.4,718.7,1512.3,726.3,1512.3C726.2,1510.6,728.4,1511.4,726.3,1512.3z M726.3,1499.2
		C726,1503.6,720.3,1497.9,726.3,1499.2C726.7,1494.9,732.4,1500.6,726.3,1499.2z M668.4,1489.1c-14.5,3.8,15.6-8.3,27.6-14.5
		c15.8-8.3,22-16.6,37.7-17.4c6-0.3,12.9-1.5,4.3,4.4c-17.5,12-40.6,25.3-60.8,34.8c-3.4,1.6-39,19.4-27.5,2.9
		C647.4,1502.4,686.6,1484.3,668.4,1489.1z M972.6,793.7c-3.7-1-13.3-33.8-18.8-33.3c-3.3,0.3,9.2,19,10.1,21.8
		c0.7,2-1.5,3.9-1.4,4.3c0,5.6,6.7,7.4,5.8,13c-0.5,3.6-18.4,25.4-21.7,24.7c-2-0.5-6.9-15.6-10.1-21.8c-27.6-52-55.6-98.4-84-147.7
		c23.6,47.1,51.2,95,75.3,140.5c3.6,6.8,5.5,13.3,8.7,20.3c1.8,4.1,7.9,9.2,7.2,14.5c-0.5,3.9-20,23.9-27.5,33.4
		c-48.2,60.2-87.7,113.9-128.9,178.1c-19.1,29.8-38.6,62-52.2,94.2c-11.6,27.6-24.6,53.7-37.7,78.2c-5.5,10.2-14.6,21.3-17.4,30.4
		c-1.5,4.9,3.2,1.9,2.9,5.8c-0.2,2.7-5.8,9.8-8.7,15.9c-18.8,40.4-38,86-58,120.2c1.5,0.1,1.8,2.6,0,3c1.4,6-4.3,0.3,0,0
		c0-1,0-1.9,0-3c-8.5,14.8-19,39.6-27.5,59.5c-1.6,3.6-7.7,18.4-8.7,18.8c-0.9,0.4-16.5-4.5-20.3-5.8c-22.7-7.6-39.9-17.3-56.5-26.1
		c11.3,10.8,36.4,21.6,55.1,27.5c2.4,0.8,20.9,4.7,21.7,5.8c0,0-1.3,1.8-2.2,3.2c-0.9,3.4-2.5,9.8-2.1,9.8
		c4.9,0.4,10.8-30.6,14.5-28.9c-0.1-1.8,2.1-0.9,0,0c-2.5,10.7-6,15.2-5.8,26.1c1.9,0.9,10.7-27,13-24.7c2.6,2.6-6.9,18-7.3,18.9
		c-3.1,7.9-3.4,17.8-5.8,20.3c-0.8,0.8-6.9-0.9-7.3,0c-0.7,1.7,5.8,2.8,7.3,1.5c-4.2,4.2-2.4,4-7.3,4.4c-3.5,0.2-6.6-0.4-13-1.4
		c-33.7-5.7-62.9-17.1-86.9-29c10.4,8.1,32.5,18,50.7,23.2c4.1,1.1,30.2,7.2,14.5,5.8c-4.9-0.5-2.5-0.5-7.2-1.5
		c-69.8-14.2-109.5-66.3-144.9-110.1c-43.1-53.3-69.2-111.5-91.3-181.1c-4.3-0.3,1.4-6,0,0c22.7,62.7,51.3,114.3,88.4,160.8
		c12.1,15.2,23.1,32.6,39.1,45c0.9,0.7,6.2,1.3,8.7,2.9c2.9,1.9,19.9,21.6,23.2,20.2c4.1-1.6-13.9-19.7-14.5-20.2
		c-41.6-41.6-78.4-91.2-100-146.3c-6.5-16.7-9.3-24.6-15.9-43.4c-1-3-11.8-28.5-11.6-29c4.1-7.9,9.7,9.1,11.6,13.1
		c23.7,50.6,42.1,90.7,72.4,128.9c4.8,6,10.1,11,14.5,17.4c11.4,16.7,26.4,41,44.9,52.2c-2-4.9-7.2-6.9-11.6-11.6
		c-5.2-5.5-18.4-21.4-4.3-8.7c8.6,7.8,16.3,16,23.2,21.8c-0.3,1.2,0.5,1.4,1.4,1.4c0.2-0.8-0.1-1.2-0.6-1.3
		c10.8,1.5,25.1,11,36.8,15.8c-18.2-13.1-37.1-29-53.6-46.4c-3.8-4-8.4-12.8-1.5-5.8c10.7,10.6,18.8,17.3,27.5,24.6
		c3.8,3.1,29.5,27.2,34.8,24.6c4.5-2.2-6.2-9.1-7.3-10.1c-30.8-28-52.5-41.6-75.3-76.8c-1.8,0.2-0.9-2.1,0,0
		c17.2,14.4,28,32.2,43.5,46.4c24.9,22.8,56.4,40.1,92.7,49.2c-34.1-13.5-61.1-32-85.5-55c-16.9-15.9-29.4-36.3-46.4-52.2
		c3.7,4.3,23.9,33.5,10.1,17.4c-43.7-51.2-71.4-112.3-89.8-171c-2.9-9.2-5.5-21.8-10.1-36.2c-3-9.3-14.1-31.9-13-34.7
		c2.3-6.1,6.5,9.6,7.2,11.6c15.3,41.2,27.8,82.8,43.4,115.9c9.1,19.3,19.7,39.4,33.3,56.5c41.7,52.4,85.1,104.5,155,129
		c5.2,1.8,23.4,6.1,23.2,5.7c-0.7-1.1-22.4,56.6-15.9,43.5c12.3-24.9,21.4-49.7,29-71c-5.7,2.4-8.5,24.6-11.6,26.1
		c-4.3,2.1-24-7-31.9-10.2c-14.3-5.7-23.9-8.8-30.4-13c-4.2-2.8-7-8-11.6-11.6c-4.3-3.3-10.1-5.3-14.5-8.7
		c-60.8-47.8-108.7-121.3-136.2-199.9c-1.7-0.2-1.5-2.3-1.4-4.3c-4.3-0.3,1.4-6,0,0c1.7,0.2,1.6,2.3,1.4,4.3c3.9-1,2-2.5,1.5-5.8
		c-3-20.1-18.9-49.8-24.6-69.6c-2.6-8.9-2.5-17.8-4.3-27.5c-0.9-4.4-4.8-12.7-7.2-24.6c-2.3-11.3-4.8-42.3,0-24.6
		c11.3,41.9,15.5,87.1,31.9,118.8c-17.1-62.3-33-118.9-40.6-188.3c-1.3-12,0.7-18.3,0-30.4c-2.2-36.8-9.7-81.6-5.8-127.5
		c2.2-26.5,1.7-51.9,2.9-78.2c0.2-5.3,3.5-37.1,7.3-33.3c3.9,3.9-2.2,30.1-2.9,44.9c-2.1,45.3-0.6,69.4,1.4,114.4
		c1.8,39.1,2.6,63.4,7.3,102.9c2.2,18.7,10.9,69,10.1,49.3c-1.3-32.3-8.8-87.2-11.6-121.7c-0.3-4.1-2.3-43.8-1.4-43.4
		c2.6,0.9,2.1,18.8,1.6,14.3c0.9,11.7,3,24.7,4.2,39.3c1.7,20.4,4.3,35,7.3,52.1c3.2,18.7,3.9,33.3,8.7,47.8
		c3.8,11.7,2.9,3.2,2.9-5.8c-0.1-9.9-2.9-26.2-4.4-39.1c-9.1-81.3-9.7-159.9-2.9-237.6c0.3-3.1,2-40,5.8-36.2
		c2.9,2.9-2.1,18.3-2.9,27.5c-0.9,11.6-3.7,48.4-2.9,49.2c3.2,3.2,4.3-24.9,4.4-26.1c3.2-47.1,17.8-99.6,17.4-137.6
		c-0.5-46.3,11.9-91.4,23.2-130.4c10.9-37.6,24-73.6,33.3-113c-3.9,5.8-8.9,19.1-11.6,26c-8.2,21.6-0.5-7.1,0-11.6
		c0.6-6-2.4-3.9-1.5-8.7c1.7-8.7,7.9-20.4,11.6-30.5c4.7-12.9,8.8-24.5,10.1-31.9c-1.7,2.1-3.9,4.9-5.8,8.7
		c-11.3,22.3-0.2-4.9,1.5-11.6c-7,9.2-0.9-13.4,2.9-23.2c2.2-5.7,6.2-12,8.7-17.4c1.9-4,11.3-22.7,10.1-8.7
		c3.1-3.7,4.9-5.1,10.1-4.3c10.7,1.7,9-0.9,4-1.4c12.4,0.4,22.8,7.5,35.1,12.9c19.2,8.5,36.5,18.4,52.2,29
		c15.3,10.4,29.8,26,43.4,34.8c-25.6-27.9-64-55.7-98.5-75.3c-11.8-6.7-3.4-6.1,4.3-2.9c5.9,2.4-0.1,1.1,8.7,5.8
		c46.1,24.5,85.1,59.1,115.9,94.2c5.3-0.3,0.9,5.3,0,2.9c1.1,2.9,8.9,10.7,10.2,11.6c2.2,1.6,5.8,0.1,7.2,1.5
		c8,7.2,14.6,21,23.2,31.8c8.9,11.3,18.4,21.9,26.1,29c-34.9-50.2-76.3-101.4-124.6-139.1c-15.1-11.8-27.3-19.8-43.5-30.4
		c-8.2-5.4-21-8.8-24.6-13c-0.8-0.9,3.5-2.5,2.9-2.9c-2.8-2-29-11.8-27.5-14.5c3.4-6.1,6.1,0.5,14.5,0c4.6-0.3,5.5-3.3,8.7-2.9
		c10.9,1.4,21.2,10.6,33.3,13.1c7.4,1.4,23-0.5,29,2.9c-3.4-4.2-12.7-8.1-5.8-5.8c11.2,3.7,18.7,10,26.1,14.5
		c5.5,3.3,11.1,4.2,15.9,7.2c5.3,3.3,9.1,9.7,13,11.6c3,1.5,8.8,0.7,10.1,1.5c9.8,5.6,21.6,19.1,33.3,30.4
		c8.3,8,17.6,15.9,24.6,23.2c2.8,2.9,4.6,7.6,7.3,10.1c3.6,3.5,8.4,4.1,11.6,7.3c8.8,8.8,16.6,21.8,24.6,31.9
		c9.2,11.4,16,24.2,24.6,33.3c1.6,1.7,4.4,2.7,5.8,4.4c20.2,25.4,39,59.9,57.9,92.7c18.8,32.5,36.4,66.1,53.6,97.1
		c18.4,33.3,38.1,65.1,55,95.6c9.3,16.7,15.9,34.7,24.6,50.7c11.7,21.5,23.5,37.4,31.9,59.4c1.9,5.1,5.8,9.9,5.8,10.2
		C985.5,785.2,974.9,794.4,972.6,793.7z M325.1,1255.9C320.7,1255.6,326.5,1249.9,325.1,1255.9
		C326.8,1255.7,325.9,1258,325.1,1255.9z M329.4,1267.4C328.8,1266.9,330.3,1268.4,329.4,1267.4L329.4,1267.4z M333.8,1274.7
		c1.1,0.3,1.7,1.2,1.4,2.9c1.7-0.2,0.9,2.1,0,0C334.1,1277.3,333.5,1276.3,333.8,1274.7c-1.1-0.3-1.7-1.2-1.5-2.9
		c-4.3-0.3,1.4-6.1,0,0C333.4,1272.1,334,1273.1,333.8,1274.7z M341,1289.2c4.3-4.3,0,10.9,0,1.4
		C341,1290.4,340.9,1289.3,341,1289.2z M346.8,1299.3C352.9,1300.8,346.8,1306.9,346.8,1299.3C345,1299.5,345.9,1297.2,346.8,1299.3
		z M351.1,1306.6C356.9,1307,350.9,1313,351.1,1306.6C349.4,1306.7,350.2,1304.4,351.1,1306.6z M368.5,1334.1
		c0.9,0.1,1.7,0.2,1.4,1.4c1.1,0.4,1.7,1.3,1.5,3c1.7-0.1,0.9,2.1,0,0c-1.1-0.3-1.7-1.2-1.5-3
		C369.1,1335.4,368.2,1335.3,368.5,1334.1c-1.1-0.4-1.6-1.2-1.4-2.9c-0.9-0.1-1.7-0.2-1.5-1.4c-1.8-0.6-3-1.9-2.9-4.3
		c-6.1-1.5,0-7.6,0,0c1.8,0.6,2.9,1.9,2.9,4.3c0.9,0.1,1.7,0.2,1.5,1.4C368.2,1331.5,368.8,1332.4,368.5,1334.1z M323.6,955.9
		C319.3,955.7,325,950,323.6,955.9C325.4,955.9,324.5,958.1,323.6,955.9z M425,1341.3c3.1,3.7,15.7,16.8,10.1,14.6
		c-8.9-3.7-19.1-19.6-23.2-24.7c-25-31.6-45.4-66.4-59.4-104.3c-4.3-0.3,1.4-6.1,0,0C371.3,1267.4,397.3,1308.8,425,1341.3z
		 M992.9,770.6c-0.9,0.4,0.1,2.3-1.4,2.9c-4.4,1.6-13.2-20.8-14.5-23.2c-15-28.1-31.7-58.6-44.9-82.6
		c-51-92.7-101.3-187.4-156.5-270.9c-12.8-19.4-28.3-40.2-37.7-60.9c-8.7-3.4-2.4-9.6,0,0c40.5,44.4,71.7,98.3,104.3,150.7
		c-17.1-38.4-42.5-68.5-62.3-104.3c-10.3-8.1-2.5-11.5,0,0c46.8,55.8,76.8,123.2,114.4,192.7c16.6,30.7,38.3,65.9,55.1,98.5
		c11.8,22.9,30.1,53.6,40.6,79.6c1.2,2.9-1.3,8.3-1.5,7.3c0.3,2.1,4.2,0.7,4.3,1.4C993.8,765.1,992.2,770.9,992.9,770.6z
		 M998.7,754.6c0.2-0.6,3.3-2.6,4.4-1.5C1004.8,754.9,998,757.5,998.7,754.6z M998.7,751.8c-4.9,0.1-5.9-9.2-7.2-11.6
		c-30.4-56.5-59.3-105.4-88.4-160.8c-4.1-7.8-14.3-23.9-13.1-26.1c0.1-0.2,9.6,6.9,7.2,4.4c6.8,7.2,6.5,18.1,11.6,17.4
		c2.6-0.4,0.3-2,0-2.9c-7.7-22.3-26.3-47.5-34.8-63.8c-1.4,5.8,8.9,16.5,10.2,21.7c0.5,2.2-1,12.1,0,11.6c-1.1,0.5-2.5-3.7-2.9-4.4
		c-12.6-24-29.9-54.4-42-73.9c-10.6-17-22.8-38.1-33.3-55.1c-2.3-3.8-15.1-30.4-5.8-17.4c15.4,21.5,30.4,46.9,44.9,68.1
		c15.7,23-1.8-7.3-4.3-15.9c0,0.8-1.2,1.7-1.5,0c-0.8,0-1.6-1.2,0-1.4c-1.7-2.2-1.8-5.9-4.3-7.3c0.1,1.8-2.1,0.9,0,0
		c-35.1-59.5-75.9-113.2-120.6-163.1c0.2,0.3,0.4,0.5,0.4,0.8c0.4,4.5-11.9-7.6-11.6-7.2c-16.4-15.6-37-35.9-52.1-49.3
		c-0.9-0.1-1.7-0.2-1.5-1.4c-1.7,0.1-0.9-2.1,0,0c0.9,0.1,1.8,0.2,1.5,1.4c20.4,12.5,36.3,29.4,53.6,44.9
		c-1.3-5.6-14.3-15-11.6-15.9c3-1,19.7,13.7,24.6,18.8c7.1,7.4,12.7,18,20.3,27.5c6.9,8.7,16.1,16,23.2,24.6
		c28.5,35,51.2,69,75.3,107.2c8.4,13.3,16.7,26.8,24.7,40.6c16.1,27.9,29.5,59.1,44.9,86.9c27.9,50.3,56.6,99.6,82.6,147.7
		c3.3,6.1,10.2,17.1,11.6,21.8c0.5,1.7-3.1,1.4-2.9,2.9c0.2,1.4,2.7,3.1,2.9,4.3c0.8,5.8-1.7,9.9-2.9,13
		C1011.5,729.9,997.8,751.8,998.7,751.8z M842.3,417.1c1.1,0.4,1.7,1.2,1.4,2.9c6.1,1.5,0,7.6,0,0
		C842.5,419.6,842,418.8,842.3,417.1C836.5,416.7,842.5,410.7,842.3,417.1z M852.4,434.5c-1.1-0.3-1.7-1.2-1.4-2.9
		c-1.8-0.6-3-1.9-2.9-4.4c-1.8,0.2-0.9-2.1,0,0c1.8,0.6,3,1.9,2.9,4.4C852.1,431.9,852.6,432.8,852.4,434.5c1.8,0.6,3,1.8,2.9,4.3
		c4.3,0.3-1.4,6,0,0C853.4,438.2,852.3,436.9,852.4,434.5z M859.6,448.9c-0.2-2.1,2.6-1,2.9,0C863.2,450.9,859.6,449,859.6,448.9z
		 M962.5,637.3C963.4,638.2,961.9,636.7,962.5,637.3L962.5,637.3z M1003,709.7c-1.1-0.3-1.7-1.2-1.4-2.9c-4.3-0.3,1.4-6,0,0
		C1002.7,707.1,1003.3,708,1003,709.7C1009.1,711.3,1003,717.3,1003,709.7z M1019,716.9c-2.3,2.3-5.9-7.5-5.8-7.3
		c-24.1-48.1-53.3-93.5-73.9-140.5c-47.5-85.3-96.4-176.7-153.5-253.5c-5.9-8-18.5-20.2-8.7-13c8,5.8,4,4.1,13.1,15.9
		c17.5,22.9,34.9,45.2,47.8,65.2c19.2,29.6,45.7,68.3,57.9,94.2c2.9,6,2.3,8.9,4.4,13c2.8,5.6,8.4,11.2,11.6,17.4
		c3.9,7.7,5.1,15.5,8.7,21.7c7.4,12.9,15.1,23.8,18.8,39.1c27.8,35.4,49.1,85.1,71,127.5C1012.6,701.1,1021.8,714.1,1019,716.9z
		 M808.9,291C796.9,283.6,804.8,278.5,808.9,291C810.7,290.9,809.8,293.1,808.9,291z M814.7,304c-1.9,1.9-10.2-10.1-10.2-10.1
		C804.8,291.7,817.1,301.7,814.7,304z M843.7,338.9C841.9,339,842.8,336.8,843.7,338.9c20.7,28.1,42.8,62.4,59.4,95.6
		c2.6,5.2,12,25.3,1.4,10.1c-27.1-38.8-48.1-82.3-73.9-117.3c-4.2-3-8.5-10.2-11.6-14.5c-10-13.9,14.2,10.3,11.6,14.5
		C835.7,328.7,844.6,349.9,843.7,338.9z M864,398.2c-6.1-9.4-9.3-14.6-15.9-24.6c-2-2.9-7.5-12-7.2-13c1.1-4,13,15.4,18.8,24.6
		c3.8,6.1,8,14,13.1,21.7C877.3,414.1,867,402.9,864,398.2z M953.8,518.5C925,464.1,895.6,410.6,864,362c-5-7.6-8.6-15.2-13-23.1
		c-12.4-22.5-32.1-37.3-45-62.3c-0.9-0.1-1.7-0.2-1.4-1.4c-0.9-0.1-1.7-0.2-1.4-1.5c-1.7,0.1-0.9-2.1,0,0c0.9,0.1,1.7,0.2,1.4,1.5
		c0.9,0,1.7,0.2,1.4,1.4c3.4,1,3.9,4.8,7.3,5.8c-5.8-8.1-9-13.1-17.4-23.2c-3.7-4.4-28.6-31.3-14.5-20.3c4.8,3.8,11.8,12.5,16,17.4
		c50.2,58.5,90.1,118.1,128.9,185.4c21.5,37.3,40,75,62.3,115.9c14.6,26.8,33.3,59.7,47.8,86.9c6.6,12.3,16.2,22.6,15.9,34.8
		c-0.1,3,1.9,2.5,1.4,7.2c-0.1,1.6-3.3,2.9-2.9,4.3c0.4,1.5,7.9,0.4,2.9,2.9c-1,0.5,0.3,2.4-1.4,2.9c-3.1,0.9-12.3-16-13.1-17.4
		C1008.9,622.7,982.9,573.5,953.8,518.5z M1223.2,1144.3c-5.3-3.3-8.1-8.9-11.6-13.1c-18.2-21.4-29-36.1-43.5-56.5
		c-38.9-54.9-66.5-102.3-101.4-162.3c-10.9-18.8-24.7-39.8-36.3-62.3c-2.6-5.1-8.7-20,1.5-20.3c6.3-0.2,22.4,34.6,26.1,40.6
		c3.4,5.7,7.5,9.1,10.2,13.1c5.5,8.3,8.3,18.8,13,27.5c35.5,64.6,68.8,118.7,110.2,178.2c2.1,1.3,4.5,2.2,4.3,5.8
		c0.9,0.1,1.7,0.2,1.5,1.4c1.7-0.1,0.9,2.1,0,0c-0.9-0.1-1.7-0.2-1.5-1.4c-2.1-1.3-4.6-2.2-4.3-5.8c-10-9.8-17.1-22.5-26.1-33.3
		c10.6,20.9,28.2,47.9,44.9,68.1c4,4.9,17.6,19.4,17.4,20.3C1227,1147.1,1224.3,1145,1223.2,1144.3z M1292.8,1174.7
		c-30.1-17.6-49.3-53.9-69.6-73.8c-0.3,2.7,1.7,3.2,1.5,5.8c0.9,0.1,1.7,0.2,1.4,1.5c1.7-0.2,0.9,2.1,0,0c-0.9-0.1-1.7-0.2-1.4-1.5
		c-6.1-0.4-17.2-22.8-20.3-21.7c-2.1,0.7,2.5,8.6,2.9,8.7c-5.2-1.2-18.6-21.6-24.7-30.4c-8.8-12.9-15.4-24.5-21.7-33.3
		c-33-46-66.9-103-95.6-153.5c-6.2-10.9-15-25.1-20.3-34.8c-3.2-6-9.2-18.4-8.7-20.3c1.2-4.9,8.9-5.5,11.6-4.3
		c8.3,3.8,11.9,12.6,18.8,24.6c43.2,74.7,82.7,142.6,127.5,211.5c9.8,15,21.3,29.4,31.9,43.4c17.8,23.8,40.4,55.1,65.2,75.4
		C1302.9,1181.3,1292,1174.3,1292.8,1174.7z M1191.4,1018.3C1190.8,1017.6,1192.3,1019.2,1191.4,1018.3L1191.4,1018.3z
		 M1363.8,1150.1c-16.6-11.5-31.4-26.2-42-37.6c-32.2-35-56.8-65.8-79.6-100c-11.3-16.9-27.3-48.5-40.6-57.9
		c5.1,12.3,15.3,19.5,18.9,33.3c1.1,0.3,1.7,1.2,1.4,2.9c1.8-0.1,0.9,2.1,0,0c-1.1-0.3-1.7-1.2-1.4-2.9
		c-45.5-63.4-78.9-124.9-117.3-194.1c-4.9-8.9-17.7-25.7-15.9-29c2.6-4.6,10.8-1.5,13.1,0c1.1,0.7,6.5,10.3,7.2,11.6
		c12.3,22.7,31,56.5,42,75.3c59.2,101.7,118.8,199.6,192.7,275.3C1344.8,1129.8,1379.1,1160.7,1363.8,1150.1z M1334.8,985
		C1333,985.1,1333.9,982.8,1334.8,985c2.3-3.5-6-5.7-8.7-8.7c-7.7-8.5-14.7-21.2-21.7-31.8c-36.8-55.3-69.8-111.6-102.9-170.9
		c-10.6-19.1-19.3-36.2-29-53.6c-2.9-5.2-10.9-12.6-5.8-16c8.8-5.7,11.2,8.2,13.1,11.6c10.6,19.9,21,37.5,30.4,53.7
		c17,28.9,25.8,49.7,39.1,73.8c11,20,25.4,39.6,37.7,59.4c37.8,60.9,79,118,124.6,168c3.7,0.2,5.6,2.1,5.8,5.8c6-1.4,0.3,4.3,0,0
		c-2.6-1.3-4.5-3.2-5.8-5.8C1380.7,1047.1,1361.7,1012.1,1334.8,985z M1460.8,1197.9c2.5,0.2-9-1.1-10.2-1.5c-4-1.3-5.9-5.3-7.2-5.8
		c-3.5-1.2-11.7-1-17.4-2.9c-13.6-4.6-30.8-17.7-31.8-20.3c0,0.1,1.4,0.1,1.4,0c7.1-2.7,11.6,7.2,17.4,10.2
		c9.2,4.6,29.3,10.1,43.5,14.4C1455.7,1191.9,1487.2,1199.9,1460.8,1197.9z M1443.4,1154.5
		C1441.7,1154.6,1442.6,1152.3,1443.4,1154.5C1449.5,1153.1,1443.7,1158.8,1443.4,1154.5z M1444.9,1182
		C1445.8,1183,1444.3,1181.4,1444.9,1182L1444.9,1182z M1453.6,1158.8C1455.3,1158.6,1454.5,1160.9,1453.6,1158.8
		C1444.2,1159.1,1450.4,1153,1453.6,1158.8z M1459.4,1160.2c0.7,0.7-2.5,1.9-2.9,1.5C1455.8,1161,1459,1159.9,1459.4,1160.2z
		 M1471,1180.5C1469.2,1180.7,1470.1,1178.4,1471,1180.5C1478.7,1179,1472.7,1184.9,1471,1180.5z M1495.5,1186.5
		c0.5,0.8,12.6-1.1,13.1,1.3C1509.3,1191,1495.5,1188.1,1495.5,1186.5z M1514.5,1184.9c-1.1,1.1-23-3.4-23.2-4.4
		C1490.3,1176.4,1516.3,1183.1,1514.5,1184.9z M1495.6,1176.2C1504.9,1174.5,1498.8,1180.6,1495.6,1176.2
		C1487.9,1177.7,1493.9,1171.8,1495.6,1176.2z M1510.1,1179.1c0,0,6.4-2.3,7.2-1.4C1517.4,1177.7,1513,1182,1510.1,1179.1z
		 M1521.7,1176.2c-6.2,1.7-15.1-2.1-18.8-2.9c-17.5-3.8-40.7-10.9-49.3-18.8c-1.1-0.3-2.9-0.1-2.9-1.5c-6,1.3-0.3-4.3,0,0
		c1.1,0.3,2.9,0.1,2.9,1.5c1.5,0,2.9,0,4.4,0c1.7-4.4,7.7,1.5,0,0c5.6,2.9,10.1,6.6,15.9,8.7c7.4,2.6,15.8,2.1,18.9,2.9
		c-1.9-0.5,20.1,11.8,24.6,7.3c0.2-0.3-15.7-8.2-15.9-7.3c0.8-3.3,22.4,2.7,24.7,2.9C1535,1170,1521,1176.4,1521.7,1176.2z
		 M1527.5,1163.2c-3.5,0.7-10.9-0.7-17.4-2.9c-3.2-1-5.3-4.2-8.7-5.8c-4.8-2.3-10.4-1.3-14.5-2.9c-4.4-1.8-12.1-8.1-11.6-8.7
		c5.6-5.6,20.1,4,30.4,7.2c4.6,1.4,28.4,5.5,29,7.3C1535,1158.3,1526.7,1163.4,1527.5,1163.2z M1547.7,1140
		c-0.7-0.7,2.5-1.9,2.9-1.5C1551.3,1139.2,1548.2,1140.4,1547.7,1140z M1550,1136.2c0.3,0.5,0.6,0.9,0.7,0.9
		C1549.6,1136.7,1549.5,1136.4,1550,1136.2c-0.7-1.3-1.7-3.4-0.8-3.4c-2.8,0.1-5.8,4.5-7.7,3.8c9.1,8.8-7.5,9.2-16.9,6.3
		c-17.2-5.4-39.9-12.8-52.2-20.2c-13.4-8.1-5.5-7.1,8.7,0c1.4,0.7,26,10.6,13,4.3c-11-5.4-26.7-12.4-33.3-17.4
		c-0.6-0.4-0.5-3.7-2.9-5.8c-2.6-2.4-6.4-2.6-8.7-4.3c-5.9-4.3-13.6-10.9-18.8-16c-12.8-12.3,17.2,10.1,17.3,10.2
		c25.3,17.4,49.4,29.4,78.2,37.7c-7.2-3.1-16.8-8.2-27.5-13c-10.4-4.7-31.3-11.5-24.6-15.9c-0.5-4.3-21-10.9-18.8-15.9
		c1.4-3.3,12.8,3.5,11.6,2.9c21.3,10.9,37.9,24.5,59.4,33.3c5,2,27.4,7,28.9,8.7C1557.8,1134.4,1551.4,1135.2,1550,1136.2z
		 M1562.2,1122.6c-1.4,0.8-15.6-0.5-17.4,0c5.5,3.3,21.7,4.5,8.7,4.3c-12.8-0.2-49.5-14.9-52.2-20.3c-1.1-0.3-2.8,0-2.9-1.4
		c-1.1-0.4-2.9-0.1-2.9-1.5c-1.8,0.1-0.9-2.1,0,0c1.1,0.3,2.8,0,2.9,1.5c1.1,0.3,2.8,0,2.9,1.4c15.4,4.4,26.3,13.3,43.5,16
		c-6.7-3.2-18.1-8.1-31.9-14.5c-3.9-1.8-32.8-12.4-33.3-14.5c-0.4-1.6,24.3,8,27.6,7.3c-8.2-5.6-16.8-5.2-23.2-8.7
		c-1.4-0.8-2.4-4.5-4.3-5.8c-2.6-1.8-5.6-1.4-7.2-2.9c-0.7-0.6,2.4-2.3,2.9-1.4c-2.7-5.1-17.1-8.9-18.8-14.5c-6,1.4-0.3-4.4,0,0
		c29.1,15.3,56.5,32.4,92.7,40.6c0-0.5,0-0.9,0-1.5c-1.7-0.2-4.1,0.3-4.3-1.4c-6,1.3-0.3-4.4,0,0c1.7,0.2,4.1-0.3,4.3,1.4
		c6.8-1,6.8,2.5,0,1.5c5.2,5.7,16.4,0.5,18.9,5.8C1568.3,1114.4,1563.4,1121.9,1562.2,1122.6z M1534.7,1087.8
		C1540.7,1086.5,1535,1092.1,1534.7,1087.8C1522.6,1087.8,1528.9,1081.6,1534.7,1087.8z M1542,1090.7
		C1535.9,1092.1,1541.7,1086.4,1542,1090.7C1551.4,1090.4,1545.2,1096.6,1542,1090.7z M1546.4,1077.7c0.7,0.7-2.5,1.9-3,1.4
		C1542.7,1078.5,1545.9,1077.3,1546.4,1077.7z M1549.2,1095.1c3.1-0.5,4.4-0.5,4.6-0.2c3.9,0.1,9,0.6,9.9,3c3,8.4-18.8,3.9-20.3,1.5
		c0.4,0.6,11.1-3.5,10.4-4.5C1551.4,1094.9,1549.4,1095,1549.2,1095.1z M1537.6,1077.7c-0.7-0.7,3.6-2.2,4.4-1.4
		C1542.7,1076.9,1538.3,1078.4,1537.6,1077.7z M1568,1100.9c0-0.2-0.1-1.4,0-1.5C1573.3,1094.2,1568,1108.3,1568,1100.9z
		 M1566.6,1058.9c1.4,1.7,5.6,3,5.8,4.3c1.2,8.2-11.7,0.7-17.4-1.5c-8-2.9-18.9-5.4-23.2-8.7c-1.4-1.1-1.3-7.1-1.4-7.3
		c-2.4-2.7-11.5-3.9-17.4-7.2c-14.9-8.2-31.5-17.8-42-31.9c-1-1.3-0.3-4.4-1.4-5.8c-5.3-6.3-13.5-12.2-23.2-23.1
		c-3.2-3.7-6-8.3-10.1-13c-5-5.9-18-19.1-4.4-8.7c16.5,12.6,31.9,39.8,46.4,49.3c1.7,1.1,5.4-0.8,7.3,0c4.5,2,17.7,17.2,24.6,21.7
		c1.4,0.9,15.7,6.4,14.5,7.2c3.6-2.7-9.6-10.5-8.7-8.7c-0.6-1.2,2.8-2.9,1.5-4.3c-10.3-11.1-24.6-16.1-34.8-26.1
		c-11.6-11.4-17.9-23.6-30.4-31.9c3.5,6,6.9,9.1,13,15.9c4.7,5.3,21,22.7,8.7,13.1c-17.6-13.8-29.5-31.9-43.4-47.8
		c-9.6-10.8-17.6-21.4-26.2-33.3c-43.8-61.2-86-130.6-124.5-201.4c-2.1-3.7-15.5-27.2-7.3-17.3c13.2,15.7,33.1,57.4,39.1,68.1
		c19,33.8,29.5,46.7,43.1,68.8c-0.5-0.9-0.9-1.7-1.1-2.2c-0.5-2.4,3.2-3.7,2.9-4.4c-0.9-1.9-3.2-2.9-4.4-4.3
		c-4.4-5.7-2.1-4.1-2.9-8.7c0-0.3-2.6-2.4-2.8-2.9c-4-8.5-8.5-14.7-13.1-21.8c-3.2,6-9.5-9.8-17.3-23.2c-1.5-2.4-17.8-27.1-16-29
		c3.5-3.5,9.4,17,11.6,14.5c-6.8-15.3-17.2-34.6-26.1-47.8c-6-9.1-6.3-12.2-10.1-21.7c-3.9-9.6-16.7-25.4-13.1-29
		c5.7-5.7,13.8,12.8,13.1,11.6c1.8,3.4,6.2,13.5,7.2,17.4c0.5,1.8,2.4,0.5,2.9,1.5c18.6,36.1,41.6,78.2,60.9,108.6
		c32.1,50.7,65.6,103.1,101.4,147.8c16.4,20.5,32.2,40.8,50.7,57.9c8,7.4,16.4,17.2,23.1,21.7c1.9,1.3,4.8-0.3,8.7,1.5
		c5.6,2.5,14.1,11.3,24.6,17.3c4,2.3,28.6,11.8,29,13.1c0.1,0.4-1.7,6.5-7.2,7.3C1581.5,1061.2,1571.5,1060.6,1566.6,1058.9z
		 M1546.4,979.1c-1,0-1.7-0.2-1.5-1.4c-6,1.4-0.3-4.3,0,0C1545.8,977.8,1546.6,977.9,1546.4,979.1
		C1548,979,1547.2,981.3,1546.4,979.1z M1555,1025.5c0.7,3.7-11.4-4.2-11.6-4.3c0.1,0.1-4.5-2-4.3-1.4
		C1538.2,1014.7,1555,1025.6,1555,1025.5z M1569.5,995.1c0.1,0.7,17.1,5.2,17.4,7.2C1587.3,1005.1,1569.8,998,1569.5,995.1z
		 M1582.5,1061.7c-0.7-0.7,2.5-1.8,2.9-1.4C1586.1,1061,1582.9,1062.1,1582.5,1061.7z M1584,1056c0.1,0.1,1.3-2.7,1.4-2.9
		C1591.3,1046.9,1589.3,1061.2,1584,1056z M1585.4,1048.7c-0.6-2.3,4.3-0.4,4.4,0C1589.9,1050.7,1585.8,1050.2,1585.4,1048.7z
		 M1621.7,886.5c-2.8,29.1-7,61.9-11.6,86.9c-0.4,2.5-3,18.8-4.3,18.8c-6.3,0.2-2.2-27.1-5.8-10.2c-1.8,8.5-3.1,6-5.8,10.2
		c-0.6,0.9-0.6,5.4-1.4,5.8c-6.2,2.4-18.4-10.1-24.6-14.5c-8.2-5.7-17.1-10.6-23.2-15.9c0,0.8-1.2,1.6-1.5,0
		c-28.8-17.7-51.4-45.7-73.9-73.9c-20.8-26.1-42.1-55.9-60.8-86.9c-26.2-43.4-55-93.9-81.2-140.5c-2.6-4.7-27.2-43.8-23.1-47.8
		c5.5-5.5,8.1,5.6,10.1,8.7c21.9,32.8,35.1,69.3,56.5,97.1c-14.4-26.2-28.4-53.3-43.5-81.1c-1.6-3-16-25.9-15.9-26.1
		c1.3-4.5,35.1-15,43.5-17.4c37.2-10.4,94.3-14.4,136.2-5.8c-1-2.3,6.8-2.3,5.8,0c5.2-1,5.2,2.5,0,1.5c30.8,11,59.3,28.1,76.8,50.7
		c8.6,11.1,24.7,31.4,27.6,43.4c0.8,3.5-2.3,5.7-1.5,8.7c2.9,10,13.4,22.8,15.9,33.3c0.8,3.2-0.5,6.6,0,10.2
		c2.8,20,10.5,42.6,10.2,63.8c-0.2,11.3-4.1,25.6-4.3,37.6C1621.2,858.9,1623.5,866.9,1621.7,886.5z M1710,763.3
		c2.4-6.6,4.8,6.8,2.9,8.7C1711.3,773.6,1707.9,769.3,1710,763.3z M1710,1070.4c-1.7-1.7,2.5-4.1,2.9-4.4
		C1721.1,1059.9,1712.9,1073.4,1710,1070.4z M1721.6,1063.2c0.6-1.7,3.1-1.6,2.9,0C1724.4,1064.1,1721,1064.9,1721.6,1063.2z
		 M1747.7,1027c-0.7-0.7,2.5-1.9,2.9-1.5C1751.2,1026.2,1748.1,1027.4,1747.7,1027z M1766.5,1013.9
		C1766.2,1018.3,1760.5,1012.5,1766.5,1013.9C1768,1007.9,1774.1,1013.9,1766.5,1013.9z M1773.8,1009.6c-0.8-0.7,2.5-1.9,2.8-1.4
		C1777.4,1008.8,1774.1,1010,1773.8,1009.6z M1776.6,1006.7c-0.7-0.7,3.7-2.2,4.4-1.4C1781.7,1006,1777.4,1007.4,1776.6,1006.7z
		 M1828.8,985c0.1-0.1,1.9-2.4,2.9-1.5C1834.3,986.2,1817.2,992.4,1828.8,985z M577.1,1470.3c0.1-0.3,0.3-0.7,0.7-1.2
		C578.4,1466.7,578.6,1465.8,577.1,1470.3z M713.3,270.1c-2.4-2.6-4.8-5.3-7.2-8C704,265.4,710.3,267.6,713.3,270.1z M1541.5,1136.6
		c-0.3-0.3-0.6-0.6-1-0.9C1540.8,1136.2,1541.2,1136.5,1541.5,1136.6z M700.3,12.9c0.1,0.1,1.4,0,3.3-0.1
		C701.4,12.7,700.1,12.8,700.3,12.9z M681.4,15.8C697.8,16.7,695.1,9.2,681.4,15.8L681.4,15.8z M681.4,15.8
		C672.2,14.1,678.3,20.2,681.4,15.8L681.4,15.8z M826.3,15.8c-0.4-0.4-3.6,0.8-2.9,1.4C823.8,17.7,827,16.5,826.3,15.8z M833.6,20.1
		C833.3,15.8,827.5,21.5,833.6,20.1L833.6,20.1z M833.6,20.1C833.9,24.5,839.6,18.8,833.6,20.1L833.6,20.1z M837.9,23
		C838.9,24,837.3,22.4,837.9,23L837.9,23z M843.7,25.9C843.1,25.3,844.6,26.9,843.7,25.9L843.7,25.9z M852.4,30.3
		C851.8,29.7,853.3,31.2,852.4,30.3L852.4,30.3z M855.3,31.7C856.2,32.7,854.7,31.1,855.3,31.7L855.3,31.7z M859.6,33.2
		C858.7,31.1,857.9,33.3,859.6,33.2L859.6,33.2z M862.5,34.6c0-1.4-1.7-1.1-2.9-1.5C859.7,34.6,861.4,34.3,862.5,34.6z M862.5,34.6
		C863.4,36.7,864.3,34.5,862.5,34.6L862.5,34.6z M553.9,56.4c1.9,0,3.9,0,5.8,0c0-0.5,0-1,0-1.5C557.5,55,554.2,54.2,553.9,56.4z
		 M548.2,57.8c2.3-0.2,5.5,0.7,5.8-1.5C551.6,56.5,548.4,55.7,548.2,57.8z M548.2,57.8c-8.2,0.4-13.3,4.1-18.8,7.2
		C537.5,64.6,542.9,61.2,548.2,57.8z M525,66.5c2.1,0.1,4.1,0.3,4.4-1.5C527.3,64.9,525.2,64.8,525,66.5z M525,66.5
		C519,65.1,524.7,70.8,525,66.5L525,66.5z M519.2,69.4C518.6,68.8,520.1,70.3,519.2,69.4L519.2,69.4z M494.6,83.9
		c-3.6-3.6-14,2.9-18.8,5.8C477.5,91.6,493.7,83.1,494.6,83.9z M475.7,89.7c-2-0.1-4.1-0.2-4.3,1.5
		C473.4,91.3,475.5,91.4,475.7,89.7z M471.4,91.1C463.7,89.6,469.7,95.5,471.4,91.1L471.4,91.1z M461.3,95.4
		C467.3,96.9,461.5,91.1,461.3,95.4L461.3,95.4z M461.3,95.4c-1.7-0.2-2.6,0.4-2.9,1.5C460,97.2,460.9,96.6,461.3,95.4z M458.3,96.9
		c-2.1-0.1-4.1-0.2-4.3,1.4C456.1,98.5,458.1,98.6,458.3,96.9z M975.5,104.2C974.6,102.1,973.8,104.3,975.5,104.2L975.5,104.2z
		 M975.5,104.2c-0.3,1.2,0.6,1.4,1.4,1.4C977.2,104.4,976.4,104.3,975.5,104.2z M977,105.6c-0.3,1.2,0.6,1.4,1.4,1.5
		C978.7,105.8,977.8,105.7,977,105.6z M978.4,107.1c-0.3,1.2,0.6,1.3,1.5,1.4C980.1,107.3,979.3,107.1,978.4,107.1z M979.9,108.5
		c-0.3,1.2,0.6,1.4,1.4,1.5C981.6,108.7,980.8,108.6,979.9,108.5z M981.3,110c-0.2,1.2,0.6,1.4,1.4,1.4
		C983,110.2,982.2,110,981.3,110z M982.8,111.4c-0.3,1.2,0.6,1.4,1.5,1.4C984.5,111.6,983.7,111.5,982.8,111.4z M984.2,112.9
		c-0.3,1.2,0.6,1.4,1.4,1.4C985.9,113.1,985.1,112.9,984.2,112.9z M404.8,115.8C406.9,114.9,404.6,114,404.8,115.8L404.8,115.8z
		 M1027.7,146.2C1026.8,144.1,1025.9,146.3,1027.7,146.2L1027.7,146.2z M1027.7,146.2C1028.5,148.3,1029.5,146,1027.7,146.2
		L1027.7,146.2z M309.1,154.8C315.5,155.1,309.5,149.2,309.1,154.8L309.1,154.8z M309.1,154.8c-6.7,1.1-9.6,5.9-13,10.2
		C301.6,162.8,305.5,159,309.1,154.8z M296.1,165c-2.5-0.5-2.7,1.1-2.9,2.9C294.5,167.2,295.8,166.6,296.1,165z M293.2,167.9
		C291.1,168.7,293.3,169.6,293.2,167.9L293.2,167.9z M286,173.7C286.9,174.6,285.3,173.1,286,173.7L286,173.7z M274.3,201.2
		C268.3,199.8,274.1,205.6,274.3,201.2L274.3,201.2z M565.6,202.7C567.1,208.7,573.2,202.7,565.6,202.7L565.6,202.7z M454,222.9
		c1.4,0,1.1-1.8,1.4-2.9C454,220.1,454.3,221.8,454,222.9z M454,222.9C448.2,226.2,454.3,232.4,454,222.9L454,222.9z M255.5,224.4
		c-9.1,5.1-21.4,14.1-30.4,23.2c-7.6,7.6,1.9,1.6,8.7-4.3c6.7-5.9,8.4-8.9,15.9-11.6C250.7,228.3,254.5,227.8,255.5,224.4z
		 M446.7,237.4C447.7,238.4,446.1,236.8,446.7,237.4L446.7,237.4z M441,251.9C445.3,251.6,439.6,245.9,441,251.9L441,251.9z
		 M439.5,254.8c1.4,0,1.1-1.8,1.5-2.9C439.6,252,439.8,253.7,439.5,254.8z M438.1,259.2c1.7-0.2,1.2-2.6,1.4-4.3
		C437.8,255.1,438.3,257.5,438.1,259.2z M436.6,262.1c1.4-0.1,1.1-1.8,1.4-2.9C436.6,259.2,436.9,260.9,436.6,262.1z M706.1,262.1
		c0.3-1.3-0.5-1.4-1.4-1.5C704.3,261.9,705.2,262,706.1,262.1z M436.6,262.1C432.3,262.4,438,268.1,436.6,262.1L436.6,262.1z
		 M433.7,269.3C438,269,432.3,263.3,433.7,269.3L433.7,269.3z M1111.7,270.8C1110.8,268.7,1110,270.9,1111.7,270.8L1111.7,270.8z
		 M438.1,272.2C440.2,271.3,437.9,270.5,438.1,272.2L438.1,272.2z M816.2,286.7c0.1-2.5-1.1-3.8-2.9-4.4
		C813.2,284.8,814.3,286.1,816.2,286.7z M817.6,288.1c0.2-1.2-0.6-1.3-1.5-1.4C815.9,287.9,816.7,288.1,817.6,288.1z M820.5,292.5
		c0.1-2.5-1.1-3.8-2.9-4.4C817.6,290.6,818.7,291.9,820.5,292.5z M601.8,292.5c0.2-1.2-0.6-1.4-1.5-1.5
		C600,292.3,600.9,292.4,601.8,292.5z M601.8,292.5C602.6,294.6,603.5,292.3,601.8,292.5L601.8,292.5z M820.5,292.5
		C821.4,294.6,822.3,292.3,820.5,292.5L820.5,292.5z M630.7,312.8C628.6,313.7,630.9,314.5,630.7,312.8L630.7,312.8z M429.4,328.7
		C433.7,328.4,428,322.7,429.4,328.7L429.4,328.7z M427.9,350.4c-3.7,3.5-4,11-5.8,17.4c-0.9,3.3-3.6,16.4-1.5,7.2
		C421.6,371.2,432.6,345.8,427.9,350.4z M136.7,406.9c2.2-4.3,16.7-27.4,15.9-31.9c-0.5-2.8-11.6,17.1-15.9,24.6
		C138.6,399.1,131.2,418,136.7,406.9z M417.8,382.3c-2.9,2.9-3.6,12.7-4.3,15.9C410.2,412.2,420.1,380,417.8,382.3z M994.4,386.6
		c0.2-1.7-0.3-2.6-1.5-2.9C992.7,385.5,993.3,386.4,994.4,386.6z M997.3,391c0-2.5-1.1-3.8-2.9-4.4
		C994.3,389.1,995.5,390.4,997.3,391z M848.1,646c-44.2-91.5-94.2-177.2-150.7-256.4c9.8,23,27.4,41.4,40.6,62.3
		C776.7,513.3,809.7,581.4,848.1,646z M998.7,393.9c0.3-1.7-0.3-2.6-1.4-2.9C997,392.7,997.6,393.6,998.7,393.9z M1000.2,396.8
		c0.2-1.7-0.3-2.6-1.5-2.9C998.5,395.6,999,396.4,1000.2,396.8z M1000.2,396.8C1001.1,398.9,1001.9,396.6,1000.2,396.8L1000.2,396.8
		z M1003,401.2C1002.2,399,1001.3,401.3,1003,401.2L1003,401.2z M1004.5,404c0.2-1.7-0.3-2.6-1.4-2.9
		C1002.8,402.8,1003.4,403.7,1004.5,404z M1004.5,404C1005.4,406.1,1006.3,403.9,1004.5,404L1004.5,404z M1005.9,408.4
		C1006.9,409.3,1005.3,407.8,1005.9,408.4L1005.9,408.4z M1008.8,411.3C1007.9,409.2,1007.1,411.4,1008.8,411.3L1008.8,411.3z
		 M1010.3,414.2c0.3-1.7-0.3-2.6-1.4-2.9C1008.6,413,1009.2,413.8,1010.3,414.2z M1011.7,417.1c0.2-1.7-0.3-2.6-1.5-2.9
		C1010,415.9,1010.6,416.8,1011.7,417.1z M1011.7,417.1C1012.6,419.2,1013.5,416.9,1011.7,417.1L1011.7,417.1z M1013.2,421.4
		C1012.6,420.8,1014.1,422.4,1013.2,421.4L1013.2,421.4z M154.1,422.9C152,423.7,154.3,424.6,154.1,422.9L154.1,422.9z M102,428.7
		C106.3,428.3,100.6,422.6,102,428.7L102,428.7z M102,428.7c-1.4,0-1.1,1.8-1.4,2.9C101.9,431.5,101.6,429.8,102,428.7z
		 M100.5,431.6c-1.7,0.2-1.2,2.6-1.5,4.3C100.8,435.7,100.3,433.2,100.5,431.6z M194.7,434.5C185.5,441.4,191.5,450.9,194.7,434.5
		L194.7,434.5z M99,435.9c-1.7,0.2-1.2,2.7-1.4,4.3C99.3,440,98.8,437.6,99,435.9z M1021.9,437.4
		C1021.3,436.8,1022.8,438.3,1021.9,437.4L1021.9,437.4z M1023.3,440.2C1024.3,441.2,1022.7,439.6,1023.3,440.2L1023.3,440.2z
		 M97.6,440.2C95.5,441.1,97.8,442,97.6,440.2L97.6,440.2z M839.3,441.7c0,0.5,0,1,0,1.4c0.5,0,1,0,1.5,0
		C841.1,441.9,840.2,441.8,839.3,441.7z M1027.7,446.1C1026.8,443.9,1025.9,446.2,1027.7,446.1L1027.7,446.1z M1027.7,446.1
		C1028.5,448.2,1029.5,445.9,1027.7,446.1L1027.7,446.1z M123.7,450.4C128,450.1,122.3,444.4,123.7,450.4L123.7,450.4z
		 M1029.1,450.4C1030.1,451.3,1028.5,449.8,1029.1,450.4L1029.1,450.4z M123.7,450.4C121.6,451.3,123.8,452.2,123.7,450.4
		L123.7,450.4z M1030.6,453.3C1031.5,454.2,1030,452.7,1030.6,453.3L1030.6,453.3z M1033.5,456.2
		C1032.6,454.1,1031.7,456.3,1033.5,456.2L1033.5,456.2z M1034.9,459.1c0.3-1.7-0.3-2.6-1.4-2.9
		C1033.2,457.9,1033.8,458.8,1034.9,459.1z M1036.4,462c0.2-1.7-0.3-2.6-1.5-2.9C1034.7,460.8,1035.2,461.7,1036.4,462z M119.4,462
		C121.5,461.1,119.2,460.3,119.4,462L119.4,462z M1036.4,462C1035,468,1040.7,462.3,1036.4,462L1036.4,462z M1039.3,467.8
		C1038.4,465.7,1037.5,467.9,1039.3,467.8L1039.3,467.8z M1040.7,470.7c0.2-1.7-0.3-2.6-1.5-2.9
		C1039,469.5,1039.6,470.3,1040.7,470.7z M1042.1,473.6c0.3-1.7-0.3-2.6-1.4-2.9C1040.5,472.3,1041,473.3,1042.1,473.6z
		 M1043.6,476.5c0.3-1.7-0.3-2.6-1.5-2.9C1041.9,475.3,1042.5,476.1,1043.6,476.5z M1046.5,480.8c0.1-2.5-1.1-3.8-2.9-4.4
		C1043.5,478.9,1044.7,480.2,1046.5,480.8z M1048,483.7c0.2-1.7-0.4-2.6-1.5-2.9C1046.3,482.5,1046.8,483.4,1048,483.7z
		 M141.1,483.7C136.7,484,142.5,489.7,141.1,483.7L141.1,483.7z M1049.4,486.6c0.2-1.7-0.3-2.6-1.4-2.9
		C1047.7,485.4,1048.3,486.3,1049.4,486.6z M843.7,489.5c0.3-1.7-0.3-2.6-1.4-2.9C842,488.3,842.5,489.2,843.7,489.5z M1050.8,489.5
		c0.3-1.7-0.3-2.6-1.4-2.9C1049.2,488.3,1049.7,489.2,1050.8,489.5z M845.1,492.4c0.3-1.7-0.3-2.6-1.4-2.9
		C843.5,491.2,844,492.1,845.1,492.4z M1050.8,489.5c3.2,8,6,16.3,11.6,21.8C1059.3,503.3,1056.4,495,1050.8,489.5z M1956.3,492.4
		c-2.2,6,1.2,11.8,1.4,14.4C1961.4,545.7,1958.7,485.8,1956.3,492.4z M846.6,495.3c0.2-1.7-0.3-2.6-1.5-2.9
		C844.9,494.1,845.5,495,846.6,495.3z M846.6,495.3C847.5,497.4,848.3,495.1,846.6,495.3L846.6,495.3z M848.1,499.6
		C847.4,499.1,849,500.6,848.1,499.6L848.1,499.6z M868.3,499.6C869.3,500.6,867.7,499.1,868.3,499.6L868.3,499.6z M275.8,501.1
		C277.9,500.2,275.7,499.3,275.8,501.1L275.8,501.1z M275.8,501.1C270.5,507.5,279.8,506.6,275.8,501.1L275.8,501.1z M871.2,502.6
		C870.3,500.4,869.5,502.7,871.2,502.6L871.2,502.6z M1372.5,502.6C1383.3,504.3,1377.1,498.1,1372.5,502.6L1372.5,502.6z
		 M135.3,504C136.3,504.9,134.7,503.4,135.3,504L135.3,504z M851,502.6c-0.1,0.1,0,1.2,0,1.4C851,513.4,855.2,498.3,851,502.6z
		 M871.2,502.6c-0.2,1.7,0.3,2.5,1.5,2.9C872.9,503.7,872.4,502.9,871.2,502.6z M1372.5,502.6C1363.2,500.9,1369.3,507,1372.5,502.6
		L1372.5,502.6z M1988.2,548.9c-0.9-16.8-6.7-45.4-7.3-44.9c-1.8,1.8,2.4,16.9,2,12.6c-0.2-1.3-0.3-2.7-0.6-3.9
		c0.4,2,0.5,3.2,0.6,3.9c4,25.4,3.4,60.4,2.3,84.5c-0.4,8-1.1,31.1-4.4,43.4c-2.8,10.7,1.7,2.3,2.9-2.9
		C1989.8,614.3,1989.6,577.1,1988.2,548.9z M872.7,505.5c-0.3,1.7,0.3,2.6,1.4,2.9C874.4,506.7,873.8,505.8,872.7,505.5z
		 M272.9,509.8c-2,2.9-2.3,9.2-2.9,13c-0.7,4.5-0.9,22.2,1.5,10.1C272.6,526.8,276.3,505,272.9,509.8z M855.3,509.8
		C854.4,507.7,853.5,509.9,855.3,509.8L855.3,509.8z M855.3,509.8c-0.2,1.7,0.3,2.6,1.4,2.9C857,511,856.4,510.1,855.3,509.8z
		 M1063.9,514.2c0.2-1.7-0.3-2.6-1.5-2.9C1062.2,512.9,1062.8,513.8,1063.9,514.2z M856.7,512.7
		C857.6,514.8,858.5,512.6,856.7,512.7L856.7,512.7z M1065.3,517c0.2-1.7-0.3-2.6-1.4-2.8C1063.6,515.8,1064.2,516.7,1065.3,517z
		 M1066.8,520c0.2-1.7-0.3-2.6-1.5-3C1065.1,518.7,1065.6,519.6,1066.8,520z M1068.3,521.4c0.2-1.2-0.6-1.4-1.5-1.4
		C1066.5,521.2,1067.3,521.3,1068.3,521.4z M1068.3,521.4C1066.9,527.4,1072.6,521.7,1068.3,521.4L1068.3,521.4z M868.3,601.1
		c-6.8-12.8-10.3-22.6-15.9-33.3c-9.1-17.5-16.9-35.9-23.2-42c-1-0.9-3.8-2-4.3,0c-0.2,0.8,9.5,17.8,11.6,21.7
		c4.7,8.7,7.4,13.8,11.6,21.7c4.9,9.5,11.5,23.7,17.4,33.3c2.1,3.5,13.5,14.1,7.2,2.9C863.7,589.6,873.2,610.2,868.3,601.1z
		 M128.1,530.1C130.2,529.2,127.9,528.3,128.1,530.1L128.1,530.1z M128.1,530.1C125.9,531,128.2,531.8,128.1,530.1L128.1,530.1z
		 M1959.2,557.6c0.3-1-0.5-10.7-1.5-7.2C1956.1,556.4,1958.7,559.3,1959.2,557.6z M1975.1,553.2c-1.3,7.4,2.4,6.3,2.9,5.8
		C1978.3,558.8,1976.1,547.4,1975.1,553.2z M977,556.2C977.9,557.1,976.4,555.5,977,556.2L977,556.2z M1087.1,557.6
		C1088.5,551.6,1082.7,557.3,1087.1,557.6L1087.1,557.6z M978.4,559C979.4,560,977.8,558.4,978.4,559L978.4,559z M1087.1,557.6
		C1088,559.7,1088.8,557.5,1087.1,557.6L1087.1,557.6z M979.9,561.9C980.8,562.9,979.3,561.3,979.9,561.9L979.9,561.9z
		 M1089.9,564.9C1090.9,565.8,1089.4,564.2,1089.9,564.9L1089.9,564.9z M1953.4,564.9C1954.3,565.8,1952.8,564.2,1953.4,564.9
		L1953.4,564.9z M1956.3,564.9C1957.2,565.8,1955.7,564.2,1956.3,564.9L1956.3,564.9z M1975.1,577.9c-3.8,3.9-1.1,17-1.5,26.1
		c-0.2,4.6-5.9,15.6,0,20.3c-1.3-1,1.5-4.6,1.5-4.4C1975.5,615.4,1977,575.9,1975.1,577.9z M1954.8,595.3c1.1-3.7-1.5-14.2-1.4-14.5
		C1951.2,588.4,1954.8,595.2,1954.8,595.3z M869.8,583.7C870.7,584.6,869.2,583.1,869.8,583.7L869.8,583.7z M374.3,595.3
		c-0.4,0.5,0.1,2.3,0,2.9c-1,8.5-4.7,33-5.8,46.4c-0.3,3.4-0.7,23.1,1.4,21.7c1.8-1.1,3.1-22.9,4.3-34.7
		C376.1,615.1,378,590.2,374.3,595.3z M1497.1,595.3c0-0.5,0-1,0-1.5c-1.9,0-3.9,0-5.8,0C1491.7,595.8,1494.9,595,1497.1,595.3z
		 M1107.4,596.7C1108.3,597.7,1106.8,596.1,1107.4,596.7L1107.4,596.7z M1953.4,599.6c-2.2,2.7-4.8,44.6-1.4,27.5
		C1952.5,624.1,1957,595,1953.4,599.6z M1715.8,601.1C1715.2,600.4,1716.7,602,1715.8,601.1L1715.8,601.1z M1718.7,605.4
		C1720.1,599.4,1714.3,605.1,1718.7,605.4L1718.7,605.4z M1718.7,605.4C1717.3,611.4,1723.1,605.7,1718.7,605.4L1718.7,605.4z
		 M73,611.2C72.4,610.6,74,612.2,73,611.2L73,611.2z M1721.6,619.9c4.4,10.5,15.2,46,18.8,62.3c-0.3-1.4,5.3,19,4.3,5.8
		c-0.9-13.8-16.6-65.3-20.3-71c-0.8-1.3-3.7-1.6-4.3,0C1719.8,617.9,1721.3,619.3,1721.6,619.9z M31,622.8
		C29.8,631.4,31.8,617,31,622.8L31,622.8z M1970.8,627.1c-0.7,0.7,0.2,4.8,0,5.8c-1.2,6.7-4,25.3-4.4,29c-0.3,2.7-1.9,16.9,0,5.8
		C1967.3,662.8,1974.4,623.6,1970.8,627.1z M29.5,646c0.2-1-0.5-8.5-1.4-4.3C26.8,647.1,28.8,648.9,29.5,646z M848.1,646
		c-0.5,4.9,2.5,6.2,4.3,8.7C852.5,650.3,851.1,647.3,848.1,646z M25.2,680.8c0.7-7,2.5-32.1,1.5-30.4c-3.1,5.1-1.7,21-2.9,31.9
		c-13,119.4-16.9,249.9-2.9,368c3,25.1,10.6,78.5,17.4,107.2c6.6,28,1.7,3.8-1.4-14.5C12.2,998.8,9.3,835.5,25.2,680.8z M38.2,677.8
		c0.2-0.7-0.5-9.6-1.4-5.8C35.4,677.5,37.8,679.4,38.2,677.8z M36.8,682.2C38.9,681.3,36.6,680.4,36.8,682.2L36.8,682.2z
		 M36.8,682.2C32.5,692.6,38.4,698.8,36.8,682.2L36.8,682.2z M35.3,705.4c0.2-0.7-0.5-9.6-1.5-5.8C32.5,705,34.9,706.9,35.3,705.4z
		 M1747.7,730c0.4,2.8,0.6,11.5,1.4,7.3c0.8-4-2.3-30.4-4.3-24.7C1743.7,715.8,1747.9,731.7,1747.7,730z M33.9,721.3
		c0.2-0.7-0.5-9.6-1.4-5.8C31.1,720.9,33.5,722.8,33.9,721.3z M992.9,715.5C992,713.4,991.2,715.7,992.9,715.5L992.9,715.5z
		 M992.9,715.5C993.8,717.6,994.6,715.4,992.9,715.5L992.9,715.5z M994.4,721.3C995.3,722.2,993.8,720.7,994.4,721.3L994.4,721.3z
		 M1960.6,722.7C1965,722.5,1959.2,716.7,1960.6,722.7L1960.6,722.7z M1960.6,722.7C1955.6,727.8,1959.5,743.2,1960.6,722.7
		L1960.6,722.7z M1371,724.2C1371.9,726.3,1372.8,724,1371,724.2L1371,724.2z M31,730C31.9,730.9,30.4,729.4,31,730L31,730z
		 M31,732.9C29.8,741.4,31.8,727.1,31,732.9L31,732.9z M997.3,740.1C995.1,741,997.4,741.9,997.3,740.1L997.3,740.1z M1313.1,750.3
		c0.2-1.7-0.3-2.6-1.5-2.9C1311.4,749.1,1311.9,750,1313.1,750.3z M1314.5,753.2c0.2-1.7-0.3-2.6-1.4-2.9
		C1312.8,752,1313.4,752.9,1314.5,753.2z M1314.5,753.2c1.8,5.9,4.7,10.8,8.7,14.5C1321.6,761.6,1318.8,756.7,1314.5,753.2z
		 M1324.7,770.6c0.2-1.7-0.3-2.6-1.5-2.9C1322.9,769.3,1323.6,770.2,1324.7,770.6z M1749.1,769.1c0.4,1,3.1,2.1,2.9,0
		C1752,769.1,1748.5,767.1,1749.1,769.1z M1329,777.8c-0.5-3.4-1.5-6.3-4.3-7.2C1325.1,773.9,1326.1,776.8,1329,777.8z
		 M1330.5,780.7c0.2-1.7-0.4-2.6-1.5-2.9C1328.8,779.5,1329.3,780.4,1330.5,780.7z M1330.5,780.7c-0.1,2.5,1,3.8,2.9,4.3
		C1333.4,782.6,1332.3,781.3,1330.5,780.7z M1427.5,818.4C1426.6,816.3,1425.7,818.5,1427.5,818.4L1427.5,818.4z M1427.5,818.4
		c-0.1,2.5,1.1,3.8,3,4.3C1430.5,820.2,1429.3,819,1427.5,818.4z M1430.5,822.7c-0.3,1.7,0.3,2.6,1.4,2.9
		C1432.1,823.9,1431.5,823,1430.5,822.7z M1431.8,825.6c-0.3,1.2,0.6,1.4,1.5,1.5C1433.6,825.8,1432.7,825.7,1431.8,825.6z
		 M1433.3,827.1c-0.3,1.7,0.3,2.6,1.4,2.9C1435,828.3,1434.4,827.3,1433.3,827.1z M25.2,829.9C23.9,838.5,26,824.1,25.2,829.9
		L25.2,829.9z M1434.8,829.9c-0.3,1.2,0.6,1.4,1.4,1.5C1436.4,830.2,1435.7,830,1434.8,829.9z M1436.2,831.4
		C1437.1,833.5,1437.9,831.3,1436.2,831.4L1436.2,831.4z M25.2,835.7C26.2,836.7,24.6,835.1,25.2,835.7L25.2,835.7z M26.7,841.5
		c0.4-2-0.9-5.7-1.5-2.9C24.8,840.6,26.1,844.3,26.7,841.5z M1914.3,840.1C1915.2,841,1913.7,839.5,1914.3,840.1L1914.3,840.1z
		 M1912.8,844.4C1913.8,845.4,1912.2,843.8,1912.8,844.4L1912.8,844.4z M1450.7,853.1C1449.8,851,1448.9,853.3,1450.7,853.1
		L1450.7,853.1z M1450.7,853.1c-0.2,1.7,0.4,2.6,1.5,2.9C1452.4,854.4,1451.8,853.5,1450.7,853.1z M1452.1,856
		c-0.3,1.3,0.6,1.4,1.4,1.5C1453.9,856.2,1453,856.1,1452.1,856z M1453.6,857.5c0,2.5,1.1,3.7,2.9,4.3
		C1456.5,859.4,1455.4,858,1453.6,857.5z M1456.5,861.8c-0.1,2.5,1.1,3.8,2.9,4.3C1459.4,863.7,1458.3,862.4,1456.5,861.8z
		 M1459.4,866.1c0,2.5,1.1,3.8,2.9,4.4C1462.3,868,1461.2,866.8,1459.4,866.1z M1462.3,870.5c-0.3,1.2,0.5,1.4,1.4,1.5
		C1464,870.7,1463.2,870.6,1462.3,870.5z M1463.7,872c-0.2,1.7,0.4,2.6,1.5,2.9C1465.4,873.2,1464.8,872.3,1463.7,872z
		 M1465.2,874.8c-0.3,1.2,0.6,1.4,1.5,1.5C1466.9,875.1,1466.1,874.9,1465.2,874.8z M1466.6,876.3c-0.1,2.5,1,3.8,2.9,4.3
		C1469.6,878.2,1468.5,876.9,1466.6,876.3z M1469.5,880.7c-0.3,1.2,0.6,1.4,1.4,1.5C1471.2,880.9,1470.4,880.7,1469.5,880.7z
		 M1471,882.1c0,2.5,1.1,3.7,2.9,4.3C1473.9,884,1472.8,882.7,1471,882.1z M1085.7,885C1085,884.4,1086.6,885.9,1085.7,885
		L1085.7,885z M1473.9,886.5c-0.1,2.5,1.1,3.8,2.9,4.4C1476.8,888.3,1475.7,887.1,1473.9,886.5z M1476.7,890.8
		c-0.2,1.2,0.6,1.3,1.5,1.4C1478.5,891.1,1477.7,890.9,1476.7,890.8z M1478.2,892.3c-0.2,1.2,0.6,1.3,1.4,1.4
		C1479.9,892.5,1479.1,892.3,1478.2,892.3z M1091.4,895.1C1092.4,896.1,1090.8,894.5,1091.4,895.1L1091.4,895.1z M1479.7,893.7
		c-0.1,2.5,1.1,3.8,2.9,4.3C1482.6,895.6,1481.5,894.3,1479.7,893.7z M1482.6,898c-0.3,1.2,0.5,1.4,1.4,1.5
		C1484.3,898.3,1483.4,898.2,1482.6,898z M1484,899.5c-0.2,3.6,2.3,4.5,4.4,5.8C1488.6,901.7,1486.1,900.7,1484,899.5z
		 M1171.1,903.8C1170.2,901.7,1169.4,904,1171.1,903.8L1171.1,903.8z M1171.1,903.8C1169.7,909.9,1175.4,904.1,1171.1,903.8
		L1171.1,903.8z M1488.3,905.3c-0.2,3.6,2.3,4.5,4.4,5.8C1492.9,907.5,1490.5,906.5,1488.3,905.3z M1100.1,908.2
		C1099.2,906.1,1098.3,908.3,1100.1,908.2L1100.1,908.2z M1100.1,908.2c-0.3,1.7,0.3,2.6,1.4,2.9
		C1101.8,909.4,1101.2,908.5,1100.1,908.2z M1101.5,911.1C1102.5,913.2,1103.3,910.9,1101.5,911.1L1101.5,911.1z M1492.7,911.1
		c-0.3,1.2,0.6,1.3,1.4,1.4C1494.4,911.3,1493.6,911.1,1492.7,911.1z M1494.1,912.5c-0.2,1.2,0.6,1.3,1.5,1.5
		C1495.9,912.8,1495,912.6,1494.1,912.5z M1104.4,915.4C1103.6,913.3,1102.7,915.6,1104.4,915.4L1104.4,915.4z M1178.3,916.9
		C1179.7,910.9,1174,916.6,1178.3,916.9L1178.3,916.9z M1495.6,914c-0.3,3.6,2.2,4.5,4.3,5.8C1500.2,916.1,1497.7,915.3,1495.6,914z
		 M1104.4,915.4c-0.3,1.7,0.3,2.5,1.5,2.9C1106.2,916.6,1105.6,915.8,1104.4,915.4z M1178.3,916.9c-0.3,1.2,0.6,1.3,1.5,1.4
		C1180.1,917.1,1179.2,916.9,1178.3,916.9z M1105.9,918.3C1106.8,920.4,1107.7,918.2,1105.9,918.3L1105.9,918.3z M1179.8,918.3
		c-0.3,1.7,0.3,2.6,1.5,2.9C1181.5,919.5,1180.9,918.6,1179.8,918.3z M1500,919.8c-0.3,1.2,0.5,1.4,1.4,1.5
		C1501.7,920,1500.8,919.8,1500,919.8z M1108.8,922.7C1107.9,920.6,1107.1,922.8,1108.8,922.7L1108.8,922.7z M1181.3,921.2
		C1182.1,923.3,1183,921.1,1181.3,921.2L1181.3,921.2z M1501.4,921.2c-0.2,3.6,2.2,4.5,4.4,5.8
		C1506,923.4,1503.5,922.5,1501.4,921.2z M1108.8,922.7c-0.3,1.6,0.3,2.5,1.4,2.9C1110.5,923.9,1109.9,923,1108.8,922.7z
		 M1182.7,925.6C1182.1,925,1183.6,926.5,1182.7,925.6L1182.7,925.6z M1110.2,925.6C1111.1,927.7,1112,925.4,1110.2,925.6
		L1110.2,925.6z M1434.8,927C1433.9,924.9,1433,927.1,1434.8,927L1434.8,927z M1434.8,927C1435.7,929.1,1436.5,926.8,1434.8,927
		L1434.8,927z M1505.7,927c-0.3,1.2,0.5,1.4,1.5,1.4C1507.5,927.2,1506.6,927.1,1505.7,927z M1507.2,928.5c-0.3,1.2,0.6,1.4,1.4,1.4
		C1508.9,928.7,1508.1,928.6,1507.2,928.5z M1508.6,929.9c-0.3,1.2,0.5,1.4,1.5,1.5C1510.3,930.1,1509.6,930,1508.6,929.9z
		 M1114.6,932.8C1113.7,930.7,1112.8,933,1114.6,932.8L1114.6,932.8z M1510.1,931.4c-0.2,1.2,0.6,1.3,1.4,1.4
		C1511.8,931.6,1511,931.4,1510.1,931.4z M1114.6,932.8C1115.5,934.9,1116.3,932.7,1114.6,932.8L1114.6,932.8z M1511.5,932.8
		c-0.2,1.2,0.6,1.4,1.5,1.4C1513.3,933,1512.4,932.9,1511.5,932.8z M1513,934.3c0.9,5.3,5.3,7.2,8.7,10.2
		C1520.7,939.1,1516.3,937.2,1513,934.3z M1116.1,937.2C1117,938.1,1115.4,936.5,1116.1,937.2L1116.1,937.2z M1189.9,937.2
		C1190.9,938.1,1189.3,936.5,1189.9,937.2L1189.9,937.2z M1192.8,940C1191.9,938,1191.1,940.2,1192.8,940L1192.8,940z M1863.6,942.9
		C1869.7,941.4,1863.6,935.4,1863.6,942.9L1863.6,942.9z M1192.8,940c-0.3,1.7,0.3,2.6,1.4,2.9
		C1194.5,941.3,1193.9,940.3,1192.8,940z M1194.3,942.9C1195.2,945.1,1196.1,942.8,1194.3,942.9L1194.3,942.9z M1862.1,945.9
		c1.4-0.1,1.1-1.8,1.4-2.9C1862.2,943,1862.4,944.7,1862.1,945.9z M1521.7,944.4c-0.2,1.2,0.6,1.3,1.5,1.4
		C1523.4,944.6,1522.6,944.5,1521.7,944.4z M1123.3,947.3C1122.4,945.2,1121.6,947.4,1123.3,947.3L1123.3,947.3z M1523.1,945.9
		c-0.3,1.2,0.6,1.4,1.5,1.4C1524.8,946.1,1524,945.9,1523.1,945.9z M1859.2,950.2c1.8-0.6,3-1.8,2.9-4.3
		C1860.4,946.5,1859.1,947.7,1859.2,950.2z M1123.3,947.3c-0.3,1.7,0.3,2.5,1.4,2.9C1124.9,948.5,1124.4,947.6,1123.3,947.3z
		 M1524.6,947.3c-0.3,1.2,0.5,1.4,1.4,1.4C1526.3,947.5,1525.5,947.4,1524.6,947.3z M1197.2,950.2
		C1198.1,951.2,1196.6,949.5,1197.2,950.2L1197.2,950.2z M1526.1,948.7c-0.3,1.2,0.5,1.4,1.4,1.5
		C1527.7,949,1526.9,948.8,1526.1,948.7z M1124.7,950.2C1125.7,952.3,1126.5,950,1124.7,950.2L1124.7,950.2z M1527.5,950.2
		c-0.2,1.2,0.6,1.4,1.4,1.4C1529.2,950.4,1528.3,950.3,1527.5,950.2z M1856.3,954.6c1.8-0.7,3-1.9,2.9-4.4
		C1857.4,950.8,1856.3,952,1856.3,954.6z M1528.9,951.6c-0.2,1.3,0.6,1.4,1.5,1.5C1530.6,951.9,1529.8,951.7,1528.9,951.6z
		 M1126.2,954.6C1125.6,953.9,1127.2,955.5,1126.2,954.6L1126.2,954.6z M1201.5,954.6C1200.6,952.4,1199.7,954.7,1201.5,954.6
		L1201.5,954.6z M1530.4,953.1c-0.3,1.2,0.6,1.4,1.4,1.5C1532.1,953.3,1531.3,953.1,1530.4,953.1z M1531.8,954.6
		c-0.2,1.2,0.6,1.4,1.5,1.4C1533.5,954.7,1532.7,954.6,1531.8,954.6z M1129.1,957.4C1128.2,955.3,1127.3,957.6,1129.1,957.4
		L1129.1,957.4z M1533.3,955.9C1534.1,958.1,1535,955.9,1533.3,955.9L1533.3,955.9z M1129.1,957.4c-0.1,2.5,1.1,3.8,2.9,4.3
		C1132,959.3,1130.9,958,1129.1,957.4z M1537.6,960.3C1536.7,958.2,1535.9,960.5,1537.6,960.3L1537.6,960.3z M1537.6,960.3
		c-0.3,1.2,0.6,1.4,1.5,1.4C1539.4,960.6,1538.5,960.4,1537.6,960.3z M1132,961.8C1132.9,963.9,1133.7,961.7,1132,961.8L1132,961.8z
		 M1450.7,961.8c-0.2,1.2,0.6,1.4,1.5,1.5C1452.4,962,1451.6,961.9,1450.7,961.8z M1539.1,961.8c-0.3,1.2,0.5,1.4,1.4,1.5
		C1540.8,962,1539.9,961.9,1539.1,961.8z M1540.5,963.2c-0.2,1.2,0.6,1.4,1.5,1.5C1542.2,963.4,1541.4,963.3,1540.5,963.2z
		 M1542,964.7c-0.3,1.2,0.5,1.4,1.4,1.4C1543.7,964.9,1542.8,964.8,1542,964.7z M1543.4,966.1c0,0.5,0,1,0,1.5c0.5,0,1,0,1.5,0
		C1545.1,966.4,1544.3,966.2,1543.4,966.1z M1852,970.5C1858,969,1852,962.9,1852,970.5L1852,970.5z M1136.3,969.1
		C1135.4,966.9,1134.6,969.2,1136.3,969.1L1136.3,969.1z M1468.1,969.1C1467.2,966.9,1466.3,969.2,1468.1,969.1L1468.1,969.1z
		 M1136.3,969.1c-0.2,1.6,0.3,2.5,1.4,2.9C1138,970.2,1137.5,969.3,1136.3,969.1z M1468.1,969.1c-0.2,1.2,0.6,1.3,1.5,1.4
		C1469.8,969.2,1468.9,969.1,1468.1,969.1z M1469.5,970.5C1470.4,972.6,1471.3,970.3,1469.5,970.5L1469.5,970.5z M1852,970.5
		C1849.9,971.3,1852.1,972.2,1852,970.5L1852,970.5z M1137.8,971.9c-0.3,1.2,0.6,1.4,1.4,1.5C1139.5,972.2,1138.7,972,1137.8,971.9z
		 M1139.2,973.4c-0.2,1.6,0.3,2.5,1.5,2.9C1140.9,974.6,1140.3,973.7,1139.2,973.4z M1849.1,974.8
		C1851.2,973.9,1848.9,973.1,1849.1,974.8L1849.1,974.8z M1846.2,979.1c1.8-0.6,3-1.8,2.9-4.3
		C1847.3,975.5,1846.1,976.7,1846.2,979.1z M1140.7,976.3C1141.6,978.4,1142.4,976.1,1140.7,976.3L1140.7,976.3z M1476.7,979.1
		C1475.9,977.1,1475,979.3,1476.7,979.1L1476.7,979.1z M1143.6,980.6C1142.7,978.5,1141.8,980.8,1143.6,980.6L1143.6,980.6z
		 M1476.7,979.1c-0.2,1.2,0.6,1.4,1.5,1.5C1478.5,979.4,1477.7,979.2,1476.7,979.1z M1844.7,980.6c1.3,0.3,1.4-0.6,1.5-1.5
		C1845,978.9,1844.8,979.7,1844.7,980.6z M1143.6,980.6C1144.4,982.7,1145.3,980.5,1143.6,980.6L1143.6,980.6z M1478.2,980.6
		c-0.2,1.2,0.6,1.4,1.4,1.4C1479.9,980.8,1479.1,980.7,1478.2,980.6z M1844.7,980.6C1842.6,981.5,1844.9,982.4,1844.7,980.6
		L1844.7,980.6z M1479.7,982c-0.3,1.3,0.6,1.4,1.5,1.5C1481.4,982.3,1480.5,982.1,1479.7,982z M1146.5,985
		C1145.6,982.8,1144.7,985.1,1146.5,985L1146.5,985z M1481.1,983.5c-0.3,1.3,0.5,1.4,1.4,1.5C1482.8,983.7,1482,983.6,1481.1,983.5z
		 M1756.4,986.4C1760.7,986.1,1755,980.4,1756.4,986.4L1756.4,986.4z M1841.9,985C1843.9,984.1,1841.7,983.2,1841.9,985L1841.9,985z
		 M1146.5,985c-0.2,1.7,0.3,2.5,1.5,2.9C1148.1,986.2,1147.6,985.3,1146.5,985z M1482.6,985c-0.3,1.2,0.5,1.4,1.4,1.4
		C1484.3,985.2,1483.4,985.1,1482.6,985z M1840.4,986.4c1.2,0.3,1.4-0.6,1.5-1.4C1840.6,984.7,1840.5,985.5,1840.4,986.4z
		 M1484,986.4c-0.3,1.3,0.6,1.4,1.5,1.4C1485.7,986.6,1484.9,986.5,1484,986.4z M1840.4,986.4C1834.3,987.9,1840.4,994,1840.4,986.4
		L1840.4,986.4z M1147.9,987.8C1148.8,989.9,1149.7,987.7,1147.9,987.8L1147.9,987.8z M1485.5,987.8c-0.3,1.2,0.6,1.4,1.4,1.4
		C1487.2,988.1,1486.4,987.9,1485.5,987.8z M1486.9,989.3c-0.3,1.2,0.5,1.4,1.4,1.4C1488.6,989.6,1487.8,989.4,1486.9,989.3z
		 M1150.8,992.2C1149.9,990.1,1149.1,992.4,1150.8,992.2L1150.8,992.2z M1488.3,990.7c-0.2,1.2,0.6,1.4,1.5,1.5
		C1490.1,991,1489.2,990.8,1488.3,990.7z M1150.8,992.2c-0.2,1.7,0.3,2.6,1.5,2.9C1152.5,993.4,1152,992.5,1150.8,992.2z
		 M1489.8,992.2c-0.3,1.2,0.6,1.4,1.4,1.4C1491.5,992.4,1490.7,992.3,1489.8,992.2z M1491.2,993.6c-0.3,1.2,0.6,1.4,1.5,1.4
		C1492.9,993.9,1492.2,993.7,1491.2,993.6z M1838.9,995.1C1841.1,994.2,1838.8,993.3,1838.9,995.1L1838.9,995.1z M1152.3,995.1
		C1153.2,997.2,1154,995,1152.3,995.1L1152.3,995.1z M1492.7,995.1C1493.6,997.2,1494.4,995,1492.7,995.1L1492.7,995.1z
		 M1838.9,995.1c-1.3-0.3-1.4,0.5-1.5,1.5C1838.7,996.8,1838.9,996,1838.9,995.1z M1155.2,999.5
		C1154.3,997.3,1153.4,999.6,1155.2,999.5L1155.2,999.5z M1155.2,999.5C1156.1,1001.6,1156.9,999.3,1155.2,999.5L1155.2,999.5z
		 M1158,1003.8C1157.2,1001.7,1156.3,1003.9,1158,1003.8L1158,1003.8z M914.7,1005.2C915.6,1006.2,914.1,1004.7,914.7,1005.2
		L914.7,1005.2z M1158,1003.8c-0.2,1.7,0.4,2.6,1.5,2.9C1159.7,1005,1159.2,1004.1,1158,1003.8z M907.4,1016.8
		c-2,3.8-3.8,6.8-4.3,10.1C909,1024.1,920.2,993.3,907.4,1016.8z M1159.5,1006.7C1160.4,1008.8,1161.3,1006.5,1159.5,1006.7
		L1159.5,1006.7z M1162.4,1011C1161.5,1008.9,1160.6,1011.2,1162.4,1011L1162.4,1011z M1162.4,1011c-0.2,1.7,0.3,2.6,1.5,2.9
		C1164.1,1012.3,1163.5,1011.4,1162.4,1011z M355.5,1016.8c0.4-1.9-0.9-5.6-1.5-2.9C353.6,1015.9,354.9,1019.6,355.5,1016.8z
		 M1163.9,1013.9c-0.3,1.2,0.6,1.4,1.4,1.4C1165.6,1014.1,1164.7,1014,1163.9,1013.9z M1165.3,1015.4c-0.2,1.7,0.4,2.6,1.4,2.9
		C1167,1016.6,1166.5,1015.7,1165.3,1015.4z M1166.7,1018.3c-0.3,1.2,0.6,1.4,1.5,1.5C1168.5,1018.5,1167.6,1018.4,1166.7,1018.3z
		 M1531.8,1022.6C1529.9,1015.4,1523.7,1021.6,1531.8,1022.6L1531.8,1022.6z M355.5,1021.2C354.3,1029.8,356.3,1015.4,355.5,1021.2
		L355.5,1021.2z M1168.2,1019.8c-0.3,1.7,0.3,2.5,1.4,2.8C1169.9,1020.9,1169.3,1020.1,1168.2,1019.8z M1169.7,1022.6
		c-0.1,2.5,1.1,3.8,2.9,4.4C1172.6,1024.5,1171.5,1023.2,1169.7,1022.6z M1531.8,1022.6c3.6,5.1,8.3,9.1,14.6,11.6
		C1542.6,1029.2,1538.5,1024.6,1531.8,1022.6z M900.2,1032.8c1.9-0.9,2.7-3.1,2.9-5.8C900.6,1027.3,899.8,1029.5,900.2,1032.8z
		 M1172.5,1027c0,2.5,1.1,3.7,3,4.4C1175.5,1028.8,1174.4,1027.6,1172.5,1027z M1175.5,1031.3c0.4,3.4,1.5,6.2,4.3,7.3
		C1179.3,1035.2,1178.3,1032.3,1175.5,1031.3z M898.8,1035.6c1.4,0,1.1-1.8,1.4-2.9C898.8,1032.8,899.1,1034.6,898.8,1035.6z
		 M1546.4,1034.2c-0.3,1.2,0.5,1.4,1.4,1.4C1548,1034.4,1547.2,1034.3,1546.4,1034.2z M894.4,1042.9c2.9-1,3.9-3.9,4.4-7.3
		C895.9,1036.7,894.9,1039.5,894.4,1042.9z M1547.7,1035.6c4.8,5.8,11.6,9.7,18.8,13.1C1562.3,1042.3,1555,1039,1547.7,1035.6z
		 M1179.8,1038.6c-0.1,2.4,1.1,3.7,2.9,4.3C1182.7,1040.4,1181.6,1039.2,1179.8,1038.6z M1533.3,1042.9
		C1532.4,1040.8,1531.5,1043.1,1533.3,1042.9L1533.3,1042.9z M892.9,1045.8c1.4,0,1.1-1.7,1.4-2.9
		C893,1043,893.3,1044.7,892.9,1045.8z M1182.7,1042.9c0,2.5,1.1,3.8,2.9,4.4C1185.6,1044.8,1184.5,1043.5,1182.7,1042.9z
		 M1536.2,1044.4c-0.1-1.4-1.8-1.1-2.9-1.5C1533.3,1044.3,1535,1044,1536.2,1044.4z M1537.6,1045.8c0.2-1.2-0.5-1.3-1.4-1.4
		C1535.9,1045.6,1536.7,1045.7,1537.6,1045.8z M891.5,1048.7c1.4,0,1.1-1.8,1.4-2.9C891.5,1045.9,891.8,1047.6,891.5,1048.7z
		 M1120.4,1050.1C1120.4,1042.5,1114.3,1048.6,1120.4,1050.1L1120.4,1050.1z M1537.6,1045.8
		C1538.5,1047.9,1539.4,1045.6,1537.6,1045.8L1537.6,1045.8z M1543.4,1047.3C1544.4,1048.2,1542.8,1046.7,1543.4,1047.3
		L1543.4,1047.3z M1185.6,1047.3c-0.1,2.5,1.1,3.7,2.9,4.3C1188.5,1049.1,1187.4,1047.8,1185.6,1047.3z M1547.7,1048.7
		C1546.9,1046.6,1546,1048.8,1547.7,1048.7L1547.7,1048.7z M1572.4,1048.7c0.4,0.4,3.6-0.8,2.9-1.5
		C1574.9,1046.9,1571.7,1048,1572.4,1048.7z M885.7,1058.9c3.5-1.8,4.7-6,5.8-10.2C888,1050.5,886.8,1054.6,885.7,1058.9z
		 M1552.1,1051.6c-0.6-1.8-1.8-3-4.3-2.9c0,0.5,0,1,0,1.4c0.8,0,1.6,1.2,0,1.4c0.1,1.4,1.8,1.1,2.9,1.5
		C1550.7,1052.2,1550.9,1051.3,1552.1,1051.6z M1566.6,1048.7c1.8,3.5,5.9,4.7,10.2,5.8C1574.9,1051,1570.8,1049.8,1566.6,1048.7z
		 M1776.6,1050.1C1778.8,1049.3,1776.5,1048.4,1776.6,1050.1L1776.6,1050.1z M1162.4,1051.6
		C1161.5,1049.5,1160.6,1051.8,1162.4,1051.6L1162.4,1051.6z M1547.7,1051.6c0-0.5,0-0.9,0-1.4
		C1546.1,1050.4,1547,1051.6,1547.7,1051.6z M1776.6,1050.1C1774.6,1051.1,1776.8,1051.9,1776.6,1050.1L1776.6,1050.1z
		 M1162.4,1051.6C1163.3,1053.7,1164.1,1051.5,1162.4,1051.6L1162.4,1051.6z M1188.5,1051.6c-0.2,1.7,0.3,2.6,1.4,2.9
		C1190.2,1052.8,1189.6,1051.9,1188.5,1051.6z M1550.6,1053.1c1.1,1.3,2.6,2.2,4.4,2.9c0-0.8,1.2-1.6,1.5,0c1.4,0,2.9,0,4.3,0
		c-2-2.3-5-3.7-8.7-4.4C1552.4,1052.8,1551.5,1053,1550.6,1053.1z M1769.4,1054.5C1777,1054.5,1770.9,1048.4,1769.4,1054.5
		L1769.4,1054.5z M1165.3,1056C1164.4,1053.8,1163.6,1056.1,1165.3,1056L1165.3,1056z M1189.9,1054.5c-0.3,1.2,0.6,1.4,1.5,1.4
		C1191.6,1054.7,1190.8,1054.6,1189.9,1054.5z M1768,1056c1.2,0.3,1.3-0.6,1.4-1.4C1768.1,1054.2,1768,1055,1768,1056z M1191.4,1056
		c-0.1,2.5,1.1,3.7,2.9,4.3C1194.3,1057.8,1193.2,1056.5,1191.4,1056z M1556.5,1056c-0.5,0-1,0-1.5,0
		C1555.3,1057.6,1556.5,1056.8,1556.5,1056z M1560.8,1056c1,2,3.1,2.7,5.8,2.9C1566.2,1056.3,1564.1,1055.5,1560.8,1056z
		 M1765,1057.4c1.7,0.2,2.6-0.3,2.9-1.4C1766.3,1055.7,1765.3,1056.3,1765,1057.4z M1765,1057.4
		C1762.9,1058.3,1765.2,1059.1,1765,1057.4L1765,1057.4z M885.7,1058.9C881.4,1059.1,887.1,1064.9,885.7,1058.9L885.7,1058.9z
		 M1757.8,1061.7C1765.4,1061.7,1759.3,1055.6,1757.8,1061.7L1757.8,1061.7z M1194.3,1060.3c-0.1,2.5,1.1,3.7,2.9,4.4
		C1197.2,1062.1,1196.1,1060.9,1194.3,1060.3z M1754.9,1063.2c1.7,0.2,2.6-0.3,2.9-1.5C1756.2,1061.5,1755.2,1062.1,1754.9,1063.2z
		 M1752,1064.7c1.7,0.2,2.6-0.3,2.9-1.5C1753.2,1063,1752.4,1063.5,1752,1064.7z M1197.2,1064.7c-0.3,1.2,0.6,1.3,1.5,1.4
		C1198.9,1064.9,1198.1,1064.7,1197.2,1064.7z M1749.1,1066.1c1.7,0.2,2.6-0.3,2.9-1.4C1750.3,1064.4,1749.4,1065,1749.1,1066.1z
		 M1198.6,1066.1c-0.2,1.7,0.3,2.6,1.4,2.9C1200.3,1067.3,1199.7,1066.4,1198.6,1066.1z M1749.1,1066.1
		C1743.1,1064.7,1748.9,1070.4,1749.1,1066.1L1749.1,1066.1z M1741.9,1069C1747.9,1070.4,1742.2,1064.7,1741.9,1069L1741.9,1069z
		 M1200.1,1069c-0.3,1.2,0.5,1.4,1.4,1.4C1201.8,1069.2,1200.9,1069.1,1200.1,1069z M1741.9,1069c-0.9,0-1.9,0-2.9,0
		c0,0.5,0,0.9,0,1.4C1740.7,1070.7,1741.5,1070.1,1741.9,1069z M1757.8,1070.4c0.4,0.4,3.5-0.8,2.9-1.4
		C1760.3,1068.6,1757.1,1069.7,1757.8,1070.4z M1201.5,1070.4c0,2.5,1.1,3.7,2.9,4.4C1204.5,1072.3,1203.3,1071,1201.5,1070.4z
		 M1204.4,1074.8c-0.1,2.4,1,3.7,2.9,4.3C1207.4,1076.7,1206.3,1075.3,1204.4,1074.8z M1207.3,1079.1c-0.3,1.2,0.6,1.4,1.4,1.5
		C1209,1079.4,1208.2,1079.2,1207.3,1079.1z M1208.8,1080.6c-0.1,2.5,1.1,3.8,2.9,4.3C1211.7,1082.4,1210.6,1081.2,1208.8,1080.6z
		 M1201.5,1083.5C1202.5,1084.4,1200.9,1082.9,1201.5,1083.5L1201.5,1083.5z M1211.7,1084.9c2.4,5.9,5.4,11,10.1,14.5
		C1219.4,1093.5,1216.4,1088.3,1211.7,1084.9z M1695.5,1099.4C1697.6,1098.5,1695.3,1097.7,1695.5,1099.4L1695.5,1099.4z
		 M1221.8,1099.4c-0.2,1.2,0.6,1.3,1.4,1.5C1223.5,1099.7,1222.7,1099.5,1221.8,1099.4z M1692.7,1103.8c1.8-0.7,3-1.9,2.9-4.3
		C1693.7,1100.1,1692.5,1101.2,1692.7,1103.8z M1507.2,1100.9C1508.1,1102.9,1508.9,1100.7,1507.2,1100.9L1507.2,1100.9z
		 M1479.7,1105.2c-0.9-2-3.1-2.7-5.8-2.9C1474.2,1104.9,1476.3,1105.6,1479.7,1105.2z M1692.7,1103.8
		C1690.5,1104.7,1692.8,1105.5,1692.7,1103.8L1692.7,1103.8z M1479.7,1105.2C1480.6,1107.3,1481.4,1105,1479.7,1105.2L1479.7,1105.2
		z M1688.3,1109.6C1690.4,1108.7,1688.2,1107.8,1688.3,1109.6L1688.3,1109.6z M861.1,1122.6C860.5,1122,862,1123.6,861.1,1122.6
		L861.1,1122.6z M859.6,1126.9C864,1126.6,858.3,1120.9,859.6,1126.9L859.6,1126.9z M858.2,1129.8c1.4,0,1.1-1.8,1.4-2.9
		C858.2,1126.9,858.5,1128.7,858.2,1129.8z M858.2,1129.8C853.9,1130.1,859.6,1135.8,858.2,1129.8L858.2,1129.8z M1526.1,1131.3
		c2.1,2.2,5.6,3,10.1,2.9C1534,1131.9,1530.5,1131.1,1526.1,1131.3z M1540.5,1135.6c-0.2-1.7-2.6-1.2-4.3-1.4
		C1536.4,1135.9,1538.8,1135.4,1540.5,1135.6z M367.1,1135.6C365.7,1141.6,371.4,1135.9,367.1,1135.6L367.1,1135.6z M1205.9,1195
		C1205,1192.9,1204.1,1195.1,1205.9,1195L1205.9,1195z M822,1197.9c-5.2,2.8-3.2,6.4-4.4,8.7c-3.5,7.4-15.4,33.8-8.7,24.7
		C813.1,1225.5,826.1,1195.6,822,1197.9z M806,1237.1C805.4,1236.4,807,1238,806,1237.1L806,1237.1z M1231.9,1237.1
		C1231.1,1235,1230.2,1237.2,1231.9,1237.1L1231.9,1237.1z M1231.9,1237.1c0,1.4,1.8,1.1,2.9,1.4
		C1234.8,1237.1,1233.1,1237.4,1231.9,1237.1z M793,1268.9c4.6,2.4,11.5-30.4,11.6-30.4C803.2,1238.5,792,1264.2,793,1268.9z
		 M1234.9,1238.5c-0.3,1.2,0.5,1.4,1.4,1.5C1236.6,1238.7,1235.7,1238.5,1234.9,1238.5z M1236.3,1239.9c0,1.4,1.8,1.1,2.9,1.4
		C1239.1,1240,1237.4,1240.2,1236.3,1239.9z M1239.2,1241.4c-0.2,1.2,0.6,1.4,1.5,1.5C1240.9,1241.6,1240,1241.5,1239.2,1241.4z
		 M1240.6,1242.9c0,1.4,1.8,1.1,2.9,1.4C1243.5,1242.9,1241.8,1243.2,1240.6,1242.9z M1243.5,1244.3c-0.2,1.2,0.6,1.3,1.4,1.4
		C1245.2,1244.5,1244.4,1244.4,1243.5,1244.3z M1253.7,1244.3c-0.5,0-1,0-1.4,0C1252.5,1245.9,1253.7,1245.1,1253.7,1244.3z
		 M1216,1250.1C1215.1,1248,1214.3,1250.2,1216,1250.1L1216,1250.1z M1216,1250.1c-0.3,1.2,0.6,1.3,1.4,1.4
		C1217.7,1250.3,1216.9,1250.2,1216,1250.1z M793,1268.9C788.6,1269.2,794.4,1274.9,793,1268.9L793,1268.9z M1534.7,1293.5
		c1.2,0.3,1.3-0.6,1.5-1.5c-0.5,0-1,0-1.5,0C1534.7,1292.6,1534.7,1293,1534.7,1293.5z M1533.3,1294.9c1.2,0.3,1.4-0.5,1.4-1.4
		C1533.5,1293.3,1533.3,1294.1,1533.3,1294.9 M419.2,1299.3C418.3,1297.2,417.5,1299.5,419.2,1299.3L419.2,1299.3z M419.2,1299.3
		c-0.3,1.2,0.6,1.4,1.4,1.4C420.9,1299.5,420.1,1299.4,419.2,1299.3z M420.7,1300.8c-0.2,1.7,0.4,2.6,1.5,2.9
		C422.4,1302,421.8,1301.1,420.7,1300.8z M422.1,1303.7c-0.3,1.2,0.6,1.4,1.4,1.4C423.8,1303.9,423,1303.7,422.1,1303.7z
		 M423.6,1305.1C422.2,1311.1,427.9,1305.4,423.6,1305.1L423.6,1305.1z M433.7,1319.6C433.7,1312,427.6,1318.1,433.7,1319.6
		L433.7,1319.6z M827.8,1334.1c-0.1,0.1-2.5,0.4-1.4,1.4C829.9,1339.1,833,1328.9,827.8,1334.1z M811.8,1354.4
		c-0.1,0.1-2.5,0.4-1.4,1.5C814,1359.4,817.1,1349.2,811.8,1354.4z M859.6,1361.6c-2.2,0.8-7.9,2.2-5.8,4.3
		C856,1368.1,867.2,1358.8,859.6,1361.6z M810.4,1364.5c-0.1,0.2-2.7,1.6-1.5,2.9C812.1,1370.5,814.9,1357.8,810.4,1364.5z
		 M420.7,1376C419.8,1374,418.9,1376.2,420.7,1376L420.7,1376z M102,1377.6C101.1,1375.5,100.2,1377.7,102,1377.6L102,1377.6z
		 M420.7,1376c-0.3,1.3,0.6,1.4,1.5,1.5C422.4,1376.3,421.5,1376.2,420.7,1376z M422.1,1377.6c1.4,5.8,6.3,8.1,10.1,11.6
		C430.9,1383.3,425.9,1381,422.1,1377.6z M798.8,1383.3c-2.8,0.6-7.2,4.4-5.8,5.8C795.6,1391.8,803.7,1382.3,798.8,1383.3z
		 M606.1,1386.2C608.2,1385.3,606,1384.5,606.1,1386.2L606.1,1386.2z M432.3,1389.2C433.2,1391.3,434,1389,432.3,1389.2
		L432.3,1389.2z M822,1392c-0.1,0.2-2.8,1.6-1.5,2.9C825.6,1400.1,828.2,1383.8,822,1392z M785.8,1395c-3.7,0.6-16.8,9.3-15.9,10.2
		C771.6,1406.9,796.5,1393.2,785.8,1395z M788.6,1399.3C802.6,1397.5,796.1,1389.4,788.6,1399.3L788.6,1399.3z M788.6,1399.3
		C786.6,1400.2,788.8,1401,788.6,1399.3L788.6,1399.3z M461.3,1405.1c0.2-1.3-0.6-1.4-1.5-1.5C459.5,1404.8,460.4,1405,461.3,1405.1
		z M461.3,1405.1C462.1,1407.2,463,1404.9,461.3,1405.1L461.3,1405.1z M472.8,1409.4c-0.7-1.8-1.9-3-4.4-2.9
		C469.1,1408.3,470.3,1409.5,472.8,1409.4z M474.3,1410.9c0.3-1.2-0.6-1.4-1.5-1.5C472.6,1410.7,473.4,1410.8,474.3,1410.9z
		 M481.5,1416.7c-1.9-2.5-3-5.8-7.2-5.8C476.1,1413.3,477.3,1416.6,481.5,1416.7z M774.2,1415.2
		C776.3,1414.3,774,1413.5,774.2,1415.2L774.2,1415.2z M774.2,1415.2c-1.7-0.2-2.6,0.4-2.9,1.5
		C773,1416.9,773.8,1416.3,774.2,1415.2z M488.8,1422.5c-1.9-2.5-3-5.7-7.2-5.8C482,1420.5,485.3,1421.6,488.8,1422.5z
		 M771.3,1416.7C760.5,1416.5,766.7,1422.8,771.3,1416.7L771.3,1416.7z M504.7,1421C505.6,1423.1,506.5,1420.9,504.7,1421
		L504.7,1421z M498.9,1429.7c-2.1-3.6-5.6-6-10.1-7.3C490.9,1426.1,494.4,1428.5,498.9,1429.7z M768.4,1423.9
		C770.5,1423,768.2,1422.2,768.4,1423.9L768.4,1423.9z M765.5,1425.3c1.7,0.3,2.6-0.3,2.9-1.4
		C766.7,1423.7,765.8,1424.2,765.5,1425.3z M765.5,1425.3C757.8,1425.3,764,1431.5,765.5,1425.3L765.5,1425.3z M565.6,1426.8
		C567.2,1431.2,573.2,1425.3,565.6,1426.8L565.6,1426.8z M778.5,1428.2c-3.4,0.4-9.8,5.2-7.2,5.8
		C774.3,1434.8,786.1,1427.4,778.5,1428.2z M575.7,1429.7C574,1425.3,568,1431.3,575.7,1429.7L575.7,1429.7z M498.9,1429.7
		c0.7,1.7,1.8,2.9,4.3,2.9C502.6,1430.8,501.4,1429.6,498.9,1429.7z M575.7,1429.7C578.9,1434.1,585,1428.1,575.7,1429.7
		L575.7,1429.7z M509.1,1441.3C508.2,1439.2,507.3,1441.5,509.1,1441.3L509.1,1441.3z M512,1442.7c0-1.4-1.8-1.1-2.9-1.5
		C509.1,1442.7,510.8,1442.4,512,1442.7z M512,1442.7C512.8,1444.9,513.7,1442.6,512,1442.7L512,1442.7z M475.7,1454.3
		C474.8,1452.2,474,1454.5,475.7,1454.3L475.7,1454.3z M510.5,1473.2c-11.2-6.6-22.8-12.9-34.8-18.9
		C485.2,1462.7,496.8,1469,510.5,1473.2z M477.2,1465.9C475.7,1459.8,469.6,1465.9,477.2,1465.9L477.2,1465.9z M509.1,1467.4
		C508.8,1463,503,1468.8,509.1,1467.4L509.1,1467.4z M512,1468.8c0-1.4-1.8-1.1-2.9-1.4C509.1,1468.8,510.8,1468.5,512,1468.8z
		 M778.5,1468.8C780.6,1467.9,778.4,1467.1,778.5,1468.8L778.5,1468.8z M514.8,1470.3c0-1.4-1.8-1.1-2.9-1.5
		C512,1470.2,513.7,1470,514.8,1470.3z M778.5,1468.8C776.4,1469.7,778.6,1470.6,778.5,1468.8L778.5,1468.8z M517.8,1471.7
		c0-1.4-1.8-1.2-2.9-1.4C514.9,1471.7,516.6,1471.4,517.8,1471.7z M517.8,1471.7C518,1476,523.7,1470.3,517.8,1471.7L517.8,1471.7z
		 M510.5,1473.2c3.5,3.3,8.3,5.1,14.5,5.8C521.2,1476,516.4,1474,510.5,1473.2z M761.1,1474.6C767.1,1476,761.4,1470.3,761.1,1474.6
		L761.1,1474.6z M530.8,1477.5C530.5,1473.2,524.8,1478.9,530.8,1477.5L530.8,1477.5z M584.4,1476.1
		C580.1,1476.3,585.8,1482.1,584.4,1476.1L584.4,1476.1z M535.1,1479c-0.3-1.7-2.7-1.2-4.4-1.5C531,1479.2,533.4,1478.7,535.1,1479z
		 M529.3,1480.4c-0.2-1.7-2.6-1.2-4.4-1.5C525.2,1480.7,527.6,1480.2,529.3,1480.4z M535.1,1479
		C535.4,1483.3,541.1,1477.6,535.1,1479L535.1,1479z M790.1,1480.4c0.4,0.4,3.6-0.7,2.9-1.5C792.6,1478.6,789.4,1479.7,790.1,1480.4
		z M533.7,1481.8c-0.2-1.7-2.7-1.2-4.3-1.4C529.6,1482.1,532,1481.7,533.7,1481.8z M574.2,1481.8
		C573.6,1481.2,575.2,1482.8,574.2,1481.8L574.2,1481.8z M539.5,1483.3c-0.4-2-3.6-1.2-5.8-1.5
		C534.1,1483.8,537.3,1483.1,539.5,1483.3z M768.4,1483.3C769.3,1484.2,767.8,1482.7,768.4,1483.3L768.4,1483.3z M572.8,1490.6
		c8.8-1.2-2.6-0.6-5.8-1.4c-2-0.5-18.3-5.5-27.5-5.8C549.3,1486.9,565.2,1491.7,572.8,1490.6z M766.9,1487.7
		C775.6,1484,754.6,1492.9,766.9,1487.7L766.9,1487.7z M787.2,1487.7c-2.7-2.7-11.3,6.7-15.9,8.7
		C773.9,1499,788.8,1489.2,787.2,1487.7z M740.8,1502.1c1.7,0.2,2.6-0.4,2.9-1.5c-1,0-1.9,0-2.9,0
		C740.8,1501.2,740.8,1501.7,740.8,1502.1z M740.8,1502.1C738.7,1503,741,1503.9,740.8,1502.1L740.8,1502.1z M766.9,1507.9
		C772.6,1502.2,762.9,1512,766.9,1507.9L766.9,1507.9z M482.9,1515.2c0-1.4-1.8-1.1-2.9-1.5C480.1,1515.1,481.8,1514.9,482.9,1515.2
		z M482.9,1515.2c0,0.5,0,1,0,1.5c1,0,2,0,2.9,0C485.8,1515.2,484.1,1515.5,482.9,1515.2z M488.8,1518.1c0-1.4-1.8-1.1-2.9-1.4
		C485.9,1518,487.6,1517.8,488.8,1518.1z M491.7,1519.5c0-1.4-1.8-1.1-2.9-1.5C488.8,1519.5,490.5,1519.2,491.7,1519.5z
		 M491.7,1519.5c0,0.5,0,1,0,1.5c1,0,1.9,0,2.9,0C494.5,1519.6,492.8,1519.8,491.7,1519.5z M737.9,1574.6
		C744,1576,738.2,1570.2,737.9,1574.6L737.9,1574.6z M229.5,1618C228.6,1615.9,227.7,1618.2,229.5,1618L229.5,1618z M229.5,1618
		c-0.3,1.2,0.5,1.4,1.4,1.5C231.1,1618.2,230.3,1618.1,229.5,1618z M230.9,1619.5c-0.3,1.2,0.6,1.4,1.4,1.4
		C232.6,1619.7,231.8,1619.5,230.9,1619.5z M232.3,1620.9c-0.3,1.2,0.6,1.4,1.5,1.4C234.1,1621.2,233.2,1621,232.3,1620.9z
		 M233.8,1622.4c-0.3,1.2,0.6,1.4,1.4,1.5C235.5,1622.6,234.7,1622.5,233.8,1622.4z M235.2,1623.8c-0.2,1.2,0.6,1.4,1.5,1.5
		C237,1624,236.1,1623.9,235.2,1623.8z M236.7,1625.3c-0.3,1.2,0.6,1.4,1.4,1.5C238.4,1625.5,237.6,1625.3,236.7,1625.3z
		 M694.5,1649.9C700.5,1651.3,694.8,1645.6,694.5,1649.9L694.5,1649.9z"/>
</g>
</svg>
