<?xml version="1.0" encoding="utf-8"?>
<!-- Generator: Adobe Illustrator 23.1.1, SVG Export Plug-In . SVG Version: 6.00 Build 0)  -->
<svg version="1.1" id="Layer_1" xmlns="http://www.w3.org/2000/svg" xmlns:xlink="http://www.w3.org/1999/xlink" x="0px" y="0px"
	 viewBox="0 0 2000 1733" style="enable-background:new 0 0 2000 1733;" xml:space="preserve">
<style type="text/css">
	.st0{opacity:0.2;}
	.st1{fill-rule:evenodd;clip-rule:evenodd;fill:#FFFFFF;}
</style>
<g id="Logo_3_" class="st0">
	<path class="st1" d="M800,1.6C798.3-2.8,792.4,3.2,800,1.6L800,1.6z M1363,839.6c-2.5-4-7-9.6-9.6-13.6c28,46,55.3,92.8,94.5,130.2
		C1421,920.1,1388.4,879.9,1363,839.6z M1352.9,825.2c-0.1-0.2-0.3-0.4-0.4-0.7c0.2,0.5,0.5,1,0.9,1.5
		C1353.3,825.8,1353.1,825.5,1352.9,825.2z M1449.4,1322c31.6-5,57.6-28.5,82.1-37.5c0-0.8,1.1-1.6,1.5,0c3.5-4.6,10.5-7,15.8-11.5
		c8-6.8,13.9-17.5,23-25.9c18.4-17,39.5-34.2,56.2-54.7c9.3-11.5,15.3-25.9,23-38.9c3.8-6.4,9.1-12.3,13-18.7
		c6.9-11.5,11.2-22.2,20.2-31.6c-9.7,1.9,3.7-14.3,5.8-15.9c2.6-2,5.6-0.1,8.6-1.4c2-0.9,5.7-4,8.6-5.8c7.4-4.4,18.9-13.3,27.3-15.8
		c-2.4,0.3-3.5-1.6,0-1.4c13.6-13.5,31.4-22.3,50.4-31.7c17.4-8.7,34.8-24.5,47.5-40.3c-10.9,4.9-15.2,13.9-27.4,23.1
		c-5.2,3.9-1-1.8-5.7,1.4c-2.5,1.7-10,10-10.1,10.1c20.5-14.5-9.9,8.8-13,5.7c-0.2-0.3,20.2-17.5,21.6-18.7
		c20.6-18.7,39.6-39.2,53.2-63.4c-8.9,7.5-10.4,13.6-18.7,21.6c-5.9,5.8,16-25.4,8.7-24.5c-1.5,0.2-3.1,8.6-4.3,10.1
		c-1.7,2.1-4.5,1.7-5.8,2.9c0.4-0.4-4.4,7.7-5.8,5.7c-2.4-3.5,21.8-39.8,23.1-43.2c2-5.7-2,0.5,0-7.2c1-3.9,8.8-23.2,0-8.6
		c-2.4,4-7.7,16.1-8.7,18.7c-0.9,5.4,4.9-8.7,5.8-4.3c0.8,3.8-4.9,9.5-10,18.7c-6.3,11.2-12.4,23.2-20.2,27.3c0.2,1.7-2.1,0.9,0,0
		c7.2-14.9,18.5-25.7,24.5-41.8c-4.1,1.6-7.3,12.9-10,15.9c-1.4,1.5-4.5,1.1-5.8,2.9c-2.1,3-1.8,7.5-4.3,10.1
		c-2.2,2.3-7.5,2.9-10.1,5.8c-4,4.4-4.8,12-10.1,17.2c-0.3,0.3-2.9,4.3-2.9,4.3c-1.3,0.6-4.7-0.9-5.8,0c-3.2,3-6.1,9.6-13,14.4
		c-4.5,3.2-14.8,9.8-8.6,1.5c3.6-4.8-1.2-4.9-1.5-4.3c4.7-7.6,16.8-12,26-20.1c-0.2,0.2,22.9-22,17.3-24.5c0.5,0.3-4.4,6.8-5.8,7.2
		c-1.3,0.5-4.7-0.8-5.7,0c-5.1,4.1-7.6,10.7-11.6,14.4c-4.4,4.2-10,9-14.4,11.5c0.6-0.3-4.3-2-5.8-1.4c-1.1,0.5-26.6,24-15.8,1.4
		c-3.8,7-6.8,16.2-17.3,18.7c-12.2,3-3.1-13.5-4.3-21.6c-0.1-0.8-2.3,7.6-4.3,4.3c-2.5-4.1,2.4-9.6,2.9-14.4
		c0.3-3.6-1.6-5.1-1.5-10.1c0.5-14,8.6-38.4,10.1-63.4c1-15.2,0.8-29.9,2.9-47.5c-0.7,6,5.8-23.7,1.4-23.1
		c1.7-0.3-5.7,27.2-5.8,27.3c-3.7,9.3-1.5-22.3-1.5-30.2c0-0.7-0.3-44.2-2.8-24.4c-1.3,10-1,32.7-1.5,43.2c-0.3,6.8,1.9,21.7-1.4,23
		c-0.9,0.4-1.5-22.4-1.5-24.5c2.2-52.8,1.6-99.9-10.1-149.7c-4.8-20.6-9.4-44.1-17.3-61.9c-7.2-16.2-16.1-30.3-27.4-47.5
		c-4.8-7.4-9-16.2-14.4-23c-5.7-7.3-11.7-17.1-15.8-20.1c-1.7-1.3-2,3.5-4.3,2.9c-5.5-1.5-13.1-14.9-18.8-18.7
		c-4.9-3.4-15.7-6.8-24.4-11.5c-18.8-10.2-55.7-22.6-77.8-25.9c-13-2-17-0.4-4.4,4.3c1.2,0.5,10.7,0.4,8.7,4.3
		c-2.9,5.6-19.3-1.3-23.1-1.4c-13.5-0.3-44.8,4.8-67.7,7.2c-20.3,2.1-42.6,3-61.9,7.2c-7,1.5-14.2,3.6,2.9,2.9c1.7-4.4,7.7,1.6,0,0
		c-30.9,10.2-55.7,12.9-85,24.5c-6.3,2.5-13.6,8.8-17.3,7.2c0,0-11.7-24.9-13-27.4c-27.4-51.5-53.2-96.6-82-151.2
		c-3.5-6.6-5.4-12-10.1-20.2c-7.5-13.2,2.2,11.9,4.3,15.9c7.3,13.9,13.3,24.1,20.1,37.4c9.3,18.2,17.9,32.8,27.4,51.8
		c13.2,26.5,29.1,51.8,44.6,82.1c0.1,0.2,9.6,11.6,4.3,14.4c-4.6,2.5-11.6-13.2-11.5-12.9c-21.4-41.6-45.8-83.2-66.3-120.9
		c-26.3-48.6-44.9-93.5-76.3-138.2c1.9,5.7,5.5,11.1,11.5,21.6c1.7,3,13.3,19.7,11.5,21.6c-0.5,0.4-10.1-12.5-5.8-5.7
		c-20.3-31.6-43-70.1-63.4-99.3c-26.4-38.1-53.6-68-79.2-93.6c9.5,15,24.3,24.7,33.1,40.3c7.2,1.9,1,8,0,0
		C956.1,93.2,895.6,29.8,800,1.6c40.2,16,78.4,34,108,60.5c1.7-0.2,0.9,2.1,0,0C871.4,43.8,831.9,18,784.2,8.8
		c-13.9-2.7-29.6-5.8-44.6-4.3c1.4-0.2,6.8,1,5.8,1.4c-5.8,2.4-47.4,0.9-59,2.9c-11.1,1.9,0,2,8.6,1.4c3.9-0.2,37.5-0.1,34.5,2.9
		c1.5-1.6-16.6-0.5-24.1-0.1c6.6,0.3,20.7,1.8,19.8,3c-0.8,1.1-12.3-0.5-17.3,0c-49,4.5-95.5,29.9-145.4,38.8c0.8,0,1.7,1.2,0,1.5
		c-5.2,3.2-16.6,6.6-25.9,11.5c-6.6,3.4-13.3,10.6-21.6,13c-4.4,1.2-8.7-0.1-13,1.4c-1.1,0.4-1.6,2.8-4.3,4.3
		c-5.7,3.3-15.1,6.3-25.9,11.5c-4.8,2.4-12.9,6.4-18.7,8.7c3-1.2-5.7,3.1-7.2,1.4c0,0.1,15.7-10.2,11.5-10.1
		c-11.1,0.1-35.2,21.8-47.5,25.9c0.3-0.1-10.4,2.8-11.5,1.4c-0.2-0.2,14.4-7.3,10.1-10.1c-16.7,4.8-21.9,20.4-37.4,27.3
		c-9.6,4.3-52.1,24.4-23,2.9c-0.7,0.5,12.2-8,11.5-8.6c-0.1-0.1-7.7,0.5-10.1,1.4c-11,4.5-25.9,22.6-36,31.7
		c-12.2,10.9-25,19.6-34.6,30.2c20.1-6-3.2,5.4-8.6,10.1c-6,5.2-7.6,12.6-10.1,13c13.4-7,0.3,5.3-5.8,7.2
		c-54,54.3-98.7,110.5-129.6,192.9c-23.1,61.9-43.3,126.5-59,203c0-0.1-4.2,13.1-4.3,13c-1.9-1.9,2.3-14.7,2.9-18.7
		c2.4-16,10.7-48.4,11.5-59c0.1-1.7-2.5,0.9-2.9-2.9c0-0.1,4.1-13.7,1.4-13c-2.3,0.6-10.1,37.8-14.4,59.1
		c-13.5,66-16.9,129.8-20.2,200.1c-2.2,48.1-3.6,94.8-1.4,141.1c2.4,50.6,12.8,103.3,17.3,146.9c0.1,1.1-1.6,3.3-1.4,5.8
		c1.4,21.6,8,45.5,11.6,64.8c9.2,49.6,23.7,97.5,34.6,148.3c1.7-0.1,0.9,2.1,0,0c-34-91.5-58.5-235.7-64.8-357.1
		c-1.5-29-1.9-62.1-2.9-95c0,0,0.6-17.9-2.9-14.4c-4.3,4.3,0,13.8,0,17.3c0,4.9,0.1,69.6-1.4,38.9c-0.1-1.2-0.5-8.6-1.4-5.8
		c-4.4,12.4,1.7,62.4,2.9,79.2c0.4,6.6,0.4,15.8,1.4,23c2.8,19.5,1.8-10.3,1.5-20.2c-5.7-6.8,2.4-20.6,0-23c4.9,4.9-3.4,13.9,0,23
		c4.3,27,5.4,72.8,8.6,90.8c-0.3-2.1,1.2,0,1.5,1.4c2.1,10.4,0.8,19.4,1.4,30.2c0.2,3.2,2.7,2,2.9,4.3c0.2,2.1-3.2,3.3-2.9,5.8
		c1.2,9.3,7.5,22.2,8.7,28.8c0.2,0.9-1.7,2.5-1.4,4.3c0.2,1.6,2.7,1,2.8,2.9c2.6,39.2,14.8,84.2,26,123.8
		c5.5,19.6,10.6,37,18.7,60.5c7.8,22.5,12.2,31.8,18.8,50.4c5.7,16.3-6.9-5.7-10.1-11.5c23.2,78.2,66.2,150.6,113.8,208.8
		c6.9,8.4,15.6,16.5,20.1,24.5c1.6,2.8,1.3,6.4,2.9,8.6c1.6,2.2,9,7.9,11.5,11.5c-0.4-0.6,4.2,7.1,2.9,7.2
		c-5.2,0.4-8.8-11.6-15.8-12.9c53,58.2,140.8,125.1,269.3,115.2c43.8-3.4,87.2-16.3,120.9-33.1c11.1-5.5,25.2-11,33.1-17.2
		c0-0.1,2.2-5.1,2.9-5.8c3.1-3.3,9.3-4.8,11.5-7.2c2.6-2.8,4.2-10.4,7.2-14.4c2.5-3.2,9.1-5.3,8.6-14.4
		c-8.5-7.7,12.7-13.8,23.1-21.6c3.2-2.4,16.5-15.9,13-24.5c-0.4-1.1-4.9-1.5-4.3-2.9c-0.6,1.5,22.9-14.4,21.6-15.8
		c-4.5-5.1-8.6,11.7-15.8,5.7c-1.2-1,6.8-6.3,1.4-7.2c0.4,0.1-21.1,10.5-21.6,8.6c-1.7-6.5,23.8-11.4,25.9-17.3
		c-8.4,1.5,3.3-4.5,1.4-5.8c-2.8-1.8-27.5,17.8-11.5,4.3c2.6-2.2,13.3-9.9,14.4-12.9c-0.2,0.5-8.1,3.3-7.2-2.9
		c0.6-4,12.2-2.8,17.3-10.1c0.5-0.7-0.5-5.5,0-7.2c-0.5,1.5,5.3-3.8,1.4-5.8c0.4,0.2-5.4,4.3-5.9,3.6c-0.4,0.7-1.6,0.1,0.1-0.7
		c2.7-4.6,3.9-2.6,4.3-7.2c0.3-2.8-3.4-7.2-2.9-8.6c0.2-0.7,3.9-1.8,5.8-4.3c4.7-6.3,12.1-11.6,15.8-20.2
		c-17.2-4.4-24.7,9.9-38.9,12.9c-0.3,4.3-6-1.4,0,0c10.9-7-5.3-5.8,8.6-8.6c0-1.4,2.5-1.8,2.9,0c1.7,0.2,2.5-0.3,2.9-1.4
		c-1.7,0.2-0.9-2.1,0,0c2.1-1.3,15.1-8.9,11.5-10.1c-1.6-0.5-11.4,9.5-14.4,7.2c-1-0.8,6.4-5.1,1.4-7.2c-10.9,1.2,5.6-6.5,0,0
		c7.8-2.2,12.6-7.5,15.8-14.4c-2.7-1.1-19.5,11.4-20.1,8.6c-1.5-6.7,20.2-11.6,27.4-15.8c1.4-0.8,8.3-4.4,7.2-7.2
		c-2.2-5.8-14.9,6-14.4,5.8c0.4-0.2-2.9-2-4.3-1.4c-7,2.5-14.5,11-17.3,5.8c-3.8-7.1,12.6-8.7,17.3-11.5c2.6-1.6,3.8-5.5,5.8-7.2
		c9.3-7.9,16.9-9,1.4-14.4c-0.3,4.3-6-1.3,0,0c3.6-11.2-2.6-3.9-11.5,1.5c-15.8,9.5-36.2,21.7-53.3,30.2
		c-3.8,1.9-43.1,20.4-33.1,5.8c3.5-5.1,10.1-16.1,14.4-23.1c1.6-2.5,4.7-3.8,5.8-5.7c1.7-3.2,0.4-7.2,1.4-8.7
		c1.5-2.2,9-7.1,11.5-11.5c0.3-0.4,0.9-9.2,4.3-7.2c2.4,1.5-2.1,23.1,4.3,8.6c6-13.4,10.1-26.7,20.2-37.4c0.3-0.4,2.8-3,4.3-4.4
		c8.5-7.5,12.2-15,17.3-30.2c4.8-14.5,9.9-38.9,17.3-51.9c1.1-1.9,4.9-2.7,5.8-4.3c4.8-9.4,6.2-21.4,11.5-31.7
		c4.9-9.5,11.5-17.6,15.9-27.4c17.4-38.8,36.9-79.2,54.7-118.1c9-19.7,16.6-39.8,25.9-59c19.1-39.4,37-73.9,60.5-110.9
		c9.9-15.6,23.3-32.8,36-50.4c12.5-17.2,23.4-38.4,36-49c4-3.3,6.4-4.7,8.6-4.3c4.2,0.8,16.2,26.1,20.2,33.1
		c33.2,58.5,65,109.6,97.9,167c10.7,18.8,25.3,36.1,37.4,54.8c14.5,22.4,32.8,44.1,48.9,67.6c0.9,0.1,1.7,0.2,1.4,1.5
		c10,9.6,23.9,22.3,34.6,31.7c9.2,8.2-1.9,1.4-7.2-2.9c-10.9-8.8-20.7-19.1-27.4-28.8c-0.9-0.1-1.7-0.2-1.4-1.5
		c-10.2-3.2-13.8-17.1-23-23c-2.3-1.4-3.7,1.4-7.2,0c-5.9-2.4-23.6-25.1-28.8-31.7c-17.1-21.5-31.3-43.2-49-63.4
		c18.7,30,44.4,70.2,70.6,102.3c5.7,7,23,25.7,23,30.2c0-2.8-5.2,0.2-1.5,4.3c1.8-0.1,0.9,2.1,0,0c-19.9-17.1,8.8,14.3,13,18.7
		c12.2,12.9,16.9,17.7,28.8,25.9c2.1,1.5,2.8-0.5,4.3,1.5c-0.8-1.2-0.7,3,0,2.9c-5.9,1.2-24.4-17.7-27.3-20.2
		c-8.5-7.6-15.3-13.7-25.9-21.6c11.7,20,28.5,34.8,46,49c0-0.8,1.2-1.6,1.4,0c4.6,3.2,13.1,11.5,13,11.5
		c-6.9,1.9-10.5-9.8-21.6-10.1c-1,1.4,21.7,11.6,17.3,13c-2.5,0.7-19.8-9.2-23-11.5c-7.2-5.2-16.5-13-18.7-15.8
		c-2-2.6-0.8-5.1-2.9-7.2c-7.4-7.6-17.2-12.8-24.5-20.1c-21-21.1-40.4-44.6-59.1-70.5c-11.8-16.4-25.6-31.5-37.4-50.4
		c-13.5-21.6-16.8-28.2-28.8-47.6c-10.4-16.7,3.5,10.7,5.7,14.4c40.4,66.6,84.8,128.7,135.4,184.3c13.3,14.7,37.1,30,57.6,43.2
		c19.1,12.2-15.6-4-23.1-8.7c-9.5-5.9-16.2-12-25.9-17.3c5.7,13.2,21.2,19.8,34.6,27.4c4,2.3,11.9,5.9,12.9,7.2c0.8,1-1,5,0,5.8
		c6.6,5.2,19,10,28.8,14.4 M28.2,914.5c-0.7-1.9,2.9,0,2.9,0C31.3,916.5,28.5,915.5,28.2,914.5z M29.7,941.8
		c-0.1-4.2-1.3-10.4,0-14.4C29.4,928.2,30.4,970.2,29.7,941.8z M31.1,921.7c-0.5,2.8-1.8-0.9-1.4-2.9
		C30.2,916.1,31.5,919.7,31.1,921.7z M1586.2,511.3C1585.6,510.7,1587.1,512.2,1586.2,511.3L1586.2,511.3z M1583.3,505.5
		c7.9,5.1-4.4,1.4-10.1-1.4c1.4,0.7-11.4-6.9-11.5-5.7C1562.3,493.7,1581.7,504.5,1583.3,505.5z M1466.7,584.8
		c0.7,0.6-2.5,1.8-2.9,1.4C1463.1,585.5,1466.3,584.4,1466.7,584.8z M1381.7,505.5C1382.7,506.5,1381.2,505,1381.7,505.5
		L1381.7,505.5z M1301.1,648.1c53.6,97.6,109.9,191.5,172.7,275c0.9,0.1,1.7,0.2,1.5,1.4c0.9,0.1,1.7,0.2,1.4,1.5
		c1.8-0.2,0.9,2.1,0,0c-0.8-0.1-1.7-0.2-1.4-1.5c-0.9-0.1-1.7-0.2-1.5-1.4c-68.6-81.2-126.8-183.3-180-280.8
		c1.6,2.9-4.6-11.3-4.3-11.6C1292.5,627.9,1301.3,648.4,1301.1,648.1z M1374.5,767.6C1376.3,767.5,1375.4,769.7,1374.5,767.6
		C1372.8,767.7,1373.6,765.5,1374.5,767.6z M1377.4,771.9c1.1,0.3,1.7,1.2,1.5,2.9c1.7-0.1,0.9,2.1,0,0
		C1377.7,774.5,1377.2,773.6,1377.4,771.9C1375.7,772.1,1376.6,769.8,1377.4,771.9z M1383.2,783.5
		C1384.1,784.4,1382.6,782.8,1383.2,783.5L1383.2,783.5z M1514.2,949c0.9,0.1,1.7,0.2,1.4,1.4c5.8,1.4,8.1,6.3,11.5,10.1
		c0.9,0.1,1.7,0.2,1.4,1.5c6-1.4,0.3,4.3,0,0c-0.8-0.1-1.7-0.2-1.4-1.5c-5.8-1.4-8.1-6.3-11.5-10.1
		C1514.8,950.4,1513.9,950.2,1514.2,949c-0.9-0.1-1.7-0.2-1.5-1.5c-0.9-0.1-1.7-0.2-1.4-1.5c-1.8,0.2-0.9-2.1,0,0
		c0.9,0.1,1.7,0.2,1.4,1.5C1513.7,947.6,1514.4,947.8,1514.2,949z M1531.5,976.4c0.7,2.1-4.1,0.7-4.3,0
		C1526.5,974.4,1531.2,975.7,1531.5,976.4z M1517.1,963.5c3.6,3.7,16,13.1,5.8,7.2c-13.6-7.9-26.1-24.2-33.1-33.1
		c-34-42.9-67.2-85.1-92.2-132.4c-2.8-1-3.8-3.8-4.3-7.2c-1.7,0.2-0.9-2.1,0,0c2.9,1,3.8,3.8,4.3,7.2
		C1434.6,857.7,1472.3,917.3,1517.1,963.5z M1410.5,864.1c26.2,39.1,56.8,74.2,85,110.8c1.7-0.1,0.9,2.1,0,0
		c-18.6-11.9-27.7-29.2-40.3-46.1c-6.2-8.4-14.2-15.1-20.2-23c-37.7-50.8-69.4-105.4-100.8-159.8c-3-3.8-10.8-12.2-8.7-14.4
		c0.6-0.5,10.5,12.6,8.7,14.4C1362.2,783.6,1384.5,825.3,1410.5,864.1z M1315.5,715.8C1314.9,715.2,1316.4,716.8,1315.5,715.8
		L1315.5,715.8z M1304,692.7C1302.3,692.9,1303.1,690.7,1304,692.7C1305.7,692.6,1304.9,694.8,1304,692.7z M1296.8,678.3
		c-1.1,1.1-10.9-14.7-11.5-15.9c-3.2-5.7-9.7-14.8-8.6-18.7C1278.4,636.6,1297.4,677.7,1296.8,678.3z M1280.9,538.7
		C1281.2,534.3,1286.9,540,1280.9,538.7C1275.4,546.7,1267.8,539,1280.9,538.7z M1276.6,639.5c0.7,0.6-2.5,1.8-2.9,1.4
		C1273,640.2,1276.2,639.1,1276.6,639.5z M1262.2,545.9c0.5-1.8,2.5-1,4.4-1.4C1277,542,1260.6,552,1262.2,545.9z M1243.5,543
		c-0.5,0.5-5.9-4.2-5.8-5.8C1238.4,532.6,1245.8,540.6,1243.5,543z M1239.2,659.6c5.8,3.3,13.7,24.9,15.9,28.8
		c42.3,79,91.2,152.2,135.3,224.6c0.9,0.1,1.7,0.2,1.4,1.4c4.3,0.3-1.4,6,0,0c-0.9-0.1-1.7-0.2-1.4-1.4
		c-52-71.9-100.9-156-144-237.6C1241.8,666.8,1233.2,656.2,1239.2,659.6z M1393.2,937.5c-46-58.5-84.6-123.8-119.5-188.6
		c-1.1-0.3-1.7-1.2-1.5-2.9c-1.1-0.3-1.7-1.2-1.4-2.9c-1.8,0.2-0.9-2.1,0,0c1.1,0.3,1.7,1.2,1.4,2.9c1.1,0.3,1.7,1.2,1.5,2.9
		c35.3,56.2,71.5,119.5,110.8,172.8c4.4,6,17.4,23.4,17.3,24.4C1401.3,951,1395.2,939.9,1393.2,937.5z M1404.8,950.4
		c0.7,2-2.9,0.1-2.9,0C1401.7,948.4,1404.4,949.5,1404.8,950.4z M1266.5,735.9C1262.2,735.6,1267.9,730,1266.5,735.9
		C1268.3,735.7,1267.4,738,1266.5,735.9z M1244.9,697C1240.6,696.8,1246.3,691.1,1244.9,697C1246.7,696.9,1245.8,699.1,1244.9,697z
		 M1236.3,520C1237.2,520.9,1235.7,519.3,1236.3,520L1236.3,520z M1233.4,512.7C1235.1,512.6,1234.3,514.9,1233.4,512.7
		C1231.7,512.9,1232.5,510.7,1233.4,512.7z M1198.9,450.8C1199.8,451.7,1198.2,450.2,1198.9,450.8L1198.9,450.8z M1197.4,447.9
		C1196.8,447.3,1198.4,448.9,1197.4,447.9L1197.4,447.9z M1193.1,437.9C1199.2,439.4,1193.1,445.4,1193.1,437.9
		C1191.3,438,1192.2,435.8,1193.1,437.9z M1230.5,514.2c3.9,7.2,12.6,31.3,1.4,11.5c-21.8-38.5-45.1-83.9-67.7-126.7
		c-2.3-4.4-10.9-15.6-10.1-18.7c0.7-3,5.6,4.2,7.2,7.2c2.7,5-1.8-0.7,4.3,10.1C1189.3,438.8,1208.7,473.6,1230.5,514.2z
		 M1229.1,668.3C1227.3,668.4,1228.2,666.2,1229.1,668.3C1230.8,668.1,1230,670.4,1229.1,668.3z M1210.4,553.1
		c-30.9-53.9-63.8-116.7-95-175.7c-2.9-5.3-14.5-21.1-13-25.9c0.6-1.8,7.3,7.7,8.6,10.1c11.7,21.5,23.8,44.9,34.6,66.3
		c9.9,19.7,18.8,31.9,28.8,51.8c10.6,21.1,24.3,40.3,36,64.8C1213.8,551.6,1217.6,565.7,1210.4,553.1z M1213.3,685.5
		C1211.5,685.7,1212.4,683.4,1213.3,685.5C1215,685.4,1214.1,687.6,1213.3,685.5z M1308.3,977.8c0.8,0.1,1.7,0.2,1.4,1.5
		c1.8-0.1,0.9,2.1,0,0C1308.8,979.2,1308.1,979.1,1308.3,977.8c-1.1-0.3-1.7-1.2-1.5-2.9c-0.9-0.1-1.7-0.2-1.4-1.5
		c-53.3-77.2-108.9-163.1-152.7-250.5c-8.5-16.9,3.1-0.3,7.2,7.2c47.1,84.8,95.4,166.6,145.5,243.3c0.8,0.1,1.7,0.2,1.4,1.5
		C1308,975.3,1308.5,976.2,1308.3,977.8z M1115.4,741.7c10.3,10.3,17,28.5,25.9,44.6c22.4,40.5,49.4,82,73.4,125.3
		c7.3,13.2-7.9-8.5-11.5-14.4c-26.5-43.2-50.9-84.6-76.3-131c-3.1-5.7-12.4-20.1-11.5-23.1C1115.4,743,1115.4,741.8,1115.4,741.7z
		 M1128.3,731.6c4.4-0.8,6.3,10.1,8.6,14.4c8.9,16.2,19.1,31.2,24.5,46.1c1.1,0.3,1.7,1.2,1.5,2.9c9.7,12.4,17.6,26.6,24.5,41.8
		c1.2,0.3,1.7,1.2,1.4,2.9c1.8-0.2,0.9,2.1,0,0c-1.1-0.3-1.7-1.2-1.4-2.9c-10.1-12-17.7-26.5-24.5-41.8c-1.2-0.3-1.7-1.2-1.5-2.9
		c-6.6-8.6-11.9-16.1-18.7-28.8C1140.5,759.1,1126.7,731.9,1128.3,731.6z M1197.4,854C1199.2,853.8,1198.3,856.1,1197.4,854
		C1195.7,854.1,1196.5,851.9,1197.4,854z M1198.9,858.3c0.5-6.1,14,20.9,5.8,10.1C1204.1,867.7,1198.5,862.1,1198.9,858.3z
		 M1213.3,881.4c-1.1-0.3-1.7-1.2-1.5-2.9c-0.9-0.1-1.7-0.2-1.4-1.4c-1.8,0.1-0.9-2.1,0,0c0.8,0,1.7,0.2,1.4,1.4
		C1213,878.8,1213.5,879.7,1213.3,881.4c5.1,5,8.8,11.3,11.5,18.7c1.7-0.2,0.9,2.1,0,0C1219.6,895.1,1216,888.7,1213.3,881.4z
		 M1090.9,414.8c-2.7-5.1-12-22.9-11.5-24.5c0.5-1.7,2.5-0.9,4.3,1.4c8.5,10.9,16,31.6,24.5,47.5c20.9,39.2,43.7,84.9,67.7,126.7
		c1.8,3.2,1.8-0.7,4.3,4.4c0.7,1.5,1.8,6.8,1.4,7.2c-2.3,2.4-13.7-21.8-14.4-23C1141.9,506.9,1116.9,463.9,1090.9,414.8z
		 M1086.5,319.8C1093.7,323.2,1087.5,329.3,1086.5,319.8C1084.8,319.9,1085.7,317.7,1086.5,319.8z M1090.9,331.3
		c0.3-3.3,7.9,5,5.8,7.2C1096,339.2,1090.9,331.2,1090.9,331.3z M1152.8,376C1154.5,375.8,1153.7,378.1,1152.8,376
		C1151.1,376.1,1151.9,373.9,1152.8,376z M1177.3,407.6c1.1,0.3,1.7,1.2,1.5,2.8c1.1,0.4,1.6,1.2,1.4,2.9c1.1,0.3,1.7,1.2,1.4,2.9
		c1.8-0.1,0.9,2.1,0,0c-1.1-0.3-1.6-1.2-1.4-2.9c-1.2-0.4-1.7-1.2-1.4-2.9C1177.6,410.2,1177,409.3,1177.3,407.6
		C1175.5,407.8,1176.4,405.5,1177.3,407.6z M1171.5,397.5c1.2,0.3,1.7,1.2,1.5,2.9c1.7-0.1,0.9,2.1,0,0
		C1171.8,400.1,1171.2,399.2,1171.5,397.5C1163.5,393.6,1170.8,386.2,1171.5,397.5z M1165.7,387.5
		C1167.5,387.3,1166.6,389.6,1165.7,387.5C1161.4,387.2,1167.1,381.5,1165.7,387.5z M1080.8,242.1c30,39.6,55,84.2,77.8,131
		c1.1,0.3,1.7,1.2,1.4,2.9c1.1,0.3,1.7,1.2,1.4,2.9c6.1,1.5,0,7.6,0,0c-1.1-0.3-1.7-1.2-1.4-2.9c-1.1-0.3-1.7-1.2-1.4-2.9
		C1132.6,329.4,1106.6,285.8,1080.8,242.1C1073.2,239.1,1079.3,233,1080.8,242.1z M1073.6,233.4
		C1073,232.8,1074.5,234.3,1073.6,233.4L1073.6,233.4z M1057.8,206.1c5.8,8,17.2,27.8,4.3,11.5c-1.6-2.1-19.2-21.7-18.7-24.5
		C1044.1,189,1056.4,204.2,1057.8,206.1z M1065,283.8C1060.6,283.5,1066.3,277.8,1065,283.8C1071,285.3,1064.9,291.4,1065,283.8z
		 M1048.9,261.4c1.8,2.6,4.1,6.1,7.4,10.8C1056.1,272,1051.3,265,1048.9,261.4c-0.4-0.6-0.8-1.1-1.1-1.6c-3.2-4.5-4.5-6.5,0,0
		c0.3,0.5,0.6,0.8,0.9,1.2c-0.6-0.9-1-1.6-1-1.7c0.5-4.8,14.9,15.3,12.9,17.3c-0.5,0.5-7.4-9.1-11.9-15.5
		C1048.8,261.2,1048.8,261.3,1048.9,261.4z M1027.5,171.5c0.9,0.1,1.7,0.2,1.5,1.4c0.9,0.1,1.7,0.2,1.4,1.5c1.8,0.6,3,1.8,2.9,4.3
		c5.7,0.7,11.5,10.2,10.1,11.5c-0.4,0.4-12.7-10.3-10.1-11.5c-1.8-0.6-2.9-1.9-2.9-4.3c-0.9-0.1-1.7-0.2-1.4-1.5
		C1028.1,172.9,1027.2,172.7,1027.5,171.5C1025.8,171.6,1026.6,169.4,1027.5,171.5z M1021.8,424.9c6.3,11.7,10.9,24.3,17.3,36
		c6,11,14.3,20.5,20.2,31.7c12.3,23.6,24.1,46.3,36,69.1c6.2,11.8,13.7,23.4,18.7,34.5c1.7,3.8,12.8,35.8,4.3,21.6
		c-60.8-102.3-111-213.5-174.2-308.1c-6-1.5,0-7.6,0,0c19.6,20.6,31.3,49.3,48.9,72c-8.4-19.5-21.1-34.6-30.2-53.3
		c-1.7,0.1-0.9-2.1,0,0C984.2,358,1004.4,392.8,1021.8,424.9z M1086.5,816.5C1082.2,816.3,1087.9,810.6,1086.5,816.5
		C1088.3,816.4,1087.5,818.7,1086.5,816.5z M1098.1,855.4c12.9,22.6,23.9,37.5,33.1,59c8.5,6.9,12.5,18.3,17.3,28.8
		c1.1,0.3,1.7,1.2,1.4,2.9c15.7,13.1,22.7,35,33.1,53.3c2.6,1.3,5,2.7,4.3,7.2c1.8-0.2,0.9,2.1,0,0c-1.7-2.2-4.2-3.5-4.3-7.2
		c-12.8-16-22.4-35.2-33.1-53.3c-1.1-0.3-1.6-1.2-1.4-2.9c-7.2-8.2-12.4-18.4-17.3-28.8c-20.4-30.2-42.1-67.7-60.5-100.8
		c-3.7-6.7-10.5-24.6-1.5-10.1C1079.3,819.7,1089.7,840.8,1098.1,855.4z M1088,820.9C1087.4,820.3,1088.9,821.8,1088,820.9
		L1088,820.9z M1126.9,928.9C1127.8,929.8,1126.3,928.3,1126.9,928.9L1126.9,928.9z M1125.4,926
		C1124.8,925.4,1126.4,926.9,1125.4,926L1125.4,926z M1018.9,591.9C1014.6,591.7,1020.3,586,1018.9,591.9
		c9.8,15.9,22.1,36,31.7,53.3c5.6,9.9,14.2,28.5,4.4,13C1040.9,636.2,1029,613.2,1018.9,591.9z M1021.8,607.8
		C1022.7,608.7,1021.1,607.2,1021.8,607.8L1021.8,607.8z M1072.1,629.4c-8.5-15.4-14.9-22.8-24.4-41.8c-2.5-4.8-13.6-24.1-13-25.9
		c0.6-1.8,3.4-1.1,4.3,0c8.3,9.6,25.1,45,34.6,63.3c0.2,0.4,12,19.7,10.1,21.6c-2.1,2.1-8.8-9.9-7.2-7.2
		C1072.9,633.6,1075.7,635.9,1072.1,629.4z M1065,649.6c-1.1-0.3-1.7-1.2-1.4-2.9c-7.2-3.4-1-9.5,0,0
		C1064.6,647,1065.2,647.9,1065,649.6C1066.7,649.4,1065.8,651.6,1065,649.6z M1039,600.6C1033,599.1,1039.1,593,1039,600.6
		c2.4,2.9,5.2,5.4,5.8,10.1c1.1,2.2,15.3,22.1,13,24.4c-0.3,0.2-16-21.4-13-24.4C1041.9,608.3,1039.1,605.8,1039,600.6z M1065,816.5
		c20,30.8,35.3,64.1,51.8,93.6c2.8,1,3.8,3.8,4.3,7.2c6.1,1.5,0,7.5,0,0c-2.8-1-3.8-3.9-4.3-7.2c-16-22.4-30-50.5-44.7-76.3
		c-2.9-5.2-16.3-24-15.8-25.9C1057.6,803.1,1063,813.5,1065,816.5z M971.4,391.8c-1.3-2.3-9.1-13.6-8.6-15.8
		c0.6-2.5,9.3,9.4,11.5,13c21.7,34.5,43.8,79.8,61.9,113.8c20.5,38.3,41,71.5,61.9,113.7c1.4,2.8,11,14.4,5.7,15.9
		c-2,0.5-8.4-12.9-10.1-15.9C1054.5,545.8,1013.3,464.4,971.4,391.8z M1011.7,579C1016,579.3,1010.3,585,1011.7,579
		C1009.9,579.1,1010.8,576.9,1011.7,579z M961.3,371.6C955.9,369.5,961.9,363.5,961.3,371.6C963,371.5,962.2,373.7,961.3,371.6z
		 M933.9,142.7c13.2,13.1,24.7,28.8,33.1,41.8c12.2,7.5,3.7,12,0,0c-9.1-9.5-19.5-21.2-28.8-31.7
		C933.8,147.8,924.3,133.2,933.9,142.7z M932.5,374.5C930.7,374.7,931.6,372.4,932.5,374.5C934.2,374.4,933.4,376.6,932.5,374.5z
		 M929.6,370.2c-1.2,1.1-4.3-5.7-4.3-5.8C925.7,361.6,932,367.8,929.6,370.2z M733.8,201.7c11.6,9.2,31.1,33.8,44.6,49
		c5,5.6,19.1,20.3,11.5,15.8c-3.2-1.9-12.8-13-15.9-15.8c-13.6-12.5-21.7-22-37.4-37.4c-3.1-3-19.6-16-18.7-18.7
		C718.6,192.5,731,199.5,733.8,201.7z M553.8,193.1C554.7,194.1,553.2,192.5,553.8,193.1L553.8,193.1z M414.1,368.8
		c4.3-6,0.2,11.7-2.9,8.6C409,375.2,412.8,370.6,414.1,368.8z M365.1,570.3c4-52,11.2-90.8,24.5-136.8c1.8-6.3,2.8-15.7,7.2-18.7
		c0.7-0.5-6.4,29.2-8.6,41.8c-5.2,28.5-8.9,61.4-14.4,93.6c-2.5,14.8-4.9,24.8-7.2,40.3C364.2,606.8,364.6,578.1,365.1,570.3z
		 M346.4,543c1.2-14,3.1-25.5,7.2-46.1c1.7-8.4,3.6-25.4,7.2-28.8c0.8-0.8,2.7-2.3,2.9,0c0.7,9.6-10.4,51.7-13,70.6
		c-0.2,1.1-2,25.3-5.8,21.6C345.6,560.9,346.4,543.5,346.4,543z M363.7,606.3C363.1,605.7,364.7,607.3,363.7,606.3L363.7,606.3z
		 M317.7,855.4c2.5-7.6,4.8,10.5,0,5.7C317.3,860.8,317.4,856,317.7,855.4z M316.2,826.6C317.2,827.6,315.6,826,316.2,826.6
		L316.2,826.6z M251.4,734.5c0.1-1-0.1-9.8,1.4-11.5c3.3-3.6,3,33.2,1.4,41.8C251.6,780,251,739.3,251.4,734.5z M251.4,793.5
		c0.8-0.9,3.7-1.8,4.3,0c2.6,7.7,1.3,62.8,1.4,76.3c0,2.8,1.1,20.8-1.4,21.6c-2.6,0.8-1.2-8.2-1.4-10.1c-3-20.4-5.3-62.1-2.9-85
		C251.4,795.8,251.1,793.9,251.4,793.5z M54.1,962c-0.3,1.1-5.6-15.6-2.8-25.9C51.5,935.1,57.1,952.8,54.1,962z M51.3,908.7
		c2.5-2.6,3.1,36,0,13C50.8,918.1,47.5,912.6,51.3,908.7z M57,872.7c-0.1,0.6-0.2,1-0.2,1.5c0.2-1,0.3-2.2,0.4-2.7
		C57.2,871.8,57.1,872.1,57,872.7z M57,867C56.4,866.3,58,867.9,57,867L57,867z M65.7,923.1c0.7,0.7-2.5,1.9-2.9,1.4
		C62.1,923.9,65.3,922.7,65.7,923.1z M62.8,913c1.4-4.7,3.1,5.8,1.4,5.8C62.8,918.8,62.3,914.8,62.8,913z M64.2,949
		c-0.8-7.8-2.2-17.5,0-21.6C66.7,922.9,67.9,983.4,64.2,949z M62.8,901.5c-1.5-13.5-1.5-19.8-1.5-43.2c0-48.7,1.5-95.5,5.8-135.4
		c2.5-23.2,8.5-44.3,8.6-64.8c0-5.5-1.6-11.7-1.5-15.8c0.1-2.6,7.5-30,4.3-33.1c-1.3-1.3-4.6,12.6-4.3,11.5
		c-6.5,31.3-11.5,75.3-13,100.8c-1.5,26.6,1.6,45.6-1.4,63.3c-0.5,3-5.1,14.9-5.8,20.2c-2.5,21.1-1.4,47-1.4,69.1
		c0,10.9,1.2,38.4-1.4,28.8c-1.9-6.5-0.9-2.1-1.5-14.4c-1.5-34.7,0.2-62,1.5-89.3C58,650.4,88.3,502.1,142,397.5
		c4.7-19.7,16.8-35.2,23.1-46.1c4.5-7.8,17.3-30.1,23.1-37.5c-7.7,10,3.7-6.3,5.7-4.3c1.3,1.3-4.2,9.8-4.3,10.1
		c-11,18.6-24.6,40.1-31.7,59.1c-1.5,4-1.4,9.5-2.9,13c-0.8,2-7.4,9.8-8.6,13c-1.8,4.5-3.1,12.4-5.8,20.1
		c-7.4,21.5-14,40.1-21.6,60.5c-8.7,23.3,5.9-22.6,5.8-25.9c-36.3,97.3-50.6,224-56.2,347c-1.6,34.2,0.5,49.8-1.4,77.8
		C66.4,894.2,65.1,921.7,62.8,901.5z M75.7,1058.5c-3.1,3-4.2-20.1-4.3-21.6c-0.9-10-2.6-18.9-2.9-23c-0.2-3-2-11.3,0-15.9
		c1.3-2.9,2.2,13.4,2.9,21.6C72.6,1033.6,80.2,1054,75.7,1058.5z M78.6,1019.6c0-0.2-0.1-1.3,0-1.5C83.8,1013,78.6,1027,78.6,1019.6
		z M78.6,1013.9C79.6,1014.8,78,1013.2,78.6,1013.9L78.6,1013.9z M82.9,1029.6c0.2,2.1-2.5,1-2.8,0
		C79.4,1027.7,82.9,1029.6,82.9,1029.6z M84.4,1057c-1,0-5.6-14.4-4.3-17.3C81.8,1035.6,88.6,1056.8,84.4,1057z M106,1326.3
		C103.9,1331,102.4,1320.6,106,1326.3L106,1326.3z M106,1330.6c0.8-4,4.6,4.1,2.9,5.8C109,1336.2,104.8,1336.7,106,1330.6z
		 M111.7,1343.5c-1,1.1-3-3-2.9-4.3C109.1,1334.5,112.5,1342.8,111.7,1343.5z M137.7,776.2c-0.6,2.7-1.8-0.9-1.4-2.9
		C136.8,770.7,138.1,774.3,137.7,776.2z M139.1,767.6c0.7-0.3-3.8-20.7,0-24.5C144.3,737.9,141.1,766.8,139.1,767.6z M126.1,576.1
		c10.9-40.9-0.4,14-4.3,10.1c-0.7-0.7,5.8-27.7,5.8-27.4c1.2-5.8,8-26.6,5.8-28.8c0,0-4.5,10.3-5.8,15.8
		c-17.7,75.2-23.4,139.5-28.8,218.9c-1.1,16.2-1.8,57.9-4.3,74.8c-4,27.3-3.3-21.5-2.9-30.2c3.4-70.7,10.9-145.1,23.1-211.7
		c1.1-6.1,7.8-45.8,2.9-28.8c-8.6,29.6-17.7,88.3-20.2,116.6c-7.5,86.8-10.5,156.7-10.1,237.6c0.1,10.5,2.5,8.9,2.9,21.6
		c0.5,19.8-0.5,37.9,1.4,60.5c0.3,3.7,1.1,14.7,1.4,18.9c0,0,0-0.1,0-0.1c0.2,2.5,0.2,2.1,0,0.1c0.1,2.1-0.7-0.8,0,9.9
		c0.7,10-2.9,8.8-2.9,0c0-24-2.5-27.6-4.3-50.4c-7.1-88-6.7-153.9,0-240.5c1.4-18,3.3-44.5,5.8-66.2c1.3-11,2.9-32,0-14.4
		c-8.3,50.3-10.8,106.8-13,154.1c-0.2,4-1.8,40.2-2.9,24.5c-0.9-12.1,1.2-51.9,1.4-57.6c3.1-70.3,13-150.3,25.9-211.7
		c2.1-9.9,2.4-20.5,4.3-30.3c4.7-23.9,18.7-55.5,25.9-79.2c3-9.9,4.1-21.2,7.2-28.8c2-5.1,7.3-10.1,10.1-15.8
		c17.8-37,30.5-72.5,51.8-106.6c1.7-2.6,8.6-16.3,11.5-15.8c3.2,0.5-1.9,7.1-2.9,8.6c-10.2,16.6-17.9,29.8-25.9,46.1
		c-2.8,5.6-8.9,16.8-10.1,20.2c-3.4,9.9-2.4,20.2-5.7,27.3c-3.7,8.1-15.8,14-10.1,23.1c0.4,0.3,4.2-0.4,4.3,0
		c1.7,6.4-6.5,20-10.1,30.2c-4,11.4-9.1,21.1-7.2,30.3c5.1-12.1,6.6-17.7,11.5-31.7c1.5-4.4,17.8-47.7,11.5-21.6
		c-5.3,22-19.1,55-24.5,72C137.8,522.4,132.6,551.8,126.1,576.1z M200.9,431.3c-1.8,18.8-11.2,34.5-17.2,54.1
		c-2.3,7.3-9.5,40-13,40.3c-5.5,0.5-1-4.3-1.4-8.6c-0.4-4.2-2.8-8.5-2.9-5.8c0.5-11.3,9.6-29.8,13-38.9c8.8-23.7,13.6-41.3,23-63.3
		c1.8-4.3,14.5-30,11.5-18.7c-4.1,15.5-11.6,30.6-13,40.3c-1.2-0.3-1.4,0.5-1.4,1.4C200.5,432.3,200.8,431.9,200.9,431.3z
		 M188.1,538.7c0.5-2.9-0.3-12.1,2.9-14.4C197.3,519.5,184.8,555.1,188.1,538.7z M176.5,403.3C176.4,401.6,178.6,402.4,176.5,403.3
		C174.4,420.7,169.5,407.7,176.5,403.3z M163.6,914.5c0-0.2-0.1-1.3,0-1.4C168.7,907.9,163.6,921.9,163.6,914.5z M160.7,895.8
		c-7.9-75.9,3-157.3,11.5-226c1.3-10.3-0.2-26.8,2.9-31.7c1.7-2.7,2.8,3.2,2.9,4.3c1,14.8-6.4,47.2-5.8,60.5
		c0.4,8.8,2.6,11.5,2.9,17.3c0.6,13.3-1.8,31.1-2.9,49c-2,34.3-2.5,69.4-7.2,99.3c-1.6,10,1.1,30.5,1.4,38.9
		C167.1,920.9,161,898.7,160.7,895.8z M176.5,1029.6c-3,3-4.1-15.7-4.3-17.2c-2.3-15.2-2-17.4-2.9-33.1c-0.2-3.1-2.7-8.1-1.5-11.5
		c1.6-4.3,5.1,19.2,5.8,25.9C174.4,1001.4,178.6,1027.7,176.5,1029.6z M175.1,895.8c-6.8-56.3-1-125.8,4.3-188.6
		c0.5-6.6,0.1-25.5,2.9-27.4c3.2-2.2,0.4,21.6,0,27.4c-4.7,62.3-7.8,106.4-5.8,172.8C176.9,892.2,178.5,924.1,175.1,895.8z
		 M180.9,953.4c-0.9-0.1-1.8-1.8-1.4-2.9C180.8,946.2,182.8,953.5,180.9,953.4z M189.5,1032.6c-1,1.6-3.9-13.1-4.3-15.9
		c-2.4-16-2.8-34.2-4.3-53.2c-0.1-1.4-2.3-5.1-1.4-7.2c0.7-1.7,2.5-1.5,2.9,0c1.5,7,0.9,21.8,2.9,38.9
		C186.8,1009.2,192.7,1027.6,189.5,1032.6z M190.9,554.5c-0.9-11,5.9-28.9,5.7-37.4c-0.1-5.6-3.4-1.5-2.9-5.8c0.1-1.2,3.5-4,4.3-8.6
		c3.4-20.5,13.9-57.2,23-76.3c0.9-2-0.3-1.7,1.4-2.9c7.6-5.2-4.1,13.4-1.4,14.4c0.2,0.1,5.6-5.8,4.3-10c2.5,7.8-5.4,20.8-8.6,31.7
		c-8.6,28.9-12.1,49.7-20.2,84.9C196.1,547,191.9,567,190.9,554.5z M229.8,437.9c-5.9,16.9-9.1,46.9-15.9,66.2
		c-3.2,9.3-6.8,15.9-10.1,31.7c-0.2,1.1-6,34.3-8.7,31.6c-2.7-2.7,6.6-37.6,7.2-40.3c5.5-26.7,12.8-51.9,20.1-74.9
		c4.1-12.7,10.3-24,13-34.6c0.1-0.5-0.3-2.6,0-2.9c0.9-0.7,2.6-2.3,2.9,0C239,420,232.8,429.4,229.8,437.9z M241.3,851.1
		c-1.8-35.7-3.2-82.1,0-115.2c0.1-0.8,0.7-7.8,1.4-8.6c0.1-0.1,0-1.3,0-1.4c4.5,22.1,0,47.4,0,82.1c0,12.9,1.1,30.5,1.5,37.5
		c0.4,9.5,1.6,40.1,0,41.8C244.3,887,241.4,853.4,241.3,851.1z M257.2,1025.4c-6.6-26.8-6.5-44.7-8.6-76.3
		c-0.5-7.9-5.7-23.4-2.9-30.3c1.4-3.5,5.4,24.9,5.8,28.8c1.9,20.7,2.6,37.1,5.8,60.5C258.9,1020.8,264.2,1053.7,257.2,1025.4z
		 M262.9,1022.4C262.3,1021.9,263.9,1023.4,262.9,1022.4L262.9,1022.4z M265.6,994.4c-1.3-5.8-1.6-12.3-2.7-22.3
		c-0.6-5.9-3.3-19-1.4-23c1.5-3.3,10.2,50.2,8.6,51.8C268.3,1002.7,266,995.3,265.6,994.4c0.1,0.2,0.1,0.5,0.2,0.7
		C265.6,994.2,265.6,994.1,265.6,994.4z M268.7,1003.8c0.3-0.9,6.2,9.6,2.9,12.9C271.8,1016.4,267.3,1008.5,268.7,1003.8z
		 M286,1153.5c-0.8,0.8-9.2-26.8-10.1-30.2c-1.3-5.2-8.8-29-7.2-33.1c1.8-4.8,6.5,17.4,10.1,31.7
		C281.3,1132.1,288.6,1150.9,286,1153.5z M280.2,495.5c0.3,1,2.9-1.4,2.9-2.9c0.1,12.9-4.7,33.6-8.6,47.5c-0.1,23.2-5.8,5.4,0,0
		c-3.4-11-5.3,12.8-5.8,18.7c1,0,1.9,0,2.9,0c-0.2-1.7,2.1-0.9,0,0c-1.3,7.1,0.7,19.4-2.9,20.2c-2.7,0.6,2.1-21,0-20.2
		c-0.7,0-1.9,0.3-1.4,1.5c-2.9-7.4,0.4-24.5,2.9-37.5c4.9-25.4,10.6-48,17.3-70.5c1.5-5,16.6-48.6,10.1-23
		c-3.5,13.9-4.7,18.9-7.2,28.8C287.8,467.8,278.8,490.1,280.2,495.5z M271.6,555.9C271,555.3,272.5,556.9,271.6,555.9L271.6,555.9z
		 M437.2,1529.3c-7.9-2.7-1.5,3.3-11.5-1.5c-5.4-2.5-11.1-8.4-17.3-12.9c-6-4.4-14.1-7.9-18.7-11.5c-9.3-7.3-17.7-19.5-25.9-30.3
		c-23.4-30.6-56.1-63.7-70.6-97.9c-1.7,0.1-0.9-2.1,0,0c40,64.4,94.8,119.4,159.8,159.9C475,1548.8,437.3,1529.4,437.2,1529.3z
		 M314.8,1241.3c0.3-4.8,3.6,3.5,2.9,4.3C316.6,1246.7,314.7,1242.6,314.8,1241.3z M320.5,1254.3
		C316.2,1254,321.9,1248.3,320.5,1254.3C322.3,1254.1,321.4,1256.4,320.5,1254.3z M323.4,1261.5
		C319.1,1261.2,324.8,1255.5,323.4,1261.5C327.7,1261.8,322,1267.5,323.4,1261.5z M329.2,1274.5
		C335.2,1275.9,329.2,1282,329.2,1274.5C321.8,1268.2,328.1,1262,329.2,1274.5z M414.1,1448.7c5,2.5,8.7,5.5,14.4,10.1
		c4.6,3.6,18.6,14.4,11.5,11.5C430.8,1466.5,418.2,1453,414.1,1448.7C412.4,1448.8,413.2,1446.6,414.1,1448.7z M491.9,1550.9
		c-2.3,2.3-29.3-13.7-28.8-13c-6,1.4-0.3-4.3,0,0C468.6,1536.6,493.7,1549.1,491.9,1550.9z M497.6,1512.1c0,1.4-2.5,1.8-2.9,0
		c-4.4,0.1-7.3-1.3-8.7-4.3c-3.3,0.4-5.4-0.4-5.7-2.9c-1.1-0.3-2.8,0-2.9-1.4c-1.1-0.3-2.9-0.1-2.9-1.4c-2.5,0.1-3.7-1.1-4.3-2.9
		c-1.1-0.3-2.8,0-2.9-1.4c-2.5,0.1-3.7-1.1-4.3-2.9c-13.1-6.1-24.8-14.1-34.5-23c-2.8-2.5-15.9-15.4-5.8-8.6
		c13.2,8.8,29.9,24.5,40.3,31.6c2.5,0,3.7,1.2,4.3,2.9c1.1,0.3,2.8,0,2.9,1.4c2.5-0.1,3.7,1.2,4.3,2.9c1.1,0.3,2.8,0,2.9,1.4
		c1.1,0.3,2.8,0,2.9,1.4c1,0,1.9,0,2.9,0c0-1.4-1.2-1.7-1.5-2.9c-1.1-0.3-2.8-0.1-2.9-1.5c-1.1-0.3-2.8-0.1-2.9-1.4
		c-1.8,0.2-0.9-2.1,0,0c1.1,0.4,2.8,0.1,2.9,1.4c1.1,0.4,2.8,0,2.9,1.5c2.3,4.3,38.3,12.1,38.9,15.9
		C521.2,1521.1,498.9,1511.4,497.6,1512.1z M487.6,1502c-2.6-0.8-2.3-0.8-1.1-0.4c-7.3-2.7-17.3-9.3-20.5-12.5c-1.7,0.1-0.9-2.1,0,0
		c8.1,2.6,19.2,8.7,24.5,11.5c7.9,4.3-1,1.9-4,1C486.8,1501.7,487.2,1501.9,487.6,1502z M522.1,1520.7
		C523.1,1521.6,521.5,1520,522.1,1520.7L522.1,1520.7z M526.4,1522.1C527.4,1523.1,525.8,1521.5,526.4,1522.1L526.4,1522.1z
		 M530.7,1523.5C531.7,1524.5,530.1,1523,530.7,1523.5L530.7,1523.5z M556.7,1519.2c0.9-2.8-10.9,0.3-13,0c-1.9-0.3-5.4-4.3-5.7-4.3
		c-5.7-1.9-16.8-3.5-23-5.8c-0.3-0.1-7.3-1.8-7.2-1.4c-0.4-2.6,40.5,8.3,41.7,8.6C553.9,1517.5,558.1,1514.7,556.7,1519.2z
		 M533.6,1502c-13.6-1.3-23.8-6-33.1-11.5c-6,1.4-0.3-4.3,0,0C511.8,1494,523.1,1497.5,533.6,1502c6.6,0.6,14.7,1.9,21.6,2.9
		C578,1508.1,531.9,1507.3,533.6,1502z M573.9,1502c-3.7,3.1-19.2,1.2-27.4,0c-41.7-6.1-80.9-29.4-106.5-51.8
		c-28.4-24.9-53.6-55.2-73.4-84.9c-0.9-0.1-1.7-0.2-1.5-1.5c-1.7,0.1-0.9-2.1,0,0c0.9,0.1,1.7,0.2,1.5,1.5c39.2,46,80,95,144,118
		c12.4,4.5,34.6,9.7,50.4,14.4c1.6,0.5,3.3,4,4.3,4.3C567.5,1502.7,576.1,1500.1,573.9,1502z M571.1,1494.7
		c-0.7-0.7,3.6-2.2,4.3-1.4C576.1,1494.1,571.8,1495.5,571.1,1494.7z M615.7,1405.4c0.1,0.2,1.3-2.7,1.5-2.8
		C622.5,1396.8,619,1408.8,615.7,1405.4z M622.9,1395.4c-3.6,8.3-2.7-0.6-1.5-4.3c1.6-4.9,10.4-24.2,13-25.9
		C642.5,1359.9,625.1,1390.3,622.9,1395.4z M728,1503.4C726.5,1509.4,720.4,1503.4,728,1503.4C727.9,1501.7,730.1,1502.5,728,1503.4
		z M728,1490.4C727.7,1494.7,722,1489.1,728,1490.4C728.3,1486.2,734,1491.8,728,1490.4z M670.4,1480.4
		c-14.4,3.8,15.5-8.2,27.4-14.4c15.7-8.2,21.9-16.5,37.4-17.3c6-0.3,12.8-1.5,4.3,4.3c-17.4,11.9-40.4,25.1-60.5,34.6
		c-3.4,1.6-38.7,19.3-27.4,2.9C649.5,1493.6,688.5,1475.6,670.4,1480.4z M972.8,789.2c-3.7-1-13.2-33.6-18.7-33.1
		c-3.3,0.3,9.1,18.9,10.1,21.6c0.7,2-1.5,3.8-1.4,4.3c0,5.6,6.6,7.3,5.8,12.9c-0.5,3.6-18.3,25.3-21.6,24.5
		c-2-0.5-6.8-15.5-10.1-21.6c-27.4-51.7-55.3-97.8-83.5-146.8c23.4,46.8,50.9,94.5,74.9,139.7c3.6,6.7,5.5,13.2,8.6,20.2
		c1.8,4.1,7.8,9.2,7.2,14.4c-0.5,3.9-19.9,23.8-27.4,33.1c-47.9,59.8-87.2,113.3-128.2,177.1c-19,29.6-38.4,61.6-51.8,93.6
		c-11.5,27.4-24.5,53.4-37.4,77.7c-5.4,10.2-14.5,21.1-17.3,30.3c-1.5,4.9,3.2,1.8,2.9,5.8c-0.2,2.7-5.8,9.7-8.6,15.8
		c-18.7,40.2-37.8,85.5-57.6,119.5c1.5,0.1,1.8,2.6,0,2.9c1.4,5.9-4.3,0.3,0,0c0-1,0-1.9,0-2.9c-8.5,14.7-18.9,39.4-27.4,59.1
		c-1.5,3.6-7.6,18.3-8.6,18.7c-0.9,0.4-16.4-4.5-20.2-5.8c-22.5-7.5-39.6-17.2-56.2-25.9c11.2,10.7,36.2,21.4,54.7,27.4
		c2.4,0.8,20.8,4.7,21.6,5.8c0,0-1.3,1.8-2.2,3.2c-0.9,3.4-2.5,9.8-2.1,9.8c4.9,0.4,10.7-30.4,14.4-28.8c-0.1-1.8,2.1-0.9,0,0
		c-2.5,10.6-6,15.1-5.8,25.9c1.9,0.9,10.6-26.9,13-24.5c2.5,2.6-6.9,17.9-7.2,18.7c-3.1,7.8-3.3,17.7-5.8,20.1
		c-0.8,0.8-6.8-0.9-7.2,0c-0.7,1.7,5.8,2.8,7.2,1.4c-4.1,4.1-2.4,4-7.2,4.3c-3.5,0.2-6.6-0.4-13-1.4c-33.5-5.7-62.5-17-86.4-28.8
		c10.4,8.1,32.3,17.9,50.4,23c4.1,1.1,30,7.2,14.4,5.8c-4.9-0.5-2.5-0.5-7.2-1.5c-69.4-14.1-108.8-65.9-144-109.4
		c-42.8-53-68.8-110.8-90.7-180c-4.3-0.3,1.4-6,0,0c22.6,62.3,51,113.6,87.8,159.8c12,15.1,23,32.4,38.9,44.7
		c0.9,0.7,6.1,1.3,8.6,2.9c2.9,1.9,19.8,21.4,23,20.1c4-1.6-13.8-19.6-14.4-20.1c-41.4-41.4-78-90.7-99.4-145.5
		c-6.5-16.6-9.2-24.5-15.8-43.2c-1-3-11.7-28.4-11.5-28.8c4.1-7.8,9.7,9,11.5,13c23.5,50.3,41.8,90.2,72,128.1
		c4.8,5.9,10,10.9,14.4,17.3c11.3,16.5,26.2,40.8,44.6,51.9c-2-4.9-7.1-6.9-11.5-11.5c-5.2-5.5-18.3-21.3-4.3-8.7
		c8.5,7.7,16.2,15.9,23,21.7c-0.3,1.2,0.5,1.4,1.4,1.4c0.2-0.8-0.1-1.1-0.6-1.3c10.8,1.5,25,10.9,36.6,15.7
		c-18-13-36.9-28.8-53.3-46.1c-3.8-4-8.4-12.7-1.5-5.7c10.6,10.6,18.7,17.2,27.4,24.5c3.7,3.1,29.3,27,34.6,24.5
		c4.5-2.2-6.1-9.1-7.2-10c-30.6-27.8-52.2-41.3-74.9-76.4c-1.8,0.2-0.9-2.1,0,0c17.1,14.3,27.8,32,43.2,46.1
		c24.8,22.6,56,39.8,92.2,48.9c-33.9-13.4-60.7-31.8-85-54.7c-16.8-15.8-29.2-36.1-46.1-51.9c3.7,4.3,23.8,33.3,10.1,17.3
		c-43.4-50.8-70.9-111.7-89.3-169.9c-2.9-9.2-5.5-21.6-10.1-36c-2.9-9.2-14-31.7-13-34.5c2.3-6,6.5,9.6,7.2,11.5
		c15.2,41,27.6,82.3,43.2,115.2c9.1,19.1,19.6,39.1,33.1,56.1c41.5,52,84.5,103.8,154.1,128.2c5.2,1.8,23.3,6.1,23,5.7
		c-0.7-1.1-22.3,56.3-15.8,43.2c12.3-24.7,21.2-49.3,28.8-70.6c-5.7,2.4-8.5,24.4-11.5,26c-4.2,2.1-23.9-7-31.7-10.1
		c-14.2-5.7-23.8-8.8-30.2-12.9c-4.2-2.8-6.9-7.9-11.6-11.5c-4.2-3.3-10.1-5.3-14.4-8.6c-60.5-47.5-108.1-120.6-135.4-198.7
		c-1.7-0.2-1.5-2.2-1.4-4.3c-4.3-0.3,1.4-6,0,0c1.7,0.2,1.6,2.3,1.4,4.3c3.9-1,1.9-2.5,1.5-5.7c-3-19.9-18.7-49.5-24.5-69.1
		c-2.6-8.9-2.4-17.7-4.3-27.4c-0.8-4.3-4.8-12.6-7.2-24.5c-2.3-11.2-4.8-42,0-24.4c11.3,41.6,15.4,86.6,31.7,118.1
		c-17-61.9-32.8-118.2-40.3-187.2c-1.3-11.9,0.7-18.2,0-30.2c-2.2-36.6-9.6-81.1-5.7-126.7c2.2-26.3,1.7-51.6,2.9-77.7
		c0.2-5.3,3.5-36.9,7.2-33.1c3.9,3.9-2.2,29.9-2.9,44.6c-2.1,45-0.6,69,1.4,113.7c1.8,38.8,2.6,63,7.2,102.2
		c2.2,18.6,10.8,68.6,10.1,49c-1.3-32.1-8.8-86.7-11.5-120.9c-0.3-4.1-2.3-43.5-1.4-43.2c2.6,0.9,2.1,18.7,1.5,14.2
		c0.9,11.6,3,24.6,4.2,39c1.7,20.3,4.3,34.8,7.2,51.8c3.2,18.5,3.9,33.1,8.6,47.5c3.8,11.6,2.9,3.2,2.9-5.8
		c-0.1-9.9-2.9-26.1-4.3-38.9c-9-80.8-9.7-159-2.9-236.1c0.3-3,2-39.7,5.8-36c2.9,2.9-2.1,18.2-2.9,27.4
		c-0.9,11.5-3.7,48.1-2.9,48.9c3.2,3.2,4.3-24.8,4.3-25.9c3.2-46.9,17.7-99,17.3-136.8c-0.5-46,11.8-90.8,23-129.6
		c10.8-37.3,23.9-73.1,33.1-112.3c-3.8,5.8-8.9,19-11.5,25.9c-8.2,21.4-0.5-7.1,0-11.5c0.6-5.9-2.4-3.9-1.5-8.6
		c1.7-8.6,7.9-20.3,11.5-30.3c4.7-12.8,8.7-24.3,10.1-31.7c-1.6,2-3.8,4.8-5.8,8.6c-11.2,22.2-0.2-4.8,1.5-11.5
		c-7,9.1-0.9-13.3,2.9-23c2.2-5.6,6.1-11.9,8.6-17.3c1.8-3.9,11.2-22.5,10.1-8.7c3-3.7,4.9-5.1,10.1-4.3c10.6,1.7,9-0.9,4-1.3
		c12.3,0.4,22.7,7.5,34.9,12.9c19,8.5,36.3,18.3,51.9,28.8c15.2,10.3,29.6,25.9,43.2,34.5c-25.5-27.7-63.6-55.3-97.9-74.9
		c-11.8-6.7-3.4-6.1,4.3-2.9c5.8,2.4-0.1,1.1,8.6,5.7c45.8,24.4,84.6,58.8,115.2,93.6c5.2-0.3,0.9,5.3,0,2.9
		c1.1,2.9,8.8,10.7,10.1,11.5c2.2,1.6,5.7,0.1,7.2,1.5c8,7.2,14.6,20.9,23,31.7c8.9,11.3,18.3,21.8,25.9,28.8
		c-34.7-49.9-75.8-100.8-123.8-138.2c-15.1-11.7-27.1-19.7-43.2-30.2c-8.2-5.4-20.8-8.7-24.5-12.9c-0.8-0.9,3.4-2.5,2.9-2.9
		c-2.8-2-28.8-11.7-27.3-14.4c3.3-6.1,6.1,0.5,14.4,0c4.6-0.3,5.4-3.3,8.6-2.9c10.8,1.4,21.1,10.6,33.1,13
		c7.3,1.4,22.9-0.5,28.8,2.9c-3.4-4.1-12.6-8-5.8-5.7c11.1,3.7,18.5,10,25.9,14.4c5.5,3.3,11,4.2,15.8,7.2c5.2,3.2,9,9.6,13,11.5
		c3,1.4,8.7,0.7,10.1,1.5c9.8,5.6,21.5,19,33.1,30.3c8.2,7.9,17.5,15.8,24.5,23c2.8,2.9,4.6,7.6,7.2,10.1c3.5,3.4,8.3,4,11.5,7.2
		c8.7,8.8,16.5,21.7,24.5,31.7c9.1,11.4,15.9,24.1,24.5,33.1c1.6,1.7,4.4,2.7,5.7,4.3c20,25.2,38.7,59.5,57.6,92.1
		c18.7,32.3,36.2,65.7,53.3,96.5c18.3,33.1,37.8,64.7,54.7,95c9.3,16.6,15.8,34.5,24.5,50.4c11.7,21.4,23.3,37.2,31.7,59
		c1.9,5,5.8,9.8,5.7,10.1C985.6,780.7,975.1,789.8,972.8,789.2z M329.2,1248.6C324.9,1248.3,330.6,1242.6,329.2,1248.6
		C330.9,1248.4,330,1250.6,329.2,1248.6z M333.5,1260C332.9,1259.5,334.4,1261,333.5,1260L333.5,1260z M337.8,1267.2
		c1.1,0.3,1.7,1.2,1.4,2.9c1.7-0.2,0.9,2.1,0,0C338.1,1269.8,337.6,1268.9,337.8,1267.2c-1.1-0.3-1.7-1.2-1.5-2.9
		c-4.3-0.3,1.4-6,0,0C337.5,1264.7,338,1265.6,337.8,1267.2z M345,1281.6c4.2-4.2,0,10.8,0,1.4C345,1282.9,344.9,1281.8,345,1281.6z
		 M350.8,1291.7C356.8,1293.2,350.8,1299.3,350.8,1291.7C349,1291.9,349.9,1289.7,350.8,1291.7z M355.1,1298.9
		C360.8,1299.3,354.8,1305.3,355.1,1298.9C353.3,1299.1,354.2,1296.8,355.1,1298.9z M372.3,1326.3c0.9,0.1,1.7,0.2,1.4,1.4
		c1.1,0.4,1.7,1.2,1.5,2.9c1.7-0.1,0.9,2.1,0,0c-1.1-0.3-1.7-1.2-1.5-2.9C372.9,1327.6,372.1,1327.5,372.3,1326.3
		c-1.1-0.4-1.6-1.2-1.4-2.9c-0.9-0.1-1.7-0.2-1.4-1.4c-1.8-0.6-3-1.9-2.9-4.3c-6.1-1.5,0-7.6,0,0c1.8,0.6,2.9,1.9,2.9,4.3
		c0.9,0.1,1.7,0.2,1.4,1.4C372,1323.7,372.6,1324.6,372.3,1326.3z M327.7,950.4C323.4,950.2,329.1,944.5,327.7,950.4
		C329.5,950.3,328.6,952.6,327.7,950.4z M428.5,1333.5c3.1,3.7,15.6,16.7,10.1,14.5c-8.9-3.7-19-19.5-23-24.5
		c-24.8-31.4-45.1-66-59-103.6c-4.3-0.3,1.4-6,0,0C375.1,1260,401,1301.1,428.5,1333.5z M992.9,766.2c-0.9,0.4,0.1,2.3-1.4,2.9
		c-4.3,1.6-13.2-20.7-14.4-23c-14.9-28-31.6-58.3-44.6-82.1C881.8,571.8,831.8,477.7,777,394.7c-12.7-19.3-28.1-39.9-37.4-60.5
		c-8.6-3.4-2.4-9.5,0,0c40.3,44.2,71.3,97.7,103.7,149.8c-17-38.2-42.3-68.1-61.9-103.7c-10.2-8.1-2.5-11.4,0,0
		c46.5,55.4,76.4,122.5,113.7,191.5c16.5,30.5,38,65.5,54.7,97.9c11.7,22.8,29.9,53.2,40.3,79.2c1.1,2.9-1.3,8.2-1.5,7.2
		c0.3,2.1,4.1,0.7,4.3,1.4C993.8,760.7,992.2,766.5,992.9,766.2z M998.7,750.3c0.2-0.6,3.2-2.6,4.3-1.5
		C1004.7,750.6,998,753.2,998.7,750.3z M998.7,747.5c-4.8,0.1-5.9-9.2-7.2-11.6c-30.2-56.2-58.9-104.7-87.8-159.8
		c-4.1-7.8-14.2-23.7-13-26c0.1-0.2,9.5,6.8,7.2,4.3c6.7,7.2,6.4,18,11.6,17.3c2.6-0.4,0.3-2,0-2.9c-7.6-22.2-26.2-47.3-34.6-63.4
		c-1.4,5.8,8.9,16.4,10.1,21.6c0.5,2.2-1,12,0,11.6c-1.1,0.5-2.5-3.7-2.9-4.3c-12.6-23.8-29.7-54.1-41.8-73.4
		c-10.5-16.9-22.6-37.9-33.1-54.7c-2.3-3.8-15-30.2-5.7-17.3c15.3,21.3,30.3,46.6,44.6,67.7c15.6,22.9-1.8-7.2-4.3-15.8
		c0,0.8-1.2,1.6-1.5,0c-0.8,0-1.6-1.2,0-1.4c-1.7-2.2-1.8-5.9-4.3-7.2c0.1,1.7-2.1,0.9,0,0C801.1,373,760.5,319.6,716.1,270
		c0.2,0.3,0.4,0.5,0.4,0.8c0.4,4.5-11.9-7.5-11.5-7.2c-16.3-15.5-36.8-35.7-51.8-49c-0.9-0.1-1.7-0.2-1.5-1.4c-1.7,0.1-0.9-2.1,0,0
		c0.9,0.1,1.7,0.2,1.5,1.4c20.3,12.4,36,29.3,53.3,44.6c-1.3-5.5-14.2-14.9-11.5-15.8c2.9-1,19.5,13.6,24.5,18.7
		c7.1,7.4,12.7,17.9,20.2,27.4c6.9,8.6,16,15.9,23,24.5c28.3,34.8,50.9,68.6,74.9,106.6c8.3,13.2,16.6,26.6,24.5,40.3
		c16,27.8,29.3,58.7,44.6,86.4c27.8,50,56.3,99,82.1,146.8c3.3,6,10.2,17,11.5,21.6c0.5,1.7-3,1.4-2.9,2.9c0.2,1.3,2.7,3,2.9,4.3
		c0.8,5.8-1.7,9.9-2.9,13C1011.4,725.7,997.8,747.5,998.7,747.5z M843.2,414.8c1.1,0.4,1.7,1.2,1.4,2.9c6.1,1.5,0,7.6,0,0
		C843.5,417.4,843,416.5,843.2,414.8C837.5,414.4,843.5,408.5,843.2,414.8z M853.3,432.1c-1.1-0.3-1.7-1.2-1.4-2.9
		c-1.8-0.6-2.9-1.8-2.9-4.3c-1.8,0.2-0.9-2.1,0,0c1.8,0.6,2.9,1.9,2.9,4.3C853,429.5,853.5,430.5,853.3,432.1
		c1.8,0.6,2.9,1.8,2.9,4.3c4.3,0.3-1.4,6,0,0C854.3,435.8,853.2,434.6,853.3,432.1z M860.5,446.5c-0.2-2.1,2.6-1,2.9,0
		C864,448.4,860.5,446.6,860.5,446.5z M962.7,633.7C963.6,634.6,962.1,633.1,962.7,633.7L962.7,633.7z M1003,705.7
		c-1.1-0.3-1.7-1.2-1.4-2.8c-4.3-0.3,1.4-6,0,0C1002.7,703.1,1003.3,704,1003,705.7C1009.1,707.2,1003,713.3,1003,705.7z
		 M1018.9,712.9c-2.2,2.3-5.9-7.5-5.8-7.2c-23.9-47.8-53-92.9-73.4-139.7c-47.3-84.8-95.8-175.6-152.6-252
		c-5.9-7.9-18.4-20-8.7-12.9c7.9,5.7,4,4.1,13,15.8c17.4,22.8,34.6,44.9,47.5,64.8c19.1,29.5,45.4,67.9,57.6,93.6
		c2.8,6,2.3,8.9,4.3,12.9c2.8,5.6,8.4,11.1,11.5,17.3c3.9,7.6,5.1,15.4,8.6,21.6c7.3,12.8,15,23.7,18.7,38.9
		c27.6,35.2,48.8,84.6,70.5,126.7C1012.5,697.2,1021.7,710.1,1018.9,712.9z M810.1,289.6C798.1,282.1,806,277.1,810.1,289.6
		C811.8,289.4,811,291.7,810.1,289.6z M815.8,302.5c-1.8,1.9-10.1-10-10.1-10C806,290.2,818.3,300.1,815.8,302.5z M844.6,337.1
		C842.9,337.2,843.8,335,844.6,337.1c20.6,27.9,42.5,62.1,59.1,95c2.6,5.2,11.9,25.1,1.4,10.1c-27-38.5-47.8-81.8-73.4-116.6
		c-4.2-3-8.5-10.1-11.5-14.4c-10-13.8,14.1,10.2,11.5,14.4C836.7,327,845.5,348,844.6,337.1z M864.8,396.1
		c-6-9.3-9.2-14.5-15.8-24.5c-2-2.9-7.5-11.9-7.2-13c1.1-4,13,15.3,18.7,24.5c3.8,6.1,8,13.9,13,21.6
		C878.1,411.9,867.8,400.7,864.8,396.1z M954.1,515.6c-28.6-54-57.8-107.2-89.3-155.5c-4.9-7.6-8.6-15.1-12.9-23
		c-12.3-22.4-31.9-37.1-44.7-61.9c-0.8-0.1-1.7-0.2-1.4-1.4c-0.9-0.1-1.7-0.2-1.4-1.5c-1.7,0.1-0.9-2.1,0,0c0.9,0.1,1.7,0.2,1.4,1.5
		c0.9,0,1.7,0.2,1.4,1.4c3.4,1,3.9,4.8,7.2,5.7c-5.8-8.1-9-13.1-17.3-23c-3.7-4.4-28.4-31.1-14.4-20.1c4.8,3.7,11.7,12.4,15.9,17.3
		c49.9,58.2,89.6,117.4,128.1,184.3c21.4,37.1,39.8,74.5,61.9,115.2c14.5,26.6,33.1,59.3,47.5,86.4c6.5,12.3,16.1,22.4,15.8,34.6
		c-0.1,3,1.8,2.5,1.4,7.2c-0.1,1.6-3.2,2.9-2.9,4.3c0.4,1.5,7.9,0.4,2.9,2.9c-1,0.5,0.3,2.4-1.4,2.9c-3.1,0.9-12.2-15.9-13-17.3
		C1008.8,619.2,983,570.3,954.1,515.6z M1221.9,1137.7c-5.3-3.2-8-8.8-11.5-13c-18.1-21.3-28.9-35.9-43.2-56.1
		c-38.7-54.6-66.1-101.7-100.8-161.3c-10.9-18.7-24.5-39.6-36-61.9c-2.6-5.1-8.6-19.9,1.5-20.2c6.3-0.2,22.2,34.4,25.9,40.3
		c3.4,5.7,7.5,9,10.1,13c5.5,8.2,8.2,18.7,12.9,27.3c35.3,64.2,68.4,118,109.5,177.1c2.1,1.3,4.5,2.2,4.3,5.8
		c0.9,0.1,1.7,0.2,1.5,1.4c1.7-0.1,0.9,2.1,0,0c-0.9-0.1-1.7-0.2-1.5-1.4c-2.1-1.3-4.5-2.2-4.3-5.8c-10-9.8-17-22.4-25.9-33.1
		c10.5,20.8,28,47.6,44.6,67.7c4,4.8,17.5,19.3,17.3,20.2C1225.7,1140.4,1223,1138.3,1221.9,1137.7z M1291,1167.9
		c-29.9-17.4-49-53.6-69.1-73.4c-0.3,2.7,1.6,3.2,1.5,5.7c0.8,0.1,1.7,0.2,1.4,1.5c1.7-0.2,0.9,2.1,0,0c-0.9-0.1-1.7-0.2-1.4-1.5
		c-6-0.4-17.1-22.7-20.1-21.6c-2.1,0.7,2.5,8.6,2.9,8.6c-5.1-1.2-18.5-21.5-24.5-30.2c-8.7-12.8-15.3-24.3-21.6-33.1
		c-32.8-45.7-66.5-102.4-95-152.6c-6.2-10.9-14.9-24.9-20.2-34.6c-3.2-5.9-9.1-18.3-8.6-20.2c1.2-4.9,8.9-5.5,11.5-4.3
		c8.2,3.7,11.8,12.6,18.7,24.5c43,74.3,82.2,141.7,126.7,210.2c9.7,14.9,21.2,29.2,31.7,43.2c17.7,23.6,40.1,54.8,64.8,74.9
		C1301.1,1174.4,1290.2,1167.4,1291,1167.9z M1190.2,1012.4C1189.6,1011.8,1191.2,1013.3,1190.2,1012.4L1190.2,1012.4z
		 M1361.6,1143.4c-16.5-11.4-31.3-26-41.8-37.4c-32-34.8-56.5-65.4-79.2-99.4c-11.2-16.8-27.1-48.2-40.4-57.6
		c5,12.3,15.2,19.3,18.7,33.1c1.1,0.3,1.7,1.2,1.4,2.9c1.8-0.1,0.9,2.1,0,0c-1.1-0.3-1.7-1.2-1.4-2.9c-45.2-63-78.4-124.1-116.6-193
		c-4.9-8.8-17.6-25.5-15.8-28.8c2.5-4.6,10.8-1.5,13,0c1,0.7,6.5,10.2,7.2,11.5c12.2,22.6,30.8,56.1,41.7,74.9
		c58.8,101,118.1,198.4,191.5,273.6C1342.7,1123.2,1376.8,1154,1361.6,1143.4z M1332.8,979.3C1331,979.4,1331.9,977.2,1332.8,979.3
		c2.2-3.5-5.9-5.7-8.6-8.6c-7.6-8.4-14.6-21.1-21.6-31.7c-36.6-54.9-69.4-111-102.3-169.9c-10.5-19-19.2-36-28.8-53.3
		c-2.8-5.2-10.9-12.5-5.7-15.9c8.8-5.7,11.2,8.2,13,11.5c10.6,19.8,20.9,37.3,30.2,53.3c16.8,28.8,25.6,49.3,38.9,73.4
		c11,19.9,25.2,39.3,37.4,59.1c37.5,60.6,78.5,117.3,123.8,167c3.6,0.2,5.5,2.1,5.8,5.8c5.9-1.4,0.3,4.3,0,0
		c-2.5-1.3-4.5-3.2-5.8-5.8C1378.4,1041.1,1359.5,1006.3,1332.8,979.3z M1458,1190.9c2.5,0.2-9-1.1-10.1-1.5
		c-3.9-1.3-5.9-5.3-7.2-5.7c-3.5-1.2-11.6-1-17.3-2.9c-13.5-4.6-30.6-17.6-31.7-20.2c0,0.1,1.3,0.1,1.4,0
		c7.1-2.7,11.5,7.2,17.3,10.1c9.1,4.6,29.1,10,43.2,14.3C1452.9,1184.9,1484.3,1192.9,1458,1190.9z M1440.7,1147.8
		C1439,1147.9,1439.9,1145.6,1440.7,1147.8C1446.7,1146.4,1441,1152,1440.7,1147.8z M1442.2,1175.1
		C1443.1,1176.1,1441.6,1174.5,1442.2,1175.1L1442.2,1175.1z M1450.8,1152C1452.6,1151.9,1451.7,1154.2,1450.8,1152
		C1441.5,1152.4,1447.6,1146.2,1450.8,1152z M1456.6,1153.5c0.7,0.7-2.5,1.9-2.9,1.5C1453.1,1154.3,1456.2,1153.1,1456.6,1153.5z
		 M1468.1,1173.6C1466.4,1173.8,1467.2,1171.6,1468.1,1173.6C1475.8,1172.1,1469.8,1178,1468.1,1173.6z M1492.5,1179.6
		c0.5,0.8,12.6-1.1,13,1.3C1506.2,1184.1,1492.5,1181.2,1492.5,1179.6z M1511.3,1178c-1.1,1.1-22.8-3.3-23.1-4.3
		C1487.4,1169.6,1513.1,1176.2,1511.3,1178z M1492.6,1169.3C1501.8,1167.7,1495.8,1173.7,1492.6,1169.3
		C1484.9,1170.9,1490.9,1165,1492.6,1169.3z M1507,1172.2c0,0,6.4-2.2,7.2-1.4C1514.3,1170.8,1509.9,1175.1,1507,1172.2z
		 M1518.5,1169.3c-6.2,1.7-15-2.1-18.7-2.9c-17.4-3.8-40.4-10.8-49-18.7c-1.1-0.3-2.8-0.1-2.9-1.5c-6,1.3-0.3-4.3,0,0
		c1.1,0.3,2.9,0.1,2.9,1.5c1.5,0,2.9,0,4.3,0c1.7-4.4,7.6,1.5,0,0c5.6,2.9,10.1,6.6,15.8,8.6c7.4,2.6,15.7,2.1,18.7,2.9
		c-1.9-0.5,20,11.7,24.5,7.2c0.2-0.3-15.6-8.1-15.9-7.2c0.8-3.2,22.2,2.6,24.5,2.9C1531.8,1163.2,1517.9,1169.5,1518.5,1169.3z
		 M1524.3,1156.4c-3.5,0.7-10.8-0.7-17.3-2.9c-3.2-1-5.3-4.1-8.7-5.7c-4.8-2.3-10.3-1.3-14.4-2.9c-4.4-1.8-12.1-8.1-11.5-8.6
		c5.6-5.6,20,4,30.2,7.2c4.5,1.4,28.2,5.5,28.8,7.2C1531.8,1151.6,1523.5,1156.6,1524.3,1156.4z M1544.4,1133.4
		c-0.7-0.7,2.5-1.9,2.9-1.4C1548,1132.6,1544.8,1133.7,1544.4,1133.4z M1546.6,1129.6c0.3,0.5,0.6,0.8,0.7,0.9
		C1546.3,1130.1,1546.2,1129.8,1546.6,1129.6c-0.7-1.3-1.7-3.4-0.8-3.4c-2.8,0.1-5.7,4.5-7.6,3.8c9,8.8-7.4,9.2-16.8,6.2
		c-17.1-5.3-39.7-12.7-51.9-20.1c-13.3-8.1-5.5-7.1,8.7,0c1.3,0.7,25.8,10.6,12.9,4.3c-11-5.4-26.5-12.3-33.1-17.3
		c-0.6-0.4-0.5-3.7-2.9-5.8c-2.6-2.3-6.3-2.6-8.6-4.3c-5.9-4.3-13.5-10.8-18.7-15.9c-12.7-12.2,17.1,10,17.2,10.1
		c25.1,17.3,49.1,29.2,77.8,37.4c-7.1-3.1-16.7-8.1-27.4-13c-10.4-4.6-31.1-11.4-24.5-15.8c-0.5-4.3-20.8-10.9-18.7-15.8
		c1.4-3.3,12.7,3.5,11.5,2.9c21.1,10.8,37.7,24.4,59,33.1c5,2,27.3,7,28.8,8.6C1554.4,1127.8,1548.1,1128.6,1546.6,1129.6z
		 M1558.8,1116.1c-1.4,0.8-15.5-0.5-17.3,0c5.5,3.3,21.6,4.5,8.6,4.3c-12.7-0.2-49.2-14.8-51.8-20.2c-1.1-0.3-2.8,0-2.9-1.4
		c-1.1-0.4-2.8-0.1-2.9-1.5c-1.8,0.1-0.9-2.1,0,0c1.1,0.3,2.8,0,2.9,1.5c1.1,0.3,2.8,0,2.9,1.4c15.3,4.3,26.2,13.2,43.2,15.9
		c-6.6-3.2-18-8.1-31.7-14.4c-3.9-1.7-32.6-12.3-33.1-14.4c-0.4-1.6,24.2,8,27.4,7.2c-8.1-5.6-16.7-5.2-23.1-8.7
		c-1.4-0.8-2.4-4.5-4.3-5.8c-2.6-1.8-5.5-1.4-7.2-2.9c-0.7-0.6,2.4-2.3,2.9-1.4c-2.7-5.1-17-8.8-18.7-14.4c-6,1.4-0.3-4.3,0,0
		c28.9,15.2,56.1,32.2,92.1,40.3c0-0.5,0-0.9,0-1.5c-1.7-0.2-4.1,0.3-4.3-1.4c-6,1.3-0.3-4.3,0,0c1.7,0.2,4.1-0.3,4.3,1.4
		c6.7-1,6.7,2.5,0,1.5c5.1,5.7,16.3,0.5,18.7,5.8C1564.8,1107.9,1560,1115.4,1558.8,1116.1z M1531.5,1081.5
		C1537.5,1080.2,1531.8,1085.8,1531.5,1081.5C1519.5,1081.5,1525.7,1075.3,1531.5,1081.5z M1538.7,1084.4
		C1532.7,1085.8,1538.4,1080.1,1538.7,1084.4C1548.1,1084.1,1541.9,1090.2,1538.7,1084.4z M1543,1071.4c0.6,0.7-2.5,1.9-2.9,1.4
		C1539.4,1072.2,1542.6,1071,1543,1071.4z M1545.9,1088.7c3.1-0.5,4.4-0.5,4.6-0.2c3.9,0.1,8.9,0.6,9.8,3c3,8.4-18.7,3.9-20.2,1.5
		c0.4,0.6,11.1-3.5,10.4-4.5C1548.1,1088.5,1546,1088.7,1545.9,1088.7z M1534.4,1071.4c-0.7-0.7,3.6-2.1,4.3-1.4
		C1539.4,1070.7,1535.1,1072.2,1534.4,1071.4z M1564.6,1094.5c0-0.2-0.1-1.3,0-1.5C1569.8,1087.8,1564.6,1101.9,1564.6,1094.5z
		 M1563.1,1052.7c1.4,1.7,5.6,3,5.8,4.3c1.2,8.2-11.6,0.6-17.3-1.5c-8-2.9-18.8-5.4-23.1-8.6c-1.4-1.1-1.3-7.1-1.4-7.2
		c-2.4-2.7-11.4-3.9-17.3-7.1c-14.8-8.1-31.3-17.7-41.8-31.7c-1-1.3-0.3-4.3-1.4-5.8c-5.2-6.2-13.4-12.1-23-23
		c-3.2-3.7-6-8.3-10.1-13c-5-5.8-17.9-18.9-4.4-8.7c16.4,12.5,31.7,39.5,46.1,49c1.7,1.1,5.3-0.8,7.2,0c4.5,2,17.6,17.1,24.5,21.6
		c1.3,0.9,15.6,6.3,14.4,7.2c3.6-2.7-9.6-10.4-8.7-8.6c-0.6-1.2,2.8-2.9,1.5-4.3c-10.2-11-24.5-16-34.6-25.9
		c-11.5-11.4-17.8-23.5-30.2-31.7c3.5,5.9,6.9,9,13,15.8c4.7,5.3,20.9,22.6,8.6,13c-17.5-13.7-29.3-31.7-43.1-47.5
		c-9.5-10.7-17.5-21.3-26-33.1c-43.5-60.8-85.5-129.8-123.8-200.2c-2-3.7-15.4-27-7.2-17.2c13.1,15.6,32.9,57.1,38.9,67.7
		c18.9,33.6,29.3,46.4,42.8,68.4c-0.5-0.9-0.9-1.7-1.1-2.2c-0.5-2.4,3.1-3.7,2.9-4.3c-0.9-1.9-3.2-2.9-4.3-4.3
		c-4.4-5.6-2.1-4.1-2.9-8.6c0-0.3-2.6-2.4-2.8-2.9c-3.9-8.4-8.4-14.6-13-21.6c-3.2,6-9.5-9.7-17.2-23c-1.5-2.4-17.7-26.9-15.9-28.8
		c3.5-3.5,9.3,16.8,11.5,14.4c-6.8-15.2-17.1-34.4-25.9-47.5c-6-9-6.2-12.1-10-21.6c-3.9-9.6-16.6-25.2-13-28.8
		c5.7-5.6,13.7,12.8,13,11.5c1.8,3.3,6.2,13.4,7.2,17.3c0.5,1.8,2.4,0.5,2.9,1.5c18.5,35.9,41.3,77.8,60.5,108
		c31.9,50.4,65.2,102.5,100.8,146.9c16.3,20.4,32,40.5,50.4,57.6c7.9,7.4,16.3,17.1,23,21.6c1.9,1.3,4.7-0.3,8.7,1.5
		c5.5,2.4,14,11.2,24.5,17.2c4,2.3,28.4,11.7,28.8,13c0.1,0.4-1.7,6.4-7.2,7.2C1578,1055.1,1568.1,1054.4,1563.1,1052.7z
		 M1543,973.5c-1,0-1.7-0.2-1.5-1.4c-6,1.4-0.3-4.3,0,0C1542.4,972.2,1543.3,972.3,1543,973.5C1544.7,973.4,1543.9,975.6,1543,973.5
		z M1551.6,1019.6c0.7,3.7-11.3-4.2-11.5-4.3c0.1,0.1-4.4-2-4.3-1.4C1534.9,1008.8,1551.6,1019.7,1551.6,1019.6z M1566,989.3
		c0.1,0.7,17,5.1,17.3,7.2C1583.7,999.3,1566.3,992.3,1566,989.3z M1579,1055.6c-0.7-0.7,2.5-1.8,2.9-1.4
		C1582.6,1054.8,1579.4,1056,1579,1055.6z M1580.5,1049.8c0.1,0.1,1.3-2.7,1.4-2.9C1587.7,1040.8,1585.7,1055.1,1580.5,1049.8z
		 M1581.9,1042.6c-0.6-2.3,4.3-0.4,4.4,0C1586.3,1044.7,1582.3,1044.2,1581.9,1042.6z M1617.9,881.4c-2.7,28.9-6.9,61.5-11.6,86.4
		c-0.4,2.5-3,18.7-4.3,18.7c-6.3,0.2-2.1-27-5.8-10.1c-1.8,8.5-3.1,6-5.7,10.1c-0.6,0.9-0.6,5.4-1.4,5.7
		c-6.2,2.4-18.3-10.1-24.5-14.4c-8.2-5.7-17-10.6-23-15.8c0,0.8-1.2,1.6-1.5,0c-28.6-17.6-51.1-45.5-73.4-73.4
		c-20.7-25.9-41.9-55.5-60.4-86.4c-26-43.1-54.7-93.3-80.7-139.7c-2.6-4.6-27-43.5-23-47.5c5.5-5.5,8,5.6,10.1,8.6
		c21.8,32.6,34.9,68.8,56.1,96.5c-14.3-26.1-28.2-53-43.2-80.6c-1.6-3-15.9-25.7-15.8-25.9c1.3-4.5,34.9-15,43.2-17.3
		c37-10.3,93.8-14.3,135.3-5.8c-1-2.3,6.8-2.3,5.8,0c5.2-1,5.2,2.5,0,1.5c30.6,11,58.9,27.9,76.3,50.4c8.5,11,24.6,31.2,27.4,43.2
		c0.8,3.5-2.3,5.7-1.5,8.6c2.8,9.9,13.3,22.6,15.9,33.1c0.8,3.2-0.5,6.5,0,10.1c2.8,19.9,10.4,42.4,10.1,63.4
		c-0.2,11.2-4,25.4-4.3,37.4C1617.5,853.9,1619.7,861.9,1617.9,881.4z M1705.7,759c2.4-6.5,4.7,6.8,2.8,8.6
		C1707,769.2,1703.6,764.9,1705.7,759z M1705.7,1064.2c-1.7-1.7,2.5-4.1,2.8-4.3C1716.7,1053.7,1708.6,1067.1,1705.7,1064.2z
		 M1717.2,1057c0.6-1.6,3-1.6,2.9,0C1720,1058,1716.7,1058.7,1717.2,1057z M1743.2,1021c-0.7-0.7,2.5-1.9,2.9-1.5
		C1746.7,1020.3,1743.5,1021.4,1743.2,1021z M1761.8,1008.1C1761.5,1012.4,1755.9,1006.7,1761.8,1008.1
		C1763.4,1002,1769.4,1008.1,1761.8,1008.1z M1769.1,1003.8c-0.8-0.7,2.4-1.8,2.8-1.4C1772.6,1003,1769.4,1004.1,1769.1,1003.8z
		 M1771.9,1000.8c-0.7-0.7,3.6-2.2,4.3-1.4C1777,1000.2,1772.7,1001.6,1771.9,1000.8z M1823.8,979.3c0.1-0.1,1.9-2.4,2.9-1.5
		C1829.3,980.5,1812.2,986.7,1823.8,979.3z M579.7,1461.7c0.1-0.3,0.3-0.7,0.6-1.2C581,1458.1,581.1,1457.2,579.7,1461.7z
		 M715,268.7c-2.4-2.6-4.7-5.3-7.1-7.9C705.8,264.1,712,266.3,715,268.7z M1538.2,1130c-0.3-0.3-0.6-0.6-1-0.9
		C1537.5,1129.6,1537.9,1129.9,1538.2,1130z M702.1,13.1c0.1,0.1,1.4,0,3.2-0.1C703.2,12.9,701.9,13,702.1,13.1z M683.4,16
		C699.6,16.9,696.9,9.4,683.4,16L683.4,16z M683.4,16C674.2,14.3,680.2,20.4,683.4,16L683.4,16z M827.4,16c-0.4-0.4-3.6,0.8-2.9,1.4
		C824.9,17.8,828.1,16.7,827.4,16z M834.6,20.3C834.3,16,828.6,21.7,834.6,20.3L834.6,20.3z M834.6,20.3
		C834.9,24.6,840.5,18.9,834.6,20.3L834.6,20.3z M838.9,23.2C839.8,24.1,838.3,22.6,838.9,23.2L838.9,23.2z M844.6,26.1
		C844,25.4,845.6,27,844.6,26.1L844.6,26.1z M853.3,30.4C852.7,29.8,854.2,31.3,853.3,30.4L853.3,30.4z M856.2,31.8
		C857.1,32.8,855.6,31.2,856.2,31.8L856.2,31.8z M860.5,33.2C859.6,31.2,858.7,33.4,860.5,33.2L860.5,33.2z M863.3,34.7
		c0-1.4-1.7-1.1-2.9-1.5C860.5,34.7,862.2,34.4,863.3,34.7z M863.3,34.7C864.2,36.8,865.1,34.5,863.3,34.7L863.3,34.7z M556.7,56.3
		c1.9,0,3.9,0,5.8,0c0-0.5,0-1,0-1.5C560.2,55,556.9,54.2,556.7,56.3z M550.9,57.8c2.3-0.2,5.5,0.7,5.8-1.5
		C554.4,56.4,551.2,55.6,550.9,57.8z M550.9,57.8c-8.2,0.4-13.2,4-18.7,7.2C540.3,64.5,545.7,61.1,550.9,57.8z M527.9,66.4
		c2,0.1,4.1,0.3,4.3-1.4C530.1,64.8,528.1,64.7,527.9,66.4z M527.9,66.4C521.9,65,527.6,70.7,527.9,66.4L527.9,66.4z M522.1,69.3
		C521.5,68.7,523.1,70.2,522.1,69.3L522.1,69.3z M497.6,83.7c-3.5-3.6-13.9,2.9-18.7,5.7C480.7,91.4,496.8,82.9,497.6,83.7z
		 M478.9,89.4c-2-0.1-4.1-0.2-4.3,1.5C476.6,91,478.7,91.1,478.9,89.4z M474.6,90.9C466.9,89.3,472.9,95.2,474.6,90.9L474.6,90.9z
		 M464.5,95.1C470.5,96.6,464.8,90.9,464.5,95.1L464.5,95.1z M464.5,95.1c-1.7-0.2-2.6,0.4-2.9,1.5
		C463.3,96.9,464.2,96.3,464.5,95.1z M461.6,96.6c-2.1-0.1-4.1-0.2-4.3,1.4C459.4,98.2,461.4,98.3,461.6,96.6z M975.7,103.8
		C974.8,101.7,974,104,975.7,103.8L975.7,103.8z M975.7,103.8c-0.3,1.2,0.6,1.4,1.4,1.4C977.4,104,976.6,103.9,975.7,103.8z
		 M977.1,105.2c-0.3,1.2,0.6,1.4,1.4,1.5C978.8,105.5,978,105.4,977.1,105.2z M978.6,106.7c-0.3,1.2,0.6,1.3,1.4,1.4
		C980.3,106.9,979.4,106.8,978.6,106.7z M980,108.1c-0.3,1.2,0.6,1.4,1.4,1.5C981.7,108.3,980.9,108.2,980,108.1z M981.4,109.6
		c-0.2,1.2,0.6,1.4,1.4,1.4C983.1,109.8,982.3,109.7,981.4,109.6z M982.9,111c-0.3,1.2,0.6,1.3,1.4,1.4
		C984.6,111.2,983.8,111.1,982.9,111z M984.3,112.5c-0.3,1.2,0.6,1.4,1.4,1.4C986,112.7,985.2,112.5,984.3,112.5z M408.4,115.3
		C410.5,114.5,408.2,113.6,408.4,115.3L408.4,115.3z M1027.5,145.6C1026.6,143.5,1025.8,145.7,1027.5,145.6L1027.5,145.6z
		 M1027.5,145.6C1028.4,147.7,1029.3,145.4,1027.5,145.6L1027.5,145.6z M313.3,154.2C319.7,154.5,313.7,148.5,313.3,154.2
		L313.3,154.2z M313.3,154.2c-6.7,1.1-9.5,5.8-13,10.1C305.9,162.1,309.8,158.4,313.3,154.2z M300.4,164.3c-2.4-0.5-2.7,1.1-2.9,2.9
		C298.8,166.5,300.1,165.9,300.4,164.3z M297.5,167.2C295.4,168,297.6,168.9,297.5,167.2L297.5,167.2z M290.3,172.9
		C291.2,173.9,289.7,172.4,290.3,172.9L290.3,172.9z M278.8,200.3C272.8,198.9,278.5,204.6,278.8,200.3L278.8,200.3z M568.2,201.7
		C569.7,207.8,575.7,201.7,568.2,201.7L568.2,201.7z M457.3,221.9c1.4,0,1.1-1.8,1.4-2.9C457.4,219,457.6,220.8,457.3,221.9z
		 M457.3,221.9C451.5,225.1,457.6,231.2,457.3,221.9L457.3,221.9z M260,223.3c-9,5-21.2,14-30.2,23c-7.6,7.6,1.9,1.5,8.6-4.3
		c6.7-5.9,8.3-8.9,15.8-11.5C255.3,227.2,259.1,226.7,260,223.3z M450.1,236.3C451.1,237.3,449.5,235.7,450.1,236.3L450.1,236.3z
		 M444.4,250.7C448.7,250.4,443,244.7,444.4,250.7L444.4,250.7z M442.9,253.6c1.4,0,1.1-1.8,1.5-2.9
		C443,250.8,443.2,252.4,442.9,253.6z M441.5,257.9c1.7-0.2,1.2-2.6,1.4-4.3C441.2,253.8,441.7,256.2,441.5,257.9z M440,260.8
		c1.4-0.1,1.1-1.8,1.4-2.9C440.1,257.9,440.3,259.7,440,260.8z M707.9,260.8c0.3-1.3-0.5-1.4-1.4-1.5
		C706.1,260.6,707,260.7,707.9,260.8z M440,260.8C435.7,261.1,441.4,266.7,440,260.8L440,260.8z M437.2,268
		C441.5,267.7,435.8,262,437.2,268L437.2,268z M1111,269.4C1110.1,267.3,1109.3,269.5,1111,269.4L1111,269.4z M441.5,270.8
		C443.6,270,441.3,269.1,441.5,270.8L441.5,270.8z M817.3,285.2c0.1-2.5-1.1-3.7-2.9-4.3C814.4,283.3,815.5,284.7,817.3,285.2z
		 M818.7,286.7c0.2-1.2-0.6-1.3-1.5-1.4C817,286.5,817.8,286.6,818.7,286.7z M821.6,291c0.1-2.5-1.1-3.8-2.9-4.3
		C818.7,289.2,819.8,290.4,821.6,291z M604.2,291c0.2-1.2-0.6-1.4-1.5-1.5C602.5,290.8,603.3,290.9,604.2,291z M604.2,291
		C605.1,293.1,605.9,290.8,604.2,291L604.2,291z M821.6,291C822.5,293.1,823.3,290.8,821.6,291L821.6,291z M633,311.1
		C630.9,312.1,633.1,312.9,633,311.1L633,311.1z M432.8,327C437.1,326.7,431.4,321,432.8,327L432.8,327z M431.4,348.6
		c-3.6,3.5-4,10.9-5.8,17.3c-0.9,3.3-3.6,16.3-1.4,7.2C425.1,369.2,436.1,344,431.4,348.6z M142,404.8c2.1-4.2,16.6-27.2,15.8-31.7
		c-0.5-2.7-11.6,17-15.8,24.5C143.8,397,136.4,415.7,142,404.8z M421.3,380.3c-2.9,2.9-3.6,12.6-4.3,15.8
		C413.7,410,423.6,378,421.3,380.3z M994.4,384.6c0.2-1.7-0.3-2.6-1.5-2.9C992.7,383.4,993.3,384.3,994.4,384.6z M997.3,388.9
		c0-2.5-1.1-3.7-2.9-4.3C994.3,387,995.5,388.3,997.3,388.9z M849,642.4c-43.9-90.9-93.6-176.1-149.8-254.9
		c9.7,22.8,27.3,41.2,40.3,61.9C778,510.5,810.9,578.2,849,642.4z M998.7,391.8c0.3-1.7-0.3-2.6-1.4-2.9
		C997.1,390.6,997.6,391.5,998.7,391.8z M1000.2,394.7c0.2-1.7-0.3-2.6-1.5-2.9C998.5,393.5,999,394.3,1000.2,394.7z M1000.2,394.7
		C1001.1,396.8,1001.9,394.5,1000.2,394.7L1000.2,394.7z M1003,399C1002.1,396.9,1001.3,399.1,1003,399L1003,399z M1004.5,401.9
		c0.2-1.6-0.3-2.6-1.4-2.8C1002.8,400.7,1003.3,401.6,1004.5,401.9z M1004.5,401.9C1005.3,404,1006.2,401.8,1004.5,401.9
		L1004.5,401.9z M1005.9,406.2C1006.8,407.1,1005.3,405.6,1005.9,406.2L1005.9,406.2z M1008.8,409.1
		C1007.9,407,1007.1,409.2,1008.8,409.1L1008.8,409.1z M1010.2,411.9c0.3-1.7-0.3-2.5-1.4-2.8
		C1008.6,410.7,1009.1,411.6,1010.2,411.9z M1011.7,414.8c0.2-1.7-0.3-2.6-1.5-2.9C1010,413.6,1010.5,414.5,1011.7,414.8z
		 M1011.7,414.8C1012.6,416.9,1013.5,414.7,1011.7,414.8L1011.7,414.8z M1013.1,419.2C1012.5,418.6,1014.1,420.1,1013.1,419.2
		L1013.1,419.2z M159.2,420.6C157.2,421.5,159.4,422.3,159.2,420.6L159.2,420.6z M107.4,426.4C111.7,426,106,420.4,107.4,426.4
		L107.4,426.4z M107.4,426.4c-1.4,0-1.1,1.8-1.4,2.9C107.4,429.2,107.1,427.5,107.4,426.4z M106,429.2c-1.7,0.2-1.2,2.6-1.5,4.3
		C106.2,433.3,105.8,430.9,106,429.2z M199.6,432.1C190.4,439,196.4,448.4,199.6,432.1L199.6,432.1z M104.5,433.5
		c-1.7,0.2-1.2,2.6-1.4,4.3C104.8,437.6,104.3,435.2,104.5,433.5z M1021.8,435C1021.1,434.4,1022.7,435.9,1021.8,435L1021.8,435z
		 M1023.2,437.9C1024.1,438.8,1022.6,437.3,1023.2,437.9L1023.2,437.9z M103.1,437.9C101,438.8,103.2,439.6,103.1,437.9L103.1,437.9
		z M840.3,439.3c0,0.5,0,1,0,1.4c0.5,0,1,0,1.5,0C842,439.5,841.2,439.4,840.3,439.3z M1027.5,443.6
		C1026.6,441.5,1025.8,443.8,1027.5,443.6L1027.5,443.6z M1027.5,443.6C1028.4,445.8,1029.3,443.5,1027.5,443.6L1027.5,443.6z
		 M129,447.9C133.3,447.6,127.7,442,129,447.9L129,447.9z M1029,447.9C1029.9,448.9,1028.4,447.3,1029,447.9L1029,447.9z M129,447.9
		C126.9,448.8,129.2,449.7,129,447.9L129,447.9z M1030.4,450.8C1031.3,451.7,1029.8,450.2,1030.4,450.8L1030.4,450.8z M1033.3,453.7
		C1032.4,451.6,1031.5,453.9,1033.3,453.7L1033.3,453.7z M1034.7,456.6c0.3-1.6-0.3-2.6-1.4-2.9
		C1033.1,455.4,1033.6,456.3,1034.7,456.6z M1036.2,459.5c0.2-1.7-0.3-2.6-1.5-2.9C1034.5,458.3,1035,459.1,1036.2,459.5z
		 M124.7,459.5C126.8,458.6,124.6,457.8,124.7,459.5L124.7,459.5z M1036.2,459.5C1034.8,465.5,1040.5,459.7,1036.2,459.5
		L1036.2,459.5z M1039,465.2C1038.2,463.2,1037.3,465.4,1039,465.2L1039,465.2z M1040.5,468.1c0.2-1.7-0.3-2.6-1.5-2.9
		C1038.8,466.9,1039.4,467.8,1040.5,468.1z M1041.9,471c0.3-1.7-0.3-2.6-1.4-2.9C1040.2,469.8,1040.8,470.7,1041.9,471z
		 M1043.3,473.9c0.3-1.7-0.3-2.6-1.5-2.9C1041.7,472.7,1042.2,473.6,1043.3,473.9z M1046.2,478.2c0.1-2.5-1.1-3.8-2.9-4.3
		C1043.3,476.3,1044.4,477.6,1046.2,478.2z M1047.7,481.1c0.2-1.7-0.4-2.6-1.5-2.9C1046,479.9,1046.6,480.7,1047.7,481.1z
		 M146.3,481.1C142,481.4,147.7,487,146.3,481.1L146.3,481.1z M1049.1,483.9c0.2-1.7-0.3-2.5-1.4-2.8
		C1047.4,482.7,1048,483.6,1049.1,483.9z M844.6,486.8c0.3-1.7-0.3-2.6-1.4-2.9C843,485.6,843.5,486.5,844.6,486.8z M1050.5,486.8
		c0.3-1.7-0.3-2.6-1.4-2.9C1048.9,485.6,1049.4,486.5,1050.5,486.8z M846.1,489.7c0.3-1.7-0.3-2.6-1.4-2.9
		C844.4,488.5,845,489.4,846.1,489.7z M1050.5,486.8c3.2,7.9,6,16.2,11.5,21.6C1058.9,500.5,1056.1,492.3,1050.5,486.8z
		 M1950.5,489.7c-2.2,6,1.2,11.8,1.4,14.4C1955.5,542.7,1952.9,483.1,1950.5,489.7z M847.5,492.6c0.2-1.7-0.3-2.6-1.5-2.9
		C845.9,491.4,846.4,492.3,847.5,492.6z M847.5,492.6C848.4,494.7,849.2,492.4,847.5,492.6L847.5,492.6z M849,496.9
		C848.4,496.3,849.9,497.8,849,496.9L849,496.9z M869.1,496.9C870.1,497.8,868.5,496.3,869.1,496.9L869.1,496.9z M280.2,498.4
		C282.3,497.5,280.1,496.6,280.2,498.4L280.2,498.4z M280.2,498.4C274.9,504.7,284.2,503.8,280.2,498.4L280.2,498.4z M872,499.8
		C871.1,497.7,870.3,499.9,872,499.8L872,499.8z M1370.2,499.8C1381,501.5,1374.8,495.4,1370.2,499.8L1370.2,499.8z M140.5,501.2
		C141.5,502.1,139.9,500.6,140.5,501.2L140.5,501.2z M851.9,499.8c-0.1,0.1,0,1.2,0,1.4C851.9,510.5,856,495.6,851.9,499.8z
		 M872,499.8c-0.2,1.6,0.3,2.5,1.5,2.9C873.7,501,873.2,500.1,872,499.8z M1370.2,499.8C1361,498.1,1367.1,504.2,1370.2,499.8
		L1370.2,499.8z M1982.2,545.9c-0.9-16.7-6.7-45.1-7.2-44.6c-1.8,1.8,2.4,16.8,2,12.6c-0.2-1.3-0.3-2.7-0.6-3.9
		c0.4,2,0.5,3.2,0.6,3.9c3.9,25.2,3.4,60.1,2.3,83.9c-0.4,7.9-1.1,30.9-4.3,43.2c-2.8,10.7,1.7,2.3,2.9-2.8
		C1983.8,610.9,1983.6,573.9,1982.2,545.9z M873.5,502.7c-0.3,1.7,0.3,2.6,1.4,2.8C875.1,503.9,874.6,503,873.5,502.7z M277.3,507
		c-2,2.9-2.3,9.1-2.9,13c-0.7,4.5-0.9,22,1.5,10.1C277.1,523.9,280.7,502.2,277.3,507z M856.2,507
		C855.3,504.9,854.4,507.1,856.2,507L856.2,507z M856.2,507c-0.2,1.7,0.3,2.6,1.4,2.9C857.8,508.2,857.3,507.3,856.2,507z
		 M1063.5,511.3c0.2-1.7-0.3-2.6-1.5-2.9C1061.8,510.1,1062.4,511,1063.5,511.3z M857.6,509.8C858.5,512,859.3,509.7,857.6,509.8
		L857.6,509.8z M1065,514.2c0.2-1.6-0.3-2.5-1.4-2.8C1063.3,513,1063.8,513.9,1065,514.2z M1066.4,517.1c0.2-1.7-0.3-2.6-1.4-2.9
		C1064.7,515.9,1065.3,516.7,1066.4,517.1z M1067.9,518.5c0.2-1.2-0.6-1.3-1.5-1.4C1066.1,518.3,1066.9,518.4,1067.9,518.5z
		 M1067.9,518.5C1066.5,524.5,1072.1,518.8,1067.9,518.5L1067.9,518.5z M869.1,597.7c-6.7-12.7-10.3-22.5-15.9-33.1
		c-9.1-17.4-16.8-35.6-23-41.8c-1-0.9-3.8-2-4.3,0c-0.2,0.8,9.5,17.7,11.5,21.6c4.7,8.7,7.4,13.7,11.6,21.6
		c4.9,9.4,11.5,23.5,17.3,33.1c2.1,3.5,13.5,14,7.2,2.9C864.6,586.3,873.9,606.8,869.1,597.7z M133.3,527.1
		C135.4,526.3,133.2,525.4,133.3,527.1L133.3,527.1z M133.3,527.1C131.2,528,133.5,528.9,133.3,527.1L133.3,527.1z M1953.3,554.5
		c0.3-1-0.5-10.7-1.4-7.2C1950.3,553.3,1952.9,556.2,1953.3,554.5z M1969.2,550.2c-1.3,7.4,2.3,6.3,2.9,5.8
		C1972.3,555.7,1970.2,544.4,1969.2,550.2z M977.1,553.1C978.1,554,976.5,552.5,977.1,553.1L977.1,553.1z M1086.5,554.5
		C1087.9,548.5,1082.2,554.2,1086.5,554.5L1086.5,554.5z M978.6,555.9C979.5,556.9,978,555.3,978.6,555.9L978.6,555.9z
		 M1086.5,554.5C1087.5,556.6,1088.3,554.4,1086.5,554.5L1086.5,554.5z M980,558.8C980.9,559.8,979.4,558.2,980,558.8L980,558.8z
		 M1089.4,561.7C1090.4,562.6,1088.8,561.1,1089.4,561.7L1089.4,561.7z M1947.6,561.7C1948.5,562.6,1947,561.1,1947.6,561.7
		L1947.6,561.7z M1950.5,561.7C1951.4,562.6,1949.9,561.1,1950.5,561.7L1950.5,561.7z M1969.2,574.7c-3.8,3.9-1.1,16.9-1.5,25.9
		c-0.2,4.6-5.9,15.5,0,20.2c-1.3-1,1.5-4.5,1.5-4.3C1969.6,612,1971.1,572.7,1969.2,574.7z M1949,591.9c1.1-3.7-1.5-14.1-1.4-14.4
		C1945.4,585.1,1949,591.9,1949,591.9z M870.6,580.4C871.5,581.4,870,579.8,870.6,580.4L870.6,580.4z M378.1,591.9
		c-0.4,0.5,0.1,2.3,0,2.9c-1,8.5-4.6,32.8-5.8,46.1c-0.3,3.3-0.7,22.9,1.4,21.6c1.8-1.1,3.1-22.8,4.3-34.5
		C379.9,611.7,381.7,586.9,378.1,591.9z M1494.1,591.9c0-0.5,0-1,0-1.5c-1.9,0-3.9,0-5.8,0C1488.7,592.5,1491.9,591.7,1494.1,591.9z
		 M1106.7,593.4C1107.6,594.3,1106.1,592.8,1106.7,593.4L1106.7,593.4z M1947.6,596.2c-2.2,2.7-4.8,44.4-1.4,27.4
		C1946.8,620.6,1951.2,591.7,1947.6,596.2z M1711.5,597.7C1710.8,597.1,1712.4,598.6,1711.5,597.7L1711.5,597.7z M1714.3,602.1
		C1715.7,596,1710,601.7,1714.3,602.1L1714.3,602.1z M1714.3,602.1C1712.9,608,1718.7,602.3,1714.3,602.1L1714.3,602.1z M78.6,607.8
		C78,607.2,79.6,608.7,78.6,607.8L78.6,607.8z M1717.2,616.4c4.4,10.5,15.1,45.8,18.7,61.9c-0.3-1.4,5.2,18.8,4.3,5.8
		c-0.9-13.7-16.5-64.9-20.2-70.6c-0.8-1.3-3.7-1.6-4.3,0C1715.5,614.4,1717,615.8,1717.2,616.4z M36.9,619.3
		C35.7,627.8,37.7,613.5,36.9,619.3L36.9,619.3z M1964.9,623.6c-0.7,0.7,0.2,4.7,0,5.8c-1.2,6.7-3.9,25.1-4.4,28.8
		c-0.3,2.7-1.9,16.8,0,5.8C1961.4,659.1,1968.5,620.1,1964.9,623.6z M35.4,642.4c0.2-1-0.5-8.4-1.4-4.3
		C32.7,643.5,34.7,645.2,35.4,642.4z M849,642.4c-0.5,4.8,2.5,6.1,4.3,8.6C853.4,646.6,852,643.6,849,642.4z M31.1,676.9
		c0.7-7,2.5-31.9,1.5-30.3c-3.1,5.1-1.7,20.9-2.9,31.7C16.8,797,12.8,926.8,26.8,1044.1c2.9,24.9,10.6,78,17.3,106.6
		c6.6,27.9,1.7,3.8-1.4-14.4C18.2,993.1,15.3,830.8,31.1,676.9z M44.1,674c0.2-0.7-0.5-9.6-1.4-5.8C41.3,673.7,43.7,675.6,44.1,674z
		 M42.6,678.3C44.7,677.5,42.5,676.6,42.6,678.3L42.6,678.3z M42.6,678.3C38.3,688.7,44.2,694.9,42.6,678.3L42.6,678.3z M41.2,701.4
		c0.2-0.7-0.5-9.6-1.4-5.8C38.4,701,40.8,702.9,41.2,701.4z M1743.2,725.8c0.4,2.8,0.6,11.4,1.4,7.2c0.8-4-2.3-30.2-4.3-24.5
		C1739.1,711.8,1743.3,727.6,1743.2,725.8z M39.7,717.2c0.2-0.7-0.5-9.5-1.4-5.8C36.9,716.9,39.4,718.7,39.7,717.2z M992.9,711.4
		C992.1,709.4,991.2,711.6,992.9,711.4L992.9,711.4z M992.9,711.4C993.8,713.5,994.7,711.3,992.9,711.4L992.9,711.4z M994.4,717.2
		C995.3,718.1,993.8,716.6,994.4,717.2L994.4,717.2z M1954.8,718.7C1959.1,718.4,1953.4,712.7,1954.8,718.7L1954.8,718.7z
		 M1954.8,718.7C1949.8,723.6,1953.7,739,1954.8,718.7L1954.8,718.7z M1368.8,720.1C1369.6,722.2,1370.5,719.9,1368.8,720.1
		L1368.8,720.1z M36.9,725.8C37.8,726.8,36.3,725.3,36.9,725.8L36.9,725.8z M36.9,728.7C35.7,737.2,37.7,722.9,36.9,728.7
		L36.9,728.7z M997.3,735.9C995.2,736.8,997.4,737.7,997.3,735.9L997.3,735.9z M1311.2,746c0.2-1.7-0.3-2.6-1.5-2.9
		C1309.5,744.8,1310,745.7,1311.2,746z M1312.6,748.9c0.2-1.7-0.3-2.6-1.4-2.9C1310.9,747.7,1311.5,748.6,1312.6,748.9z
		 M1312.6,748.9c1.8,5.9,4.6,10.7,8.6,14.4C1319.6,757.2,1316.8,752.4,1312.6,748.9z M1322.7,766.2c0.2-1.7-0.3-2.6-1.5-2.9
		C1321,765,1321.6,765.8,1322.7,766.2z M1744.6,764.8c0.4,1,3.1,2.1,2.9,0C1747.5,764.7,1743.9,762.8,1744.6,764.8z M1327,773.4
		c-0.5-3.4-1.5-6.2-4.3-7.2C1323.2,769.5,1324.1,772.4,1327,773.4z M1328.5,776.2c0.2-1.7-0.4-2.6-1.5-2.9
		C1326.8,775,1327.3,775.9,1328.5,776.2z M1328.5,776.2c-0.1,2.4,1,3.7,2.8,4.3C1331.4,778.1,1330.3,776.8,1328.5,776.2z
		 M1424.9,813.7C1424,811.6,1423.2,813.8,1424.9,813.7L1424.9,813.7z M1424.9,813.7c-0.1,2.4,1.1,3.7,3,4.3
		C1427.9,815.5,1426.7,814.3,1424.9,813.7z M1427.9,818c-0.3,1.7,0.3,2.6,1.4,2.9C1429.5,819.2,1428.9,818.3,1427.9,818z
		 M1429.2,820.9c-0.3,1.2,0.6,1.4,1.5,1.5C1431,821.1,1430.1,821,1429.2,820.9z M1430.7,822.3c-0.3,1.7,0.3,2.6,1.4,2.9
		C1432.4,823.5,1431.8,822.6,1430.7,822.3z M31.1,825.2C29.9,833.7,31.9,819.4,31.1,825.2L31.1,825.2z M1432.1,825.2
		c-0.3,1.2,0.6,1.4,1.4,1.5C1433.8,825.4,1433,825.3,1432.1,825.2z M1433.6,826.6C1434.4,828.7,1435.3,826.5,1433.6,826.6
		L1433.6,826.6z M31.1,831C32.1,831.9,30.5,830.3,31.1,831L31.1,831z M32.6,836.7c0.4-2-0.9-5.6-1.5-2.9
		C30.7,835.8,32,839.5,32.6,836.7z M1908.7,835.3C1909.7,836.2,1908.1,834.7,1908.7,835.3L1908.7,835.3z M1907.3,839.6
		C1908.2,840.5,1906.7,839,1907.3,839.6L1907.3,839.6z M1447.9,848.2C1447.1,846.1,1446.2,848.4,1447.9,848.2L1447.9,848.2z
		 M1447.9,848.2c-0.2,1.7,0.4,2.6,1.5,2.9C1449.6,849.5,1449.1,848.6,1447.9,848.2z M1449.4,851.1c-0.3,1.3,0.6,1.4,1.4,1.5
		C1451.1,851.3,1450.3,851.2,1449.4,851.1z M1450.8,852.6c0,2.4,1.1,3.7,2.9,4.3C1453.8,854.4,1452.6,853.1,1450.8,852.6z
		 M1453.7,856.9c-0.1,2.5,1.1,3.7,2.9,4.3C1456.7,858.7,1455.5,857.5,1453.7,856.9z M1456.6,861.2c0,2.5,1.1,3.7,2.9,4.3
		C1459.5,863.1,1458.4,861.8,1456.6,861.2z M1459.5,865.5c-0.3,1.2,0.5,1.4,1.4,1.5C1461.2,865.7,1460.4,865.6,1459.5,865.5z
		 M1460.9,867c-0.2,1.7,0.4,2.5,1.5,2.9C1462.6,868.2,1462,867.3,1460.9,867z M1462.4,869.8c-0.3,1.2,0.6,1.4,1.5,1.5
		C1464.1,870.1,1463.2,869.9,1462.4,869.8z M1463.8,871.3c-0.1,2.4,1,3.7,2.9,4.3C1466.7,873.2,1465.6,871.9,1463.8,871.3z
		 M1466.7,875.6c-0.3,1.2,0.6,1.4,1.4,1.5C1468.4,875.8,1467.5,875.7,1466.7,875.6z M1468.1,877.1c0,2.4,1.1,3.7,2.9,4.3
		C1471.1,878.9,1470,877.6,1468.1,877.1z M1085.1,879.9C1084.5,879.3,1086.1,880.9,1085.1,879.9L1085.1,879.9z M1471,881.4
		c-0.1,2.4,1.1,3.7,2.9,4.3C1473.9,883.2,1472.8,882,1471,881.4z M1473.9,885.7c-0.2,1.2,0.6,1.3,1.5,1.4
		C1475.6,885.9,1474.8,885.7,1473.9,885.7z M1475.3,887.1c-0.2,1.2,0.6,1.3,1.4,1.4C1477,887.3,1476.2,887.2,1475.3,887.1z
		 M1090.9,890C1091.8,890.9,1090.2,889.4,1090.9,890L1090.9,890z M1476.7,888.5c-0.1,2.5,1.1,3.7,2.9,4.3
		C1479.7,890.4,1478.5,889.1,1476.7,888.5z M1479.6,892.9c-0.3,1.2,0.5,1.4,1.4,1.5C1481.3,893.1,1480.5,893,1479.6,892.9z
		 M1481.1,894.3c-0.2,3.6,2.3,4.5,4.3,5.8C1485.7,896.5,1483.2,895.6,1481.1,894.3z M1170,898.6
		C1169.2,896.5,1168.3,898.8,1170,898.6L1170,898.6z M1170,898.6C1168.7,904.6,1174.4,898.9,1170,898.6L1170,898.6z M1485.4,900.1
		c-0.2,3.6,2.2,4.5,4.4,5.8C1489.9,902.2,1487.5,901.3,1485.4,900.1z M1099.5,903C1098.6,900.9,1097.8,903.1,1099.5,903L1099.5,903z
		 M1099.5,903c-0.3,1.7,0.3,2.6,1.4,2.9C1101.2,904.2,1100.6,903.3,1099.5,903z M1100.9,905.8
		C1101.8,907.9,1102.7,905.7,1100.9,905.8L1100.9,905.8z M1489.7,905.8c-0.3,1.2,0.6,1.3,1.4,1.4
		C1491.4,906.1,1490.6,905.9,1489.7,905.8z M1491.1,907.3c-0.2,1.2,0.6,1.3,1.5,1.4C1492.9,907.5,1492,907.3,1491.1,907.3z
		 M1103.8,910.2C1103,908,1102.1,910.3,1103.8,910.2L1103.8,910.2z M1177.3,911.6C1178.6,905.6,1173,911.3,1177.3,911.6
		L1177.3,911.6z M1492.6,908.7c-0.3,3.6,2.2,4.5,4.3,5.7C1497.2,910.9,1494.7,910,1492.6,908.7z M1103.8,910.2
		c-0.3,1.7,0.3,2.5,1.5,2.9C1105.5,911.4,1105,910.5,1103.8,910.2z M1177.3,911.6c-0.3,1.2,0.6,1.3,1.5,1.4
		C1179,911.8,1178.1,911.6,1177.3,911.6z M1105.3,913C1106.1,915.1,1107,912.9,1105.3,913L1105.3,913z M1178.7,913
		c-0.3,1.7,0.3,2.6,1.4,2.9C1180.4,914.2,1179.8,913.3,1178.7,913z M1496.9,914.5c-0.3,1.2,0.5,1.4,1.4,1.5
		C1498.6,914.7,1497.8,914.5,1496.9,914.5z M1108.2,917.4C1107.2,915.3,1106.4,917.5,1108.2,917.4L1108.2,917.4z M1180.2,915.9
		C1181,918,1181.9,915.8,1180.2,915.9L1180.2,915.9z M1498.4,915.9c-0.2,3.6,2.2,4.5,4.3,5.8
		C1502.9,918.1,1500.5,917.2,1498.4,915.9z M1108.2,917.4c-0.3,1.6,0.3,2.5,1.4,2.9C1109.8,918.6,1109.3,917.7,1108.2,917.4z
		 M1181.6,920.2C1181,919.6,1182.5,921.2,1181.6,920.2L1181.6,920.2z M1109.6,920.2C1110.5,922.3,1111.3,920.1,1109.6,920.2
		L1109.6,920.2z M1432.1,921.7C1431.3,919.6,1430.4,921.8,1432.1,921.7L1432.1,921.7z M1432.1,921.7
		C1433,923.8,1433.9,921.5,1432.1,921.7L1432.1,921.7z M1502.7,921.7c-0.3,1.2,0.5,1.3,1.5,1.4
		C1504.4,921.9,1503.6,921.7,1502.7,921.7z M1504.1,923.1c-0.3,1.2,0.6,1.4,1.4,1.4C1505.8,923.3,1505,923.2,1504.1,923.1z
		 M1505.6,924.5c-0.3,1.2,0.5,1.4,1.4,1.5C1507.2,924.8,1506.5,924.6,1505.6,924.5z M1113.9,927.4
		C1113,925.4,1112.1,927.6,1113.9,927.4L1113.9,927.4z M1507,926c-0.2,1.2,0.6,1.3,1.4,1.4C1508.7,926.2,1507.9,926.1,1507,926z
		 M1113.9,927.4C1114.8,929.5,1115.6,927.3,1113.9,927.4L1113.9,927.4z M1508.4,927.4c-0.2,1.2,0.6,1.4,1.5,1.4
		C1510.2,927.7,1509.3,927.5,1508.4,927.4z M1509.9,928.9c0.9,5.3,5.3,7.2,8.6,10.1C1517.6,933.7,1513.2,931.8,1509.9,928.9z
		 M1115.4,931.8C1116.3,932.7,1114.8,931.1,1115.4,931.8L1115.4,931.8z M1188.8,931.8C1189.7,932.7,1188.2,931.1,1188.8,931.8
		L1188.8,931.8z M1191.7,934.6C1190.8,932.6,1189.9,934.8,1191.7,934.6L1191.7,934.6z M1858.3,937.5
		C1864.4,936,1858.3,930,1858.3,937.5L1858.3,937.5z M1191.7,934.6c-0.3,1.7,0.3,2.6,1.4,2.9
		C1193.3,935.8,1192.8,934.9,1191.7,934.6z M1193.1,937.5C1194,939.6,1194.9,937.4,1193.1,937.5L1193.1,937.5z M1856.9,940.4
		c1.4-0.1,1.1-1.8,1.4-2.9C1856.9,937.6,1857.2,939.2,1856.9,940.4z M1518.5,939c-0.2,1.2,0.6,1.3,1.5,1.4
		C1520.2,939.2,1519.4,939,1518.5,939z M1122.6,941.8C1121.6,939.7,1120.8,942,1122.6,941.8L1122.6,941.8z M1520,940.4
		c-0.3,1.2,0.6,1.4,1.5,1.4C1521.7,940.6,1520.8,940.5,1520,940.4z M1854,944.7c1.8-0.6,2.9-1.8,2.9-4.3
		C1855.1,941,1853.9,942.2,1854,944.7z M1122.6,941.8c-0.3,1.7,0.3,2.5,1.4,2.9C1124.2,943.1,1123.7,942.2,1122.6,941.8z
		 M1521.4,941.8c-0.3,1.2,0.5,1.4,1.4,1.4C1523.1,942.1,1522.3,941.9,1521.4,941.8z M1196,944.7
		C1196.9,945.7,1195.4,944.1,1196,944.7L1196,944.7z M1522.9,943.3c-0.3,1.2,0.5,1.4,1.4,1.4
		C1524.5,943.5,1523.7,943.3,1522.9,943.3z M1124,944.7C1124.9,946.8,1125.7,944.6,1124,944.7L1124,944.7z M1524.3,944.7
		c-0.2,1.2,0.6,1.4,1.4,1.4C1526,944.9,1525.1,944.8,1524.3,944.7z M1851.1,949c1.8-0.6,2.9-1.9,2.9-4.3
		C1852.2,945.3,1851.1,946.5,1851.1,949z M1525.7,946.1c-0.2,1.3,0.6,1.4,1.5,1.5C1527.4,946.4,1526.6,946.2,1525.7,946.1z
		 M1125.4,949C1124.8,948.4,1126.4,950,1125.4,949L1125.4,949z M1200.3,949C1199.4,946.9,1198.5,949.2,1200.3,949L1200.3,949z
		 M1527.2,947.6c-0.3,1.2,0.6,1.4,1.4,1.5C1528.9,947.8,1528,947.6,1527.2,947.6z M1528.6,949c-0.2,1.2,0.6,1.3,1.5,1.4
		C1530.3,949.2,1529.4,949.1,1528.6,949z M1128.3,951.9C1127.4,949.8,1126.6,952.1,1128.3,951.9L1128.3,951.9z M1530,950.4
		C1530.9,952.6,1531.8,950.3,1530,950.4L1530,950.4z M1128.3,951.9c-0.1,2.5,1.1,3.7,2.9,4.3
		C1131.3,953.8,1130.1,952.5,1128.3,951.9z M1534.4,954.8C1533.5,952.7,1532.6,955,1534.4,954.8L1534.4,954.8z M1534.4,954.8
		c-0.3,1.2,0.6,1.4,1.4,1.4C1536.1,955,1535.3,954.9,1534.4,954.8z M1131.2,956.2C1132.1,958.3,1132.9,956.1,1131.2,956.2
		L1131.2,956.2z M1447.9,956.2c-0.2,1.2,0.6,1.4,1.5,1.5C1449.7,956.5,1448.8,956.3,1447.9,956.2z M1535.8,956.2
		c-0.3,1.2,0.5,1.4,1.4,1.5C1537.5,956.5,1536.7,956.3,1535.8,956.2z M1537.2,957.7c-0.2,1.2,0.6,1.4,1.5,1.4
		C1538.9,957.9,1538.1,957.7,1537.2,957.7z M1538.7,959.1c-0.3,1.2,0.5,1.4,1.4,1.4C1540.4,959.3,1539.6,959.2,1538.7,959.1z
		 M1540.1,960.5c0,0.5,0,1,0,1.5c0.5,0,1,0,1.5,0C1541.8,960.8,1541,960.6,1540.1,960.5z M1846.8,964.9
		C1852.8,963.4,1846.8,957.3,1846.8,964.9L1846.8,964.9z M1135.5,963.5C1134.6,961.4,1133.7,963.6,1135.5,963.5L1135.5,963.5z
		 M1465.2,963.5C1464.4,961.4,1463.5,963.6,1465.2,963.5L1465.2,963.5z M1135.5,963.5c-0.2,1.6,0.3,2.5,1.4,2.9
		C1137.2,964.6,1136.6,963.7,1135.5,963.5z M1465.2,963.5c-0.2,1.2,0.6,1.3,1.5,1.4C1466.9,963.6,1466.1,963.5,1465.2,963.5z
		 M1466.7,964.9C1467.5,966.9,1468.4,964.7,1466.7,964.9L1466.7,964.9z M1846.8,964.9C1844.7,965.7,1846.9,966.6,1846.8,964.9
		L1846.8,964.9z M1136.9,966.3c-0.3,1.2,0.6,1.4,1.4,1.5C1138.6,966.6,1137.8,966.4,1136.9,966.3z M1138.4,967.8
		c-0.2,1.6,0.3,2.5,1.5,2.8C1140.1,968.9,1139.5,968.1,1138.4,967.8z M1843.9,969.2C1846.1,968.3,1843.8,967.4,1843.9,969.2
		L1843.9,969.2z M1841.1,973.5c1.8-0.6,2.9-1.8,2.9-4.3C1842.2,969.8,1841,971,1841.1,973.5z M1139.8,970.6
		C1140.7,972.7,1141.6,970.5,1139.8,970.6L1139.8,970.6z M1473.9,973.5C1473,971.4,1472.1,973.7,1473.9,973.5L1473.9,973.5z
		 M1142.7,975C1141.8,972.9,1141,975.1,1142.7,975L1142.7,975z M1473.9,973.5c-0.2,1.2,0.6,1.4,1.5,1.5
		C1475.6,973.7,1474.8,973.6,1473.9,973.5z M1839.6,975c1.3,0.3,1.4-0.6,1.5-1.5C1839.8,973.3,1839.7,974.1,1839.6,975z M1142.7,975
		C1143.6,977.1,1144.4,974.8,1142.7,975L1142.7,975z M1475.3,975c-0.2,1.2,0.6,1.4,1.4,1.4C1477,975.2,1476.2,975,1475.3,975z
		 M1839.6,975C1837.5,975.9,1839.8,976.7,1839.6,975L1839.6,975z M1476.7,976.4c-0.3,1.3,0.6,1.4,1.5,1.5
		C1478.5,976.6,1477.6,976.5,1476.7,976.4z M1145.6,979.3C1144.7,977.2,1143.8,979.4,1145.6,979.3L1145.6,979.3z M1478.2,977.8
		c-0.3,1.3,0.5,1.4,1.4,1.5C1479.9,978,1479.1,977.9,1478.2,977.8z M1751.8,980.7C1756.1,980.4,1750.4,974.7,1751.8,980.7
		L1751.8,980.7z M1836.7,979.3C1838.8,978.4,1836.6,977.5,1836.7,979.3L1836.7,979.3z M1145.6,979.3c-0.2,1.7,0.3,2.5,1.5,2.9
		C1147.3,980.5,1146.7,979.6,1145.6,979.3z M1479.6,979.3c-0.3,1.2,0.5,1.4,1.4,1.4C1481.3,979.5,1480.5,979.4,1479.6,979.3z
		 M1835.3,980.7c1.2,0.3,1.4-0.6,1.5-1.4C1835.5,979,1835.4,979.8,1835.3,980.7z M1481.1,980.7c-0.3,1.3,0.6,1.4,1.5,1.4
		C1482.8,980.9,1482,980.8,1481.1,980.7z M1835.3,980.7C1829.3,982.2,1835.3,988.2,1835.3,980.7L1835.3,980.7z M1147,982.1
		C1147.9,984.2,1148.7,982,1147,982.1L1147,982.1z M1482.5,982.1c-0.3,1.2,0.6,1.4,1.4,1.4C1484.2,982.4,1483.4,982.2,1482.5,982.1z
		 M1484,983.6c-0.3,1.2,0.5,1.3,1.4,1.4C1485.7,983.8,1484.9,983.7,1484,983.6z M1149.9,986.5C1149,984.4,1148.2,986.6,1149.9,986.5
		L1149.9,986.5z M1485.4,985c-0.2,1.2,0.6,1.4,1.5,1.5C1487.1,985.3,1486.2,985.1,1485.4,985z M1149.9,986.5
		c-0.2,1.7,0.3,2.5,1.5,2.9C1151.6,987.7,1151,986.8,1149.9,986.5z M1486.8,986.5c-0.3,1.2,0.6,1.3,1.4,1.4
		C1488.5,986.7,1487.7,986.6,1486.8,986.5z M1488.3,987.9c-0.3,1.2,0.6,1.4,1.5,1.4C1489.9,988.1,1489.2,988,1488.3,987.9z
		 M1833.9,989.3C1836,988.4,1833.7,987.6,1833.9,989.3L1833.9,989.3z M1151.4,989.3C1152.2,991.5,1153.1,989.2,1151.4,989.3
		L1151.4,989.3z M1489.7,989.3C1490.6,991.5,1491.4,989.2,1489.7,989.3L1489.7,989.3z M1833.9,989.3c-1.3-0.3-1.4,0.5-1.5,1.5
		C1833.6,991.1,1833.8,990.2,1833.9,989.3z M1154.2,993.7C1153.3,991.6,1152.5,993.8,1154.2,993.7L1154.2,993.7z M1154.2,993.7
		C1155.1,995.8,1156,993.5,1154.2,993.7L1154.2,993.7z M1157.1,998C1156.2,995.9,1155.4,998.1,1157.1,998L1157.1,998z M915.2,999.4
		C916.1,1000.4,914.6,998.9,915.2,999.4L915.2,999.4z M1157.1,998c-0.2,1.7,0.4,2.6,1.5,2.9C1158.8,999.2,1158.3,998.3,1157.1,998z
		 M908,1011c-2,3.7-3.8,6.7-4.3,10.1C909.5,1018.1,920.7,987.6,908,1011z M1158.5,1000.8C1159.4,1002.9,1160.3,1000.7,1158.5,1000.8
		L1158.5,1000.8z M1161.4,1005.2C1160.5,1003.1,1159.7,1005.3,1161.4,1005.2L1161.4,1005.2z M1161.4,1005.2
		c-0.2,1.7,0.3,2.6,1.5,2.9C1163.1,1006.4,1162.6,1005.5,1161.4,1005.2z M359.4,1011c0.4-1.9-0.9-5.6-1.5-2.9
		C357.6,1010,358.9,1013.7,359.4,1011z M1162.9,1008.1c-0.3,1.2,0.6,1.4,1.4,1.4C1164.6,1008.3,1163.7,1008.1,1162.9,1008.1z
		 M1164.3,1009.5c-0.2,1.7,0.4,2.6,1.4,2.9C1166,1010.7,1165.5,1009.8,1164.3,1009.5z M1165.7,1012.4c-0.3,1.2,0.6,1.3,1.5,1.5
		C1167.4,1012.6,1166.6,1012.5,1165.7,1012.4z M1528.6,1016.7C1526.7,1009.6,1520.6,1015.7,1528.6,1016.7L1528.6,1016.7z
		 M359.4,1015.3C358.2,1023.8,360.2,1009.5,359.4,1015.3L359.4,1015.3z M1167.2,1013.9c-0.3,1.6,0.3,2.5,1.4,2.8
		C1168.9,1015,1168.3,1014.2,1167.2,1013.9z M1168.6,1016.7c-0.1,2.5,1.1,3.7,2.8,4.3C1171.6,1018.6,1170.4,1017.3,1168.6,1016.7z
		 M1528.6,1016.7c3.6,5.1,8.2,9.1,14.5,11.5C1539.3,1023.3,1535.3,1018.7,1528.6,1016.7z M900.8,1026.8c1.9-0.9,2.7-3.1,2.9-5.8
		C901.2,1021.4,900.4,1023.5,900.8,1026.8z M1171.5,1021c0,2.5,1.1,3.7,2.9,4.3C1174.4,1022.9,1173.3,1021.6,1171.5,1021z
		 M1174.4,1025.4c0.4,3.3,1.5,6.2,4.3,7.2C1178.2,1029.2,1177.2,1026.3,1174.4,1025.4z M899.4,1029.6c1.4,0,1.1-1.8,1.4-2.9
		C899.4,1026.8,899.7,1028.6,899.4,1029.6z M1543,1028.2c-0.3,1.2,0.5,1.4,1.4,1.4C1544.7,1028.4,1543.9,1028.3,1543,1028.2z
		 M895,1036.9c2.8-1,3.9-3.8,4.3-7.2C896.5,1030.7,895.5,1033.5,895,1036.9z M1544.4,1029.6c4.8,5.8,11.5,9.6,18.7,13
		C1558.9,1036.3,1551.7,1033,1544.4,1029.6z M1178.7,1032.6c-0.1,2.4,1.1,3.7,2.8,4.3C1181.6,1034.4,1180.5,1033.1,1178.7,1032.6z
		 M1530,1036.9C1529.1,1034.8,1528.3,1037,1530,1036.9L1530,1036.9z M893.6,1039.7c1.4,0,1.1-1.7,1.4-2.8
		C893.6,1036.9,893.9,1038.6,893.6,1039.7z M1181.6,1036.9c0,2.5,1.1,3.7,2.9,4.3C1184.5,1038.7,1183.4,1037.4,1181.6,1036.9z
		 M1532.9,1038.3c-0.1-1.4-1.8-1.1-2.9-1.5C1530.1,1038.3,1531.8,1038,1532.9,1038.3z M1534.4,1039.7c0.2-1.2-0.5-1.3-1.4-1.4
		C1532.7,1039.5,1533.5,1039.7,1534.4,1039.7z M892.2,1042.6c1.4,0,1.1-1.8,1.4-2.9C892.2,1039.8,892.5,1041.5,892.2,1042.6z
		 M1119.7,1044.1C1119.7,1036.5,1113.6,1042.6,1119.7,1044.1L1119.7,1044.1z M1534.4,1039.7
		C1535.3,1041.8,1536.1,1039.6,1534.4,1039.7L1534.4,1039.7z M1540.1,1041.2C1541.1,1042.2,1539.5,1040.6,1540.1,1041.2
		L1540.1,1041.2z M1184.5,1041.2c-0.1,2.5,1.1,3.7,2.9,4.3C1187.4,1043,1186.3,1041.8,1184.5,1041.2z M1544.4,1042.6
		C1543.5,1040.5,1542.7,1042.8,1544.4,1042.6L1544.4,1042.6z M1568.9,1042.6c0.4,0.4,3.5-0.8,2.9-1.4
		C1571.4,1040.8,1568.2,1042,1568.9,1042.6z M886.4,1052.7c3.5-1.8,4.7-5.9,5.8-10.1C888.7,1044.4,887.5,1048.5,886.4,1052.7z
		 M1548.7,1045.5c-0.6-1.8-1.8-3-4.3-2.9c0,0.5,0,1,0,1.4c0.8,0,1.6,1.1,0,1.4c0.1,1.4,1.8,1.1,2.9,1.5
		C1547.4,1046.1,1547.5,1045.3,1548.7,1045.5z M1563.1,1042.6c1.8,3.5,5.9,4.7,10.1,5.8C1571.4,1044.9,1567.3,1043.7,1563.1,1042.6z
		 M1771.9,1044.1C1774,1043.2,1771.8,1042.3,1771.9,1044.1L1771.9,1044.1z M1161.4,1045.5
		C1160.5,1043.4,1159.7,1045.7,1161.4,1045.5L1161.4,1045.5z M1544.4,1045.5c0-0.5,0-0.9,0-1.4
		C1542.8,1044.3,1543.6,1045.5,1544.4,1045.5z M1771.9,1044.1C1769.9,1045,1772.1,1045.8,1771.9,1044.1L1771.9,1044.1z
		 M1161.4,1045.5C1162.3,1047.6,1163.1,1045.4,1161.4,1045.5L1161.4,1045.5z M1187.3,1045.5c-0.2,1.7,0.3,2.5,1.4,2.9
		C1189,1046.7,1188.5,1045.8,1187.3,1045.5z M1547.3,1047c1.1,1.3,2.6,2.2,4.3,2.9c0-0.8,1.2-1.6,1.5,0c1.4,0,2.8,0,4.3,0
		c-2-2.3-4.9-3.7-8.6-4.3C1549,1046.7,1548.2,1046.9,1547.3,1047z M1764.7,1048.4C1772.3,1048.4,1766.2,1042.3,1764.7,1048.4
		L1764.7,1048.4z M1164.3,1049.8C1163.4,1047.7,1162.6,1050,1164.3,1049.8L1164.3,1049.8z M1188.8,1048.4c-0.3,1.2,0.6,1.3,1.5,1.4
		C1190.5,1048.6,1189.7,1048.5,1188.8,1048.4z M1763.3,1049.8c1.2,0.3,1.3-0.6,1.4-1.4C1763.5,1048.1,1763.4,1048.9,1763.3,1049.8z
		 M1190.2,1049.8c-0.1,2.5,1.1,3.7,2.8,4.3C1193.2,1051.7,1192,1050.4,1190.2,1049.8z M1553.1,1049.8c-0.5,0-1,0-1.5,0
		C1551.9,1051.5,1553.1,1050.6,1553.1,1049.8z M1557.4,1049.8c1,2,3.1,2.7,5.8,2.9C1562.8,1050.2,1560.7,1049.4,1557.4,1049.8z
		 M1760.4,1051.3c1.7,0.2,2.6-0.3,2.9-1.4C1761.6,1049.6,1760.7,1050.2,1760.4,1051.3z M1760.4,1051.3
		C1758.3,1052.2,1760.6,1053,1760.4,1051.3L1760.4,1051.3z M886.4,1052.7C882.1,1053,887.8,1058.7,886.4,1052.7L886.4,1052.7z
		 M1753.2,1055.6C1760.8,1055.6,1754.7,1049.5,1753.2,1055.6L1753.2,1055.6z M1193.1,1054.1c-0.1,2.5,1.1,3.7,2.9,4.4
		C1196,1056,1194.9,1054.7,1193.1,1054.1z M1750.3,1057c1.7,0.2,2.6-0.3,2.9-1.5C1751.6,1055.4,1750.7,1055.9,1750.3,1057z
		 M1747.5,1058.5c1.7,0.2,2.5-0.3,2.9-1.5C1748.6,1056.8,1747.8,1057.3,1747.5,1058.5z M1196,1058.5c-0.3,1.2,0.6,1.3,1.5,1.4
		C1197.7,1058.7,1196.9,1058.6,1196,1058.5z M1744.6,1059.9c1.7,0.2,2.6-0.3,2.9-1.4C1745.8,1058.2,1744.9,1058.8,1744.6,1059.9z
		 M1197.4,1059.9c-0.2,1.7,0.3,2.6,1.4,2.9C1199.1,1061.1,1198.5,1060.2,1197.4,1059.9z M1744.6,1059.9
		C1738.6,1058.5,1744.3,1064.2,1744.6,1059.9L1744.6,1059.9z M1737.4,1062.8C1743.3,1064.2,1737.7,1058.5,1737.4,1062.8
		L1737.4,1062.8z M1198.9,1062.8c-0.3,1.2,0.5,1.3,1.4,1.4C1200.6,1063,1199.7,1062.9,1198.9,1062.8z M1737.4,1062.8
		c-0.9,0-1.9,0-2.9,0c0,0.5,0,0.9,0,1.4C1736.2,1064.4,1737,1063.9,1737.4,1062.8z M1753.2,1064.2c0.4,0.4,3.5-0.8,2.9-1.4
		C1755.7,1062.4,1752.5,1063.5,1753.2,1064.2z M1200.3,1064.2c0,2.5,1.1,3.7,2.9,4.3C1203.2,1066.1,1202.1,1064.8,1200.3,1064.2z
		 M1203.2,1068.6c-0.1,2.4,1,3.7,2.9,4.3C1206.1,1070.4,1205,1069.1,1203.2,1068.6z M1206.1,1072.9c-0.3,1.2,0.6,1.4,1.4,1.5
		C1207.8,1073.1,1206.9,1072.9,1206.1,1072.9z M1207.5,1074.3c-0.1,2.5,1.1,3.7,2.9,4.3C1210.4,1076.2,1209.3,1074.9,1207.5,1074.3z
		 M1200.3,1077.2C1201.2,1078.2,1199.7,1076.6,1200.3,1077.2L1200.3,1077.2z M1210.4,1078.6c2.3,5.8,5.3,11,10.1,14.4
		C1218.1,1087.2,1215.1,1082,1210.4,1078.6z M1691.3,1093C1693.4,1092.1,1691.1,1091.3,1691.3,1093L1691.3,1093z M1220.5,1093
		c-0.2,1.2,0.6,1.3,1.4,1.5C1222.1,1093.3,1221.3,1093.1,1220.5,1093z M1688.4,1097.4c1.7-0.6,2.9-1.9,2.9-4.3
		C1689.5,1093.7,1688.3,1094.8,1688.4,1097.4z M1504.1,1094.5C1505,1096.5,1505.8,1094.3,1504.1,1094.5L1504.1,1094.5z
		 M1476.7,1098.8c-0.9-2-3.1-2.7-5.7-2.9C1471.3,1098.5,1473.5,1099.2,1476.7,1098.8z M1688.4,1097.4
		C1686.4,1098.3,1688.6,1099.1,1688.4,1097.4L1688.4,1097.4z M1476.7,1098.8C1477.7,1100.9,1478.5,1098.6,1476.7,1098.8
		L1476.7,1098.8z M1684.1,1103.1C1686.2,1102.2,1684,1101.4,1684.1,1103.1L1684.1,1103.1z M861.9,1116.1
		C861.3,1115.4,862.9,1117,861.9,1116.1L861.9,1116.1z M860.5,1120.4C864.8,1120.1,859.1,1114.4,860.5,1120.4L860.5,1120.4z
		 M859,1123.3c1.4,0,1.1-1.8,1.4-2.9C859.1,1120.4,859.4,1122.1,859,1123.3z M859,1123.3C854.7,1123.5,860.4,1129.2,859,1123.3
		L859,1123.3z M1522.9,1124.7c2,2.2,5.6,3,10.1,2.9C1530.8,1125.4,1527.3,1124.5,1522.9,1124.7z M1537.2,1129
		c-0.2-1.7-2.6-1.2-4.3-1.4C1533.2,1129.3,1535.5,1128.8,1537.2,1129z M370.9,1129C369.5,1135,375.2,1129.3,370.9,1129L370.9,1129z
		 M1204.7,1188.1C1203.7,1186,1202.9,1188.2,1204.7,1188.1L1204.7,1188.1z M823.1,1190.9c-5.1,2.8-3.2,6.3-4.3,8.6
		c-3.5,7.4-15.3,33.6-8.6,24.5C814.3,1218.4,827.1,1188.7,823.1,1190.9z M807.2,1229.9C806.6,1229.2,808.2,1230.8,807.2,1229.9
		L807.2,1229.9z M1230.5,1229.9C1229.7,1227.8,1228.8,1230,1230.5,1229.9L1230.5,1229.9z M1230.5,1229.9c0,1.3,1.8,1.1,2.9,1.4
		C1233.4,1229.9,1231.7,1230.1,1230.5,1229.9z M794.3,1261.5c4.6,2.4,11.4-30.2,11.5-30.2C804.4,1231.2,793.2,1256.8,794.3,1261.5z
		 M1233.4,1231.2c-0.3,1.2,0.5,1.4,1.4,1.5C1235.1,1231.5,1234.3,1231.3,1233.4,1231.2z M1234.9,1232.7c0,1.4,1.8,1.1,2.9,1.4
		C1237.7,1232.7,1236,1233,1234.9,1232.7z M1237.7,1234.1c-0.2,1.2,0.6,1.4,1.5,1.5C1239.5,1234.3,1238.6,1234.2,1237.7,1234.1z
		 M1239.2,1235.6c0,1.4,1.8,1.1,2.9,1.4C1242,1235.6,1240.3,1235.9,1239.2,1235.6z M1242,1237c-0.2,1.2,0.6,1.3,1.4,1.4
		C1243.8,1237.2,1242.9,1237.1,1242,1237z M1252.1,1237c-0.5,0-1,0-1.4,0C1251,1238.7,1252.1,1237.8,1252.1,1237z M1214.7,1242.8
		C1213.8,1240.7,1213,1242.9,1214.7,1242.8L1214.7,1242.8z M1214.7,1242.8c-0.3,1.2,0.6,1.3,1.4,1.4
		C1216.4,1243,1215.6,1242.9,1214.7,1242.8z M794.3,1261.5C789.9,1261.8,795.6,1267.5,794.3,1261.5L794.3,1261.5z M1531.5,1286
		c1.2,0.3,1.3-0.6,1.5-1.5c-0.5,0-1,0-1.5,0C1531.5,1285,1531.5,1285.5,1531.5,1286z M1530,1287.4c1.2,0.3,1.4-0.5,1.4-1.4
		C1530.3,1285.7,1530.1,1286.6,1530,1287.4 M422.7,1291.7C421.9,1289.7,421,1291.9,422.7,1291.7L422.7,1291.7z M422.7,1291.7
		c-0.3,1.2,0.6,1.3,1.4,1.4C424.5,1291.9,423.6,1291.8,422.7,1291.7z M424.2,1293.2c-0.2,1.7,0.4,2.6,1.4,2.9
		C425.9,1294.4,425.3,1293.5,424.2,1293.2z M425.6,1296.1c-0.3,1.2,0.6,1.3,1.4,1.4C427.3,1296.2,426.5,1296.1,425.6,1296.1z
		 M427.1,1297.5C425.7,1303.5,431.4,1297.8,427.1,1297.5L427.1,1297.5z M437.2,1311.9C437.2,1304.3,431.1,1310.4,437.2,1311.9
		L437.2,1311.9z M828.8,1326.3c-0.1,0.1-2.5,0.4-1.4,1.4C830.9,1331.2,834,1321.1,828.8,1326.3z M812.9,1346.5
		c-0.1,0.1-2.5,0.4-1.4,1.5C815.1,1351.4,818.2,1341.3,812.9,1346.5z M860.5,1353.6c-2.2,0.8-7.8,2.2-5.8,4.3
		C856.8,1360.1,868,1350.8,860.5,1353.6z M811.5,1356.5c-0.1,0.2-2.7,1.6-1.4,2.9C813.2,1362.5,816.1,1349.9,811.5,1356.5z
		 M424.2,1368C423.3,1366,422.5,1368.2,424.2,1368L424.2,1368z M107.4,1369.5C106.5,1367.4,105.7,1369.6,107.4,1369.5L107.4,1369.5z
		 M424.2,1368c-0.3,1.3,0.6,1.4,1.4,1.5C425.9,1368.3,425.1,1368.1,424.2,1368z M425.6,1369.5c1.4,5.8,6.3,8.1,10.1,11.5
		C434.3,1375.2,429.4,1372.9,425.6,1369.5z M800,1375.2c-2.7,0.6-7.1,4.4-5.7,5.8C796.9,1383.7,804.9,1374.2,800,1375.2z
		 M608.5,1378.1C610.6,1377.2,608.3,1376.4,608.5,1378.1L608.5,1378.1z M435.7,1381C436.6,1383.1,437.4,1380.8,435.7,1381
		L435.7,1381z M823.1,1383.9c-0.1,0.2-2.7,1.6-1.5,2.9C826.7,1391.9,829.2,1375.7,823.1,1383.9z M787.1,1386.8
		c-3.7,0.6-16.7,9.2-15.9,10.1C773,1398.6,797.8,1385.1,787.1,1386.8z M789.9,1391.1C803.8,1389.3,797.3,1381.2,789.9,1391.1
		L789.9,1391.1z M789.9,1391.1C787.9,1392,790.1,1392.8,789.9,1391.1L789.9,1391.1z M464.5,1396.9c0.2-1.3-0.6-1.4-1.5-1.5
		C462.8,1396.6,463.6,1396.7,464.5,1396.9z M464.5,1396.9C465.4,1398.9,466.3,1396.7,464.5,1396.9L464.5,1396.9z M476,1401.2
		c-0.7-1.8-1.9-2.9-4.3-2.9C472.3,1400.1,473.6,1401.3,476,1401.2z M477.5,1402.6c0.3-1.2-0.6-1.3-1.4-1.5
		C475.8,1402.4,476.6,1402.5,477.5,1402.6z M484.7,1408.4c-1.9-2.5-3-5.7-7.2-5.8C479.3,1405,480.5,1408.3,484.7,1408.4z
		 M775.5,1406.9C777.6,1406,775.4,1405.2,775.5,1406.9L775.5,1406.9z M775.5,1406.9c-1.7-0.2-2.6,0.4-2.9,1.5
		C774.3,1408.6,775.2,1408,775.5,1406.9z M491.9,1414.1c-1.9-2.5-3-5.7-7.2-5.7C485.2,1412.2,488.4,1413.2,491.9,1414.1z
		 M772.7,1408.4C762,1408.2,768.2,1414.4,772.7,1408.4L772.7,1408.4z M507.7,1412.7C508.6,1414.8,509.5,1412.5,507.7,1412.7
		L507.7,1412.7z M501.9,1421.3c-2.1-3.6-5.6-6-10.1-7.2C494,1417.8,497.4,1420.1,501.9,1421.3z M769.8,1415.5
		C771.9,1414.6,769.6,1413.8,769.8,1415.5L769.8,1415.5z M766.9,1417c1.7,0.3,2.6-0.3,2.9-1.4C768.1,1415.3,767.2,1415.8,766.9,1417
		z M766.9,1417C759.3,1417,765.4,1423.1,766.9,1417L766.9,1417z M568.2,1418.4C569.9,1422.8,575.8,1416.9,568.2,1418.4L568.2,1418.4
		z M779.8,1419.9c-3.4,0.4-9.7,5.1-7.2,5.8C775.6,1426.4,787.4,1419,779.8,1419.9z M578.3,1421.3
		C576.6,1417,570.6,1422.9,578.3,1421.3L578.3,1421.3z M501.9,1421.3c0.6,1.7,1.8,2.9,4.3,2.8
		C505.7,1422.4,504.5,1421.3,501.9,1421.3z M578.3,1421.3C581.4,1425.7,587.5,1419.7,578.3,1421.3L578.3,1421.3z M512,1432.8
		C511.1,1430.7,510.3,1433,512,1432.8L512,1432.8z M514.9,1434.3c0-1.4-1.8-1.1-2.9-1.5C512.1,1434.3,513.8,1433.9,514.9,1434.3z
		 M514.9,1434.3C515.8,1436.4,516.7,1434.1,514.9,1434.3L514.9,1434.3z M478.9,1445.8C478,1443.7,477.2,1445.9,478.9,1445.8
		L478.9,1445.8z M513.5,1464.5c-11.2-6.6-22.6-12.9-34.5-18.8C488.3,1454.2,499.8,1460.4,513.5,1464.5z M480.3,1457.3
		C478.9,1451.3,472.8,1457.3,480.3,1457.3L480.3,1457.3z M512,1458.8C511.7,1454.4,506,1460.2,512,1458.8L512,1458.8z M514.9,1460.2
		c0-1.4-1.8-1.1-2.9-1.4C512.1,1460.2,513.8,1459.8,514.9,1460.2z M779.8,1460.2C782,1459.3,779.7,1458.4,779.8,1460.2L779.8,1460.2
		z M517.8,1461.7c0-1.4-1.8-1.1-2.9-1.5C514.9,1461.6,516.7,1461.3,517.8,1461.7z M779.8,1460.2
		C777.8,1461.1,780,1461.9,779.8,1460.2L779.8,1460.2z M520.7,1463.1c0-1.4-1.8-1.2-2.9-1.4C517.8,1463,519.6,1462.8,520.7,1463.1z
		 M520.7,1463.1C520.9,1467.3,526.6,1461.7,520.7,1463.1L520.7,1463.1z M513.5,1464.5c3.5,3.2,8.3,5.1,14.4,5.7
		C524.1,1467.3,519.3,1465.4,513.5,1464.5z M762.6,1466C768.5,1467.3,762.9,1461.7,762.6,1466L762.6,1466z M533.6,1468.8
		C533.3,1464.5,527.7,1470.2,533.6,1468.8L533.6,1468.8z M586.9,1467.4C582.6,1467.6,588.3,1473.4,586.9,1467.4L586.9,1467.4z
		 M538,1470.3c-0.3-1.7-2.7-1.2-4.3-1.5C533.9,1470.5,536.3,1470,538,1470.3z M532.2,1471.7c-0.2-1.7-2.6-1.2-4.3-1.4
		C528.1,1472,530.5,1471.5,532.2,1471.7z M538,1470.3C538.2,1474.6,543.9,1468.9,538,1470.3L538,1470.3z M791.4,1471.7
		c0.4,0.4,3.5-0.7,2.9-1.4C793.9,1469.9,790.7,1471,791.4,1471.7z M536.5,1473.1c-0.2-1.6-2.6-1.2-4.3-1.4
		C532.4,1473.4,534.8,1473,536.5,1473.1z M576.8,1473.1C576.2,1472.5,577.8,1474.1,576.8,1473.1L576.8,1473.1z M542.3,1474.6
		c-0.4-2-3.6-1.2-5.8-1.5C537,1475.1,540.1,1474.3,542.3,1474.6z M769.8,1474.6C770.7,1475.5,769.2,1474,769.8,1474.6L769.8,1474.6z
		 M575.4,1481.8c8.7-1.2-2.6-0.6-5.8-1.4c-2-0.5-18.2-5.4-27.3-5.8C552,1478.2,567.8,1482.9,575.4,1481.8z M768.3,1478.9
		C776.9,1475.2,756.1,1484.2,768.3,1478.9L768.3,1478.9z M788.5,1478.9c-2.7-2.7-11.3,6.7-15.8,8.6
		C775.3,1490.2,790.1,1480.5,788.5,1478.9z M742.4,1493.3c1.7,0.2,2.6-0.4,2.9-1.5c-1,0-1.9,0-2.9,0
		C742.4,1492.3,742.4,1492.9,742.4,1493.3z M742.4,1493.3C740.3,1494.2,742.6,1495,742.4,1493.3L742.4,1493.3z M768.3,1499.1
		C774,1493.4,764.3,1503.1,768.3,1499.1L768.3,1499.1z M486.1,1506.3c0-1.4-1.7-1.1-2.8-1.5C483.3,1506.2,485,1506,486.1,1506.3z
		 M486.1,1506.3c0,0.5,0,1,0,1.5c1,0,2,0,2.9,0C489,1506.3,487.2,1506.6,486.1,1506.3z M491.9,1509.1c0-1.4-1.8-1.1-2.9-1.4
		C489,1509.1,490.8,1508.9,491.9,1509.1z M494.8,1510.6c0-1.4-1.8-1.1-2.9-1.5C491.9,1510.6,493.6,1510.3,494.8,1510.6z
		 M494.8,1510.6c0,0.5,0,1,0,1.5c0.9,0,1.9,0,2.9,0C497.6,1510.6,495.9,1510.9,494.8,1510.6z M739.5,1565.3
		C745.5,1566.7,739.8,1561,739.5,1565.3L739.5,1565.3z M234.1,1608.5C233.2,1606.4,232.4,1608.7,234.1,1608.5L234.1,1608.5z
		 M234.1,1608.5c-0.3,1.2,0.5,1.4,1.4,1.5C235.8,1608.7,235,1608.6,234.1,1608.5z M235.6,1609.9c-0.3,1.2,0.6,1.4,1.4,1.4
		C237.3,1610.2,236.5,1610,235.6,1609.9z M237,1611.4c-0.3,1.2,0.6,1.4,1.4,1.4C238.7,1611.6,237.9,1611.5,237,1611.4z
		 M238.5,1612.8c-0.3,1.2,0.6,1.4,1.4,1.5C240.1,1613,239.3,1612.9,238.5,1612.8z M239.9,1614.3c-0.2,1.2,0.6,1.4,1.4,1.5
		C241.6,1614.5,240.8,1614.3,239.9,1614.3z M241.3,1615.7c-0.3,1.2,0.6,1.3,1.4,1.4C243,1615.9,242.2,1615.8,241.3,1615.7z
		 M696.3,1640.2C702.3,1641.6,696.6,1635.9,696.3,1640.2L696.3,1640.2z"/>
</g>
</svg>
